<svg preserveAspectRatio="none" width="100%" height="100%" viewBox="0 0 750 200" xmlns="http://www.w3.org/2000/svg"><g fill="none" fill-rule="evenodd" transform="translate(116 46)"><path d="m195.34 39.36c3.220016 0 6.113321.699993 8.68 2.1 2.56668 1.400007 4.573326 3.4416532 6.02 6.125 1.446674 2.6833467 2.17 5.9149811 2.17 9.695v17.22c0 1.0266718-.33833 1.8783299-1.015 2.555-.67667.67667-1.528328 1.015-2.555 1.015s-1.87833-.33833-2.555-1.015c-.67667-.6766701-1.015-1.5283282-1.015-2.555v-17.22c0-3.7800189-1.01499-6.6383237-3.045-8.575-2.03001-1.9366764-4.724983-2.905-8.085-2.905-1.96001 0-3.744992.3966627-5.355 1.19s-2.869995 1.8666599-3.78 3.22-1.365 2.8699916-1.365 4.55v19.74c0 1.0266718-.326663 1.8783299-.98 2.555-.653337.67667-1.516661 1.015-2.59 1.015-1.026672 0-1.87833-.33833-2.555-1.015-.67667-.6766701-1.015-1.5283282-1.015-2.555v-31.22c0-1.0733387.33833-1.9366634 1.015-2.59s1.528328-.98 2.555-.98c1.073339 0 1.936663.3266634 2.59.98s.98 1.5166613.98 2.59v.77c1.493341-1.4933408 3.266656-2.6483293 5.32-3.465 2.053344-.8166708 4.246655-1.225 6.58-1.225zm63.07 18.9c0 .8866711-.30333 1.6216638-.91 2.205-.60667.5833363-1.376662.875-2.31.875h-26.6c.513336 3.266683 1.994988 5.9033233 4.445 7.91s5.448316 3.01 8.995 3.01c1.400007 0 2.858326-.2566641 4.375-.77s2.764995-1.1433296 3.745-1.89c.653337-.5133359 1.423329-.77 2.31-.77s1.586664.233331 2.1.7c.840004.7000035 1.26 1.4933289 1.26 2.38 0 .8400042-.37333 1.5399972-1.12 2.1-1.586675 1.2600063-3.558322 2.2866627-5.915 3.08s-4.608323 1.19-6.755 1.19c-3.826686 0-7.256652-.8283251-10.29-2.485-3.033348-1.656675-5.401658-3.9549853-7.105-6.895s-2.555-6.276648-2.555-10.01.804992-7.0816518 2.415-10.045 3.849986-5.273325 6.72-6.93c2.870014-1.6566749 6.124982-2.485 9.765-2.485 3.593351 0 6.696654.7933254 9.31 2.38s4.619993 3.8033191 6.02 6.65 2.1 6.1133149 2.1 9.8zm-17.43-12.81c-3.406684 0-6.171656.933324-8.295 2.8s-3.464997 4.3633177-4.025 7.49h23.31c-.420002-3.1266823-1.586657-5.623324-3.5-7.49s-4.409985-2.8-7.49-2.8zm27.23-2.17c0-1.0733387.33833-1.9366634 1.015-2.59s1.528328-.98 2.555-.98c1.073339 0 1.936663.3266634 2.59.98s.98 1.5166613.98 2.59v31.15c0 1.0266718-.326663 1.87833-.98 2.555s-1.516661 1.015-2.59 1.015c-1.026672 0-1.87833-.33833-2.555-1.015s-1.015-1.5283282-1.015-2.555zm3.57-19.04c1.260006 0 2.344995.4549954 3.255 1.365s1.365 1.9949937 1.365 3.255-.454995 2.3449954-1.365 3.255c-.910005.9100045-1.994994 1.365-3.255 1.365s-2.344995-.4549955-3.255-1.365c-.910005-.9100046-1.365-1.9949937-1.365-3.255s.454995-2.3449954 1.365-3.255 1.994994-1.365 3.255-1.365zm34.23 15.19c3.686685 0 6.988319.828325 9.905 2.485s5.203325 3.9549853 6.86 6.895 2.485 6.2999811 2.485 10.08v15.12c0 3.6866851-.816658 7.0466515-2.45 10.08-1.633341 3.0333485-3.931652 5.4249912-6.895 7.175s-6.311648 2.625-10.045 2.625c-3.360017 0-6.486652-.6649934-9.38-1.995-2.893348-1.3300067-5.31999-3.2316543-7.28-5.705-.513336-.6533366-.77-1.3066634-.77-1.96 0-.9800049.489995-1.8199965 1.47-2.52.653337-.4200021 1.306663-.63 1.96-.63 1.166673 0 2.12333.4899951 2.87 1.47 1.260006 1.6333415 2.846657 2.8816623 4.76 3.745s4.083321 1.295 6.51 1.295c2.286678 0 4.363324-.5483279 6.23-1.645s3.359994-2.706656 4.48-4.83c1.120006-2.1233439 1.68-4.6549853 1.68-7.595v-3.43c-1.446674 2.5666795-3.359988 4.5733261-5.74 6.02s-5.063318 2.17-8.05 2.17c-3.453351 0-6.544986-.8283251-9.275-2.485-2.730014-1.656675-4.853326-3.9549853-6.37-6.895s-2.275-6.276648-2.275-10.01c0-3.7800189.816659-7.1399853 2.45-10.08 1.633342-2.9400147 3.919985-5.238325 6.86-6.895s6.276648-2.485 10.01-2.485zm0 32.55c2.380012 0 4.514991-.5599944 6.405-1.68s3.359995-2.6716567 4.41-4.655c1.050005-1.9833432 1.575-4.2349874 1.575-6.755s-.524995-4.7833233-1.575-6.79-2.519991-3.5699944-4.41-4.69-4.024988-1.68-6.405-1.68-4.514991.5599944-6.405 1.68-3.371661 2.6833233-4.445 4.69-1.61 4.2699874-1.61 6.79.536661 4.7716568 1.61 6.755c1.073339 1.9833433 2.554991 3.5349944 4.445 4.655s4.024988 1.68 6.405 1.68zm48.93-32.62c3.220016 0 6.113321.699993 8.68 2.1 2.56668 1.400007 4.573326 3.4416532 6.02 6.125 1.446674 2.6833467 2.17 5.9149811 2.17 9.695v17.22c0 1.0266718-.33833 1.8783299-1.015 2.555-.67667.67667-1.528328 1.015-2.555 1.015s-1.87833-.33833-2.555-1.015c-.67667-.6766701-1.015-1.5283282-1.015-2.555v-17.22c0-3.7800189-1.01499-6.6383237-3.045-8.575-2.03001-1.9366764-4.724983-2.905-8.085-2.905-1.96001 0-3.744992.3966627-5.355 1.19s-2.869995 1.8666599-3.78 3.22-1.365 2.8699916-1.365 4.55v19.74c0 1.0266718-.326663 1.8783299-.98 2.555-.653337.67667-1.516661 1.015-2.59 1.015-1.026672 0-1.87833-.33833-2.555-1.015-.67667-.6766701-1.015-1.5283282-1.015-2.555v-47.6c0-1.0733387.33833-1.9366634 1.015-2.59s1.528328-.98 2.555-.98c1.073339 0 1.936663.3266634 2.59.98s.98 1.5166613.98 2.59v17.15c1.493341-1.4933408 3.266656-2.6483293 5.32-3.465 2.053344-.8166708 4.246655-1.225 6.58-1.225zm32.34-16.03c1.026672 0 1.87833.3266634 2.555.98s1.015 1.5166613 1.015 2.59v18.9c1.633342-2.0066767 3.616655-3.5699944 5.95-4.69s4.85332-1.68 7.56-1.68c3.360017 0 6.404986.8399916 9.135 2.52s4.876659 4.0016518 6.44 6.965c1.563341 2.9633481 2.345 6.2649818 2.345 9.905s-.839992 6.9416518-2.52 9.905c-1.680008 2.9633481-4.001652 5.2966582-6.965 7-2.963348 1.7033419-6.241649 2.555-9.835 2.555s-6.848319-.8516581-9.765-2.555c-2.916681-1.7033418-5.226658-4.0366519-6.93-7-1.703342-2.9633482-2.555-6.2649818-2.555-9.905v-31.92c0-1.0733387.326663-1.9366634.98-2.59s1.516661-.98 2.59-.98zm15.68 48.65c2.333345 0 4.444991-.571661 6.335-1.715s3.383328-2.7183233 4.48-4.725 1.645-4.2466543 1.645-6.72-.548328-4.7016568-1.645-6.685-2.589991-3.5466609-4.48-4.69-4.001655-1.715-6.335-1.715-4.444991.5716609-6.335 1.715-3.371661 2.7066568-4.445 4.69-1.61 4.2116543-1.61 6.685.536661 4.7133233 1.61 6.72 2.554991 3.581661 4.445 4.725 4.001655 1.715 6.335 1.715zm47.32-32.55c3.686685 0 6.988319.8283251 9.905 2.485 2.916681 1.656675 5.203325 3.9549853 6.86 6.895s2.485 6.2999811 2.485 10.08c0 3.733352-.816658 7.0699853-2.45 10.01-1.633341 2.9400147-3.908319 5.238325-6.825 6.895-2.916681 1.6566749-6.241648 2.485-9.975 2.485s-7.069985-.8283251-10.01-2.485c-2.940015-1.656675-5.226659-3.9549853-6.86-6.895-1.633342-2.9400147-2.45-6.276648-2.45-10.01 0-3.7800189.816658-7.1399853 2.45-10.08 1.633341-2.9400147 3.919985-5.238325 6.86-6.895 2.940015-1.6566749 6.276648-2.485 10.01-2.485zm0 6.3c-2.380012 0-4.514991.5599944-6.405 1.68s-3.371661 2.6833233-4.445 4.69-1.61 4.2699874-1.61 6.79.536661 4.7716568 1.61 6.755c1.073339 1.9833433 2.554991 3.5349944 4.445 4.655s4.024988 1.68 6.405 1.68 4.514991-.5599944 6.405-1.68 3.359995-2.6716567 4.41-4.655c1.050005-1.9833432 1.575-4.2349874 1.575-6.755s-.524995-4.7833233-1.575-6.79-2.519991-3.5699944-4.41-4.69-4.024988-1.68-6.405-1.68zm48.65-6.44c2.473346 0 4.409993.3733296 5.81 1.12s2.1 1.6799944 2.1 2.8c0 .3266683-.023333.5599993-.07.7-.420002 1.4933408-1.353326 2.24-2.8 2.24-.233334 0-.583331-.0466662-1.05-.14-1.866676-.3266683-3.383327-.49-4.55-.49-3.360017 0-6.066656.7699923-8.12 2.31s-3.08 3.6166536-3.08 6.23v20.44c0 1.1200056-.291664 1.9833303-.875 2.59s-1.458327.91-2.625.91c-1.120006 0-1.98333-.2916637-2.59-.875s-.91-1.4583275-.91-2.625v-31.29c0-1.1200056.30333-1.9833303.91-2.59s1.469994-.91 2.59-.91c2.333345 0 3.5 1.166655 3.5 3.5v1.33c1.400007-1.6333415 3.126656-2.916662 5.18-3.85s4.246655-1.4 6.58-1.4z" fill="#33312e" fill-rule="nonzero"/><g transform="translate(0 4)"><path d="m118.362312 24.2286458c0-8.4605319 6.573352-15.74999995 15.815515-15.74999995 9.242164 0 15.659895 7.55551335 15.659895 15.74999995v55.1021249c0 8.3906832-7.187156 15.7728751-15.737705 15.7728751-8.55055 0-15.737705-7.1192081-15.737705-15.7728751s0-46.6415929 0-55.1021249z" fill="#ff8552"/><path d="m134.946876 33.2733432 9.202158 35.3107944-12.834195 12.8341948-2.584326-41.9286261z" fill="#33312e" fill-opacity=".503196" transform="matrix(.70710678 -.70710678 .70710678 .70710678 -.587347 113.273696)"/><path d="m91.4278383 14.386568c.0033023-8.4572297 6.5820672-15.7464202 15.8278407-15.75003042 9.245774-.00361022 15.663063 7.5464471 15.659864 15.73773532-.003198 8.1912882-.026399 67.6077699-.029674 75.995178-.003275 8.3874082-7.196119 15.7695261-15.750009 15.7728661-8.5538891.00334-15.7410735-7.1102817-15.7376958-15.760571s.0263718-67.5379483.0296741-75.995178z" fill="#17a398" transform="matrix(.70710678 -.70710678 .70710678 .70710678 -5.659403 91.115846)"/><path d="m35.9320687 12.1344107c-.0033024-8.4572297 6.5697721-15.74128476 15.8155458-15.73767454 9.2457736.00361022 15.6689606 7.55868139 15.6721591 15.74996964.0031984 8.1912882-1.8283074 69.4624761-1.8250323 77.8498843.003275 8.3874082-7.1838066 15.7639109-15.737696 15.7605709s-15.7466312-7.1225766-15.7500089-15.772866c-.0033777-8.6502893 1.8283346-69.3926546 1.8250323-77.8498843z" fill="#1b9653" transform="matrix(.70710678 .70710678 -.70710678 .70710678 50.985114 -20.935056)"/></g></g></svg>