<svg preserveAspectRatio="none" width="100%" height="100%" viewBox="0 0 614 211" xmlns="http://www.w3.org/2000/svg" xmlns:xlink="http://www.w3.org/1999/xlink"><defs><rect id="a" height="162" rx="4" width="270"/><rect id="b" height="162" rx="4" width="270"/><mask id="c" fill="#fff"><use fill="#fff" fill-rule="evenodd" xlink:href="#a"/></mask><mask id="d" fill="#fff"><use fill="#fff" fill-rule="evenodd" xlink:href="#b"/></mask></defs><g fill="none" fill-rule="evenodd"><g transform="translate(25 25)"><use fill="#fff" xlink:href="#a"/><g mask="url(#c)"><g transform="translate(-67 33)"><path d="m154.578024 33.030576c0-11.0769419 8.584622-20.6206696 20.654641-20.6206696s20.451405 9.8920472 20.451405 20.6206696v72.142395c0 10.985492-9.386234 20.650619-20.553023 20.650619-11.16679 0-20.553023-9.320816-20.553023-20.650619 0-11.3298041 0-61.065453 0-72.142395z" fill="#ff8552"/><path d="m176.276248 44.9087867 11.975012 46.1577159-16.803155 16.8031554-3.310623-54.8221049z" fill="#33312e" fill-opacity=".503196" transform="matrix(.70710678 -.70710678 .70710678 .70710678 -1.823414 148.376333)"/><path d="m119.438747 20.2328526c.018169-11.05877284 8.632573-20.60097374 20.722456-20.6208369 12.089882-.01986315 20.468835 9.84216564 20.451237 20.5531903-.017598 10.7110247-.145245 88.404714-.163264 99.372187-.018019 10.967474-9.435553 20.632193-20.620719 20.65057s-20.571558-9.271703-20.552974-20.582923.145095-88.3134145.163264-99.3721874z" fill="#17a398" transform="matrix(.70710678 -.70710678 .70710678 .70710678 -8.438118 119.428557)"/><path d="m46.8382185 17.2356657c-.0181691-11.05877289 8.5649265-20.57271904 20.6548087-20.55285588 12.0898823.01986315 20.5012863 9.90947778 20.518884 20.62050248.0175978 10.7110246-2.2769518 90.8269107-2.2589327 101.7943847.018019 10.967473-9.3678078 20.6013-20.552974 20.582923s-20.6021349-9.33935-20.6207188-20.65057c-.0185838-11.31122 2.2771019-90.7356115 2.2589328-101.7943843z" fill="#1b9653" transform="matrix(.70710678 .70710678 -.70710678 .70710678 67.629281 -26.908102)"/></g></g><g mask="url(#c)"><g transform="translate(9 9)"><path d="m0 144h252v-144h-252z" stroke="#1b9653"/><g stroke="#000" stroke-width=".6"><path d="m239.0129 9h-227.519" stroke-dasharray="1.991 2.987" stroke-linecap="round"/><path d="m243 130.9753v-119.476" stroke-dasharray="2.016 3.025" stroke-linecap="round"/><path d="m9 130.9562v-119.476" stroke-dasharray="2.016 3.025"/><path d="m239.0127 135h-227.531" stroke-dasharray="1.992 2.987"/><path d="m243 135v-1" stroke-linecap="round"/><path d="m9 134.981v-1"/><path d="m243 135h-1"/><path d="m9.9877 135h-1"/><path d="m243 9h-1" stroke-linecap="round"/><path d="m10 9h-1" stroke-linecap="round"/><path d="m243 9.9867v-1" stroke-linecap="round"/><path d="m9 9.9676v-1"/></g></g></g><g fill-rule="nonzero" mask="url(#c)"><g transform="translate(151 65)"><path d="m5.4 4.508c.60800304 0 1.13399778.0799992 1.578.24s.89399772.42399816 1.35.792c.09600048.07200036.15999984.14599962.192.222s.048.16599948.048.27c0 .1600008-.05799942.29199948-.174.396s-.24999924.156-.402.156-.29199936-.05199948-.42-.156c-.32800164-.2800014-.64799844-.48199938-.96-.606s-.71599752-.186-1.212-.186c-.62400312 0-1.19799738.16399836-1.722.492s-.93999846.77399718-1.248 1.338-.462 1.17799668-.462 1.842c0 .67200336.15399846 1.2879972.462 1.848s.72399738 1.0039984 1.248 1.332 1.09799688.492 1.722.492c.76800384 0 1.50399648-.2639974 2.208-.792.13600068-.0960005.26799936-.144.396-.144.15200076 0 .2779995.0539995.378.162s.15.2499991.15.426c0 .1680008-.06399936.3159994-.192.444-.86400432.6960035-1.84399452 1.044-2.94 1.044-.85600428 0-1.63799646-.2119979-2.346-.636s-1.26599796-1.0039963-1.674-1.74-.612-1.5479956-.612-2.436c0-.8800044.20399796-1.68599634.612-2.418s.96599646-1.31199786 1.674-1.74 1.48999572-.642 2.346-.642zm8.6478521 2.868c.5520028 0 1.0479978.1199988 1.488.36s.7839988.5899977 1.032 1.05.372 1.01399676.372 1.662v2.952c0 .1760009-.0579994.3219994-.174.438s-.2619991.174-.438.174-.3219994-.0579994-.438-.174-.174-.2619991-.174-.438v-2.952c0-.64800324-.1739983-1.13799834-.522-1.47s-.8099971-.498-1.386-.498c-.3360017 0-.6419986.06799932-.918.204s-.4919992.31999884-.648.552-.234.49199856-.234.78v3.384c0 .1760009-.0559994.3219994-.168.438s-.2599991.174-.444.174c-.1760009 0-.3219994-.0579994-.438-.174s-.174-.2619991-.174-.438v-8.16c0-.18400092.0579994-.33199944.174-.444s.2619991-.168.438-.168c.1840009 0 .3319994.05599944.444.168s.168.25999908.168.444v2.94c.2560013-.25600128.5599982-.4539993.912-.594s.727998-.21 1.128-.21zm8.5278521-.012c.4240021 0 .7559988.06399936.996.192s.36.28799904.36.48c0 .05600028-.004.09599988-.012.12-.0720004.25600128-.2319988.384-.48.384-.0400002 0-.0999996-.00799992-.18-.024-.3200016-.05600028-.579999-.084-.78-.084-.5760029 0-1.0399982.13199868-1.392.396s-.528.61999776-.528 1.068v3.504c0 .192001-.0499995.3399995-.15.444s-.249999.156-.45.156c-.192001 0-.3399995-.0499995-.444-.15s-.156-.249999-.156-.45v-5.364c0-.19200096.0519995-.33999948.156-.444s.251999-.156.444-.156c.400002 0 .6.199998.6.6v.228c.2400012-.2800014.5359982-.4999992.888-.66s.727998-.24 1.128-.24zm3.1158521.684c0-.18400092.0579994-.33199944.174-.444s.2619991-.168.438-.168c.1840009 0 .3319994.05599944.444.168s.168.25999908.168.444v5.34c0 .1760009-.0559994.3219994-.168.438s-.2599991.174-.444.174c-.1760009 0-.3219994-.0579994-.438-.174s-.174-.2619991-.174-.438zm.612-3.264c.2160011 0 .4019992.07799922.558.234s.234.34199892.234.558-.0779992.40199922-.234.558-.3419989.234-.558.234-.4019992-.07799922-.558-.234-.234-.34199892-.234-.558.0779992-.40199922.234-.558.3419989-.234.558-.234zm5.5758521 2.604c.5200026 0 .9859979.08399916 1.398.252s.7379988.39999852.978.696c.1040005.12800064.156.25599936.156.384 0 .13600068-.0679993.25999944-.204.372-.0880004.06400032-.1999993.096-.336.096-.208001 0-.3959992-.07599924-.564-.228-.200001-.18400092-.4119989-.31399962-.636-.39s-.4959984-.114-.816-.114c-.3680018 0-.6699988.06199938-.906.186s-.354.29799888-.354.522c0 .1600008.0399996.29399946.12.402s.2319989.20799954.456.3.5479979.1819996.972.27c.8720044.1760009 1.4899982.4199984 1.854.732s.546.7159975.546 1.212c0 .3680018-.099999.7019985-.3 1.002s-.4939981.5359991-.882.708-.8539973.258-1.398.258-1.0559976-.0839992-1.536-.252-.8559986-.3879986-1.128-.66c-.1040005-.1040005-.156-.2279993-.156-.372 0-.192001.0799992-.3479994.24-.468.1520008-.1120006.2919994-.168.42-.168.1600008 0 .3119993.0719993.456.216.1520008.1680008.3799985.3139994.684.438s.6279983.186.972.186c.4560023 0 .8099987-.0759992 1.062-.228s.378-.3559987.378-.612c0-.2480012-.1239988-.4539992-.372-.618s-.667997-.3019994-1.26-.414c-1.5360077-.2960015-2.304-.9279952-2.304-1.896 0-.39200196.1159988-.72399864.348-.996s.5359981-.47599932.912-.612.7759979-.204 1.2-.204zm15.3277042 1.752c.1760009 0 .3219994.05799942.438.174s.174.26599908.174.45v2.868c0 .192001-.0639994.3399995-.192.444-.8400042.6960035-1.8199944 1.044-2.94 1.044-.8560043 0-1.6379965-.2119979-2.346-.636s-1.265998-1.0039963-1.674-1.74-.612-1.5479956-.612-2.436c0-.8800044.203998-1.68599634.612-2.418s.9659965-1.31199786 1.674-1.74 1.4899957-.642 2.346-.642c.608003 0 1.1339978.0799992 1.578.24s.8939977.42399816 1.35.792c.0960005.07200036.1599998.14599962.192.222s.048.16599948.048.27c0 .1600008-.0579994.29199948-.174.396s-.2539992.156-.414.156c-.1440007 0-.2799994-.05199948-.408-.156-.3280016-.2800014-.6479984-.48199938-.96-.606s-.7159975-.186-1.212-.186c-.6240031 0-1.1979974.16399836-1.722.492s-.9399985.77399718-1.248 1.338-.462 1.17799668-.462 1.842c0 .67200336.1539985 1.2879972.462 1.848s.7239974 1.0039984 1.248 1.332 1.0979969.492 1.722.492c.6720034 0 1.3159969-.199998 1.932-.6v-2.136h-1.656c-.1840009 0-.3339994-.0519995-.45-.156-.1160006-.10400052-.174-.2359992-.174-.396s.0579994-.29199948.174-.396.2659991-.156.45-.156zm8.2758521-1.716c.1840009 0 .3319994.05599944.444.168s.168.25999908.168.444v5.352c0 .1760009-.0559994.3219994-.168.438s-.2599991.174-.444.174c-.1760009 0-.3219994-.0579994-.438-.174s-.174-.2619991-.174-.438v-.132c-.2560013.2560013-.5599982.4539993-.912.594s-.727998.21-1.128.21c-.5520028 0-1.0479978-.1199988-1.488-.36s-.7839988-.5899977-1.032-1.05-.372-1.0139968-.372-1.662v-2.952c0-.17600088.0579994-.32199942.174-.438s.2619991-.174.438-.174.3219994.05799942.438.174.174.26199912.174.438v2.952c0 .6480032.1739983 1.1379983.522 1.47s.8099971.498 1.386.498c.3360017 0 .6419986-.0679993.918-.204s.4919992-.3199988.648-.552.234-.4919986.234-.78v-3.384c0-.18400092.0579994-.33199944.174-.444s.2619991-.168.438-.168zm6.3678521-.06c.4240021 0 .7559988.06399936.996.192s.36.28799904.36.48c0 .05600028-.004.09599988-.012.12-.0720004.25600128-.2319988.384-.48.384-.0400002 0-.0999996-.00799992-.18-.024-.3200016-.05600028-.579999-.084-.78-.084-.5760029 0-1.0399982.13199868-1.392.396s-.528.61999776-.528 1.068v3.504c0 .192001-.0499995.3399995-.15.444s-.249999.156-.45.156c-.192001 0-.3399995-.0499995-.444-.15s-.156-.249999-.156-.45v-5.364c0-.19200096.0519995-.33999948.156-.444s.251999-.156.444-.156c.400002 0 .6.199998.6.6v.228c.2400012-.2800014.5359982-.4999992.888-.66s.727998-.24 1.128-.24zm6.2598521.012c.5520028 0 1.0479978.1199988 1.488.36s.7839988.5899977 1.032 1.05.372 1.01399676.372 1.662v2.952c0 .1760009-.0579994.3219994-.174.438s-.2619991.174-.438.174-.3219994-.0579994-.438-.174-.174-.2619991-.174-.438v-2.952c0-.64800324-.1739983-1.13799834-.522-1.47s-.8099971-.498-1.386-.498c-.3360017 0-.6419986.06799932-.918.204s-.4919992.31999884-.648.552-.234.49199856-.234.78v3.384c0 .1760009-.0559994.3219994-.168.438s-.2599991.174-.444.174c-.1760009 0-.3219994-.0579994-.438-.174s-.174-.2619991-.174-.438v-5.352c0-.18400092.0579994-.33199944.174-.444s.2619991-.168.438-.168c.1840009 0 .3319994.05599944.444.168s.168.25999908.168.444v.132c.2560013-.25600128.5599982-.4539993.912-.594s.727998-.21 1.128-.21zm11.1918521 3.24c0 .1520008-.0519995.2779995-.156.378s-.2359992.15-.396.15h-4.56c.0880004.5600028.3419979 1.0119983.762 1.356s.933997.516 1.542.516c.2400012 0 .4899987-.0439996.75-.132s.4739992-.1959994.642-.324c.1120006-.0880004.2439992-.132.396-.132s.2719996.0399996.36.12c.1440007.1200006.216.2559992.216.408 0 .1440007-.0639994.2639995-.192.36-.2720014.2160011-.609998.3919993-1.014.528s-.7899982.204-1.158.204c-.6560033 0-1.2439974-.1419986-1.764-.426s-.9259985-.6779975-1.218-1.182-.438-1.0759968-.438-1.716.1379986-1.21399746.414-1.722.6599975-.90399858 1.152-1.188 1.0499969-.426 1.674-.426c.6160031 0 1.1479978.13599864 1.596.408s.7919988.65199756 1.032 1.14.36 1.04799684.36 1.68zm-2.988-2.196c-.5840029 0-1.0579982.1599984-1.422.48s-.5939995.74799732-.69 1.284h3.996c-.0720004-.53600268-.2719984-.9639984-.6-1.284s-.7559974-.48-1.284-.48zm9.9438521-.924c.2480012.09600048.372.25199892.372.468 0 .0800004-.0239998.17599944-.072.288l-3.672 8.256c-.0960005.2480012-.2519989.372-.468.372-.0800004 0-.1759994-.0239998-.288-.072-.2400012-.1040005-.36-.259999-.36-.468 0-.0960005.0239998-.1919995.072-.288l1.2-2.7-2.7-5.124c-.0400002-.07200036-.06-.15599952-.06-.252 0-.10400052.0319997-.19999956.096-.288s.1479995-.15599976.252-.204c.0720004-.03200016.152-.048.24-.048.2240011 0 .3919994.11199888.504.336l2.196 4.368 1.932-4.356c.1040005-.23200116.259999-.348.468-.348.1040005 0 .1999996.0199998.288.06z" fill="#1b9653"/><g fill="#33312e"><path d="m5.76123047 27h-.74707031v-3.0234375h-3.38378907v3.0234375h-.74707031v-6.4248047h.74707031v2.7333985h3.38378907v-2.7333985h.74707031zm3.97190082.0878906c-.71191762 0-1.27367959-.2167947-1.68530274-.6503906s-.61743164-1.0356407-.61743164-1.8061523c0-.7763711.1911602-1.3930642.57348633-1.8500977s.89574873-.6855469 1.5402832-.6855469c.60351866 0 1.08105296.1984844 1.43261716.595459.3515643.3969747.5273438.9206511.5273438 1.5710449v.4614258h-3.31787111c.01464851.5654325.15746935.9946275.42846679 1.2875977.27099745.2929702.65258543.4394531 1.1447754.4394531.51855732 0 1.03124742-.1083974 1.53808592-.3251953v.6503906c-.2578138.1113287-.5017078.1911619-.7316894.239502-.2299817.04834-.5075668.0725097-.83276371.0725097zm-.19775391-4.3813476c-.38672068 0-.69506721.1259753-.92504883.3779297-.22998162.2519543-.36547831.6005837-.40649414 1.0458984h2.51806639c0-.4599632-.102538-.8122546-.3076172-1.0568848-.2050791-.2446301-.49804494-.3669433-.87890622-.3669433zm6.45920552 4.293457-.1450195-.6855469h-.0351563c-.2402356.3017593-.4797351.506103-.7185059.6130371-.2387707.1069342-.5368634.1604004-.8942871.1604004-.4775414 0-.8518052-.1230456-1.1228027-.3691406-.2709974-.246095-.4064941-.5961891-.4064941-1.050293 0-.9726611.7778242-1.4824216 2.3334961-1.5292968l.8173828-.0263672v-.2988282c0-.3779315-.081298-.6569815-.2438965-.8371582-.1625985-.1801766-.4226057-.2702636-.7800293-.2702636-.4013692 0-.8554662.1230456-1.3623047.3691406l-.2241211-.5581055c.2373059-.1289069.497313-.2299801.7800293-.3032226.2827163-.0732426.5661607-.1098633.8503418-.1098633.5742216 0 .9997545.1274401 1.2766113.3823242.2768569.2548841.4152832.6635714.4152832 1.2260742v3.2871094zm-1.6479492-.5141602c.4541038 0 .8107897-.1245104 1.0700683-.3735351.2592787-.2490247.388916-.597654.388916-1.0458985v-.4350585l-.7294921.0307617c-.5800811.0205079-.9982898.1105949-1.2546387.2702636-.256349.1596688-.3845215.4079573-.3845215.7448731 0 .2636732.0798332.4643548.239502.6020508.1596687.137696.3830552.2065429.670166.2065429zm7.2546156-.1318359h-.0395508c-.3369157.4892603-.8408169.7338867-1.5117187.7338867-.629886 0-1.1198713-.2153299-1.4699707-.6459961s-.5251465-1.0429647-.5251465-1.836914.1757795-1.4106424.5273438-1.8500977c.3515642-.4394553.8408171-.6591797 1.4677734-.6591797.6533236 0 1.1542951.2373023 1.5029297.7119141h.0571289l-.0307617-.347168-.0175782-.3383789v-1.9599609h.7294922v6.8378906h-.5932617zm-1.4589843.1230469c.4980493 0 .8591297-.1354967 1.0832519-.4064942.2241222-.2709974.3361816-.7082489.3361816-1.3117675v-.1538086c0-.6826206-.1135242-1.1696763-.3405761-1.4611817-.2270519-.2915053-.5895971-.4372558-1.0876465-.4372558-.4277365 0-.7551258.1662581-.9821777.4987793-.227052.3325212-.3405762.8019989-.3405762 1.4084472 0 .6152375.1127918 1.0795883.3383789 1.3930664.2255871.3134782.5566384.4702149.9931641.4702149zm10.7606961-1.8896485c0 .7851602-.1977519 1.3981912-.5932617 1.8391114-.3955098.4409201-.941891.6613769-1.6391601.6613769-.4306663 0-.8129867-.1010732-1.1469727-.3032226-.3339861-.2021495-.591796-.4921856-.7734375-.8701172s-.2724609-.82031-.2724609-1.3271485c0-.7851601.1962871-1.3967263.5888671-1.8347168.3925801-.4379904.9374966-.6569824 1.6347657-.6569824.6738315 0 1.2092265.2241189 1.6062011.6723633.3969747.4482444.595459 1.0546837.595459 1.8193359zm-3.6694336 0c0 .6152375.1230457 1.0839828.3691407 1.40625.2460949.3222673.6079077.4833985 1.0854492.4833985.4775414 0 .8400866-.1603988 1.0876465-.4812012.2475598-.3208024.3713379-.7902801.3713379-1.4084473 0-.6123077-.1237781-1.0773909-.3713379-1.3952636-.2475599-.3178727-.6130347-.4768067-1.0964356-.4768067-.4775414 0-.8378894.1567367-1.0810547.4702149-.2431653.3134781-.3647461.7807586-.3647461 1.4018554zm7.4040298-1.836914h-1.2260743v4.2495117h-.7294921v-4.2495117h-.8613282v-.3295899l.8613282-.2636718v-.2680664c0-1.1835997.5170846-1.7753907 1.5512695-1.7753907.2548841 0 .5537092.051269.8964844.1538086l-.1889649.5844727c-.2812514-.0908208-.5214834-.1362305-.7207031-.1362305-.275392 0-.4790033.0915518-.6108399.2746582s-.1977539.4768046-.1977539.8811035v.3120118h1.2260743zm9.0248563.9755859c0 1.0605522-.2878389 1.8713351-.8635254 2.4323731-.5756865.5610379-1.4040473.8415527-2.4851074.8415527h-1.7797852v-6.4248047h1.96875c.9990284 0 1.7753879.2768527 2.3291016.8305664s.8305664 1.3271435.8305664 2.3203125zm-.7910156.0263672c0-.8378948-.210203-1.4692362-.6306153-1.894043-.4204122-.4248068-1.0451618-.637207-1.8742676-.637207h-1.0854492v5.1328125h.909668c.8906294 0 1.5600563-.2189919 2.0083008-.6569824.4482444-.4379905.6723633-1.0861774.6723633-1.9445801zm4.4333266 3.3354492c-.7119177 0-1.2736796-.2167947-1.6853028-.6503906-.4116231-.4335959-.6174316-1.0356407-.6174316-1.8061523 0-.7763711.1911602-1.3930642.5734863-1.8500977s.8957487-.6855469 1.5402832-.6855469c.6035187 0 1.0810529.1984844 1.4326172.595459.3515643.3969747.5273437.9206511.5273438 1.5710449v.4614258h-3.3178711c.0146485.5654325.1574693.9946275.4284668 1.2875977.2709974.2929702.6525854.4394531 1.1447753.4394531.5185573 0 1.0312475-.1083974 1.538086-.3251953v.6503906c-.2578138.1113287-.5017079.1911619-.7316895.239502-.2299816.04834-.5075667.0725097-.8327636.0725097zm-.1977539-4.3813476c-.3867207 0-.6950673.1259753-.9250489.3779297-.2299816.2519543-.3654783.6005837-.4064941 1.0458984h2.5180664c0-.4599632-.102538-.8122546-.3076172-1.0568848-.2050792-.2446301-.498045-.3669433-.8789062-.3669433zm6.604225 2.9794922c0 .4482444-.1669905.7939441-.5009766 1.0371093-.333986.2431653-.8027313.3647461-1.40625.3647461-.638675 0-1.1367169-.1010732-1.4941406-.3032226v-.6767578c.2314465.117188.479735.2094723.744873.2768554.2651381.0673832.5207508.1010742.7668458.1010742.3808612 0 .673827-.0607904.8789062-.182373s.3076172-.3068835.3076172-.5559082c0-.1875009-.081298-.3478997-.2438965-.4812012-.1625985-.1333014-.479734-.2907706-.951416-.4724121-.4482444-.166993-.7668448-.3127435-.9558106-.4372558-.1889657-.1245124-.3295893-.2658684-.421875-.4240723-.0922856-.1582039-.1384277-.3471669-.1384277-.5668945 0-.3925801.1596664-.7023915.4790039-.9294434s.7573214-.3405762 1.3139649-.3405762c.5185572 0 1.0253881.1054677 1.5205078.3164063l-.2592774.5932617c-.4834008-.1992198-.9213847-.2988281-1.3139648-.2988281-.3457049 0-.6064445.0541986-.7822266.1625976s-.2636719.2578116-.2636719.4482422c0 .1289069.0329587.2387691.098877.3295899.0659183.0908207.1721184.1772456.3186035.2592773s.4277323.2006828.84375.355957c.5712919.2080089.9572744.4174794 1.157959.628418s.3010254.4760726.3010254.7954102zm2.2009047 1.3139648h-.7294922v-4.8164062h.7294922zm-.7910156-6.121582c0-.1669931.0410152-.2893063.1230469-.3669434.0820316-.0776371.1845697-.1164551.3076172-.1164551.117188 0 .2182612.0395504.3032226.1186524.0849614.0791019.1274414.2006827.1274414.3647461 0 .1640633-.04248.2863765-.1274414.3669433s-.1860346.1208496-.3032226.1208496c-.1230475 0-.2255856-.0402828-.3076172-.1208496-.0820317-.0805668-.1230469-.20288-.1230469-.3669433zm3.0903282 5.7424399c-.1218737-.0557035-.2242554-.1417243-.3071481-.2580649-.0834965-.1171881-.1252441-.2534172-.1252441-.4086914 0-.1757822.0468745-.3295892.140625-.4614258.0937504-.1318366.2416982-.2592767.4438476-.3823242-.2490247-.1025396-.4519035-.2768543-.6086426-.5229493-.156739-.2460949-.2351074-.5273421-.2351074-.84375 0-.5273463.1582016-.9338364.4746094-1.2194824.3164078-.2856459.7646455-.4284668 1.3447266-.4284668.2519543 0 .4790029.0292966.6811523.0878907h1.6655273v.4614257l-.8920898.1054688c.0820317.1025396.1552731.2365714.2197266.4020996.0644534.1655282.0966797.3522939.0966796.5603027.0000001.4716821-.1611312.8481431-.4833984 1.1293946-.3222672.2812514-.7646456.421875-1.3271484.421875-.1435554 0-.2783197-.0117187-.4042969-.0351563-.3105484.1640633-.4658203.3706042-.4658203.6196289 0 .1318366.0541987.2292477.1625976.2922363.108399.0629886.2944323.0944825.5581055.0944825h.8525391c.521487 0 .9221177.1098621 1.2019043.3295898.2797865.2197277.4196777.5390604.4196777.9580078 0 .5332058-.213865.9396959-.6416016 1.2194824-.4277365.2797866-1.0517537.4196778-1.8720703.4196778-.6298859 0-1.1154768-.1171864-1.4567871-.3515625-.3413103-.2343762-.5119629-.5654276-.5119629-.9931641 0-.2929702.0937491-.5463856.28125-.7602539.1874998-.213867.451167-.3588846.7910095-.4350572zm-.3664743 1.1877359c0 .2607434.1098622.4584954.3295899.5932617.2197276.1347663.5346659.2021484.9448242.2021484.6123077 0 1.0656723-.0915518 1.3601074-.2746582s.4416504-.4313949.4416504-.744873c0-.2607435-.0805656-.4416499-.2416992-.5427247-.1611336-.1010747-.4643533-.1516113-.909668-.1516113h-.8745117c-.3310563 0-.5888663.0791008-.7734375.2373047s-.2768555.3852524-.2768555.6811524zm.3955078-4.0825196c0 .3369158.0952139.591796.2856446.7646485.1904306.1728524.4555647.2592773.7954101.2592773.7119177 0 1.0678711-.3456997 1.0678711-1.0371094 0-.7236364-.3603479-1.0854492-1.0810547-1.0854492-.3427751 0-.6064444.0922842-.7910156.2768555-.1845712.1845712-.2768555.4584943-.2768555.8217773zm8.0148696 3.2739258v-3.1157227c0-.39258-.0893546-.6855459-.2680664-.8789062s-.4584942-.2900391-.8393555-.2900391c-.5039087 0-.8730457.1362291-1.1074218.4086914-.2343762.2724623-.3515625.7221649-.3515625 1.3491211v2.5268555h-.7294922v-4.8164062h.5932617l.1186523.6591796h.0351563c.1494148-.2373058.3588854-.4211419.628418-.5515136.2695326-.1303718.5698225-.1955567.9008789-.1955567.580081 0 1.0166001.1398912 1.3095703.4196778.2929702.2797865.4394531.7272918.4394531 1.3425293v3.1420898z"/><path d="m.39990234 62.8637695c0-.9821012.19083468-1.7163875.57250977-2.2028808.38167508-.4864933.94620394-.7297364 1.69360351-.7297364.25748827 0 .46028572.021647.60839844.0649415v.4887695c-.1754566-.0569664-.37597543-.0854492-.6015625-.0854492-.53548445 0-.94449728.1669091-1.22705078.5007324-.28255349.3338233-.43749986.8584762-.46484375 1.5739746h.04101563c.25065229-.391929.6471327-.5878906 1.18945312-.5878906.44889547 0 .8026517.135578 1.0612793.4067383.25862759.2711602.38793945.6391578.38793945 1.1040039 0 .5195338-.14184428.927977-.42553711 1.2253418-.28369282.2973647-.66707115.4460449-1.15014648.4460449-.51725519 0-.92740734-.1942526-1.23046875-.5827637s-.45458985-.9291144-.45458985-1.6218262zm1.67822266 1.7226563c.32356933 0 .57478752-.1019684.75366211-.3059082s.26831055-.4984519.26831055-.8835449c0-.3304053-.08316974-.5901684-.24951172-.7792969-.16634198-.1891286-.41471189-.2836914-.74511719-.2836914-.20507915 0-.39306555.0421545-.56396484.1264648-.1708993.0843103-.30704702.2005201-.40844727.3486328-.10140025.1481128-.15209961.3019198-.15209961.4614258 0 .2347017.04557246.4534495.13671875.65625s.22045815.3634434.38793945.4819336c.16748131.1184902.35831599.1777344.57250977.1777344zm6.00820149-.7348633h-.74169921v1.1484375h-.54345704v-1.1484375h-2.43017578v-.4956055l2.37207032-3.3803711h.6015625v3.3598633h.74169921zm-1.28515625-.5161133v-1.6611328c0-.325848.01139312-.6938456.03417969-1.1040039h-.02734375c-.10937555.2187511-.21191358.3999016-.30761719.543457l-1.56201172 2.2216797zm2.62099447 1.6645508 2.07128909-4.4741211h-2.72412113v-.5229492h3.32568363v.4545898l-2.0439453 4.5424805zm7.19364909-3.0522461c.5263698 0 .9405095.1304512 1.2424316.3913574.3019221.2609063.4528809.6180804.4528809 1.0715332 0 .5172552-.1646305.9228501-.4938965 1.2167969s-.7832816.440918-1.3620605.440918c-.5628284 0-.9923488-.0900056-1.2885743-.2700196v-.546875c.159506.1025396.3577462.1828611.5947266.2409668.2369804.0581058.4705392.0871582.7006836.0871582.4010437 0 .7126454-.0945628.9348144-.2836914.2221691-.1891285.333252-.4625633.333252-.8203125 0-.6972691-.4272418-1.0458984-1.2817383-1.0458984-.2164724 0-.5058575.03304-.868164.0991211l-.2939454-.1879883.1879883-2.3378906h2.4848633v.5229492h-1.9995117l-.1264649 1.5004883c.2620456-.0524091.522948-.0786133.7827149-.0786133zm4.2240218 0c.5263698 0 .9405096.1304512 1.2424316.3913574.3019221.2609063.4528809.6180804.4528809 1.0715332 0 .5172552-.1646305.9228501-.4938965 1.2167969s-.7832816.440918-1.3620605.440918c-.5628284 0-.9923488-.0900056-1.2885743-.2700196v-.546875c.159506.1025396.3577463.1828611.5947266.2409668.2369804.0581058.4705392.0871582.7006836.0871582.4010437 0 .7126454-.0945628.9348145-.2836914.222169-.1891285.3332519-.4625633.3332519-.8203125 0-.6972691-.4272418-1.0458984-1.2817383-1.0458984-.2164724 0-.5058575.03304-.868164.0991211l-.2939454-.1879883.1879883-2.3378906h2.4848633v.5229492h-1.9995117l-.1264649 1.5004883c.2620456-.0524091.522948-.0786133.7827149-.0786133zm4.2240218 0c.5263698 0 .9405096.1304512 1.2424316.3913574.3019221.2609063.4528809.6180804.4528809 1.0715332 0 .5172552-.1646305.9228501-.4938965 1.2167969s-.7832816.440918-1.3620605.440918c-.5628284 0-.9923488-.0900056-1.2885743-.2700196v-.546875c.1595061.1025396.3577463.1828611.5947266.2409668.2369804.0581058.4705392.0871582.7006836.0871582.4010437 0 .7126454-.0945628.9348145-.2836914.222169-.1891285.3332519-.4625633.3332519-.8203125 0-.6972691-.4272418-1.0458984-1.2817383-1.0458984-.2164724 0-.5058575.03304-.868164.0991211l-.2939453-.1879883.1879882-2.3378906h2.4848633v.5229492h-1.9995117l-.1264648 1.5004883c.2620455-.0524091.5229479-.0786133.7827148-.0786133zm4.7600553.9160156c0-.9821012.1908347-1.7163875.5725098-2.2028808s.9462039-.7297364 1.6936035-.7297364c.2574883 0 .4602857.021647.6083985.0649415v.4887695c-.1754567-.0569664-.3759755-.0854492-.6015625-.0854492-.5354845 0-.9444973.1669091-1.2270508.5007324s-.4374999.8584762-.4648438 1.5739746h.0410156c.2506523-.391929.6471327-.5878906 1.1894532-.5878906.4488954 0 .8026517.135578 1.0612793.4067383.2586276.2711602.3879394.6391578.3879394 1.1040039 0 .5195338-.1418443.927977-.4255371 1.2253418-.2836928.2973647-.6670711.4460449-1.1501465.4460449-.5172552 0-.9274073-.1942526-1.2304687-.5827637s-.4545899-.9291144-.4545899-1.6218262zm1.6782227 1.7226563c.3235693 0 .5747875-.1019684.7536621-.3059082s.2683105-.4984519.2683105-.8835449c0-.3304053-.0831697-.5901684-.2495117-.7792969-.166342-.1891286-.4147119-.2836914-.7451172-.2836914-.2050791 0-.3930655.0421545-.5639648.1264648s-.307047.2005201-.4084473.3486328c-.1014002.1481128-.1520996.3019198-.1520996.4614258 0 .2347017.0455725.4534495.1367188.65625s.2204581.3634434.3879394.4819336.358316.1777344.5725098.1777344zm4.0497054-2.6386719c.5263698 0 .9405095.1304512 1.2424316.3913574.3019221.2609063.4528809.6180804.4528809 1.0715332 0 .5172552-.1646305.9228501-.4938965 1.2167969s-.7832816.440918-1.3620605.440918c-.5628284 0-.9923488-.0900056-1.2885743-.2700196v-.546875c.159506.1025396.3577462.1828611.5947266.2409668.2369804.0581058.4705392.0871582.7006836.0871582.4010437 0 .7126454-.0945628.9348144-.2836914.2221691-.1891285.333252-.4625633.333252-.8203125 0-.6972691-.4272418-1.0458984-1.2817383-1.0458984-.2164724 0-.5058575.03304-.868164.0991211l-.2939454-.1879883.1879883-2.3378906h2.4848633v.5229492h-1.9995117l-.1264649 1.5004883c.2620456-.0524091.522948-.0786133.7827149-.0786133zm4.2240218 0c.5263698 0 .9405096.1304512 1.2424316.3913574.3019221.2609063.4528809.6180804.4528809 1.0715332 0 .5172552-.1646305.9228501-.4938965 1.2167969s-.7832816.440918-1.3620605.440918c-.5628284 0-.9923488-.0900056-1.2885743-.2700196v-.546875c.159506.1025396.3577463.1828611.5947266.2409668.2369804.0581058.4705392.0871582.7006836.0871582.4010437 0 .7126454-.0945628.9348145-.2836914.222169-.1891285.3332519-.4625633.3332519-.8203125 0-.6972691-.4272418-1.0458984-1.2817383-1.0458984-.2164724 0-.5058575.03304-.868164.0991211l-.2939454-.1879883.1879883-2.3378906h2.4848633v.5229492h-1.9995117l-.1264649 1.5004883c.2620456-.0524091.522948-.0786133.7827149-.0786133zm4.2240218 0c.5263698 0 .9405096.1304512 1.2424316.3913574.3019221.2609063.4528809.6180804.4528809 1.0715332 0 .5172552-.1646305.9228501-.4938965 1.2167969s-.7832816.440918-1.3620605.440918c-.5628284 0-.9923488-.0900056-1.2885743-.2700196v-.546875c.1595061.1025396.3577463.1828611.5947266.2409668.2369804.0581058.4705392.0871582.7006836.0871582.4010437 0 .7126454-.0945628.9348145-.2836914.222169-.1891285.3332519-.4625633.3332519-.8203125 0-.6972691-.4272418-1.0458984-1.2817383-1.0458984-.2164724 0-.5058575.03304-.868164.0991211l-.2939453-.1879883.1879882-2.3378906h2.4848633v.5229492h-1.9995117l-.1264648 1.5004883c.2620455-.0524091.5229479-.0786133.7827148-.0786133z"/><path d="m2.09863281 53.0683594c-.54232042 0-.96215671-.1669092-1.25952148-.5007324-.29736477-.3338233-.44604492-.806068-.44604492-1.4167481 0-.6266307.15095877-1.1108381.45288086-1.4526367.30192208-.3417986.73201218-.5126953 1.2902832-.5126953.18001392 0 .36002514.0193683.54003906.0581054.18001392.0387372.32128855.0843097.42382813.1367188l-.17431641.4819336c-.12532615-.0501305-.26204353-.0917153-.41015625-.1247559-.14811272-.0330405-.27913354-.0495605-.39306641-.0495605-.76107151 0-1.14160156.4853467-1.14160156 1.4560547 0 .4602887.09285389.8134753.27856445 1.0595703.18571057.246095.4608543.3691406.82543946.3691406.31217604 0 .63232258-.0672194.96044922-.2016601v.5024414c-.2506523.1298834-.56624159.1948242-.94677735.1948242zm4.62050618-.0683594v-2.4233398c0-.3053401-.069498-.5332024-.20849609-.6835938s-.35660659-.2255859-.65283203-.2255859c-.3942077 0-.68188386.1070953-.86303711.321289-.18115325.2141938-.27172852.5651018-.27172852 1.0527344v1.9584961h-.56738281v-5.3183594h.56738281v1.6098633c0 .1936859-.00911449.3543288-.02734375.4819336h.03417969c.11165421-.1800139.27058816-.3218582.47680664-.4255371s.44148631-.1555176.70581055-.1555176c.4580101 0 .80151253.1088043 1.03051758.326416.22900505.2176118.34350586.5633928.34350586 1.0373535v2.4438477zm3.66347491-3.8144531c.166342 0 .3155918.0136717.4477539.0410156l-.0786133.5263672c-.1549486-.0341799-.291666-.0512695-.4101562-.0512695-.3030614 0-.56225478.1230456-.77758789.3691406s-.32299805.5525698-.32299805.9194336v2.0097656h-.56738281v-3.7460938h.46826172l.0649414.6938477h.02734375c.1389981-.2438163.30647689-.4318027.50244141-.5639648.19596452-.1321622.41129437-.1982422.64599607-.1982422zm1.9374007 3.8144531h-.5673828v-3.7460938h.5673828zm-.6152343-4.7612305c0-.1298834.0319007-.2250159.0957031-.2854004.0638024-.0603844.1435542-.0905761.2392578-.0905761.0911463 0 .1697588.0307614.2358398.0922851.0660811.0615238.0991211.1560866.0991211.2836914s-.03304.2227373-.0991211.2854004c-.066081.0626631-.1446935.0939942-.2358398.0939942-.0957036 0-.1754554-.0313311-.2392578-.0939942s-.0957031-.1577956-.0957031-.2854004zm4.4564436 3.7392578c0 .3486346-.1298815.6175121-.3896484.8066407-.2597669.1891285-.6243466.2836914-1.09375.2836914-.4967473 0-.8841132-.0786125-1.1621094-.2358399v-.5263672c.180014.0911463.3731273.162923.5793457.2153321.2062185.0524091.4050284.0786133.5964356.0786133.2962254 0 .5240877-.0472815.6835937-.1418457.159506-.0945643.2392578-.2386872.2392578-.4323731 0-.1458341-.0632317-.2705887-.1896972-.3742676s-.3731264-.2261549-.7399903-.3674316c-.3486345-.1298835-.5964348-.243245-.7434082-.3400879s-.2563473-.2067865-.328125-.329834-.107666-.2700187-.107666-.440918c0-.30534.124185-.5463044.3725586-.7229003.2483737-.176596.5890278-.2648926 1.0219727-.2648926.4033223 0 .7975241.0820304 1.1826172.2460937l-.2016602.4614258c-.3759784-.1549487-.7166326-.2324219-1.0219726-.2324219-.2688816 0-.4716791.0421546-.6083985.1264649s-.2050781.2005201-.2050781.3486328c0 .1002609.0256345.1857093.0769043.2563476.0512698.0706384.1338699.1378578.2478027.2016602.1139329.0638024.3326807.1560866.65625.2768555.4443382.1617846.7445468.3247062.9006348.4887695s.2341308.3702787.2341308.6186523zm4.21035-2.7241211v.3588868l-.6938477.0820312c.0638024.079753.120768.184.1708985.3127442.0501304.1287441.0751953.2740063.0751953.435791 0 .3668638-.1253243.6596668-.3759766.8784179s-.5947244.328125-1.0322266.328125c-.1116542 0-.2164708-.0091144-.3144531-.0273437-.2415376.1276048-.3623047.2882477-.3623047.4819336 0 .1025396.0421546.1783038.1264649.2272949s.2290029.0734863.434082.0734863h.6630859c.405601 0 .7172027.0854484.9348145.2563477s.326416.4192692.326416.7451172c0 .4147156-.1663395.7308745-.4990234.9484863-.332684.2176118-.8180307.326416-1.4560547.326416-.4899113 0-.8675931-.0911449-1.1330567-.2734375-.2654635-.1822926-.3981933-.439777-.3981933-.7724609 0-.2278657.0729159-.4249666.21875-.5913086.145834-.166342.3509101-.2791338.6152344-.3383789-.0957036-.0432945-.1760251-.1105139-.2409668-.2016602-.0649418-.0911463-.0974121-.1971022-.0974121-.3178711 0-.1367194.0364579-.2563471.109375-.3588867.072917-.1025396.1879875-.2016597.3452148-.2973633-.1936859-.079753-.3514805-.215331-.4733887-.4067382-.1219081-.1914073-.1828613-.4101551-.1828613-.65625 0-.4101583.1230456-.7263173.3691406-.9484864s.5947243-.3332519 1.0458985-.3332519c.1959645 0 .3725578.0227862.5297851.0683593zm-2.9873047 4.375c0 .2028005.0854484.3566076.2563476.4614258.1708993.1048183.4158513.1572266.7348633.1572266.4762394 0 .8288563-.071207 1.0578614-.2136231.229005-.142416.3435058-.3355293.3435058-.5793457 0-.2028004-.0626621-.3435054-.1879883-.4221191-.1253261-.0786137-.3611636-.1179199-.7075195-.1179199h-.6801758c-.2574882 0-.4580071.0615228-.6015625.1845703s-.215332.2996408-.215332.5297851zm.3076172-3.1752929c0 .2620456.0740552.4602858.2221679.5947265.1481128.1344408.3543281.2016602.6186524.2016602.5537137 0 .8305664-.2688775.8305664-.8066406 0-.5628284-.2802706-.8442383-.8408203-.8442383-.2666029 0-.471679.0717766-.6152344.215332s-.215332.3566067-.215332.6391602zm4.203514-1.1997071v2.4301758c0 .3053401.069498.5332024.2084961.6835938s.3566066.2255859.652832.2255859c.391929 0 .6784659-.1070953.8596191-.321289.1811533-.2141938.2717285-.5639625.2717285-1.0493165v-1.96875h.5673829v3.7460938h-.4682618l-.0820312-.5024414h-.0307617c-.1162115.1845712-.2774241.3258459-.4836426.4238281-.2062185.0979823-.4414863.1469727-.7058106.1469727-.4557314 0-.7969552-.1082346-1.0236816-.3247071-.2267264-.2164724-.3400879-.5628231-.3400879-1.0390625v-2.4506836zm5.6937483-.0683593c.166342 0 .3155918.0136717.4477539.0410156l-.0786132.5263672c-.1549487-.0341799-.2916661-.0512695-.4101563-.0512695-.3030614 0-.5622548.1230456-.7775879.3691406s-.322998.5525698-.322998.9194336v2.0097656h-.5673828v-3.7460938h.4682617l.0649414.6938477h.0273437c.1389981-.2438163.3064769-.4318027.5024414-.5639648.1959646-.1321622.4112944-.1982422.6459961-.1982422zm3.9334945 3.8144531v-2.4233398c0-.3053401-.069498-.5332024-.2084961-.6835938s-.3566066-.2255859-.652832-.2255859c-.3919291 0-.6790356.1059559-.8613281.3178711-.1822926.2119151-.2734375.5616837-.2734375 1.0493164v1.965332h-.5673829v-3.7460938h.4614258l.0922852.5126954h.0273437c.1162115-.1845713.2791331-.3275549.4887696-.4289551.2096364-.1014003.4431953-.1520996.7006836-.1520996.4511741 0 .7906889.1088042 1.0185546.326416.2278658.2176118.3417969.5656714.3417969 1.0441894v2.4438477zm3.5370101.0683594c-.5537137 0-.9906397-.1686181-1.310791-.5058594-.3201514-.3372413-.4802246-.8054983-.4802246-1.4047852 0-.6038441.1486801-1.0834943.4460449-1.4389648s.6966934-.5332031 1.197998-.5332031c.4694034 0 .840819.1543767 1.1142578.4631347.2734389.3087581.4101563.716062.4101563 1.2219239v.3588867h-2.5805664c.0113933.4397808.1224761.7735991.3332519 1.0014648.2107758.2278658.5075665.3417969.8903809.3417969.4033223 0 .8020814-.084309 1.1962891-.2529297v.5058594c-.2005219.086589-.3902172.1486814-.5690918.1862793-.1788746.0375978-.3947742.0563965-.6477051.0563965zm-.1538086-3.4077149c-.3007828 0-.5406078.0979808-.7194824.2939453-.1788746.1959646-.2842609.4671207-.3161621.8134766h1.9584961c0-.3577492-.0797519-.6317536-.2392579-.8220215s-.3873683-.2854004-.6835937-.2854004zm1.9852523-.4067383h.6083984l.8203125 2.1362305c.1800139.4876327.2916665.8396799.3349609 1.0561524h.0273438c.0296225-.1162116.091715-.3150214.1862793-.5964356s.4038873-1.1467213.9279785-2.5959473h.6083984l-1.6098632 4.265625c-.159506.4215516-.3457835.7206209-.5588379.8972168-.2130545.176596-.4745265.2648926-.7844239.2648926-.1731779 0-.3440746-.0193683-.5126953-.0581054v-.4545899c.1253262.0273439.2654615.0410156.4204102.0410156.3896504 0 .6676424-.2187478.8339844-.65625l.2084961-.5332031zm9.6209944 1.2543946c0 .3235693-.0501297.6197903-.1503906.8886719-.1002609.2688815-.2415355.4773755-.4238281.6254882-.1822926.1481128-.3919259.222168-.6289063.222168-.1959645 0-.3611647-.0592442-.4956054-.1777344-.1344408-.1184901-.2141926-.2700186-.2392579-.4545898h-.0273437c-.0911463.1982432-.2215975.3531895-.3913574.4648437-.16976.1116542-.3708485.1674805-.6032715.1674805-.3417986 0-.6089671-.1167794-.8015137-.3503418-.1925465-.2335624-.2888183-.5508606-.2888183-.9519043 0-.4648461.1344387-.8425278.4033203-1.1330566.2688815-.2905288.6220681-.435791 1.0595703-.435791.1549487 0 .3304027.0142414.5263672.0427246s.3725578.0677894.5297851.1179199l-.0854492 1.6064453v.0751953c0 .405601.1515284.6083985.4545899.6083985.2073578 0 .3759759-.122476.5058593-.3674317.1298835-.2449556.1948242-.5633932.1948242-.9553223 0-.4124369-.084309-.7735987-.2529296-1.083496-.1686207-.3098974-.4084457-.5485832-.7194825-.7160645-.3110367-.1674813-.6682108-.2512207-1.0715332-.2512207-.5081405 0-.9501934.1053863-1.3261718.3161621-.3759785.2107758-.663085.511554-.8613282.9023438-.1982431.3907897-.2973632.8425267-.2973632 1.3552246 0 .6949904.1834291 1.2293275.5502929 1.6030273s.8955044.5605469 1.5859375.5605469c.478518 0 .9752579-.0979808 1.4902344-.2939453v.4545898c-.4375022.1914072-.934242.2871094-1.4902344.2871094-.8271525 0-1.4691546-.2272927-1.9260254-.6818848-.4568707-.4545921-.6853027-1.0897583-.6853027-1.9055176 0-.5924508.1219063-1.1199521.3657227-1.5825195.2438163-.4625674.5913063-.8208809 1.0424804-1.0749512.4511742-.2540702.9684216-.3811035 1.5517578-.3811035.4899113 0 .925698.1031077 1.3073731.3093262s.6767568.4990215.8852539.878418c.2084971.3793964.3127441.8163224.3127441 1.310791zm-3.5341797.4477539c0 .5787789.2221658.8681641.6665039.8681641.4716821 0 .7280272-.3566046.769043-1.0698243l.0478516-.8920898c-.1640633-.0455732-.3429352-.0683594-.5366211-.0683594-.2962255 0-.5280753.102538-.6955567.3076172-.1674813.2050792-.2512207.489907-.2512207.8544922zm7.8368148-1.7021485v.3588868l-.6938476.0820312c.0638024.079753.1207679.184.1708984.3127442.0501305.1287441.0751953.2740063.0751953.435791 0 .3668638-.1253243.6596668-.3759766.8784179-.2506522.2187511-.5947243.328125-1.0322265.328125-.1116542 0-.2164709-.0091144-.3144531-.0273437-.2415377.1276048-.3623047.2882477-.3623047.4819336 0 .1025396.0421545.1783038.1264648.2272949s.2290029.0734863.434082.0734863h.663086c.405601 0 .7172027.0854484.9348144.2563477.2176118.1708993.3264161.4192692.3264161.7451172 0 .4147156-.1663395.7308745-.4990235.9484863-.3326839.2176118-.8180306.326416-1.4560547.326416-.4899113 0-.867593-.0911449-1.1330566-.2734375s-.3981934-.439777-.3981934-.7724609c0-.2278657.072916-.4249666.21875-.5913086.1458341-.166342.3509102-.2791338.6152344-.3383789-.0957036-.0432945-.1760251-.1105139-.2409668-.2016602s-.0974121-.1971022-.0974121-.3178711c0-.1367194.036458-.2563471.109375-.3588867s.1879875-.2016597.3452148-.2973633c-.1936858-.079753-.3514805-.215331-.4733886-.4067382-.1219082-.1914073-.1828614-.4101551-.1828614-.65625 0-.4101583.1230457-.7263173.3691407-.9484864.2460949-.2221691.5947243-.3332519 1.0458984-.3332519.1959645 0 .3725578.0227862.5297852.0683593zm-2.9873047 4.375c0 .2028005.0854484.3566076.2563477.4614258.1708993.1048183.4158513.1572266.7348633.1572266.4762393 0 .8288562-.071207 1.0578613-.2136231.229005-.142416.3435059-.3355293.3435059-.5793457 0-.2028004-.0626622-.3435054-.1879883-.4221191-.1253262-.0786137-.3611637-.1179199-.7075196-.1179199h-.6801757c-.2574883 0-.4580071.0615228-.6015625.1845703s-.2153321.2996408-.2153321.5297851zm.3076172-3.1752929c0 .2620456.0740553.4602858.222168.5947265.1481127.1344408.3543281.2016602.6186523.2016602.5537137 0 .8305664-.2688775.8305664-.8066406 0-.5628284-.2802706-.8442383-.8408203-.8442383-.2666029 0-.4716789.0717766-.6152344.215332-.1435554.1435554-.215332.3566067-.215332.6391602zm6.9037093.6699219c0 .6106801-.153807 1.087482-.4614258 1.4304199-.3076187.3429379-.7325819.5144043-1.2749023.5144043-.3349626 0-.6323229-.0786125-.8920898-.2358399-.259767-.1572273-.4602858-.382811-.6015625-.6767578-.1412768-.2939468-.2119141-.6380188-.2119141-1.0322265 0-.6106802.1526677-1.0863427.4580078-1.427002s.729164-.5109863 1.2714844-.5109863c.5240911 0 .9405095.1743146 1.2492676.5229492.308758.3486345.4631347.8203095.4631347 1.4150391zm-2.8540039 0c0 .478518.0957022.8430977.2871094 1.09375s.4728171.3759765.8442383.3759765c.3714211 0 .6534007-.1247546.8459472-.3742676.1925466-.2495129.2888184-.6146623.2888184-1.0954589 0-.4762394-.0962718-.8379708-.2888184-1.0852051-.1925465-.2472343-.4768047-.3708496-.8527832-.3708496-.3714211 0-.6516917.1219063-.8408203.3657226-.1891285.2438163-.2836914.6072567-.2836914 1.0903321zm6.6336898 1.8764648v-2.4233398c0-.3053401-.069498-.5332024-.2084961-.6835938s-.3566066-.2255859-.652832-.2255859c-.3919291 0-.6790356.1059559-.8613282.3178711-.1822925.2119151-.2734375.5616837-.2734375 1.0493164v1.965332h-.5673828v-3.7460938h.4614258l.0922852.5126954h.0273437c.1162115-.1845713.2791331-.3275549.4887696-.4289551.2096364-.1014003.4431953-.1520996.7006835-.1520996.4511742 0 .790689.1088042 1.0185547.326416.2278658.2176118.3417969.5656714.3417969 1.0441894v2.4438477zm3.5370101.0683594c-.5537137 0-.9906397-.1686181-1.310791-.5058594-.3201514-.3372413-.4802246-.8054983-.4802246-1.4047852 0-.6038441.1486801-1.0834943.4460449-1.4389648.2973647-.3554705.6966934-.5332031 1.197998-.5332031.4694034 0 .840819.1543767 1.1142578.4631347.2734389.3087581.4101563.716062.4101563 1.2219239v.3588867h-2.5805664c.0113933.4397808.1224761.7735991.3332519 1.0014648.2107758.2278658.5075665.3417969.8903809.3417969.4033223 0 .8020814-.084309 1.1962891-.2529297v.5058594c-.2005219.086589-.3902172.1486814-.5690918.1862793-.1788746.0375978-.3947742.0563965-.6477051.0563965zm-.1538086-3.4077149c-.3007828 0-.5406078.0979808-.7194824.2939453-.1788746.1959646-.2842609.4671207-.3161621.8134766h1.9584961c0-.3577492-.0797519-.6317536-.2392579-.8220215s-.3873683-.2854004-.6835937-.2854004zm3.2874984 3.3393555h-.5673829v-3.7460938h.5673829zm-.6152344-4.7612305c0-.1298834.0319007-.2250159.0957031-.2854004.0638024-.0603844.1435542-.0905761.2392578-.0905761.0911463 0 .1697588.0307614.2358399.0922851.066081.0615238.0991211.1560866.0991211.2836914s-.0330401.2227373-.0991211.2854004c-.0660811.0626631-.1446936.0939942-.2358399.0939942-.0957036 0-.1754554-.0313311-.2392578-.0939942s-.0957031-.1577956-.0957031-.2854004zm5.1058577 1.0151367v.3588868l-.6938476.0820312c.0638024.079753.1207679.184.1708984.3127442.0501305.1287441.0751953.2740063.0751953.435791 0 .3668638-.1253242.6596668-.3759765.8784179s-.5947244.328125-1.0322266.328125c-.1116542 0-.2164709-.0091144-.3144531-.0273437-.2415377.1276048-.3623047.2882477-.3623047.4819336 0 .1025396.0421545.1783038.1264648.2272949s.2290029.0734863.4340821.0734863h.6630859c.405601 0 .7172027.0854484.9348144.2563477.2176118.1708993.3264161.4192692.3264161.7451172 0 .4147156-.1663395.7308745-.4990235.9484863-.3326839.2176118-.8180306.326416-1.4560547.326416-.4899113 0-.867593-.0911449-1.1330566-.2734375s-.3981934-.439777-.3981934-.7724609c0-.2278657.072916-.4249666.21875-.5913086.1458341-.166342.3509102-.2791338.6152344-.3383789-.0957036-.0432945-.1760251-.1105139-.2409668-.2016602s-.0974121-.1971022-.0974121-.3178711c0-.1367194.036458-.2563471.109375-.3588867s.1879875-.2016597.3452148-.2973633c-.1936858-.079753-.3514805-.215331-.4733886-.4067382-.1219082-.1914073-.1828614-.4101551-.1828614-.65625 0-.4101583.1230457-.7263173.3691407-.9484864s.5947243-.3332519 1.0458984-.3332519c.1959645 0 .3725578.0227862.5297852.0683593zm-2.9873047 4.375c0 .2028005.0854484.3566076.2563477.4614258.1708993.1048183.4158513.1572266.7348633.1572266.4762393 0 .8288563-.071207 1.0578613-.2136231.2290051-.142416.3435059-.3355293.3435059-.5793457 0-.2028004-.0626622-.3435054-.1879883-.4221191-.1253262-.0786137-.3611637-.1179199-.7075196-.1179199h-.6801757c-.2574883 0-.4580071.0615228-.6015625.1845703s-.2153321.2996408-.2153321.5297851zm.3076172-3.1752929c0 .2620456.0740553.4602858.222168.5947265.1481127.1344408.3543281.2016602.6186523.2016602.5537137 0 .8305664-.2688775.8305664-.8066406 0-.5628284-.2802706-.8442383-.8408203-.8442383-.2666029 0-.4716789.0717766-.6152343.215332s-.2153321.3566067-.2153321.6391602zm6.2337875 2.5463867v-2.4233398c0-.3053401-.069498-.5332024-.2084961-.6835938s-.3566066-.2255859-.6528321-.2255859c-.3942077 0-.6818838.1070953-.8630371.321289-.1811532.2141938-.2717285.5651018-.2717285 1.0527344v1.9584961h-.5673828v-5.3183594h.5673828v1.6098633c0 .1936859-.0091145.3543288-.0273437.4819336h.0341796c.1116542-.1800139.2705882-.3218582.4768067-.4255371s.4414863-.1555176.7058105-.1555176c.4580101 0 .8015126.1088043 1.0305176.326416.2290051.2176118.3435059.5633928.3435059 1.0373535v2.4438477zm3.6976546-3.8076172c.4921899 0 .874429.1680485 1.1467285.5041504s.4084473.8117645.4084473 1.427002c0 .6152374-.1372871 1.0931786-.4118653 1.4338378-.2745782.3406593-.6556779.5109864-1.1433105.5109864-.2438163 0-.4665518-.0450028-.6682129-.1350098-.2016612-.090007-.3708489-.2284333-.5075684-.4152832h-.0410156l-.1196289.4819336h-.4067383v-5.3183594h.5673828v1.2919922c0 .2893895-.0091145.5491525-.0273437.7792969h.0273437c.2643243-.3736998.6562474-.5605469 1.1757813-.5605469zm-.0820313.4750977c-.3873717 0-.666503.1110828-.8374023.3332519s-.2563477.5964329-.2563477 1.1228028c0 .5263698.087727.9029122.2631836 1.1296386s.4568666.3400879.8442383.3400879c.3486346 0 .6083976-.1270332.7792969-.3811035s.2563476-.6192196.2563476-1.095459c0-.4876326-.0854483-.851073-.2563476-1.090332s-.4352196-.3588867-.7929688-.3588867zm6.0833968 1.4560547c0 .6106801-.153807 1.087482-.4614258 1.4304199-.3076187.3429379-.7325819.5144043-1.2749023.5144043-.3349626 0-.6323229-.0786125-.8920898-.2358399-.259767-.1572273-.4602858-.382811-.6015625-.6767578-.1412768-.2939468-.2119141-.6380188-.2119141-1.0322265 0-.6106802.1526677-1.0863427.4580078-1.427002s.729164-.5109863 1.2714844-.5109863c.5240911 0 .9405095.1743146 1.2492676.5229492.308758.3486345.4631347.8203095.4631347 1.4150391zm-2.8540039 0c0 .478518.0957022.8430977.2871094 1.09375s.4728172.3759765.8442383.3759765.6534007-.1247546.8459472-.3742676c.1925466-.2495129.2888184-.6146623.2888184-1.0954589 0-.4762394-.0962718-.8379708-.2888184-1.0852051-.1925465-.2472343-.4768047-.3708496-.8527832-.3708496-.3714211 0-.6516917.1219063-.8408203.3657226-.1891285.2438163-.2836914.6072567-.2836914 1.0903321zm5.7791976-1.9379883c.166342 0 .3155918.0136717.4477539.0410156l-.0786133.5263672c-.1549487-.0341799-.291666-.0512695-.4101562-.0512695-.3030614 0-.5622548.1230456-.7775879.3691406s-.3229981.5525698-.3229981.9194336v2.0097656h-.5673828v-3.7460938h.4682618l.0649414.6938477h.0273437c.1389981-.2438163.3064769-.4318027.5024414-.5639648.1959645-.1321622.4112944-.1982422.6459961-.1982422zm1.2879867 3.4521484c0-.15267.034749-.2683101.104248-.3469238.0694991-.0786137.1691888-.1179199.2990723-.1179199.1321621 0 .2352698.0393062.3093261.1179199.0740564.0786137.111084.1942538.111084.3469238 0 .1481127-.0375972.2620439-.1127929.3417969s-.1777338.1196289-.3076172.1196289c-.1162115 0-.2124834-.0358883-.2888184-.107666s-.1145019-.1896965-.1145019-.3537598zm3.6634749.4306641c-.5423204 0-.9621567-.1669092-1.2595215-.5007324-.2973648-.3338233-.4460449-.806068-.4460449-1.4167481 0-.6266307.1509588-1.1108381.4528808-1.4526367.3019221-.3417986.7320122-.5126953 1.2902832-.5126953.180014 0 .3600252.0193683.5400391.0581054.1800139.0387372.3212886.0843097.4238281.1367188l-.1743164.4819336c-.1253261-.0501305-.2620435-.0917153-.4101562-.1247559-.1481127-.0330405-.2791336-.0495605-.3930664-.0495605-.7610715 0-1.1416016.4853467-1.1416016 1.4560547 0 .4602887.0928539.8134753.2785645 1.0595703.1857105.246095.4608543.3691406.8254394.3691406.3121761 0 .6323226-.0672194.9604492-.2016601v.5024414c-.2506523.1298834-.5662415.1948242-.9467773.1948242zm5.290428-1.9448242c0 .6106801-.153807 1.087482-.4614257 1.4304199-.3076188.3429379-.732582.5144043-1.2749024.5144043-.3349626 0-.6323229-.0786125-.8920898-.2358399-.2597669-.1572273-.4602858-.382811-.6015625-.6767578-.1412768-.2939468-.2119141-.6380188-.2119141-1.0322265 0-.6106802.1526678-1.0863427.4580078-1.427002.3053401-.3406593.729164-.5109863 1.2714844-.5109863.5240912 0 .9405095.1743146 1.2492676.5229492.308758.3486345.4631347.8203095.4631347 1.4150391zm-2.8540039 0c0 .478518.0957022.8430977.2871094 1.09375s.4728172.3759765.8442383.3759765.6534007-.1247546.8459473-.3742676c.1925465-.2495129.2888183-.6146623.2888183-1.0954589 0-.4762394-.0962718-.8379708-.2888183-1.0852051-.1925466-.2472343-.4768048-.3708496-.8527832-.3708496-.3714212 0-.6516918.1219063-.8408204.3657226-.1891285.2438163-.2836914.6072567-.2836914 1.0903321z"/><path d="m3.66748047 72.2539062v.3588868l-.69384766.0820312c.0638024.079753.12076798.184.17089844.3127442.05013046.1287441.07519531.2740063.07519531.435791 0 .3668638-.12532427.6596668-.37597656.8784179s-.59472438.328125-1.03222656.328125c-.11165421 0-.21647087-.0091144-.31445313-.0273437-.24153766.1276048-.36230469.2882477-.36230469.4819336 0 .1025396.04215453.1783038.12646485.2272949s.22900288.0734863.43408203.0734863h.66308594c.40560098 0 .71720269.0854484.93481445.2563477.21761177.1708993.32641602.4192692.32641602.7451172 0 .4147156-.16633949.7308745-.49902344.9484863-.33268396.2176118-.81803067.326416-1.45605469.326416-.4899113 0-.86759307-.0911449-1.13305664-.2734375s-.39819336-.439777-.39819336-.7724609c0-.2278657.07291594-.4249666.21875-.5913086s.35091014-.2791338.61523438-.3383789c-.09570361-.0432945-.17602507-.1105139-.2409668-.2016602s-.09741211-.1971022-.09741211-.3178711c0-.1367194.03645797-.2563471.109375-.3588867s.1879875-.2016597.34521484-.2973633c-.19368586-.079753-.35148051-.215331-.47338867-.4067382-.12190816-.1914073-.18286133-.4101551-.18286133-.65625 0-.4101583.12304565-.7263173.36914063-.9484864s.59472431-.3332519 1.04589844-.3332519c.19596452 0 .3725578.0227862.52978515.0683593zm-2.98730469 4.375c0 .2028005.08544837.3566076.25634766.4614258.17089929.1048183.41585127.1572266.73486328.1572266.47623936 0 .82885628-.071207 1.05786133-.2136231.22900505-.142416.34350586-.3355293.34350586-.5793457 0-.2028004-.06266214-.3435054-.18798829-.4221191-.12532614-.0786137-.36116363-.1179199-.70751953-.1179199h-.68017578c-.25748826 0-.45800709.0615228-.6015625.1845703-.1435554.1230475-.21533203.2996408-.21533203.5297851zm.30761719-3.1752929c0 .2620456.07405525.4602858.22216797.5947265.14811272.1344408.3543281.2016602.61865234.2016602.55371371 0 .83056641-.2688775.83056641-.8066406 0-.5628284-.28027064-.8442383-.84082031-.8442383-.2666029 0-.47167897.0717766-.61523438.215332s-.21533203.3566067-.21533203.6391602zm6.9037093.6699219c0 .6106801-.15380705 1.087482-.46142578 1.4304199-.30761872.3429379-.73258192.5144043-1.27490234.5144043-.33496261 0-.63232292-.0786125-.89208984-.2358399-.25976693-.1572273-.46028576-.382811-.6015625-.6767578-.14127675-.2939468-.21191407-.6380188-.21191407-1.0322265 0-.6106802.15266775-1.0863427.45800782-1.427002.30534006-.3406593.72916395-.5109863 1.27148437-.5109863.52409116 0 .94050953.1743146 1.24926758.5229492.30875805.3486345.46313476.8203095.46313476 1.4150391zm-2.8540039 0c0 .478518.09570217.8430977.28710937 1.09375.19140721.2506523.47281716.3759765.84423828.3759765.37142113 0 .65340073-.1247546.84594727-.3742676.19254654-.2495129.28881836-.6146623.28881836-1.0954589 0-.4762394-.09627182-.8379708-.28881836-1.0852051s-.47680476-.3708496-.8527832-.3708496c-.37142113 0-.65169177.1219063-.84082032.3657226-.18912854.2438163-.2836914.6072567-.2836914 1.0903321zm6.63368973 1.8764648v-2.4233398c0-.3053401-.069498-.5332024-.2084961-.6835938-.138998-.1503914-.3566065-.2255859-.652832-.2255859-.391929 0-.6790355.1059559-.86132811.3178711-.18229257.2119151-.2734375.5616837-.2734375 1.0493164v1.965332h-.56738281v-3.7460938h.46142578l.09228516.5126954h.02734375c.11621152-.1845713.27913307-.3275549.48876953-.4289551.2096365-.1014003.4431953-.1520996.7006836-.1520996.4511741 0 .790689.1088042 1.0185547.326416s.3417969.5656714.3417969 1.0441894v2.4438477zm3.5370101.0683594c-.5537137 0-.9906396-.1686181-1.310791-.5058594-.3201513-.3372413-.4802246-.8054983-.4802246-1.4047852 0-.6038441.1486802-1.0834943.4460449-1.4389648.2973648-.3554705.6966935-.5332031 1.1979981-.5332031.4694034 0 .8408189.1543767 1.1142578.4631347.2734389.3087581.4101562.716062.4101562 1.2219239v.3588867h-2.5805664c.0113933.4397808.1224762.7735991.333252 1.0014648.2107758.2278658.5075664.3417969.8903808.3417969.4033224 0 .8020814-.084309 1.1962891-.2529297v.5058594c-.2005218.086589-.3902172.1486814-.5690918.1862793-.1788746.0375978-.3947741.0563965-.6477051.0563965zm-.1538086-3.4077149c-.3007827 0-.5406078.0979808-.7194824.2939453-.1788746.1959646-.2842609.4671207-.3161621.8134766h1.9584961c0-.3577492-.0797518-.6317536-.2392578-.8220215s-.3873683-.2854004-.6835938-.2854004zm3.2874984 3.3393555h-.5673828v-3.7460938h.5673828zm-.6152344-4.7612305c0-.1298834.0319008-.2250159.0957032-.2854004.0638024-.0603844.1435542-.0905761.2392578-.0905761.0911463 0 .1697588.0307614.2358398.0922851.0660811.0615238.0991211.1560866.0991211.2836914s-.03304.2227373-.0991211.2854004c-.066081.0626631-.1446935.0939942-.2358398.0939942-.0957036 0-.1754554-.0313311-.2392578-.0939942s-.0957032-.1577956-.0957032-.2854004zm5.1058578 1.0151367v.3588868l-.6938477.0820312c.0638024.079753.120768.184.1708985.3127442.0501304.1287441.0751953.2740063.0751953.435791 0 .3668638-.1253243.6596668-.3759766.8784179s-.5947244.328125-1.0322266.328125c-.1116542 0-.2164708-.0091144-.3144531-.0273437-.2415376.1276048-.3623047.2882477-.3623047.4819336 0 .1025396.0421546.1783038.1264649.2272949s.2290029.0734863.434082.0734863h.6630859c.405601 0 .7172027.0854484.9348145.2563477s.326416.4192692.326416.7451172c0 .4147156-.1663395.7308745-.4990234.9484863-.332684.2176118-.8180307.326416-1.4560547.326416-.4899113 0-.8675931-.0911449-1.1330567-.2734375-.2654635-.1822926-.3981933-.439777-.3981933-.7724609 0-.2278657.0729159-.4249666.21875-.5913086.145834-.166342.3509101-.2791338.6152344-.3383789-.0957036-.0432945-.1760251-.1105139-.2409668-.2016602-.0649418-.0911463-.0974121-.1971022-.0974121-.3178711 0-.1367194.0364579-.2563471.109375-.3588867.072917-.1025396.1879875-.2016597.3452148-.2973633-.1936859-.079753-.3514805-.215331-.4733887-.4067382-.1219081-.1914073-.1828613-.4101551-.1828613-.65625 0-.4101583.1230456-.7263173.3691406-.9484864s.5947243-.3332519 1.0458985-.3332519c.1959645 0 .3725578.0227862.5297851.0683593zm-2.9873047 4.375c0 .2028005.0854484.3566076.2563476.4614258.1708993.1048183.4158513.1572266.7348633.1572266.4762394 0 .8288563-.071207 1.0578614-.2136231.229005-.142416.3435058-.3355293.3435058-.5793457 0-.2028004-.0626621-.3435054-.1879883-.4221191-.1253261-.0786137-.3611636-.1179199-.7075195-.1179199h-.6801758c-.2574882 0-.4580071.0615228-.6015625.1845703s-.215332.2996408-.215332.5297851zm.3076172-3.1752929c0 .2620456.0740552.4602858.2221679.5947265.1481128.1344408.3543281.2016602.6186524.2016602.5537137 0 .8305664-.2688775.8305664-.8066406 0-.5628284-.2802706-.8442383-.8408203-.8442383-.2666029 0-.471679.0717766-.6152344.215332s-.215332.3566067-.215332.6391602zm6.2337874 2.5463867v-2.4233398c0-.3053401-.069498-.5332024-.2084961-.6835938s-.3566066-.2255859-.652832-.2255859c-.3942077 0-.6818839.1070953-.8630371.321289-.1811533.2141938-.2717285.5651018-.2717285 1.0527344v1.9584961h-.5673829v-5.3183594h.5673829v1.6098633c0 .1936859-.0091145.3543288-.0273438.4819336h.0341797c.1116542-.1800139.2705882-.3218582.4768066-.4255371.2062185-.1036789.4414863-.1555176.7058106-.1555176.4580101 0 .8015125.1088043 1.0305176.326416.229005.2176118.3435058.5633928.3435058 1.0373535v2.4438477zm3.6976546-3.8076172c.49219 0 .874429.1680485 1.1467285.5041504.2722996.3361019.4084473.8117645.4084473 1.427002 0 .6152374-.137287 1.0931786-.4118652 1.4338378-.2745782.3406593-.6556779.5109864-1.1433106.5109864-.2438163 0-.4665517-.0450028-.6682129-.1350098-.2016611-.090007-.3708489-.2284333-.5075683-.4152832h-.0410156l-.119629.4819336h-.4067382v-5.3183594h.5673828v1.2919922c0 .2893895-.0091145.5491525-.0273438.7792969h.0273438c.2643242-.3736998.6562474-.5605469 1.1757812-.5605469zm-.0820312.4750977c-.3873718 0-.6665031.1110828-.8374024.3332519s-.2563476.5964329-.2563476 1.1228028c0 .5263698.087727.9029122.2631836 1.1296386s.4568665.3400879.8442383.3400879c.3486345 0 .6083975-.1270332.7792968-.3811035s.2563477-.6192196.2563477-1.095459c0-.4876326-.0854484-.851073-.2563477-1.090332s-.4352195-.3588867-.7929687-.3588867zm6.0833968 1.4560547c0 .6106801-.1538071 1.087482-.4614258 1.4304199s-.7325819.5144043-1.2749023.5144043c-.3349627 0-.632323-.0786125-.8920899-.2358399-.2597669-.1572273-.4602857-.382811-.6015625-.6767578-.1412767-.2939468-.2119141-.6380188-.2119141-1.0322265 0-.6106802.1526678-1.0863427.4580079-1.427002.30534-.3406593.7291639-.5109863 1.2714843-.5109863.5240912 0 .9405096.1743146 1.2492676.5229492.3087581.3486345.4631348.8203095.4631348 1.4150391zm-2.8540039 0c0 .478518.0957021.8430977.2871093 1.09375.1914073.2506523.4728172.3759765.8442383.3759765.3714212 0 .6534008-.1247546.8459473-.3742676.1925465-.2495129.2888184-.6146623.2888184-1.0954589 0-.4762394-.0962719-.8379708-.2888184-1.0852051s-.4768048-.3708496-.8527832-.3708496c-.3714211 0-.6516918.1219063-.8408203.3657226-.1891286.2438163-.2836914.6072567-.2836914 1.0903321zm5.7791976-1.9379883c.1663419 0 .3155917.0136717.4477539.0410156l-.0786133.5263672c-.1549487-.0341799-.2916661-.0512695-.4101563-.0512695-.3030614 0-.5622547.1230456-.7775879.3691406-.2153331.246095-.322998.5525698-.322998.9194336v2.0097656h-.5673828v-3.7460938h.4682617l.0649414.6938477h.0273438c.1389981-.2438163.3064768-.4318027.5024414-.5639648.1959645-.1321622.4112944-.1982422.6459961-.1982422zm1.2879866 3.4521484c0-.15267.034749-.2683101.1042481-.3469238.069499-.0786137.1691888-.1179199.2990722-.1179199.1321621 0 .2352698.0393062.3093262.1179199s.111084.1942538.111084.3469238c0 .1481127-.0375973.2620439-.112793.3417969s-.1777337.1196289-.3076172.1196289c-.1162115 0-.2124833-.0358883-.2888183-.107666-.0763351-.0717777-.114502-.1896965-.114502-.3537598zm3.6634749.4306641c-.5423204 0-.9621567-.1669092-1.2595214-.5007324-.2973648-.3338233-.446045-.806068-.446045-1.4167481 0-.6266307.1509588-1.1108381.4528809-1.4526367s.7320122-.5126953 1.2902832-.5126953c.1800139 0 .3600251.0193683.5400391.0581054.1800139.0387372.3212885.0843097.4238281.1367188l-.1743164.4819336c-.1253262-.0501305-.2620435-.0917153-.4101563-.1247559-.1481127-.0330405-.2791335-.0495605-.3930664-.0495605-.7610715 0-1.1416015.4853467-1.1416015 1.4560547 0 .4602887.0928539.8134753.2785644 1.0595703.1857106.246095.4608543.3691406.8254395.3691406.312176 0 .6323225-.0672194.9604492-.2016601v.5024414c-.2506523.1298834-.5662416.1948242-.9467774.1948242zm5.2904281-1.9448242c0 .6106801-.1538071 1.087482-.4614258 1.4304199s-.7325819.5144043-1.2749023.5144043c-.3349626 0-.6323229-.0786125-.8920899-.2358399-.2597669-.1572273-.4602857-.382811-.6015625-.6767578-.1412767-.2939468-.211914-.6380188-.211914-1.0322265 0-.6106802.1526677-1.0863427.4580078-1.427002.30534-.3406593.7291639-.5109863 1.2714844-.5109863.5240911 0 .9405095.1743146 1.2492675.5229492.3087581.3486345.4631348.8203095.4631348 1.4150391zm-2.8540039 0c0 .478518.0957022.8430977.2871094 1.09375s.4728171.3759765.8442382.3759765c.3714212 0 .6534008-.1247546.8459473-.3742676.1925466-.2495129.2888184-.6146623.2888184-1.0954589 0-.4762394-.0962718-.8379708-.2888184-1.0852051-.1925465-.2472343-.4768047-.3708496-.8527832-.3708496-.3714211 0-.6516918.1219063-.8408203.3657226s-.2836914.6072567-.2836914 1.0903321z"/></g></g></g></g><g transform="translate(320 25)"><use fill="#fff" xlink:href="#b"/><path d="m60.6 101.672c.4053354 0 .7559985.053333 1.052.16s.5959985.282665.9.528c.0640003.048.1066666.097333.128.148s.032.110666.032.18c0 .106667-.0386663.194666-.116.264s-.1666662.104-.268.104-.1946662-.034666-.28-.104c-.2186678-.186668-.431999-.321333-.64-.404s-.4773317-.124-.808-.124c-.4160021 0-.7986649.109332-1.148.328s-.6266656.515998-.832.892-.308.785331-.308 1.228c0 .448002.1026656.858665.308 1.232s.4826649.669332.832.888.7319979.328 1.148.328c.5120026 0 1.0026643-.175998 1.472-.528.0906671-.064.1786662-.096.264-.096.1013338 0 .185333.036.252.108s.1.166666.1.284c0 .112001-.0426662.210666-.128.296-.5760029.464002-1.2293297.696-1.96.696-.5706695 0-1.0919976-.141332-1.564-.424s-.8439986-.669331-1.116-1.16-.408-1.031997-.408-1.624c0-.58667.1359986-1.123998.408-1.612s.6439976-.874665 1.116-1.16.9933305-.428 1.564-.428zm8.304 0c.6133364 0 1.1613309.135999 1.644.408s.8586653.650664 1.128 1.136.404 1.03733.404 1.656-.1346653 1.171998-.404 1.66-.6439976.867999-1.124 1.14-1.0293302.408-1.648.408-1.1693309-.135999-1.652-.408-.857332-.651998-1.124-1.14-.4-1.04133-.4-1.66.133332-1.170664.4-1.656.6413309-.863999 1.124-1.136 1.0333302-.408 1.652-.408zm0 .752c-.458669 0-.8679982.106666-1.228.32s-.6413323.506665-.844.88-.304.789331-.304 1.248.1013323.874665.304 1.248.4853315.667999.848.884.7706644.324 1.224.324.8613315-.107999 1.224-.324.6453323-.510665.848-.884.304-.789331.304-1.248-.1013323-.874665-.304-1.248-.4839982-.666666-.844-.88-.769331-.32-1.228-.32zm10.696-.256c0-.122667.0399996-.222666.12-.3s.1786661-.116.296-.116.2146663.038666.292.116.116.177333.116.3v5.416c0 .122667-.0386663.222666-.116.3s-.1746661.116-.292.116c-.058667 0-.1186664-.012-.18-.036s-.1079998-.06-.14-.108l-3.488-4.64v4.368c0 .117334-.0386663.216-.116.296s-.1773327.12-.3.12c-.1173339 0-.2146663-.038666-.292-.116s-.116-.177333-.116-.3v-5.416c0-.122667.0386663-.222666.116-.3s.1746661-.116.292-.116c.058667 0 .117333.014667.176.044s.1066665.065333.144.108l3.488 4.64zm6.52-.488c.458669 0 .8453318.093332 1.16.28s.5813322.453332.8.8c.0640003.101334.096.197333.096.288 0 .117334-.0533328.213333-.16.288-.058667.037334-.1279996.056-.208.056s-.1546663-.02-.224-.06-.1226665-.094666-.16-.164c-.1440007-.240001-.3239989-.422666-.54-.548s-.4893317-.188-.82-.188c-.4053354 0-.7333321.078666-.984.236s-.376.385332-.376.684c0 .277335.1119989.509332.336.696s.6239971.309333 1.2.368c.6400032.064 1.1359982.257332 1.488.58s.528.747997.528 1.276c0 .384002-.103999.713332-.312.988s-.4839983.479999-.828.616-.7133314.204-1.108.204c-.5173359 0-.9879979-.117332-1.412-.352s-.7159992-.541331-.876-.92c-.0266668-.064-.04-.117333-.04-.16 0-.08.029333-.150666.088-.212s.1386662-.102667.24-.124c.0160001-.005333.0426665-.008.08-.008.0853338 0 .1666663.025333.244.076s.1346665.118666.172.204c.0960005.208001.2853319.383999.568.528s.594665.216.936.216c.400002 0 .7386653-.091999 1.016-.276s.416-.435998.416-.756c0-.304002-.1173322-.563999-.352-.78s-.5919976-.348-1.072-.396c-.6613366-.064-1.1813314-.257332-1.56-.58s-.568-.726664-.568-1.212c0-.341335.0973324-.635999.292-.884s.4613316-.437333.8-.568.7186646-.196 1.14-.196zm5.408.488c0-.122667.0399996-.222666.12-.3s.1786661-.116.296-.116c.1226673 0 .2226663.038666.3.116s.116.177333.116.3v3.736c0 .282668.0759992.535999.228.76s.3626653.398666.632.524.5773316.188.924.188c.3306683 0 .6266654-.062666.888-.188s.4653326-.299999.612-.524.22-.477332.22-.76v-3.736c0-.122667.0399996-.222666.12-.3s.1786661-.116.296-.116.2146663.038666.292.116.116.177333.116.3v3.736c0 .426669-.1079989.809332-.324 1.148s-.5173314.602666-.904.792-.8253309.284-1.316.284c-.5066692 0-.9586647-.094666-1.356-.284s-.7066656-.451998-.928-.788-.332-.719998-.332-1.152zm14.6-.416c.117334 0 .216.04.296.12s.12.178666.12.296v5.416c0 .117334-.041333.216-.124.296s-.179999.12-.292.12c-.117334 0-.216-.04-.296-.12s-.12-.178666-.12-.296v-3.976l-1.936 3.944c-.090667.138667-.210666.208-.36.208-.176001 0-.304-.082666-.384-.248l-1.912-3.832v3.904c0 .117334-.04.216-.12.296s-.178666.12-.296.12-.216-.04-.296-.12-.12-.178666-.12-.296v-5.416c0-.117334.04-.216.12-.296s.178666-.12.296-.12c.160001 0 .282666.074666.368.224l2.376 4.76 2.312-4.76c.085334-.149334.207999-.224.368-.224zm8.048 5.48c.122667 0 .221333.034666.296.104s.112.159999.112.272c0 .117334-.037333.212-.112.284s-.173333.108-.296.108h-3.616c-.117334 0-.216-.04-.296-.12s-.12-.178666-.12-.296v-5.416c0-.122667.04-.222666.12-.3s.178666-.116.296-.116h3.616c.122667 0 .221333.036.296.108s.112.166666.112.284c0 .112001-.037333.202666-.112.272s-.173333.104-.296.104h-3.2v1.944h2.296c.117334 0 .214666.036.292.108s.116.163999.116.276-.038666.204-.116.276-.174666.108-.292.108h-2.296v2zm7.624.128c.053334.085334.08.173333.08.264 0 .106667-.036.196-.108.268s-.169333.108-.292.108c-.154667 0-.274666-.066666-.36-.2l-1.376-2.208h-1.168v1.992c0 .117334-.038666.216-.116.296s-.177333.12-.3.12c-.117334 0-.216-.04-.296-.12s-.12-.178666-.12-.296v-5.416c0-.122667.04-.222666.12-.3s.178666-.116.296-.116h1.44c.394669 0 .747998.082666 1.06.248s.554666.397332.728.696.26.639998.26 1.024c0 .378669-.095999.714665-.288 1.008s-.453332.514666-.784.664zm-2.2-2.536c.362668 0 .661332-.102666.896-.308s.352-.470665.352-.796c0-.352002-.117332-.639999-.352-.864s-.533332-.336-.896-.336h-1.024v2.304zm6.88.584c.117334 0 .213333.038666.288.116s.112.174666.112.292-.037333.213333-.112.288-.170666.112-.288.112h-1.784c-.117334 0-.214666-.037333-.292-.112s-.116-.170666-.116-.288.038666-.214666.116-.292.174666-.116.292-.116zm6.072-.944c.117334 0 .214666.036.292.108s.116.163999.116.276-.038666.204-.116.276-.174666.108-.292.108h-2.296v2.352c0 .117334-.04.216-.12.296s-.178666.12-.296.12-.216-.04-.296-.12-.12-.178666-.12-.296v-5.416c0-.122667.04-.222666.12-.3s.178666-.116.296-.116h3.616c.122667 0 .221333.036.296.108s.112.166666.112.284c0 .112001-.037333.202666-.112.272s-.173333.104-.296.104h-3.2v1.944zm4.376-2.296c0-.122667.04-.222666.12-.3s.178666-.116.296-.116c.122667 0 .222666.038666.3.116s.116.177333.116.3v5.416c0 .117334-.038666.216-.116.296s-.177333.12-.3.12c-.117334 0-.216-.04-.296-.12s-.12-.178666-.12-.296zm8.488 5.192c.053334.085334.08.173333.08.264 0 .106667-.036.196-.108.268s-.169333.108-.292.108c-.154667 0-.274666-.066666-.36-.2l-1.376-2.208h-1.168v1.992c0 .117334-.038666.216-.116.296s-.177333.12-.3.12c-.117334 0-.216-.04-.296-.12s-.12-.178666-.12-.296v-5.416c0-.122667.04-.222666.12-.3s.178666-.116.296-.116h1.44c.394669 0 .747998.082666 1.06.248s.554666.397332.728.696.26.639998.26 1.024c0 .378669-.095999.714665-.288 1.008s-.453332.514666-.784.664zm-2.2-2.536c.362668 0 .661332-.102666.896-.308s.352-.470665.352-.796c0-.352002-.117332-.639999-.352-.864s-.533332-.336-.896-.336h-1.024v2.304zm7.296-3.144c.458669 0 .845332.093332 1.16.28s.581332.453332.8.8c.064.101334.096.197333.096.288 0 .117334-.053333.213333-.16.288-.058667.037334-.128.056-.208.056s-.154666-.02-.224-.06-.122666-.094666-.16-.164c-.144001-.240001-.323999-.422666-.54-.548s-.489332-.188-.82-.188c-.405335 0-.733332.078666-.984.236s-.376.385332-.376.684c0 .277335.111999.509332.336.696s.623997.309333 1.2.368c.640003.064 1.135998.257332 1.488.58s.528.747997.528 1.276c0 .384002-.103999.713332-.312.988s-.483998.479999-.828.616-.713331.204-1.108.204c-.517336 0-.987998-.117332-1.412-.352s-.715999-.541331-.876-.92c-.026667-.064-.04-.117333-.04-.16 0-.08.029333-.150666.088-.212s.138666-.102667.24-.124c.016-.005333.042666-.008.08-.008.085334 0 .166666.025333.244.076s.134666.118666.172.204c.096.208001.285332.383999.568.528s.594665.216.936.216c.400002 0 .738665-.091999 1.016-.276s.416-.435998.416-.756c0-.304002-.117332-.563999-.352-.78s-.591998-.348-1.072-.396c-.661337-.064-1.181331-.257332-1.56-.58s-.568-.726664-.568-1.212c0-.341335.097332-.635999.292-.884s.461332-.437333.8-.568.718665-.196 1.14-.196zm9.072.072c.112001 0 .204.036.276.108s.108.163999.108.276-.036.204-.108.276-.163999.108-.276.108h-1.72v5.064c0 .117334-.04.216-.12.296s-.178666.12-.296.12-.216-.04-.296-.12-.12-.178666-.12-.296v-5.064h-1.728c-.112001 0-.204-.036-.276-.108s-.108-.163999-.108-.276.036-.204.108-.276.163999-.108.276-.108zm9.976 0c.357335 0 .674665.070666.952.212s.494666.338665.652.592.236.539998.236.86c0 .261335-.070666.495999-.212.704s-.334665.375999-.58.504c.362668.085334.647999.255999.856.512s.312.581331.312.976c0 .362668-.086666.687999-.26.976s-.415998.511999-.728.672-.665331.24-1.06.24h-2.08c-.117334 0-.216-.04-.296-.12s-.12-.178666-.12-.296v-5.416c0-.122667.04-.222666.12-.3s.178666-.116.296-.116zm0 2.568c.314668 0 .566666-.077333.756-.232s.284-.378665.284-.672-.094666-.515999-.284-.668-.441332-.228-.756-.228h-1.496v1.8zm.168 2.912c.373335 0 .674666-.097332.904-.292s.344-.470665.344-.828c0-.330668-.113332-.583999-.34-.76s-.529331-.264-.908-.264h-1.664v2.144zm5.288-5.064c0-.122667.04-.222666.12-.3s.178666-.116.296-.116c.122667 0 .222666.038666.3.116s.116.177333.116.3v5.416c0 .117334-.038666.216-.116.296s-.177333.12-.3.12c-.117334 0-.216-.04-.296-.12s-.12-.178666-.12-.296zm8.152 5c.117334 0 .216.04.296.12s.12.178666.12.296-.04.216-.12.296-.178666.12-.296.12h-3.312c-.117334 0-.214666-.04-.292-.12s-.116-.178666-.116-.296v-5.416c0-.117334.04-.216.12-.296s.175999-.12.288-.12c.117334 0 .216.04.296.12s.12.178666.12.296v5zm7.136 0c.117334 0 .216.04.296.12s.12.178666.12.296-.04.216-.12.296-.178666.12-.296.12h-3.312c-.117334 0-.214666-.04-.292-.12s-.116-.178666-.116-.296v-5.416c0-.117334.04-.216.12-.296s.175999-.12.288-.12c.117334 0 .216.04.296.12s.12.178666.12.296v5zm3.416-5c0-.122667.04-.222666.12-.3s.178666-.116.296-.116c.122667 0 .222666.038666.3.116s.116.177333.116.3v5.416c0 .117334-.038666.216-.116.296s-.177333.12-.3.12c-.117334 0-.216-.04-.296-.12s-.12-.178666-.12-.296zm8.648 0c0-.122667.04-.222666.12-.3s.178666-.116.296-.116.214666.038666.292.116.116.177333.116.3v5.416c0 .122667-.038666.222666-.116.3s-.174666.116-.292.116c-.058667 0-.118666-.012-.18-.036s-.108-.06-.14-.108l-3.488-4.64v4.368c0 .117334-.038666.216-.116.296s-.177333.12-.3.12c-.117334 0-.214666-.038666-.292-.116s-.116-.177333-.116-.3v-5.416c0-.122667.038666-.222666.116-.3s.174666-.116.292-.116c.058667 0 .117333.014667.176.044s.106666.065333.144.108l3.488 4.64zm8.904 2.592c.117334 0 .214666.038666.292.116s.116.177333.116.3v1.912c0 .128001-.042666.226666-.128.296-.560003.464002-1.21333.696-1.96.696-.57067 0-1.091998-.141332-1.564-.424s-.843999-.669331-1.116-1.16-.408-1.031997-.408-1.624c0-.58667.135999-1.123998.408-1.612s.643998-.874665 1.116-1.16.99333-.428 1.564-.428c.405335 0 .755999.053333 1.052.16s.595998.282665.9.528c.064.048.106667.097333.128.148s.032.110666.032.18c0 .106667-.038666.194666-.116.264s-.169333.104-.276.104c-.096 0-.186666-.034666-.272-.104-.218668-.186668-.431999-.321333-.64-.404s-.477332-.124-.808-.124c-.416002 0-.798665.109332-1.148.328s-.626666.515998-.832.892-.308.785331-.308 1.228c0 .448002.102666.858665.308 1.232s.482665.669332.832.888.731998.328 1.148.328c.448002 0 .877331-.133332 1.288-.4v-1.424h-1.104c-.122667 0-.222666-.034666-.3-.104s-.116-.157333-.116-.264.038666-.194666.116-.264.177333-.104.3-.104z" fill="#33312e" fill-opacity=".500164" fill-rule="nonzero" mask="url(#d)"/><g mask="url(#d)"><g transform="translate(44 52)"><path d="m68.9001998 14.3709239c1.135762 0 2.1562865.2469011 3.061604.7407107.9053176.4938096 1.6131007 1.2139377 2.1233706 2.1604061.5102699.9464683.765401 2.0863283.765401 3.4196142v6.0738273c0 .3621271-.1193355.6625234-.3580102.901198-.2386746.2386746-.5390709.3580102-.9011979.3580102s-.6625234-.1193356-.901198-.3580102-.3580101-.5390709-.3580101-.901198v-6.0738273c0-1.3332859-.3580066-2.3414653-1.0740305-3.0245686-.7160239-.6831032-1.666593-1.0246497-2.851736-1.0246497-.6913334 0-1.3209312.1399106-1.8888122.419736-.567881.2798255-1.012303.6584071-1.3332792 1.1357564-.3209762.4773492-.4814619 1.0123016-.4814619 1.6048731v6.9626801c0 .3621271-.1152205.6625234-.345665.901198-.2304444.2386746-.5349558.3580102-.9135431.3580102-.362127 0-.6625234-.1193356-.901198-.3580102s-.3580101-.5390709-.3580101-.901198v-11.0118984c0-.3785873.1193355-.6830987.3580101-.9135431.2386746-.2304445.539071-.345665.901198-.345665.3785873 0 .6830987.1152205.9135431.345665.2304445.2304444.345665.5349558.345665.9135431v.2715939c.5267302-.5267302 1.152213-.934117 1.876467-1.2221726.724254-.2880555 1.4978774-.4320812 2.3208934-.4320812zm22.24601 6.6663959c0 .3127461-.1069905.5719922-.3209746.7777462s-.4855753.3086295-.8147817.3086295h-9.382335c.1810635 1.1522223.7036708 2.0822164 1.5678376 2.7900101.8641667.7077937 1.9217263 1.0616853 3.1727106 1.0616853.4938096 0 1.0081868-.0905304 1.5431472-.2715939s.9752673-.4032745 1.320934-.6666396c.2304445-.1810635.5020357-.2715939.8147817-.2715939.3127461 0 .5596472.0823003.7407107.2469035.2962857.2469048.4444264.526726.4444264.8394721 0 .2962857-.1316806.5431868-.3950457.7407107-.5596509.4444286-1.2550889.8065502-2.086335 1.0863756s-1.6254446.419736-2.3826193.419736c-1.3497462 0-2.5595615-.2921663-3.6294822-.8765076-1.0699208-.5843413-1.9052694-1.3949999-2.5060711-2.432-.6008016-1.0370001-.9011979-2.2138952-.9011979-3.5307208 0-1.3168255.2839362-2.4978357.8518172-3.5430659.567881-1.0452303 1.3579645-1.8600039 2.3702741-2.4443452s2.1603997-.8765076 3.4443046-.8765076c1.2674445 0 2.3620393.2798212 3.2838172.8394721.9217779.5596508 1.629561 1.3415042 2.1233706 2.3455837.4938095 1.0040795.7407106 2.1562845.7407106 3.4566497zm-6.1478984-4.518335c-1.2016033 0-2.1768626.3292015-2.9258071.9876142-.7489445.6584128-1.2221716 1.5390267-1.4196954 2.641868h8.2218882c-.1481428-1.1028413-.5596446-1.9834552-1.2345177-2.641868-.6748731-.6584127-1.555487-.9876142-2.641868-.9876142zm9.6045481-.765401c0-.3785873.1193356-.6830987.3580102-.9135431.2386746-.2304445.5390709-.345665.901198-.345665.3785873 0 .6830986.1152205.9135431.345665.2304445.2304444.345665.5349558.345665.9135431v10.9872081c0 .362127-.1152205.6625233-.345665.9011979-.2304445.2386747-.5349558.3580102-.9135431.3580102-.3621271 0-.6625234-.1193355-.901198-.3580102-.2386746-.2386746-.3580102-.5390709-.3580102-.9011979zm1.2592082-6.71577659c.4444286 0 .8271253.1604857 1.1481015.48146192.3209762.32097623.4814619.70367287.4814619 1.14810147 0 .4444287-.1604857.8271253-.4814619 1.1481016-.3209762.3209762-.7036729.4814619-1.1481015.4814619-.4444287 0-.8271253-.1604857-1.1481016-.4814619-.3209762-.3209763-.4814619-.7036729-.4814619-1.1481016 0-.4444286.1604857-.82712524.4814619-1.14810147.3209763-.32097622.7036729-.48146192 1.1481016-.48146192zm12.0735833 5.35780709c1.300366 0 2.464916.2921663 3.493686.8765076s1.835313 1.3949999 2.419654 2.432c.584342 1.0370001.876508 2.2221253.876508 3.5554111v5.3331168c0 1.3003652-.288051 2.4854904-.864162 3.5554111-.576112 1.0699207-1.38677 1.9134994-2.432 2.5307614-1.045231.617262-2.226241.9258883-3.543066.9258883-1.185143 0-2.287968-.234556-3.308508-.7036751s-1.876463-1.139867-2.567797-2.0122639c-.181063-.2304445-.271594-.4608855-.271594-.69133 0-.3456667.172831-.641948.518498-.8888528.230444-.1481428.460885-.2222132.69133-.2222132.411508 0 .748939.1728308 1.012304.5184975.444429.5761112 1.004071 1.0164181 1.678944 1.320934s1.440267.4567716 2.296203.4567716c.806556 0 1.539029-.1934059 2.197442-.5802234s1.185135-.95469 1.580183-1.7036345c.395047-.7489445.592568-1.6419034.592568-2.6789035v-1.2098274c-.51027.9053175-1.185133 1.6131006-2.024609 2.1233705s-1.78593.765401-2.839391.765401c-1.218063 0-2.308543-.2921663-3.271472-.8765076-.962928-.5843413-1.711862-1.3949999-2.246822-2.432-.534961-1.0370001-.802437-2.2138952-.802437-3.5307208 0-1.3332858.288052-2.518411.864163-3.5554111s1.382654-1.8476587 2.419655-2.432c1.037-.5843413 2.213895-.8765076 3.53072-.8765076zm0 11.4810152c.839477 0 1.592525-.1975209 2.259168-.5925686.666643-.3950476 1.185135-.942345 1.555492-1.6419086s.555533-1.493762.555533-2.3826193c0-.8888572-.185176-1.6871707-.555533-2.3949644s-.888849-1.2592062-1.555492-1.6542538c-.666643-.3950477-1.419691-.5925685-2.259168-.5925685-.839476 0-1.592524.1975208-2.259167.5925685-.666643.3950476-1.18925.9464601-1.567838 1.6542538-.378587.7077937-.567878 1.5061072-.567878 2.3949644 0 .8888573.189291 1.6830557.567878 2.3826193.378588.6995636.901195 1.246861 1.567838 1.6419086.666643.3950477 1.419691.5925686 2.259167.5925686zm17.258559-11.5057056c1.135762 0 2.156286.2469011 3.061604.7407107.905317.4938096 1.6131 1.2139377 2.12337 2.1604061.51027.9464683.765401 2.0863283.765401 3.4196142v6.0738273c0 .3621271-.119335.6625234-.35801.901198s-.539071.3580102-.901198.3580102-.662523-.1193356-.901198-.3580102c-.238674-.2386746-.35801-.5390709-.35801-.901198v-6.0738273c0-1.3332859-.358007-2.3414653-1.07403-3.0245686-.716024-.6831032-1.666593-1.0246497-2.851736-1.0246497-.691334 0-1.320932.1399106-1.888813.419736-.567881.2798255-1.012303.6584071-1.333279 1.1357564-.320976.4773492-.481462 1.0123016-.481462 1.6048731v6.9626801c0 .3621271-.11522.6625234-.345665.901198-.230444.2386746-.534956.3580102-.913543.3580102-.362127 0-.662523-.1193356-.901198-.3580102-.238674-.2386746-.35801-.5390709-.35801-.901198v-16.7894415c0-.37858734.119336-.68309867.35801-.91354314.238675-.23044447.539071-.34566497.901198-.34566497.378587 0 .683099.1152205.913543.34566497.230445.23044447.345665.5349558.345665.91354314v6.049137c.52673-.5267302 1.152213-.934117 1.876467-1.2221726.724254-.2880555 1.497878-.4320812 2.320894-.4320812zm11.406944-5.65409131c.362127 0 .662523.1152205.901198.34566497.238674.23044447.35801.5349558.35801.91354314v6.6663959c.576111-.7077937 1.275664-1.2592061 2.09868-1.6542538.823016-.3950476 1.71186-.5925685 2.666558-.5925685 1.185143 0 2.259163.2962813 3.222092.8888528.962928.5925715 1.720092 1.4114601 2.271512 2.4566903.551421 1.0452303.827127 2.2097804.827127 3.4936853s-.296281 2.448455-.888852 3.4936852c-.592572 1.0452303-1.411461 1.8682339-2.456691 2.4690356-1.04523.6008016-2.20155.9011979-3.468995.9011979-1.267444 0-2.415534-.3003963-3.444304-.9011979-1.02877-.6008017-1.843544-1.4238053-2.444345-2.4690356-.600802-1.0452302-.901198-2.2097803-.901198-3.4936852v-11.258802c0-.37858734.11522-.68309867.345665-.91354314.230444-.23044447.534955-.34566497.913543-.34566497zm5.530639 17.15979691c.823016 0 1.567835-.2016359 2.234477-.6049137.666643-.4032779 1.193366-.9588053 1.580183-1.666599.386818-.7077937.580224-1.4978772.580224-2.3702741s-.193406-1.6583654-.580224-2.3579289c-.386817-.6995636-.91354-1.250976-1.580183-1.6542538-.666642-.4032779-1.411461-.6049137-2.234477-.6049137s-1.567834.2016358-2.234477.6049137c-.666643.4032778-1.18925.9546902-1.567837 1.6542538-.378588.6995635-.567879 1.485532-.567879 2.3579289s.189291 1.6624804.567879 2.3702741c.378587.7077937.901194 1.2633211 1.567837 1.666599.666643.4032778 1.411461.6049137 2.234477.6049137zm16.69068-11.4810152c1.300366 0 2.464916.2921663 3.493686.8765076s1.835313 1.3949999 2.419654 2.432c.584342 1.0370001.876508 2.2221253.876508 3.5554111 0 1.3168256-.288051 2.4937207-.864162 3.5307208s-1.37854 1.8476587-2.40731 2.432-2.20155.8765076-3.518376.8765076c-1.316825 0-2.49372-.2921663-3.53072-.8765076s-1.843544-1.3949999-2.419655-2.432-.864163-2.2138952-.864163-3.5307208c0-1.3332858.288052-2.518411.864163-3.5554111s1.382655-1.8476587 2.419655-2.432 2.213895-.8765076 3.53072-.8765076zm0 2.222132c-.839476 0-1.592524.1975208-2.259167.5925685-.666643.3950476-1.18925.9464601-1.567838 1.6542538-.378587.7077937-.567878 1.5061072-.567878 2.3949644 0 .8888573.189291 1.6830557.567878 2.3826193.378588.6995636.901195 1.246861 1.567838 1.6419086.666643.3950477 1.419691.5925686 2.259167.5925686.839477 0 1.592525-.1975209 2.259168-.5925686.666643-.3950476 1.185135-.942345 1.555492-1.6419086s.555533-1.493762.555533-2.3826193c0-.8888572-.185176-1.6871707-.555533-2.3949644s-.888849-1.2592062-1.555492-1.6542538c-.666643-.3950477-1.419691-.5925685-2.259168-.5925685zm17.159797-2.2715127c.872397 0 1.55549.1316806 2.0493.3950457.493809.2633651.74071.5925665.74071.9876142 0 .1152222-.00823.1975226-.02469.2469035-.148143.5267302-.477344.7900914-.987614.7900914-.082302 0-.205752-.0164601-.370355-.0493807-.658413-.1152223-1.193366-.1728325-1.604874-.1728325-1.185143 0-2.139827.2715912-2.864081.8147817s-1.086375 1.2756638-1.086375 2.1974416v7.2095837c0 .3950477-.102876.699559-.30863.9135432-.205754.2139841-.51438.3209746-.925888.3209746-.395048 0-.699559-.1028755-.913543-.3086294-.213984-.205754-.320975-.5143804-.320975-.9258884v-11.0365887c0-.3950477.106991-.699559.320975-.9135432.213984-.2139841.518495-.3209746.913543-.3209746.823016 0 1.234518.4115018 1.234518 1.2345178v.4691167c.493809-.5761112 1.102832-1.0287631 1.827086-1.3579695s1.497877-.4938071 2.320893-.4938071z" fill="#33312e" fill-rule="nonzero"/><g fill="none" fill-rule="evenodd" transform="translate(0 .839808)"><path d="m41.0160698 8.77400112c0-2.94239801 2.2778624-5.47752418 5.4805476-5.47752418s5.4266203 2.62765123 5.4266203 5.47752418v19.16337908c0 2.9181061-2.4905637 5.4854797-5.453584 5.4854797-2.9630202 0-5.4535839-2.4759133-5.4535839-5.4854797 0-3.0095663 0-16.2209811 0-19.16337908z" fill="#ff8552"/><path d="m46.7780788 11.9334645 3.1725104 12.2525543-4.4634674 4.4634675-.8709655-14.5540993z" fill="#33312e" fill-opacity=".503196" transform="matrix(.70710678 -.70710678 .70710678 .70710678 -.49926 39.377629)"/><path d="m31.6963676 5.38470125c.0064301-2.93596794 2.2948322-5.47055376 5.504547-5.47758336s5.432789 2.60999805 5.4265611 5.45364314c-.0062278 2.84364508-.0514024 23.47036227-.0577794 26.38209137s-2.5080178 5.4789587-5.4775416 5.4854623-5.4601434-2.4585325-5.4535665-5.4615221c.0065768-3.0029895.0513493-23.44612341.0577794-26.38209135z" fill="#17a398" transform="matrix(.70710678 -.70710678 .70710678 .70710678 -2.253345 31.695377)"/><path d="m12.4179243 4.58292604c-.0064301-2.93596794 2.270892-5.46055437 5.4806068-5.45352477s5.4442735 2.63381992 5.4505013 5.477465c.0062279 2.84364508-.5913085 24.11307333-.5849316 27.02480243.006377 2.911729-2.4840427 5.4680256-5.4535665 5.461522-2.9695238-.0065035-5.4709647-2.4824727-5.4775416-5.4854622-.0065768-3.0029896.5913617-24.08883452.5849316-27.02480246z" fill="#1b9653" transform="matrix(.70710678 .70710678 -.70710678 .70710678 17.958907 -7.134047)"/></g></g></g><g mask="url(#d)"><g transform="translate(9 9)"><path d="m0 144h252v-144h-252z" stroke="#1b9653"/><g stroke="#000" stroke-width=".6"><path d="m239.0129 9h-227.519" stroke-dasharray="1.991 2.987" stroke-linecap="round"/><path d="m243 130.9753v-119.476" stroke-dasharray="2.016 3.025" stroke-linecap="round"/><path d="m9 130.9562v-119.476" stroke-dasharray="2.016 3.025"/><path d="m239.0127 135h-227.531" stroke-dasharray="1.992 2.987"/><path d="m243 135v-1" stroke-linecap="round"/><path d="m9 134.981v-1"/><path d="m243 135h-1"/><path d="m9.9877 135h-1"/><path d="m243 9h-1" stroke-linecap="round"/><path d="m10 9h-1" stroke-linecap="round"/><path d="m243 9.9867v-1" stroke-linecap="round"/><path d="m9 9.9676v-1"/></g></g></g></g></g></svg>