<svg height="194" viewBox="0 0 1154 194" width="1154" xmlns="http://www.w3.org/2000/svg"><path d="m1166.89008 2107.41497h14.10992v72.58503h-1181v-117.45578c49.8409809-45.05957 76.3326646-69.29504 79.4750509-72.70642 4.7135796-5.11707 11.9121252-5.11707 17.2486693 0 3.5576958 3.41138 30.1077738 27.64685 79.6502348 72.70642v-27.71429h211.648745v72.58504h46.562724c13.955475-12.43023 21.373146-19.11588 22.253014-20.05695 1.319803-1.4116 3.335395-1.4116 4.829628 0 .996155.94107 8.430177 7.62672 22.302065 20.05695h45.151733v-25.07483c39.872785-38.06757 61.066131-58.54237 63.580041-61.42439 3.770863-4.32304 9.5297-4.32304 13.798935 0 2.846157 2.88202 24.086219 23.35682 63.720187 61.42439 39.872785-38.06757 61.066132-58.54237 63.580041-61.42439 3.770864-4.32304 9.5297-4.32304 13.798936 0 2.846157 2.88202 24.086219 23.35682 63.720187 61.42439v-47.51021h114.290323v27.71429c49.840981-45.05957 76.332666-69.29504 79.475046-72.70642 4.71358-5.11707 11.91213-5.11707 17.24867 0 3.5577 3.41138 30.10778 27.64685 79.65024 72.70642v44.87075h15.52091c13.95547-12.43023 21.37314-19.11588 22.25301-20.05695 1.3198-1.4116 3.3354-1.4116 4.82963 0 .99615.94107 8.43017 7.62672 22.30206 20.05695z" fill="#fff" fill-rule="evenodd" transform="translate(-10 -1986)"/></svg>