<svg preserveAspectRatio="none" width="100%" height="100%" viewBox="0 0 1000 78" xmlns="http://www.w3.org/2000/svg"><path d="m47.84 2.52c1.1200056 0 2.0399964.3599964 2.76 1.08s1.08 1.6399944 1.08 2.76-.3599964 2.0399964-1.08 2.76-1.6399944 1.08-2.76 1.08h-17.2v50.64c0 1.1733392-.399996 2.159996-1.2 2.96s-1.7866608 1.2-2.96 1.2-2.159996-.399996-2.96-1.2-1.2-1.7866608-1.2-2.96v-50.64h-17.28c-1.1200056 0-2.0399964-.3599964-2.76-1.08s-1.08-1.6399944-1.08-2.76.3599964-2.0399964 1.08-2.76 1.6399944-1.08 2.76-1.08zm38.1461741 19.12c1.6533416.6400032 2.48 1.6799928 2.48 3.12 0 .533336-.1599984 1.1733296-.48 1.92l-24.48 55.04c-.6400032 1.6533416-1.6799928 2.48-3.12 2.48-.533336 0-1.1733296-.1599984-1.92-.48-1.600008-.6933368-2.4-1.7333264-2.4-3.12 0-.6400032.1599984-1.2799968.48-1.92l8-18-18-34.16c-.266668-.4800024-.4-1.0399968-.4-1.68 0-.6933368.2133312-1.3333304.64-1.92s.9866632-1.0399984 1.68-1.36c.4800024-.2133344 1.0133304-.32 1.6-.32 1.4933408 0 2.6133296.7466592 3.36 2.24l14.64 29.12 12.88-29.04c.6933368-1.5466744 1.7333264-2.32 3.12-2.32.6933368 0 1.3333304.133332 1.92.4zm32.9461739-.72c4.106687 0 7.853317.9733236 11.24 2.92 3.386684 1.9466764 6.039991 4.6133164 7.96 8 1.92001 3.3866836 2.88 7.1599792 2.88 11.32s-.893324 7.9333164-2.68 11.32c-1.786675 3.3866836-4.239984 6.0399904-7.36 7.96-3.120015 1.9200096-6.599981 2.88-10.44 2.88-3.093349 0-5.97332-.6399936-8.64-1.92s-4.933324-3.0666552-6.8-5.36v21.6c0 1.2266728-.373329 2.2133296-1.12 2.96-.74667.7466704-1.733327 1.12-2.96 1.12-1.173339 0-2.1466626-.3733296-2.9199998-1.12s-1.16-1.7333272-1.16-2.96v-36.48c0-4.1600208.9733236-7.9333164 2.92-11.32 1.9466768-3.3866836 4.5866498-6.0533236 7.9199998-8s7.053313-2.92 11.16-2.92zm0 37.2c2.66668 0 5.079989-.6533268 7.24-1.96s3.866661-3.093322 5.12-5.36c1.25334-2.266678 1.88-4.8133192 1.88-7.64s-.62666-5.3866552-1.88-7.68c-1.253339-2.2933448-2.959989-4.0933268-5.12-5.4s-4.57332-1.96-7.24-1.96-5.079989.6533268-7.24 1.96-3.853327 3.1066552-5.08 5.4-1.84 4.8533192-1.84 7.68.613327 5.373322 1.84 7.64 2.919989 4.0533268 5.08 5.36 4.57332 1.96 7.24 1.96zm55.346174-37.2c4.213355 0 7.98665.9466572 11.32 2.84s5.946657 4.5199832 7.84 7.88 2.84 7.1999784 2.84 11.52c0 4.266688-.933324 8.0799832-2.8 11.44s-4.46665 5.9866572-7.8 7.88-7.133312 2.84-11.4 2.84-8.079983-.9466572-11.44-2.84-5.973324-4.5199832-7.84-7.88-2.8-7.173312-2.8-11.44c0-4.3200216.933324-8.1599832 2.8-11.52s4.479983-5.9866572 7.84-7.88 7.173312-2.84 11.44-2.84zm0 7.2c-2.720013 0-5.159989.6399936-7.32 1.92s-3.853327 3.0666552-5.08 5.36-1.84 4.8799856-1.84 7.76.613327 5.453322 1.84 7.72 2.919989 4.0399936 5.08 5.32 4.599987 1.92 7.32 1.92c2.720014 0 5.159989-.6399936 7.32-1.92s3.839994-3.053322 5.04-5.32 1.8-4.8399856 1.8-7.72-.599994-5.4666552-1.8-7.76-2.879989-4.0799936-5.04-5.36-4.599986-1.92-7.32-1.92zm55.266174-7.2c4.213355 0 7.98665.9466572 11.32 2.84s5.946658 4.5199832 7.84 7.88c1.893343 3.3600168 2.84 7.1999784 2.84 11.52v17.28c0 4.2133544-.933324 8.053316-2.8 11.52s-4.493316 6.19999-7.88 8.2c-3.386683 2.00001-7.213312 3-11.48 3-3.840019 0-7.413316-.7599924-10.72-2.28-3.306683-1.5200076-6.079988-3.6933192-8.32-6.52-.586669-.7466704-.88-1.4933296-.88-2.24 0-1.1200056.559995-2.079996 1.68-2.88.746671-.4800024 1.49333-.72 2.24-.72 1.33334 0 2.426663.5599944 3.28 1.68 1.440008 1.866676 3.253323 3.2933284 5.44 4.28 2.186678.9866716 4.666653 1.48 7.44 1.48 2.613347 0 4.986656-.6266604 7.12-1.88s3.839994-3.0933212 5.12-5.52c1.280007-2.4266788 1.92-5.3199832 1.92-8.68v-3.92c-1.653341 2.933348-3.839986 5.2266584-6.56 6.88-2.720013 1.6533416-5.786649 2.48-9.2 2.48-3.946686 0-7.479984-.9466572-10.6-2.84-3.120015-1.8933428-5.546658-4.5199832-7.28-7.88s-2.6-7.173312-2.6-11.44c0-4.3200216.933324-8.1599832 2.8-11.52s4.479984-5.9866572 7.84-7.88c3.360017-1.8933428 7.173312-2.84 11.44-2.84zm0 37.2c2.720014 0 5.15999-.6399936 7.32-1.92 2.160011-1.2800064 3.839994-3.053322 5.04-5.32s1.8-4.8399856 1.8-7.72-.599994-5.4666552-1.8-7.76-2.879989-4.0799936-5.04-5.36c-2.16001-1.2800064-4.599986-1.92-7.32-1.92-2.720013 0-5.159989.6399936-7.32 1.92-2.16001 1.2800064-3.853327 3.0666552-5.08 5.36-1.226672 2.2933448-1.84 4.8799856-1.84 7.76s.613328 5.453322 1.84 7.72c1.226673 2.266678 2.91999 4.0399936 5.08 5.32 2.160011 1.2800064 4.599987 1.92 7.32 1.92zm56.866174-37.36c2.826681 0 5.039992.4266624 6.64 1.28s2.4 1.9199936 2.4 3.2c0 .3733352-.026666.6399992-.08.8-.480002 1.7066752-1.546658 2.56-3.2 2.56-.266668 0-.666664-.0533328-1.2-.16-2.133344-.3733352-3.86666-.56-5.2-.56-3.840019 0-6.933321.8799912-9.28 2.64-2.346678 1.7600088-3.52 4.1333184-3.52 7.12v23.36c0 1.2800064-.33333 2.2666632-1 2.96s-1.66666 1.04-3 1.04c-1.280006 0-2.266663-.33333-2.96-1-.693336-.66667-1.04-1.66666-1.04-3v-35.76c0-1.2800064.346664-2.2666632 1.04-2.96.693337-.6933368 1.679994-1.04 2.96-1.04 2.66668 0 4 1.33332 4 4v1.52c1.600008-1.866676 3.573322-3.333328 5.92-4.4 2.346679-1.066672 4.85332-1.6 7.52-1.6zm35.346174.16c4.106688 0 7.82665.9733236 11.16 2.92s5.973324 4.6133164 7.92 8c1.946677 3.3866836 2.92 7.1599792 2.92 11.32v17.84c0 1.1733392-.386662 2.1466628-1.16 2.92-.773337.7733372-1.74666 1.16-2.92 1.16-1.173339 0-2.146662-.3866628-2.92-1.16-.773337-.7733372-1.16-1.7466608-1.16-2.92v-2.96c-1.866676 2.2933448-4.13332 4.0799936-6.8 5.36s-5.546651 1.92-8.64 1.92c-3.840019 0-7.319984-.9599904-10.44-2.88-3.120015-1.9200096-5.573324-4.5733164-7.36-7.96-1.786675-3.3866836-2.68-7.1599792-2.68-11.32s.959991-7.9333164 2.88-11.32c1.92001-3.3866836 4.573317-6.0533236 7.96-8 3.386684-1.9466764 7.133313-2.92 11.24-2.92zm0 37.2c2.66668 0 5.07999-.6533268 7.24-1.96 2.160011-1.3066732 3.853328-3.093322 5.08-5.36 1.226673-2.266678 1.84-4.8133192 1.84-7.64s-.613327-5.3866552-1.84-7.68c-1.226672-2.2933448-2.919989-4.0933268-5.08-5.4-2.16001-1.3066732-4.57332-1.96-7.24-1.96s-5.079989.6533268-7.24 1.96c-2.16001 1.3066732-3.86666 3.1066552-5.12 5.4-1.253339 2.2933448-1.88 4.8533192-1.88 7.68s.626661 5.373322 1.88 7.64c1.25334 2.266678 2.95999 4.0533268 5.12 5.36 2.160011 1.3066732 4.57332 1.96 7.24 1.96zm57.426175-37.2c4.106687 0 7.853316.9733236 11.24 2.92 3.386683 1.9466764 6.03999 4.6133164 7.96 8 1.920009 3.3866836 2.88 7.1599792 2.88 11.32s-.893325 7.9333164-2.68 11.32c-1.786676 3.3866836-4.239985 6.0399904-7.36 7.96-3.120016 1.9200096-6.599981 2.88-10.44 2.88-3.093349 0-5.97332-.6399936-8.64-1.92s-4.933324-3.0666552-6.8-5.36v21.6c0 1.2266728-.37333 2.2133296-1.12 2.96-.746671.7466704-1.733328 1.12-2.96 1.12-1.17334 0-2.146663-.3733296-2.92-1.12-.773338-.7466704-1.16-1.7333272-1.16-2.96v-36.48c0-4.1600208.973323-7.9333164 2.92-11.32 1.946676-3.3866836 4.58665-6.0533236 7.92-8s7.053312-2.92 11.16-2.92zm0 37.2c2.66668 0 5.079989-.6533268 7.24-1.96 2.16001-1.3066732 3.86666-3.093322 5.12-5.36 1.253339-2.266678 1.88-4.8133192 1.88-7.64s-.626661-5.3866552-1.88-7.68c-1.25334-2.2933448-2.95999-4.0933268-5.12-5.4-2.160011-1.3066732-4.57332-1.96-7.24-1.96s-5.07999.6533268-7.24 1.96c-2.160011 1.3066732-3.853328 3.1066552-5.08 5.4-1.226673 2.2933448-1.84 4.8533192-1.84 7.68s.613327 5.373322 1.84 7.64c1.226672 2.266678 2.919989 4.0533268 5.08 5.36 2.16001 1.3066732 4.57332 1.96 7.24 1.96zm57.266174-37.28c3.680018 0 6.986652.799992 9.92 2.4s5.226658 3.933318 6.88 7c1.653341 3.066682 2.48 6.7599784 2.48 11.08v19.68c0 1.1733392-.386663 2.1466628-1.16 2.92-.773338.7733372-1.746661 1.16-2.92 1.16-1.17334 0-2.146663-.3866628-2.92-1.16-.773338-.7733372-1.16-1.7466608-1.16-2.92v-19.68c0-4.3200216-1.159989-7.5866556-3.48-9.8-2.320012-2.2133444-5.399981-3.32-9.24-3.32-2.240012 0-4.279991.4533288-6.12 1.36-1.84001.9066712-3.279995 2.1333256-4.32 3.68-1.040006 1.5466744-1.56 3.2799904-1.56 5.2v22.56c0 1.1733392-.37333 2.1466628-1.12 2.92-.746671.7733372-1.733328 1.16-2.96 1.16-1.17334 0-2.146663-.3866628-2.92-1.16-.773338-.7733372-1.16-1.7466608-1.16-2.92v-54.4c0-1.2266728.386662-2.2133296 1.16-2.96.773337-.7466704 1.74666-1.12 2.92-1.12 1.226672 0 2.213329.3733296 2.96 1.12.74667.7466704 1.12 1.7333272 1.12 2.96v19.6c1.706675-1.7066752 3.733321-3.026662 6.08-3.96 2.346678-.933338 4.85332-1.4 7.52-1.4zm67.586174.8c1.653341.6400032 2.48 1.6799928 2.48 3.12 0 .533336-.159999 1.1733296-.48 1.92l-24.48 55.04c-.640003 1.6533416-1.679993 2.48-3.12 2.48-.533336 0-1.17333-.1599984-1.92-.48-1.600008-.6933368-2.4-1.7333264-2.4-3.12 0-.6400032.159998-1.2799968.48-1.92l8-18-18-34.16c-.266668-.4800024-.4-1.0399968-.4-1.68 0-.6933368.213331-1.3333304.64-1.92s.986663-1.0399984 1.68-1.36c.480002-.2133344 1.01333-.32 1.6-.32 1.493341 0 2.613329.7466592 3.36 2.24l14.64 29.12 12.88-29.04c.693337-1.5466744 1.733326-2.32 3.12-2.32.693337 0 1.33333.133332 1.92.4z" fill="#eee"/></svg>