<svg height="80" viewBox="0 0 750 80" width="750" xmlns="http://www.w3.org/2000/svg"><path d="m153.272491 31c1.217121 0 2.270075.1569584 3.158893.4708798.888819.3139214 1.789635.831884 2.702475 1.5539033.192177.1412647.320293.2864512.384352.4355639.064059.1491126.096088.3256908.096088.5297397 0 .3139215-.116105.5729028-.348319.7769517s-.500457.3060719-.804737.3060719-.584534-.102023-.84077-.3060719c-.656604-.5493625-1.297185-.9456824-1.92176-1.1889715s-1.433307-.3649318-2.426222-.3649318c-1.24915 0-2.398191.3217646-3.447156.9653036-1.048966.6435389-1.88172 1.5185818-2.498288 2.6251549-.616568 1.106573-.924847 2.3112285-.924847 3.6140024 0 1.3184701.308279 2.5270495.924847 3.6257745s1.449322 1.969844 2.498288 2.6133829c1.048965.643539 2.198006.9653036 3.447156.9653036 1.537416 0 3.010751-.5179626 4.420048-1.5539033.272251-.1883529.53649-.2825279.792726-.2825279.30428 0 .556509.1059469.756693.3178438.200184.211897.300275.4904981.300275.8358117 0 .3296175-.128116.6199905-.384352.8711276-1.729592 1.3655583-3.691369 2.0483272-5.88539 2.0483272-1.713577 0-3.278995-.4159397-4.6963-1.2478315s-2.534317-1.96984-3.351069-3.4138786-1.225122-3.037166-1.225122-4.77943c0-1.7265679.40837-3.3079234 1.225122-4.744114.816752-1.4361905 1.933764-2.5741387 3.351069-3.4138785 1.417305-.8397399 2.982723-1.2596035 4.6963-1.2596035zm24.934835 0c1.841696 0 3.487186.4002438 4.936521 1.2007435 1.449334.8004997 2.578357 1.914904 3.387101 3.3432466.808745 1.4283425 1.213111 3.0528616 1.213111 4.8736059 0 1.8207444-.404366 3.4491874-1.213111 4.885378-.808744 1.4361906-1.933763 2.5545189-3.37509 3.3550186-1.441327.8004996-3.090822 1.2007435-4.948532 1.2007435-1.857711 0-3.511208-.4002439-4.960543-1.2007435-1.449334-.8004997-2.574353-1.918828-3.375091-3.3550186-.800737-1.4361906-1.201099-3.0646336-1.201099-4.885378 0-1.8207443.400362-3.4452634 1.201099-4.8736059.800738-1.4283426 1.925757-2.5427469 3.375091-3.3432466 1.449335-.8004997 3.102832-1.2007435 4.960543-1.2007435zm0 2.2131351c-1.377268 0-2.606382.3139167-3.687377.9417596-1.080995.6278428-1.92576 1.4911139-2.534321 2.5898389-.60856 1.098725-.912836 2.3230003-.912836 3.6728624 0 1.3498622.304276 2.5741375.912836 3.6728625.608561 1.098725 1.457329 1.96592 2.546332 2.6016109s2.314113.9535316 3.675366.9535316 2.586363-.3178407 3.675366-.9535316c1.089002-.6356909 1.937771-1.5028859 2.546332-2.6016109.60856-1.098725.912835-2.3230003.912835-3.6728625 0-1.3498621-.304275-2.5741374-.912835-3.6728624-.608561-1.098725-1.453326-1.9619961-2.534321-2.5898389-1.080996-.6278429-2.310109-.9417596-3.687377-.9417596zm32.117412-.7534077c0-.3610097.120109-.6553066.36033-.8828996.240221-.2275931.53649-.3413879.888814-.3413879s.644589.1137948.876803.3413879c.232214.227593.348319.5218899.348319.8828996v15.9392813c0 .3610096-.116105.6553066-.348319.8828996s-.524479.3413879-.876803.3413879c-.176162 0-.356325-.0353157-.540495-.105948s-.324297-.1765792-.420385-.3178439l-10.473591-13.6555142v12.8550186c0 .3453136-.116106.6356865-.348319.8711276-.232214.2354411-.532486.3531599-.900825.3531599-.352325 0-.644589-.1137949-.876803-.3413879s-.348319-.52189-.348319-.8828996v-15.9392813c0-.3610097.116105-.6553066.348319-.8828996.232214-.2275931.524478-.3413879.876803-.3413879.176162 0 .352321.0431636.528484.1294919.176162.0863284.320292.1922753.432396.3178439l10.473591 13.6555143zm19.577929-1.4361834c1.377268 0 2.53832.2746771 3.48319.8240396.94487.5493626 1.745595 1.3341544 2.402199 2.3543991.192177.2982253.288264.5807504.288264.8475836 0 .3453136-.160145.6278386-.48044.8475836-.176162.1098725-.38435.164808-.624572.164808-.240221 0-.464424-.0588594-.672615-.17658-.208192-.1177205-.368337-.2786028-.48044-.4826518-.432399-.7063232-.972888-1.2439056-1.621485-1.6127633-.648598-.3688577-1.469341-.5532837-2.462255-.5532837-1.217121 0-2.202013.2315135-2.954706.6945477-.752693.4630341-1.129034 1.1340311-1.129034 2.0130111 0 .8161958.336305 1.4989646 1.008924 2.0483272.672619.5493625 1.873707.9103667 3.6033 1.0830235 1.921769.1883529 3.411118.7573269 4.468092 1.7069393 1.056973.9496123 1.585451 2.2013553 1.585451 3.7552664 0 1.1301172-.312282 2.0993351-.936858 2.9076828-.624575.8083477-1.453325 1.4126374-2.486276 1.8128872s-2.141956.6003718-3.327047.6003718c-1.553431 0-2.966711-.3453084-4.239883-1.0359356s-2.149966-1.5931378-2.630409-2.7075589c-.080073-.1883528-.12011-.3453112-.12011-.4708798 0-.235441.08808-.4434109.264242-.6239157s.41638-.3021476.72066-.3649318c.048044-.0156961.128117-.023544.24022-.023544.256236 0 .500457.0745552.732671.2236679.232214.1491126.40437.3492346.516473.6003717.288266.6121468.85678 1.1301094 1.705562 1.5539034.848782.4237939 1.78563.6356877 2.810574.6356877 1.201106 0 2.218027-.2707532 3.050794-.8122677.832766-.5415144 1.249144-1.2831427 1.249144-2.224907 0-.8946761-.35232-1.6598482-1.056968-2.2955391-.704649-.6356909-1.777621-1.0241628-3.218948-1.1654275-1.985829-.1883528-3.547243-.7573269-4.68429-1.7069393-1.137047-.9496123-1.705562-2.1385719-1.705562-3.5669145 0-1.0045486.292265-1.8717435.876803-2.6016109.584538-.7298673 1.385264-1.2870695 2.4022-1.6716233 1.016936-.3845537 2.15797-.5768277 3.423135-.5768277zm16.238871 1.4361834c0-.3610097.120109-.6553066.36033-.8828996.240221-.2275931.536489-.3413879.888814-.3413879.368339 0 .668611.1137948.900825.3413879.232214.227593.348319.5218899.348319.8828996v10.9950434c0 .8318918.228206 1.577444.684627 2.236679.45642.659235 1.088993 1.1732737 1.897738 1.5421314.808744.3688577 1.733582.5532837 2.77454.5532837.992915 0 1.88172-.184426 2.666442-.5532837.784723-.3688577 1.397278-.8828964 1.837683-1.5421314.440406-.659235.660605-1.4047872.660605-2.236679v-10.9950434c0-.3610097.120109-.6553066.36033-.8828996.240221-.2275931.53649-.3413879.888814-.3413879s.644589.1137948.876803.3413879c.232214.227593.348319.5218899.348319.8828996v10.9950434c0 1.2556857-.324294 2.381862-.972891 3.3785625-.648597.9967006-1.553417 1.7736445-2.714486 2.3308551-1.161069.5572105-2.478262.8358116-3.951619.8358116-1.521401 0-2.87863-.2786011-4.071728-.8358116-1.193099-.5572106-2.12194-1.3302305-2.786552-2.3190831-.664612-.9888525-.996913-2.1189527-.996913-3.3903345zm43.840147-1.2242875c.352325 0 .648593.1177188.888814.3531599.240221.235441.36033.525814.36033.8711276v15.9392813c0 .3453136-.124112.6356865-.372341.8711276-.248228.2354411-.540493.3531599-.876803.3531599-.352324 0-.648593-.1177188-.888814-.3531599s-.36033-.525814-.36033-.8711276v-11.7013631l-5.813323 11.6071871c-.272251.4080979-.632577.6121438-1.08099.6121438-.528487 0-.912835-.2432855-1.153056-.7298637l-5.741258-11.2775713v11.4894672c0 .3453136-.120109.6356865-.36033.8711276s-.536489.3531599-.888814.3531599c-.352324 0-.648593-.1177188-.888814-.3531599s-.36033-.525814-.36033-.8711276v-15.9392813c0-.3453136.120109-.6356866.36033-.8711276.240221-.2354411.53649-.3531599.888814-.3531599.480443 0 .848776.2197417 1.105012.6592317l7.134534 14.0086741 6.942357-14.0086741c.256236-.43949.62457-.6592317 1.105012-.6592317zm24.166131 16.1276332c.368339 0 .664607.1020229.888814.3060719.224206.2040489.336308.4708781.336308.8004956 0 .3453136-.112102.6239147-.336308.8358117-.224207.211897-.520475.3178439-.888814.3178439h-10.857944c-.352324 0-.648592-.1177188-.888814-.3531599-.240221-.2354411-.36033-.525814-.36033-.8711276v-15.9392813c0-.3610097.120109-.6553066.36033-.8828996.240222-.2275931.53649-.3413879.888814-.3413879h10.857944c.368339 0 .664607.1059469.888814.3178439.224206.2118969.336308.490498.336308.8358116 0 .3296175-.112102.5964467-.336308.8004957-.224207.2040489-.520475.3060718-.888814.3060718h-9.6088v5.7211896h6.894314c.352324 0 .644589.1059469.876803.3178439s.348319.4826502.348319.8122677-.116105.6003707-.348319.8122676c-.232214.211897-.524479.3178439-.876803.3178439h-6.894314v5.8859975zm22.892964.3767039c.160148.2511371.24022.5101184.24022.7769516 0 .3139215-.108098.5768267-.324297.7887237s-.508463.3178439-.876803.3178439c-.464427 0-.824754-.196198-1.08099-.5885998l-4.131783-6.4981413h-3.507212v5.8624536c0 .3453136-.116105.6356865-.348319.8711276s-.532486.3531599-.900825.3531599c-.352324 0-.648593-.1177188-.888814-.3531599s-.36033-.525814-.36033-.8711276v-15.9392813c0-.3610097.120109-.6553066.36033-.8828996.240221-.2275931.53649-.3413879.888814-.3413879h4.32396c1.185091 0 2.246052.2432855 3.182915.7298637.936862.4865782 1.665522 1.1693471 2.186001 2.0483271.52048.8789801.780715 1.8835136.780715 3.0136308 0 1.1144211-.288261 2.1032588-.864792 2.9665427-.57653.863284-1.361241 1.5146612-2.354155 1.9541512zm-6.606049-7.4634449c1.089002 0 1.985815-.3021449 2.690464-.9064436.704648-.6042988 1.056967-1.3851667 1.056967-2.342627 0-1.0359408-.352319-1.8835159-1.056967-2.542751-.704649-.659235-1.601462-.9888476-2.690464-.9888476h-3.074816v6.7806692zm20.658918 1.7187113c.352325 0 .640586.1137948.864792.3413878.224207.2275931.336308.5140421.336308.8593557 0 .3453135-.112101.6278386-.336308.8475836-.224206.219745-.512467.3296159-.864792.3296159h-5.356905c-.352325 0-.644589-.1098709-.876803-.3296159s-.348319-.5022701-.348319-.8475836c0-.3453136.116105-.6317626.348319-.8593557.232214-.227593.524478-.3413878.876803-.3413878zm18.232697-2.7781909c.352325 0 .64459.1059469.876803.3178439.232214.211897.348319.4826502.348319.8122677s-.116105.6003707-.348319.8122676c-.232213.211897-.524478.3178439-.876803.3178439h-6.894313v6.9219331c0 .3453136-.120109.6356865-.36033.8711276s-.53649.3531599-.888814.3531599c-.352325 0-.648593-.1177188-.888814-.3531599s-.36033-.525814-.36033-.8711276v-15.9392813c0-.3610097.120109-.6553066.36033-.8828996.240221-.2275931.536489-.3413879.888814-.3413879h10.857943c.368339 0 .664608.1059469.888814.3178439.224207.2118969.336308.490498.336308.8358116 0 .3296175-.112101.5964467-.336308.8004957-.224206.2040489-.520475.3060718-.888814.3060718h-9.608799v5.7211896zm13.140034-6.7571251c0-.3610097.120108-.6553066.36033-.8828996.240221-.2275931.536489-.3413879.888814-.3413879.368339 0 .668611.1137948.900824.3413879.232214.227593.348319.5218899.348319.8828996v15.9392813c0 .3453136-.116105.6356865-.348319.8711276-.232213.2354411-.532485.3531599-.900824.3531599-.352325 0-.648593-.1177188-.888814-.3531599-.240222-.2354411-.36033-.525814-.36033-.8711276zm25.48734 15.2800496c.160147.2511371.24022.5101184.24022.7769516 0 .3139215-.108098.5768267-.324297.7887237s-.508464.3178439-.876803.3178439c-.464428 0-.824754-.196198-1.08099-.5885998l-4.131784-6.4981413h-3.507211v5.8624536c0 .3453136-.116106.6356865-.348319.8711276-.232214.2354411-.532486.3531599-.900825.3531599-.352325 0-.648593-.1177188-.888814-.3531599s-.36033-.525814-.36033-.8711276v-15.9392813c0-.3610097.120109-.6553066.36033-.8828996.240221-.2275931.536489-.3413879.888814-.3413879h4.323959c1.185092 0 2.246053.2432855 3.182915.7298637.936863.4865782 1.665523 1.1693471 2.186002 2.0483271.520479.8789801.780715 1.8835136.780715 3.0136308 0 1.1144211-.288261 2.1032588-.864792 2.9665427-.576531.863284-1.361242 1.5146612-2.354156 1.9541512zm-6.60605-7.4634449c1.089003 0 1.985815-.3021449 2.690464-.9064436.704649-.6042988 1.056968-1.3851667 1.056968-2.342627 0-1.0359408-.352319-1.8835159-1.056968-2.542751-.704649-.659235-1.601461-.9888476-2.690464-.9888476h-3.074815v6.7806692zm21.908063-9.2527881c1.377268 0 2.53832.2746771 3.48319.8240396.94487.5493626 1.745595 1.3341544 2.4022 2.3543991.192177.2982253.288264.5807504.288264.8475836 0 .3453136-.160145.6278386-.48044.8475836-.176162.1098725-.384351.164808-.624572.164808s-.464424-.0588594-.672616-.17658c-.208192-.1177205-.368337-.2786028-.48044-.4826518-.432398-.7063232-.972888-1.2439056-1.621485-1.6127633s-1.469341-.5532837-2.462255-.5532837c-1.217121 0-2.202013.2315135-2.954706.6945477-.752693.4630341-1.129034 1.1340311-1.129034 2.0130111 0 .8161958.336305 1.4989646 1.008924 2.0483272.67262.5493625 1.873708.9103667 3.6033 1.0830235 1.92177.1883529 3.411119.7573269 4.468092 1.7069393 1.056973.9496123 1.585452 2.2013553 1.585452 3.7552664 0 1.1301172-.312283 2.0993351-.936858 2.9076828s-1.453326 1.4126374-2.486277 1.8128872-2.141956.6003718-3.327047.6003718c-1.55343 0-2.96671-.3453084-4.239883-1.0359356-1.273172-.6906272-2.149966-1.5931378-2.630408-2.7075589-.080074-.1883528-.12011-.3453112-.12011-.4708798 0-.235441.088079-.4434109.264242-.6239157.176162-.1805048.416379-.3021476.720659-.3649318.048045-.0156961.128117-.023544.24022-.023544.256236 0 .500458.0745552.732671.2236679.232214.1491126.40437.3492346.516473.6003717.288266.6121468.856781 1.1301094 1.705562 1.5539034.848782.4237939 1.78563.6356877 2.810574.6356877 1.201106 0 2.218027-.2707532 3.050794-.8122677.832767-.5415144 1.249144-1.2831427 1.249144-2.224907 0-.8946761-.352319-1.6598482-1.056968-2.2955391s-1.777621-1.0241628-3.218948-1.1654275c-1.985828-.1883528-3.547243-.7573269-4.68429-1.7069393-1.137047-.9496123-1.705561-2.1385719-1.705561-3.5669145 0-1.0045486.292264-1.8717435.876802-2.6016109.584539-.7298673 1.385264-1.2870695 2.4022-1.6716233 1.016937-.3845537 2.15797-.5768277 3.423135-.5768277zm27.240946.2118959c.33631 0 .61256.1059469.828759.3178439.216199.2118969.324297.4826501.324297.8122676s-.108098.6003707-.324297.8122677-.492449.3178438-.828759.3178438h-5.164729v14.9033458c0 .3453136-.120109.6356865-.36033.8711276s-.53649.3531599-.888814.3531599c-.352325 0-.648593-.1177188-.888814-.3531599s-.36033-.525814-.36033-.8711276v-14.9033458h-5.188752c-.336309 0-.61256-.1059468-.828759-.3178438s-.324297-.4826502-.324297-.8122677.108098-.6003707.324297-.8122676c.216199-.211897.49245-.3178439.828759-.3178439zm29.955433 0c1.072988 0 2.025851.2079698 2.858617.6239157.832767.4159459 1.485358.9966919 1.957793 1.7422553s.708649 1.5892146.708649 2.5309789c0 .7691076-.212192 1.4597244-.636583 2.0718712-.42439.6121468-1.004916 1.1065656-1.741595 1.4832713 1.089003.2511372 1.945779.753404 2.570354 1.5068154.624575.7534115.936858 1.7108575.936858 2.8723668 0 1.0673329-.260235 2.0247789-.780715 2.8723668-.520479.8475879-1.249139 1.506813-2.186002 1.9776952-.936862.4708821-1.997823.7063197-3.182914.7063197h-6.24572c-.352324 0-.648593-.1177188-.888814-.3531599s-.36033-.525814-.36033-.8711276v-15.9392813c0-.3610097.120109-.6553066.36033-.8828996.240221-.2275931.53649-.3413879.888814-.3413879zm0 7.5576208c.94487 0 1.701555-.2275896 2.270079-.6827757.568523-.4551861.85278-1.1144112.85278-1.9776952 0-.8632839-.284257-1.5185851-.85278-1.9659231-.568524-.4473381-1.325209-.6710038-2.270079-.6710038h-4.492114v5.2973978zm.504462 8.5700124c1.121032 0 2.025851-.286449 2.714485-.8593556.688635-.5729067 1.032946-1.3851662 1.032946-2.436803 0-.9731565-.340308-1.7187087-1.020935-2.2366791-.680626-.5179703-1.589449-.7769516-2.726496-.7769516h-4.996576v6.3097893zm15.878541-14.9033457c0-.3610097.120108-.6553066.36033-.8828996.240221-.2275931.536489-.3413879.888814-.3413879.368339 0 .668611.1137948.900825.3413879.232213.227593.348319.5218899.348319.8828996v15.9392813c0 .3453136-.116106.6356865-.348319.8711276-.232214.2354411-.532486.3531599-.900825.3531599-.352325 0-.648593-.1177188-.888814-.3531599-.240222-.2354411-.36033-.525814-.36033-.8711276zm24.478416 14.7149938c.352325 0 .648593.1177188.888814.3531598.240221.2354411.36033.5258141.36033.8711277s-.120109.6356865-.36033.8711276-.536489.3531599-.888814.3531599h-9.945107c-.352325 0-.644589-.1177188-.876803-.3531599s-.348319-.525814-.348319-.8711276v-15.9392813c0-.3453136.120109-.6356866.36033-.8711276.240221-.2354411.528482-.3531599.864792-.3531599.352324 0 .648593.1177188.888814.3531599.240221.235441.36033.525814.36033.8711276v14.7149938zm21.427623 0c.352324 0 .648593.1177188.888814.3531598.240221.2354411.36033.5258141.36033.8711277s-.120109.6356865-.36033.8711276-.53649.3531599-.888814.3531599h-9.945108c-.352324 0-.644589-.1177188-.876802-.3531599-.232214-.2354411-.348319-.525814-.348319-.8711276v-15.9392813c0-.3453136.120108-.6356866.36033-.8711276.240221-.2354411.528482-.3531599.864791-.3531599.352325 0 .648593.1177188.888814.3531599.240222.235441.36033.525814.36033.8711276v14.7149938zm10.257393-14.7149938c0-.3610097.120109-.6553066.36033-.8828996.240221-.2275931.53649-.3413879.888814-.3413879.368339 0 .668611.1137948.900825.3413879.232214.227593.348319.5218899.348319.8828996v15.9392813c0 .3453136-.116105.6356865-.348319.8711276s-.532486.3531599-.900825.3531599c-.352324 0-.648593-.1177188-.888814-.3531599s-.36033-.525814-.36033-.8711276zm25.967781 0c0-.3610097.120108-.6553066.36033-.8828996.240221-.2275931.536489-.3413879.888814-.3413879.352324 0 .644589.1137948.876803.3413879.232213.227593.348319.5218899.348319.8828996v15.9392813c0 .3610096-.116106.6553066-.348319.8828996-.232214.227593-.524479.3413879-.876803.3413879-.176163 0-.356326-.0353157-.540495-.105948-.18417-.0706323-.324297-.1765792-.420385-.3178439l-10.473592-13.6555142v12.8550186c0 .3453136-.116105.6356865-.348319.8711276-.232213.2354411-.532485.3531599-.900825.3531599-.352324 0-.644589-.1137949-.876803-.3413879-.232213-.227593-.348319-.52189-.348319-.8828996v-15.9392813c0-.3610097.116106-.6553066.348319-.8828996.232214-.2275931.524479-.3413879.876803-.3413879.176163 0 .352322.0431636.528484.1294919.176163.0863284.320293.1922753.432396.3178439l10.473592 13.6555143zm26.736484 7.6282528c.352324 0 .644589.1137948.876803.3413878.232214.2275931.348319.52189.348319.8828997v5.6270136c0 .3767057-.128116.6670787-.384352.8711276-1.681548 1.3655583-3.643325 2.0483272-5.88539 2.0483272-1.713577 0-3.278995-.4159397-4.6963-1.2478315s-2.534317-1.96984-3.351069-3.4138786-1.225122-3.037166-1.225122-4.77943c0-1.7265679.40837-3.3079234 1.225122-4.744114.816752-1.4361905 1.933764-2.5741387 3.351069-3.4138785 1.417305-.8397399 2.982723-1.2596035 4.6963-1.2596035 1.217121 0 2.270075.1569584 3.158893.4708798.888819.3139214 1.789635.831884 2.702475 1.5539033.192177.1412647.320293.2864512.384352.4355639.064059.1491126.096088.3256908.096088.5297397 0 .3139215-.116105.5729028-.348319.7769517s-.508464.3060719-.828759.3060719c-.288265 0-.560512-.102023-.816748-.3060719-.656604-.5493625-1.297185-.9456824-1.92176-1.1889715s-1.433307-.3649318-2.426222-.3649318c-1.24915 0-2.398191.3217646-3.447156.9653036-1.048966.6435389-1.881721 1.5185818-2.498288 2.6251549-.616568 1.106573-.924847 2.3112285-.924847 3.6140024 0 1.3184701.308279 2.5270495.924847 3.6257745.616567 1.098725 1.449322 1.969844 2.498288 2.6133829 1.048965.643539 2.198006.9653036 3.447156.9653036 1.345239 0 2.634407-.3923959 3.867542-1.1771995v-4.1908302h-3.315036c-.368339 0-.668611-.102023-.900825-.3060719-.232213-.2040489-.348319-.4630302-.348319-.7769517 0-.3139214.116106-.5729027.348319-.7769517.232214-.2040489.532486-.3060718.900825-.3060718z" fill="#fff" fill-opacity=".8"/></svg>