<?xml version="1.0" encoding="UTF-8"?>
<svg width="307px" height="58px" viewBox="0 0 307 58" version="1.1" xmlns="http://www.w3.org/2000/svg" xmlns:xlink="http://www.w3.org/1999/xlink">
    <!-- Generator: Sketch 50.2 (55047) - http://www.bohemiancoding.com/sketch -->
    <title>cg-logo-light</title>
    <desc>Created with Sketch.</desc>
    <defs></defs>
    <g id="cg-logo-light" stroke="none" stroke-width="1" fill="none" fill-rule="evenodd">
        <g id="Group" fill="#FFFFFF">
            <path d="M13.972,48.336 C11.3159867,48.336 8.93201056,47.7760056 6.82,46.656 C4.70798944,45.5359944 3.06000592,43.97601 1.876,41.976 C0.69199408,39.97599 0.1,37.7120126 0.1,35.184 C0.1,32.6559874 0.69199408,30.4000099 1.876,28.416 C3.06000592,26.4319901 4.69998952,24.8800056 6.796,23.76 C8.89201048,22.6399944 11.2839866,22.08 13.972,22.08 C16.5000126,22.08 18.7159905,22.5919949 20.62,23.616 C22.5240095,24.6400051 23.9559952,26.1119904 24.916,28.032 L20.308,30.72 C19.5719963,29.5359941 18.6520055,28.648003 17.548,28.056 C16.4439945,27.463997 15.2360066,27.168 13.924,27.168 C11.6839888,27.168 9.82800736,27.8959927 8.356,29.352 C6.88399264,30.8080073 6.148,32.7519878 6.148,35.184 C6.148,37.6160122 6.87599272,39.5599927 8.332,41.016 C9.78800728,42.4720073 11.6519886,43.2 13.924,43.2 C15.2360066,43.2 16.4439945,42.904003 17.548,42.312 C18.6520055,41.719997 19.5719963,40.8320059 20.308,39.648 L24.916,42.336 C23.923995,44.2560096 22.4760095,45.7359948 20.572,46.776 C18.6679905,47.8160052 16.4680125,48.336 13.972,48.336 Z M44.404,22.08 C47.6360162,22.08 50.2279902,23.0239906 52.18,24.912 C54.1320098,26.8000094 55.108,29.5999814 55.108,33.312 L55.108,48 L49.108,48 L49.108,34.08 C49.108,31.8399888 48.5800053,30.1520057 47.524,29.016 C46.4679947,27.8799943 44.9640098,27.312 43.012,27.312 C40.803989,27.312 39.0600064,27.9759934 37.78,29.304 C36.4999936,30.6320066 35.86,32.5439875 35.86,35.04 L35.86,48 L29.86,48 L29.86,12.384 L35.86,12.384 L35.86,25.344 C36.852005,24.2879947 38.0759927,23.4800028 39.532,22.92 C40.9880073,22.3599972 42.611991,22.08 44.404,22.08 Z M68.452,26.112 C70.1800086,23.4239866 73.2199782,22.08 77.572,22.08 L77.572,27.792 C77.0599974,27.6959995 76.5960021,27.648 76.18,27.648 C73.8439883,27.648 72.0200066,28.3279932 70.708,29.688 C69.3959934,31.0480068 68.74,33.0079872 68.74,35.568 L68.74,48 L62.74,48 L62.74,22.368 L68.452,22.368 L68.452,26.112 Z M82.66,22.368 L88.66,22.368 L88.66,48 L82.66,48 L82.66,22.368 Z M85.684,18.144 C84.5959946,18.144 83.6840037,17.8000034 82.948,17.112 C82.2119963,16.4239966 81.844,15.5680051 81.844,14.544 C81.844,13.5199949 82.2119963,12.6640034 82.948,11.976 C83.6840037,11.2879966 84.5959946,10.944 85.684,10.944 C86.7720054,10.944 87.6839963,11.2719967 88.42,11.928 C89.1560037,12.5840033 89.524,13.407995 89.524,14.4 C89.524,15.4560053 89.1640036,16.3439964 88.444,17.064 C87.7239964,17.7840036 86.8040056,18.144 85.684,18.144 Z M104.452,48.336 C102.37199,48.336 100.34001,48.0640027 98.356,47.52 C96.3719901,46.9759973 94.7880059,46.2880042 93.604,45.456 L95.908,40.896 C97.0600058,41.6640038 98.4439919,42.2799977 100.06,42.744 C101.676008,43.2080023 103.267992,43.44 104.836,43.44 C108.420018,43.44 110.212,42.4960094 110.212,40.608 C110.212,39.7119955 109.756005,39.0880018 108.844,38.736 C107.931995,38.3839982 106.46801,38.0480016 104.452,37.728 C102.339989,37.4079984 100.620007,37.0400021 99.292,36.624 C97.9639934,36.2079979 96.8120049,35.4800052 95.836,34.44 C94.8599951,33.3999948 94.372,31.9520093 94.372,30.096 C94.372,27.6639878 95.3879898,25.7200073 97.42,24.264 C99.4520102,22.8079927 102.195983,22.08 105.652,22.08 C107.412009,22.08 109.171991,22.279998 110.932,22.68 C112.692009,23.080002 114.131994,23.6159966 115.252,24.288 L112.948,28.848 C110.771989,27.5679936 108.324014,26.928 105.604,26.928 C103.843991,26.928 102.508005,27.1919974 101.596,27.72 C100.683995,28.2480026 100.228,28.9439957 100.228,29.808 C100.228,30.7680048 100.715995,31.447998 101.692,31.848 C102.668005,32.248002 104.17999,32.6239982 106.228,32.976 C108.27601,33.2960016 109.955993,33.6639979 111.268,34.08 C112.580007,34.4960021 113.707995,35.199995 114.652,36.192 C115.596005,37.184005 116.068,38.5919909 116.068,40.416 C116.068,42.816012 115.02801,44.7359928 112.948,46.176 C110.86799,47.6160072 108.036018,48.336 104.452,48.336 Z M159.94,22.368 L159.94,44.112 C159.94,53.1360451 155.332046,57.648 146.116,57.648 C143.651988,57.648 141.316011,57.3360031 139.108,56.712 C136.899989,56.0879969 135.076007,55.1840059 133.636,54 L136.324,49.488 C137.444006,50.4160046 138.859991,51.1599972 140.572,51.72 C142.284009,52.2800028 144.019991,52.56 145.78,52.56 C148.596014,52.56 150.659993,51.9200064 151.972,50.64 C153.284007,49.3599936 153.94,47.4080131 153.94,44.784 L153.94,43.44 C152.915995,44.5600056 151.668007,45.4079971 150.196,45.984 C148.723993,46.5600029 147.108009,46.848 145.348,46.848 C142.915988,46.848 140.71601,46.3280052 138.748,45.288 C136.77999,44.2479948 135.228006,42.7840094 134.092,40.896 C132.955994,39.0079906 132.388,36.8480122 132.388,34.416 C132.388,31.9839878 132.955994,29.8320094 134.092,27.96 C135.228006,26.0879906 136.77999,24.6400051 138.748,23.616 C140.71601,22.5919949 142.915988,22.08 145.348,22.08 C147.204009,22.08 148.891992,22.383997 150.412,22.992 C151.932008,23.600003 153.203995,24.5279938 154.228,25.776 L154.228,22.368 L159.94,22.368 Z M146.26,41.76 C148.532011,41.76 150.395993,41.0800068 151.852,39.72 C153.308007,38.3599932 154.036,36.5920109 154.036,34.416 C154.036,32.2719893 153.308007,30.5280067 151.852,29.184 C150.395993,27.8399933 148.532011,27.168 146.26,27.168 C143.955988,27.168 142.076007,27.8399933 140.62,29.184 C139.163993,30.5280067 138.436,32.2719893 138.436,34.416 C138.436,36.5920109 139.163993,38.3599932 140.62,39.72 C142.076007,41.0800068 143.955988,41.76 146.26,41.76 Z M192.628,22.368 L192.628,48 L186.916,48 L186.916,44.736 C185.955995,45.8880058 184.756007,46.7759969 183.316,47.4 C181.875993,48.0240031 180.324008,48.336 178.66,48.336 C175.235983,48.336 172.54001,47.3840095 170.572,45.48 C168.60399,43.5759905 167.62,40.7520187 167.62,37.008 L167.62,22.368 L173.62,22.368 L173.62,36.192 C173.62,38.4960115 174.139995,40.2159943 175.18,41.352 C176.220005,42.4880057 177.69999,43.056 179.62,43.056 C181.764011,43.056 183.467994,42.3920066 184.732,41.064 C185.996006,39.7359934 186.628,37.8240125 186.628,35.328 L186.628,22.368 L192.628,22.368 Z M206.212,26.112 C207.940009,23.4239866 210.979978,22.08 215.332,22.08 L215.332,27.792 C214.819997,27.6959995 214.356002,27.648 213.94,27.648 C211.603988,27.648 209.780007,28.3279932 208.468,29.688 C207.155993,31.0480068 206.5,33.0079872 206.5,35.568 L206.5,48 L200.5,48 L200.5,22.368 L206.212,22.368 L206.212,26.112 Z M234.964,22.08 C238.196016,22.08 240.78799,23.0239906 242.74,24.912 C244.69201,26.8000094 245.668,29.5999814 245.668,33.312 L245.668,48 L239.668,48 L239.668,34.08 C239.668,31.8399888 239.140005,30.1520057 238.084,29.016 C237.027995,27.8799943 235.52401,27.312 233.572,27.312 C231.363989,27.312 229.620006,27.9759934 228.34,29.304 C227.059994,30.6320066 226.42,32.5439875 226.42,35.04 L226.42,48 L220.42,48 L220.42,22.368 L226.132,22.368 L226.132,25.68 C227.124005,24.4959941 228.371992,23.600003 229.876,22.992 C231.380008,22.383997 233.075991,22.08 234.964,22.08 Z M277.636,35.328 C277.636,35.7440021 277.604,36.3359962 277.54,37.104 L257.428,37.104 C257.780002,38.9920094 258.699993,40.4879945 260.188,41.592 C261.676007,42.6960055 263.523989,43.248 265.732,43.248 C268.548014,43.248 270.867991,42.3200093 272.692,40.464 L275.908,44.16 C274.755994,45.5360069 273.300009,46.5759965 271.54,47.28 C269.779991,47.9840035 267.796011,48.336 265.588,48.336 C262.771986,48.336 260.292011,47.7760056 258.148,46.656 C256.003989,45.5359944 254.348006,43.97601 253.18,41.976 C252.011994,39.97599 251.428,37.7120126 251.428,35.184 C251.428,32.6879875 251.995994,30.44001 253.132,28.44 C254.268006,26.43999 255.84399,24.8800056 257.86,23.76 C259.87601,22.6399944 262.147987,22.08 264.676,22.08 C267.172012,22.08 269.40399,22.6319945 271.372,23.736 C273.34001,24.8400055 274.875994,26.39199 275.98,28.392 C277.084006,30.39201 277.636,32.7039869 277.636,35.328 Z M264.676,26.88 C262.75599,26.88 261.132007,27.4479943 259.804,28.584 C258.475993,29.7200057 257.668001,31.2319906 257.38,33.12 L271.924,33.12 C271.667999,31.2639907 270.884007,29.7600058 269.572,28.608 C268.259993,27.4559942 266.62801,26.88 264.676,26.88 Z M306.916,22.368 L294.916,50.064 C293.795994,52.8480139 292.436008,54.8079943 290.836,55.944 C289.235992,57.0800057 287.300011,57.648 285.028,57.648 C283.747994,57.648 282.484006,57.4400021 281.236,57.024 C279.987994,56.6079979 278.964004,56.0320037 278.164,55.296 L280.564,50.88 C281.140003,51.4240027 281.819996,51.8559984 282.604,52.176 C283.388004,52.4960016 284.179996,52.656 284.98,52.656 C286.036005,52.656 286.907997,52.3840027 287.596,51.84 C288.284003,51.2959973 288.915997,50.3840064 289.492,49.104 L289.924,48.096 L278.74,22.368 L284.98,22.368 L293.044,41.328 L301.156,22.368 L306.916,22.368 Z" id="chris-gurney"></path>
            <path d="M79.0962719,5.37537594 L78.3644406,4.63374809 C77.6312823,3.89077564 76.434642,3.88281963 75.6916695,4.61597784 C75.6844579,4.62309426 75.6773035,4.63026855 75.6702072,4.63750002 L75.6702072,4.63750002 C74.9231978,5.39873822 74.9231978,6.6179285 75.6702072,7.37916669 L76.3905964,8.11327759 C77.1247797,8.86144532 78.3264626,8.87278195 79.0746304,8.13859867 C79.0815547,8.13180376 79.0884268,8.12495586 79.0952462,8.11805558 L79.0952462,8.11805558 C79.8461887,7.35819844 79.8466459,6.13579457 79.0962719,5.37537594 Z M75.1722192,13.0444445 L73.4777747,13.0444445 C72.4959352,13.0444445 71.6999969,13.8403827 71.6999969,14.8222222 L71.6999969,14.8222222 C71.6999969,15.8040618 72.4959352,16.6 73.4777747,16.6 L75.1722192,16.6 C76.1540587,16.6 76.9499969,15.8040618 76.9499969,14.8222222 L76.9499969,14.8222222 C76.9499969,13.8403827 76.1540587,13.0444445 75.1722192,13.0444445 Z M83.9499969,2.35000002 L83.9499969,4.18333336 C83.9499969,5.14983167 84.7334986,5.93333336 85.6999969,5.93333336 L85.6999969,5.93333336 C86.6664953,5.93333336 87.4499969,5.14983167 87.4499969,4.18333336 L87.4499969,2.35000002 C87.4499969,1.38350171 86.6664953,0.600000024 85.6999969,0.600000024 L85.6999969,0.600000024 C84.7334986,0.600000024 83.9499969,1.38350171 83.9499969,2.35000002 Z M95.7255829,4.63750002 L95.7255829,4.63750002 C94.9919668,3.89223922 93.7931002,3.88279932 93.0478394,4.61641543 C93.0407559,4.62338818 93.0337275,4.6304166 93.0267548,4.63750002 L92.299411,5.37638891 C91.5507374,6.13694621 91.5507374,7.35749828 92.299411,8.11805558 L92.299411,8.11805558 C93.0330271,8.86331639 94.2318937,8.87275628 94.9771545,8.13914017 C94.984238,8.13216742 94.9912664,8.12513901 94.9982391,8.11805558 L95.7255829,7.37916669 C96.4742565,6.61860939 96.4742565,5.39805732 95.7255829,4.63750002 Z M94.4499969,14.8222222 L94.4499969,14.8222222 C94.4499969,15.8040618 95.2459352,16.6 96.2277747,16.6 L97.9222192,16.6 C98.9040587,16.6 99.6999969,15.8040618 99.6999969,14.8222222 L99.6999969,14.8222222 C99.6999969,13.8403827 98.9040587,13.0444445 97.9222192,13.0444445 L96.2277747,13.0444445 C95.2459352,13.0444445 94.4499969,13.8403827 94.4499969,14.8222222 Z" id="Shape" fill-rule="nonzero"></path>
        </g>
    </g>
</svg>