<?xml version="1.0" encoding="UTF-8"?>
<svg width="307px" height="58px" viewBox="0 0 307 58" version="1.1" xmlns="http://www.w3.org/2000/svg" xmlns:xlink="http://www.w3.org/1999/xlink">
    <!-- Generator: Sketch 49.3 (51167) - http://www.bohemiancoding.com/sketch -->
    <title>cg-logo</title>
    <desc>Created with Sketch.</desc>
    <defs></defs>
    <g id="cg-logo" stroke="none" stroke-width="1" fill="none" fill-rule="evenodd">
        <g id="Group" transform="translate(-2.000000, 0.000000)" fill="#FE9B27">
            <path d="M15.972,48.336 C13.3159867,48.336 10.9320106,47.7760056 8.82,46.656 C6.70798944,45.5359944 5.06000592,43.97601 3.876,41.976 C2.69199408,39.97599 2.1,37.7120126 2.1,35.184 C2.1,32.6559874 2.69199408,30.4000099 3.876,28.416 C5.06000592,26.4319901 6.69998952,24.8800056 8.796,23.76 C10.8920105,22.6399944 13.2839866,22.08 15.972,22.08 C18.5000126,22.08 20.7159905,22.5919949 22.62,23.616 C24.5240095,24.6400051 25.9559952,26.1119904 26.916,28.032 L22.308,30.72 C21.5719963,29.5359941 20.6520055,28.648003 19.548,28.056 C18.4439945,27.463997 17.2360066,27.168 15.924,27.168 C13.6839888,27.168 11.8280074,27.8959927 10.356,29.352 C8.88399264,30.8080073 8.148,32.7519878 8.148,35.184 C8.148,37.6160122 8.87599272,39.5599927 10.332,41.016 C11.7880073,42.4720073 13.6519886,43.2 15.924,43.2 C17.2360066,43.2 18.4439945,42.904003 19.548,42.312 C20.6520055,41.719997 21.5719963,40.8320059 22.308,39.648 L26.916,42.336 C25.923995,44.2560096 24.4760095,45.7359948 22.572,46.776 C20.6679905,47.8160052 18.4680125,48.336 15.972,48.336 Z M46.404,22.08 C49.6360162,22.08 52.2279902,23.0239906 54.18,24.912 C56.1320098,26.8000094 57.108,29.5999814 57.108,33.312 L57.108,48 L51.108,48 L51.108,34.08 C51.108,31.8399888 50.5800053,30.1520057 49.524,29.016 C48.4679947,27.8799943 46.9640098,27.312 45.012,27.312 C42.803989,27.312 41.0600064,27.9759934 39.78,29.304 C38.4999936,30.6320066 37.86,32.5439875 37.86,35.04 L37.86,48 L31.86,48 L31.86,12.384 L37.86,12.384 L37.86,25.344 C38.852005,24.2879947 40.0759927,23.4800028 41.532,22.92 C42.9880073,22.3599972 44.611991,22.08 46.404,22.08 Z M70.452,26.112 C72.1800086,23.4239866 75.2199782,22.08 79.572,22.08 L79.572,27.792 C79.0599974,27.6959995 78.5960021,27.648 78.18,27.648 C75.8439883,27.648 74.0200066,28.3279932 72.708,29.688 C71.3959934,31.0480068 70.74,33.0079872 70.74,35.568 L70.74,48 L64.74,48 L64.74,22.368 L70.452,22.368 L70.452,26.112 Z M84.66,22.368 L90.66,22.368 L90.66,48 L84.66,48 L84.66,22.368 Z M87.684,18.144 C86.5959946,18.144 85.6840037,17.8000034 84.948,17.112 C84.2119963,16.4239966 83.844,15.5680051 83.844,14.544 C83.844,13.5199949 84.2119963,12.6640034 84.948,11.976 C85.6840037,11.2879966 86.5959946,10.944 87.684,10.944 C88.7720054,10.944 89.6839963,11.2719967 90.42,11.928 C91.1560037,12.5840033 91.524,13.407995 91.524,14.4 C91.524,15.4560053 91.1640036,16.3439964 90.444,17.064 C89.7239964,17.7840036 88.8040056,18.144 87.684,18.144 Z M106.452,48.336 C104.37199,48.336 102.34001,48.0640027 100.356,47.52 C98.3719901,46.9759973 96.7880059,46.2880042 95.604,45.456 L97.908,40.896 C99.0600058,41.6640038 100.443992,42.2799977 102.06,42.744 C103.676008,43.2080023 105.267992,43.44 106.836,43.44 C110.420018,43.44 112.212,42.4960094 112.212,40.608 C112.212,39.7119955 111.756005,39.0880018 110.844,38.736 C109.931995,38.3839982 108.46801,38.0480016 106.452,37.728 C104.339989,37.4079984 102.620007,37.0400021 101.292,36.624 C99.9639934,36.2079979 98.8120049,35.4800052 97.836,34.44 C96.8599951,33.3999948 96.372,31.9520093 96.372,30.096 C96.372,27.6639878 97.3879898,25.7200073 99.42,24.264 C101.45201,22.8079927 104.195983,22.08 107.652,22.08 C109.412009,22.08 111.171991,22.279998 112.932,22.68 C114.692009,23.080002 116.131994,23.6159966 117.252,24.288 L114.948,28.848 C112.771989,27.5679936 110.324014,26.928 107.604,26.928 C105.843991,26.928 104.508005,27.1919974 103.596,27.72 C102.683995,28.2480026 102.228,28.9439957 102.228,29.808 C102.228,30.7680048 102.715995,31.447998 103.692,31.848 C104.668005,32.248002 106.17999,32.6239982 108.228,32.976 C110.27601,33.2960016 111.955993,33.6639979 113.268,34.08 C114.580007,34.4960021 115.707995,35.199995 116.652,36.192 C117.596005,37.184005 118.068,38.5919909 118.068,40.416 C118.068,42.816012 117.02801,44.7359928 114.948,46.176 C112.86799,47.6160072 110.036018,48.336 106.452,48.336 Z M161.94,22.368 L161.94,44.112 C161.94,53.1360451 157.332046,57.648 148.116,57.648 C145.651988,57.648 143.316011,57.3360031 141.108,56.712 C138.899989,56.0879969 137.076007,55.1840059 135.636,54 L138.324,49.488 C139.444006,50.4160046 140.859991,51.1599972 142.572,51.72 C144.284009,52.2800028 146.019991,52.56 147.78,52.56 C150.596014,52.56 152.659993,51.9200064 153.972,50.64 C155.284007,49.3599936 155.94,47.4080131 155.94,44.784 L155.94,43.44 C154.915995,44.5600056 153.668007,45.4079971 152.196,45.984 C150.723993,46.5600029 149.108009,46.848 147.348,46.848 C144.915988,46.848 142.71601,46.3280052 140.748,45.288 C138.77999,44.2479948 137.228006,42.7840094 136.092,40.896 C134.955994,39.0079906 134.388,36.8480122 134.388,34.416 C134.388,31.9839878 134.955994,29.8320094 136.092,27.96 C137.228006,26.0879906 138.77999,24.6400051 140.748,23.616 C142.71601,22.5919949 144.915988,22.08 147.348,22.08 C149.204009,22.08 150.891992,22.383997 152.412,22.992 C153.932008,23.600003 155.203995,24.5279938 156.228,25.776 L156.228,22.368 L161.94,22.368 Z M148.26,41.76 C150.532011,41.76 152.395993,41.0800068 153.852,39.72 C155.308007,38.3599932 156.036,36.5920109 156.036,34.416 C156.036,32.2719893 155.308007,30.5280067 153.852,29.184 C152.395993,27.8399933 150.532011,27.168 148.26,27.168 C145.955988,27.168 144.076007,27.8399933 142.62,29.184 C141.163993,30.5280067 140.436,32.2719893 140.436,34.416 C140.436,36.5920109 141.163993,38.3599932 142.62,39.72 C144.076007,41.0800068 145.955988,41.76 148.26,41.76 Z M194.628,22.368 L194.628,48 L188.916,48 L188.916,44.736 C187.955995,45.8880058 186.756007,46.7759969 185.316,47.4 C183.875993,48.0240031 182.324008,48.336 180.66,48.336 C177.235983,48.336 174.54001,47.3840095 172.572,45.48 C170.60399,43.5759905 169.62,40.7520187 169.62,37.008 L169.62,22.368 L175.62,22.368 L175.62,36.192 C175.62,38.4960115 176.139995,40.2159943 177.18,41.352 C178.220005,42.4880057 179.69999,43.056 181.62,43.056 C183.764011,43.056 185.467994,42.3920066 186.732,41.064 C187.996006,39.7359934 188.628,37.8240125 188.628,35.328 L188.628,22.368 L194.628,22.368 Z M208.212,26.112 C209.940009,23.4239866 212.979978,22.08 217.332,22.08 L217.332,27.792 C216.819997,27.6959995 216.356002,27.648 215.94,27.648 C213.603988,27.648 211.780007,28.3279932 210.468,29.688 C209.155993,31.0480068 208.5,33.0079872 208.5,35.568 L208.5,48 L202.5,48 L202.5,22.368 L208.212,22.368 L208.212,26.112 Z M236.964,22.08 C240.196016,22.08 242.78799,23.0239906 244.74,24.912 C246.69201,26.8000094 247.668,29.5999814 247.668,33.312 L247.668,48 L241.668,48 L241.668,34.08 C241.668,31.8399888 241.140005,30.1520057 240.084,29.016 C239.027995,27.8799943 237.52401,27.312 235.572,27.312 C233.363989,27.312 231.620006,27.9759934 230.34,29.304 C229.059994,30.6320066 228.42,32.5439875 228.42,35.04 L228.42,48 L222.42,48 L222.42,22.368 L228.132,22.368 L228.132,25.68 C229.124005,24.4959941 230.371992,23.600003 231.876,22.992 C233.380008,22.383997 235.075991,22.08 236.964,22.08 Z M279.636,35.328 C279.636,35.7440021 279.604,36.3359962 279.54,37.104 L259.428,37.104 C259.780002,38.9920094 260.699993,40.4879945 262.188,41.592 C263.676007,42.6960055 265.523989,43.248 267.732,43.248 C270.548014,43.248 272.867991,42.3200093 274.692,40.464 L277.908,44.16 C276.755994,45.5360069 275.300009,46.5759965 273.54,47.28 C271.779991,47.9840035 269.796011,48.336 267.588,48.336 C264.771986,48.336 262.292011,47.7760056 260.148,46.656 C258.003989,45.5359944 256.348006,43.97601 255.18,41.976 C254.011994,39.97599 253.428,37.7120126 253.428,35.184 C253.428,32.6879875 253.995994,30.44001 255.132,28.44 C256.268006,26.43999 257.84399,24.8800056 259.86,23.76 C261.87601,22.6399944 264.147987,22.08 266.676,22.08 C269.172012,22.08 271.40399,22.6319945 273.372,23.736 C275.34001,24.8400055 276.875994,26.39199 277.98,28.392 C279.084006,30.39201 279.636,32.7039869 279.636,35.328 Z M266.676,26.88 C264.75599,26.88 263.132007,27.4479943 261.804,28.584 C260.475993,29.7200057 259.668001,31.2319906 259.38,33.12 L273.924,33.12 C273.667999,31.2639907 272.884007,29.7600058 271.572,28.608 C270.259993,27.4559942 268.62801,26.88 266.676,26.88 Z M308.916,22.368 L296.916,50.064 C295.795994,52.8480139 294.436008,54.8079943 292.836,55.944 C291.235992,57.0800057 289.300011,57.648 287.028,57.648 C285.747994,57.648 284.484006,57.4400021 283.236,57.024 C281.987994,56.6079979 280.964004,56.0320037 280.164,55.296 L282.564,50.88 C283.140003,51.4240027 283.819996,51.8559984 284.604,52.176 C285.388004,52.4960016 286.179996,52.656 286.98,52.656 C288.036005,52.656 288.907997,52.3840027 289.596,51.84 C290.284003,51.2959973 290.915997,50.3840064 291.492,49.104 L291.924,48.096 L280.74,22.368 L286.98,22.368 L295.044,41.328 L303.156,22.368 L308.916,22.368 Z" id="chris-gurney"></path>
            <path d="M81.0962719,5.37537594 L80.3644406,4.63374809 C79.6312823,3.89077564 78.434642,3.88281963 77.6916695,4.61597784 C77.6844579,4.62309426 77.6773035,4.63026855 77.6702072,4.63750002 L77.6702072,4.63750002 C76.9231978,5.39873822 76.9231978,6.6179285 77.6702072,7.37916669 L78.3905964,8.11327759 C79.1247797,8.86144532 80.3264626,8.87278195 81.0746304,8.13859867 C81.0815547,8.13180376 81.0884268,8.12495586 81.0952462,8.11805558 L81.0952462,8.11805558 C81.8461887,7.35819844 81.8466459,6.13579457 81.0962719,5.37537594 Z M77.1722192,13.0444445 L75.4777747,13.0444445 C74.4959352,13.0444445 73.6999969,13.8403827 73.6999969,14.8222222 L73.6999969,14.8222222 C73.6999969,15.8040618 74.4959352,16.6 75.4777747,16.6 L77.1722192,16.6 C78.1540587,16.6 78.9499969,15.8040618 78.9499969,14.8222222 L78.9499969,14.8222222 C78.9499969,13.8403827 78.1540587,13.0444445 77.1722192,13.0444445 Z M85.9499969,2.35000002 L85.9499969,4.18333336 C85.9499969,5.14983167 86.7334986,5.93333336 87.6999969,5.93333336 L87.6999969,5.93333336 C88.6664953,5.93333336 89.4499969,5.14983167 89.4499969,4.18333336 L89.4499969,2.35000002 C89.4499969,1.38350171 88.6664953,0.600000024 87.6999969,0.600000024 L87.6999969,0.600000024 C86.7334986,0.600000024 85.9499969,1.38350171 85.9499969,2.35000002 Z M97.7255829,4.63750002 L97.7255829,4.63750002 C96.9919668,3.89223922 95.7931002,3.88279932 95.0478394,4.61641543 C95.0407559,4.62338818 95.0337275,4.6304166 95.0267548,4.63750002 L94.299411,5.37638891 C93.5507374,6.13694621 93.5507374,7.35749828 94.299411,8.11805558 L94.299411,8.11805558 C95.0330271,8.86331639 96.2318937,8.87275628 96.9771545,8.13914017 C96.984238,8.13216742 96.9912664,8.12513901 96.9982391,8.11805558 L97.7255829,7.37916669 C98.4742565,6.61860939 98.4742565,5.39805732 97.7255829,4.63750002 Z M96.4499969,14.8222222 L96.4499969,14.8222222 C96.4499969,15.8040618 97.2459352,16.6 98.2277747,16.6 L99.9222192,16.6 C100.904059,16.6 101.699997,15.8040618 101.699997,14.8222222 L101.699997,14.8222222 C101.699997,13.8403827 100.904059,13.0444445 99.9222192,13.0444445 L98.2277747,13.0444445 C97.2459352,13.0444445 96.4499969,13.8403827 96.4499969,14.8222222 Z" id="Shape" fill-rule="nonzero"></path>
        </g>
    </g>
</svg>