<?xml version="1.0" encoding="UTF-8"?>
<svg width="70px" height="63px" viewBox="0 0 70 63" version="1.1" xmlns="http://www.w3.org/2000/svg" xmlns:xlink="http://www.w3.org/1999/xlink">
    <!-- Generator: Sketch 49.3 (51167) - http://www.bohemiancoding.com/sketch -->
    <title>chicken</title>
    <desc>Created with Sketch.</desc>
    <defs>
        <path d="M78.0000023,12.6738742 L78.0000023,44.260055 C71.699956,60.1657229 56.1654701,71.4164642 38.0001348,71.4164642 C21.5300499,71.4164642 7.22268755,62.1676515 -2.22044605e-15,48.5861829 L2.25651529e-06,8.34774209 C1.60277611,5.33390234 3.55442573,2.53341307 5.80116407,-5.55111512e-15 L70.1991067,1.26095574e-06 C73.4879615,3.70850089 76.1444961,7.98929506 78.0000023,12.6738742 Z" id="path-1"></path>
    </defs>
    <g id="Chicken" stroke="none" stroke-width="1" fill="none" fill-rule="evenodd">
        <g id="Small" transform="translate(-1.000000, -12.000000)">
            <g id="chicken" transform="translate(1.000000, 3.000000)">
                <mask id="mask-2" fill="white">
                    <use xlink:href="#path-1"></use>
                </mask>
                <g id="Mask"></g>
                <g id="Chicken" mask="url(#mask-2)">
                    <g transform="translate(0.985496, 11.832832)">
                        <path d="M49.3097511,42.0632433 C48.5368059,57.9507917 68.5240202,50.5960462 72.2377113,48.0601024 C75.9514024,45.5241586 76.914689,42.0761485 77.7764107,39.6788004 C79.7247817,45.1737333 84.4005656,95.7019554 56.0626488,99.3767282 C27.724732,103.051501 26.8623402,55.5229251 28.2350184,48.0601024 C29.6076967,40.5972798 25.8660265,28.2196033 32.5972699,21.4606116" id="Oval-4" stroke="#FF8800" stroke-width="4.5" fill="#FFFFFF" fill-rule="evenodd"></path>
                        <ellipse id="Oval-5" stroke="none" fill="#FFFFFF" fill-rule="evenodd" cx="28.27959" cy="35.5200946" rx="11.4920201" ry="11.4799054"></ellipse>
                        <polygon id="Rectangle-7" stroke="none" fill="#FFFFFF" fill-rule="evenodd" points="31.4692183 24.0401892 31.4692183 36.7852526 0.370342491 36.1524983"></polygon>
                        <path d="M14.947596,30.4127209 C9.39547762,33.4625515 5.01367401,35.6448869 1.80218518,36.959727 L1.80217649,36.9597058 C1.46907387,37.0960839 1.30959712,37.4766732 1.44597521,37.8097758 C1.54621953,38.0546219 1.78453847,38.2145693 2.04911086,38.2145693 L24.4585438,38.2145693" id="Path-2" stroke="#FF8800" stroke-width="3" fill="none"></path>
                        <path d="" id="Path-3" stroke="#979797" stroke-width="1" fill="none"></path>
                        <path d="M25.6554083,16.3415475 C25.6554083,16.3415475 36.3656556,4.86892621 39.9916708,2.4751593 C45.1275816,-0.915387347 54.2356753,-0.733465551 57.425376,2.4751593 C60.6150767,5.68378415 57.425376,13.0877476 57.425376,13.0877476 C63.5118784,12.6986035 66.5551296,14.053104 66.5551296,17.1512489 C66.5551296,21.7984663 59.3084454,24.9406733 59.3084454,24.9406733 C60.9711901,26.9051985 61.9486081,28.3818161 62.2406994,29.3705259 C62.6788363,30.8535907 62.4702995,33.3208402 62.0619524,34.2287341 C61.6536053,35.136628 61.7931377,36.6818417 57.8507537,40.1106188 C53.9083696,43.5393958 47.9527551,42.1051994 46.9948084,42.1051994" id="Path-4" stroke="#FF8800" stroke-width="4.5" fill="#FFFFFF" fill-rule="evenodd"></path>
                        <ellipse id="Eye" stroke="#FF8800" stroke-width="3" fill="#FFFFFF" fill-rule="evenodd" cx="33.665329" cy="24.295277" rx="6.77796012" ry="6.7708149"></ellipse>
                        <ellipse id="Eye" stroke="#FF8800" stroke-width="3" fill="#FFFFFF" fill-rule="evenodd" cx="20.7042229" cy="23.1004273" rx="8.37277427" ry="8.76223104"></ellipse>
                        <ellipse id="Eyeball" stroke="#FF8800" stroke-width="2" fill="#FF8800" fill-rule="evenodd" cx="21.1029264" cy="23.1004273" rx="1" ry="1"></ellipse>
                        <ellipse id="Eyeball" stroke="#FF8800" stroke-width="2" fill="#FF8800" fill-rule="evenodd" cx="34.0640325" cy="23.8969938" rx="1" ry="1"></ellipse>
                        <path d="M46.7018602,58.2077638 C49.7492596,56.5756893 53.2148881,55.7596521 57.0987458,55.7596521 C62.9245323,55.7596521 70.8957359,58.7839797 70.5300198,64.1876599 C70.2862091,67.7901134 69.1632732,69.3625011 67.1612122,68.9048231 C68.3528371,70.5170816 68.7409415,71.9438337 68.3255256,73.1850793 C67.9101096,74.426325 66.1097786,75.7325098 62.9245323,77.1036338 C64.0760691,78.3773491 64.5141078,79.3203997 64.2386486,79.9327858 C63.8254598,80.8513649 60.89094,85.2326111 53.687037,85.2326111 C48.8844349,85.2326111 45.1997284,83.5964779 42.6329174,80.3242115 L46.7018602,58.2077638 Z" id="Path-5" stroke="#FFFFFF" stroke-width="2" fill="#FE9B27" fill-rule="evenodd"></path>
                        <ellipse id="Oval-6" stroke="none" fill="#FF8800" fill-rule="evenodd" cx="24.5356347" cy="38.2068121" rx="1.41113049" ry="1.4096429"></ellipse>
                        <path d="M33.8989197,49.8957122 C37.8575124,45.9513578 35.2786451,35.5138108 29.5136525,33.2550299 C23.7486599,30.9962491 21.2504192,33.1286739 19.9996813,33.9641924" id="Oval-3" stroke="#FF8800" stroke-width="3" fill="none" transform="translate(27.901134, 41.072312) rotate(135.000000) translate(-27.901134, -41.072312) "></path>
                    </g>
                </g>
            </g>
        </g>
    </g>
</svg>