<svg height="389" viewBox="0 0 313 389" width="313" xmlns="http://www.w3.org/2000/svg" xmlns:xlink="http://www.w3.org/1999/xlink"><filter id="a" height="1320.2%" width="134.5%" x="-17.2%" y="-500.4%"><feOffset dx="0" dy="8" in="SourceAlpha" result="shadowOffsetOuter1"/><feGaussianBlur in="shadowOffsetOuter1" result="shadowBlurOuter1" stdDeviation="13.5"/><feColorMatrix in="shadowBlurOuter1" type="matrix" values="0 0 0 0 0   0 0 0 0 0   0 0 0 0 0  0 0 0 1 0"/></filter><g fill="none" fill-rule="evenodd"><path d="m27.285714 346.285714h258v7.293833h-258z" fill="#000" filter="url(#a)"/><g transform="translate(16)"><path d="m7.32843345 3.4673409h265.43719555c2.209139 0 4 1.790861 4 4v347.3443681c0 2.209139-1.790861 4-4 4h-265.43719555c-2.209139 0-4-1.790861-4-4v-347.3443681c0-2.209139 1.790861-4 4-4z" fill="#fff"/><path d="m.28571429 280.952381 137.85882371-21.335294c1.419004-.219608 2.863348-.219608 4.282353 0l137.858823 21.335294v77.859328h-279.99999971z" fill="#d8d8d8"/><rect height="355.857143" rx="4" stroke="#d8d8d8" stroke-width="7" width="273.571429" x="3.5" y="3.5"/><g stroke-linecap="round" stroke-linejoin="round"><rect height="144" rx="4" stroke="#d8d8d8" stroke-width="7" width="154.285714" x="29.142857" y="92"/><rect fill="#8c877e" height="14" rx="3.428571" stroke="#8c877e" stroke-width="3.428571" transform="matrix(1 0 0 -1 0 638.571428)" width="45" x="211.285714" y="312.285714"/><rect fill="#8c877e" height="21" rx="3.428571" stroke="#8c877e" stroke-width="3.428571" transform="matrix(1 0 0 -1 0 651.571428)" width="68" x="24.285714" y="315.285714"/><rect fill="#17a398" height="14" rx="7" stroke="#17a398" stroke-width="4.8" transform="matrix(1 0 0 -1 0 300)" width="14" x="49" y="143"/><rect fill="#17a398" height="14" rx="7" stroke="#17a398" stroke-width="4.8" transform="matrix(1 0 0 -1 0 300)" width="33" x="77" y="143"/><rect fill="#1b9653" height="14" rx="7" stroke="#1b9653" stroke-width="4.8" transform="matrix(1 0 0 -1 0 244)" width="33" x="77" y="115"/><rect fill="#662c91" height="14" rx="7" stroke="#662c91" stroke-width="4.8" transform="matrix(1 0 0 -1 0 356)" width="14" x="49" y="171"/><rect fill="#662c91" height="14" rx="7" stroke="#662c91" stroke-width="4.8" transform="matrix(1 0 0 -1 0 356)" width="49" x="77" y="171"/><rect fill="#d8d8d8" height="14" rx="3.428571" stroke="#d8d8d8" stroke-width="3.428571" transform="matrix(1 0 0 -1 0 126.571428)" width="51.428571" x="28.285714" y="56.285714"/><rect fill="#d8d8d8" height="14" rx="3.428571" stroke="#d8d8d8" stroke-width="3.428571" transform="matrix(1 0 0 -1 0 70.571428)" width="73" x="179.285714" y="28.285714"/><rect fill="#d8d8d8" height="14" rx="3.428571" stroke="#d8d8d8" stroke-width="3.428571" transform="matrix(1 0 0 -1 0 196.571428)" width="34" x="195.285714" y="91.285714"/><rect fill="#d8d8d8" height="14" rx="3.428571" stroke="#d8d8d8" stroke-width="3.428571" transform="matrix(1 0 0 -1 0 252.571428)" width="27.571429" x="195.285714" y="119.285714"/><rect fill="#d8d8d8" height="14" rx="3.428571" stroke="#d8d8d8" stroke-width="3.428571" transform="matrix(1 0 0 -1 0 406.571428)" width="57.285714" x="195.285714" y="196.285714"/><rect fill="#d8d8d8" height="14" rx="3.428571" stroke="#d8d8d8" stroke-width="3.428571" transform="matrix(1 0 0 -1 0 462.571428)" width="45.857143" x="195.285714" y="224.285714"/><rect fill="#8c877e" height="14" rx="3.428571" stroke="#8c877e" stroke-width="3.428571" transform="matrix(1 0 0 -1 0 70.571428)" width="41" x="50.285714" y="28.285714"/><rect fill="#8c877e" height="14" rx="7" stroke="#8c877e" stroke-width="3.428571" transform="matrix(1 0 0 -1 0 70.571428)" width="14" x="28.285714" y="28.285714"/><rect fill="#ff8552" height="14" rx="7" stroke="#ff8552" stroke-width="4.8" transform="matrix(1 0 0 -1 0 412)" width="41" x="77" y="199"/><rect fill="#ff8552" height="14" rx="7" stroke="#ff8552" stroke-width="4.8" transform="matrix(1 0 0 -1 0 412)" width="14" x="49" y="199"/><rect fill="#1b9653" height="14" rx="7" stroke="#1b9653" stroke-width="4.8" transform="matrix(1 0 0 -1 0 244)" width="14" x="49" y="115"/></g></g></g></svg>