<svg height="200" viewBox="0 0 750 200" width="750" xmlns="http://www.w3.org/2000/svg"><g fill="none" transform="translate(165 55)"><path d="m24.6668686 37.3864325c3.1344796 0 5.9509263.6813984 8.4494246 2.0442156 2.4984982 1.3628172 4.4518403 3.3502292 5.8600848 5.9622956 1.4082444 2.6120663 2.1123561 5.7578556 2.1123561 9.4374621v16.7625682c0 .9993993-.3293426 1.828434-.9880376 2.487129-.6586949.658695-1.4877297.9880375-2.487129.9880375s-1.828434-.3293425-2.487129-.9880375-.9880375-1.4877297-.9880375-2.487129v-16.7625682c0-3.6796065-.9880277-6.4619833-2.9641127-8.3472138s-4.5994688-2.8278316-7.8702302-2.8278316c-1.9079441 0-3.64551.3861257-5.2127498 1.1583888s-2.7937569 1.817074-3.6795881 3.134464-1.3287402 2.7937532-1.3287402 4.4291339v19.2156269c0 .9993993-.3179859 1.828434-.9539673 2.487129s-1.4763727.9880375-2.52119925.9880375c-.99939931 0-1.82843402-.3293425-2.48712902-.9880375-.65869499-.658695-.98803755-1.4877297-.98803755-2.487129v-30.3906724c0-1.0448265.32934256-1.8852179.98803755-2.5211992.658695-.6359814 1.48772971-.9539673 2.48712902-.9539673 1.04482655 0 1.88521785.3179859 2.52119925.9539673.6359814.6359813.9539673 1.4763727.9539673 2.5211992v.7495458c1.4536717-1.4536717 3.179881-2.5779791 5.1786796-3.3729558s4.1338469-1.1924591 6.405209-1.1924591zm61.3946093 18.3979406c0 .8631176-.2952726 1.5785859-.8858268 2.1464264-.5905541.5678405-1.3400923.8517565-2.2486372.8517565h-25.8933979c.4996996 3.1799069 1.9419929 5.7465075 4.3269231 7.6998789 2.3849301 1.9533714 5.3035866 2.9300424 8.7560569 2.9300424 1.3628172 0 2.7823972-.2498461 4.2587826-.7495457 1.4763853-.4996997 2.6915458-1.1129583 3.6455178-1.8397941.6359814-.4996997 1.3855196-.7495457 2.2486372-.7495457s1.544516.2271328 2.0442156.6814052c.8176904.6814086 1.2265294 1.4536601 1.2265294 2.3167777 0 .8176903-.3634125 1.4990887-1.0902483 2.0442156-1.5445262 1.2265355-3.4637984 2.2259198-5.757874 2.9981829-2.2940757.7722631-4.4859072 1.1583889-6.5755603 1.1583889-3.7250338 0-7.0638859-.8063215-10.0166566-2.4189885-2.9527706-1.6126671-5.2581685-3.8499251-6.9162628-6.7118413s-2.4871291-6.1099152-2.4871291-9.7440945.7836082-6.8935349 2.350848-9.7781648c1.5672398-2.8846298 3.7477147-5.1332445 6.54149-6.7459115 2.7937753-1.6126671 5.9622779-2.4189885 9.5056027-2.4189885 3.4978976 0 6.5187638.7722515 9.0626893 2.3167777s4.4972675 3.7022878 5.8600848 6.4733495c1.3628172 2.7710617 2.0442156 5.9509209 2.0442156 9.5396729zm-16.9669897-12.4697153c-3.3161886 0-6.0077123.9085312-8.0746517 2.7256208-2.0669395 1.8170897-3.3729531 4.2474106-3.91808 7.2910358h22.6907935c-.4088452-3.0436252-1.5445092-5.4739461-3.4070261-7.2910358-1.8625169-1.8170896-4.2928378-2.7256208-7.2910357-2.7256208zm26.5066626-2.1123562c0-1.0448265.3293426-1.8852179.9880376-2.5211992.658695-.6359814 1.4877297-.9539673 2.487129-.9539673 1.0448266 0 1.8852176.3179859 2.5211996.9539673.635981.6359813.953967 1.4763727.953967 2.5211992v30.3225318c0 .9993993-.317986 1.8284341-.953967 2.487129-.635982.658695-1.476373.9880376-2.5211996.9880376-.9993993 0-1.828434-.3293426-2.487129-.9880376-.658695-.6586949-.9880376-1.4877297-.9880376-2.487129zm3.4751666-18.5342216c1.2265356 0 2.2827026.4429089 3.1685346 1.3287401.885831.8858312 1.32874 1.9419987 1.32874 3.1685342s-.442909 2.2827031-1.32874 3.1685343c-.885832.8858312-1.941999 1.3287401-3.1685346 1.3287401-1.2265355 0-2.282703-.4429089-3.1685342-1.3287401s-1.3287402-1.9419988-1.3287402-3.1685343.442909-2.282703 1.3287402-3.1685342 1.9419987-1.3287401 3.1685342-1.3287401zm33.3207146 14.786493c3.588752 0 6.802681.8063214 9.641884 2.4189885 2.839202 1.612667 5.065104 3.8499251 6.677771 6.7118413s2.418988 6.1326285 2.418988 9.812235v14.7183525c0 3.5887521-.794964 6.8594643-2.384918 9.812235-1.589953 2.9527707-3.827211 5.2808819-6.711841 6.9844034s-6.143986 2.5552695-9.778165 2.5552695c-3.270761 0-6.314341-.6473284-9.13083-1.9420048s-5.17867-3.1458087-7.086614-5.5534525c-.4997-.6359813-.749546-1.2719532-.749546-1.9079345 0-.9539721.476979-1.7716502 1.430951-2.4530588.635982-.4088452 1.271954-.6132647 1.907935-.6132647 1.135681 0 2.066925.4769789 2.793761 1.430951 1.226536 1.5899534 2.771039 2.8051139 4.633556 3.6455178 1.862517.840404 3.974852 1.2605997 6.337068 1.2605997 2.225935 0 4.247417-.5337621 6.064506-1.6013023 1.81709-1.0675401 3.27074-2.6347565 4.360994-4.7016959 1.090254-2.0669395 1.635372-4.5313304 1.635372-7.3932465v-3.3388856c-1.408244 2.4984983-3.270733 4.4518404-5.587522 5.8600848-2.31679 1.4082445-4.928817 2.1123562-7.83616 2.1123562-3.361616 0-6.371126-.8063215-9.028619-2.4189885-2.657494-1.6126671-4.724402-3.8499251-6.200788-6.7118413-1.476385-2.8619162-2.214567-6.1099152-2.214567-9.7440945 0-3.6796065.794965-6.9503188 2.384919-9.812235 1.589953-2.8619162 3.815854-5.0991743 6.677771-6.7118413 2.861916-1.6126671 6.109915-2.4189885 9.744094-2.4189885zm0 31.6853422c2.316789 0 4.395055-.5451187 6.234858-1.6353725s3.27074-2.6006869 4.292853-4.5313446c1.022113-1.9306578 1.533161-4.1224893 1.533161-6.5755603s-.511048-4.6562592-1.533161-6.6096305c-1.022113-1.9533714-2.45305-3.4751611-4.292853-4.5654149s-3.918069-1.6353725-6.234858-1.6353725-4.395054.5451187-6.234858 1.6353725c-1.839803 1.0902538-3.282096 2.6120435-4.326923 4.5654149-1.044826 1.9533713-1.567232 4.1565595-1.567232 6.6096305s.522406 4.6449025 1.567232 6.5755603c1.044827 1.9306577 2.48712 3.4410908 4.326923 4.5313446 1.839804 1.0902538 3.918069 1.6353725 6.234858 1.6353725zm47.630224-31.7534827c3.13448 0 5.950927.6813984 8.449425 2.0442156s4.45184 3.3502292 5.860085 5.9622956c1.408244 2.6120663 2.112356 5.7578556 2.112356 9.4374621v16.7625682c0 .9993993-.329343 1.828434-.988038 2.487129s-1.48773.9880375-2.487129.9880375-1.828434-.3293425-2.487129-.9880375-.988037-1.4877297-.988037-2.487129v-16.7625682c0-3.6796065-.988028-6.4619833-2.964113-8.3472138s-4.599469-2.8278316-7.87023-2.8278316c-1.907944 0-3.64551.3861257-5.21275 1.1583888s-2.793757 1.817074-3.679588 3.134464-1.32874 2.7937532-1.32874 4.4291339v19.2156269c0 .9993993-.317986 1.828434-.953968 2.487129-.635981.658695-1.476372.9880375-2.521199.9880375-.999399 0-1.828434-.3293425-2.487129-.9880375s-.988037-1.4877297-.988037-2.487129v-46.3355543c0-1.0448265.329342-1.8852179.988037-2.5211992.658695-.6359814 1.48773-.9539673 2.487129-.9539673 1.044827 0 1.885218.3179859 2.521199.9539673.635982.6359813.953968 1.4763727.953968 2.5211992v16.6944277c1.453671-1.4536717 3.179881-2.5779791 5.178679-3.3729558 1.998799-.7949767 4.133847-1.1924591 6.405209-1.1924591zm31.480921-15.6041793c.999399 0 1.828434.3179859 2.487129.9539673.658695.6359813.988037 1.4763727.988037 2.5211992v18.3979407c1.589954-1.9533714 3.520583-3.4751611 5.791945-4.5654149s4.724396-1.6353725 7.359176-1.6353725c3.270761 0 6.234844.8176781 8.892338 2.4530587 2.657494 1.6353807 4.747115 3.8953521 6.268928 6.7799819 1.521812 2.8846298 2.282707 6.0985589 2.282707 9.6418837s-.817678 6.7572539-2.453058 9.6418837c-1.635381 2.8846298-3.895352 5.1559578-6.779982 6.8140521s-6.075846 2.487129-9.573743 2.487129c-3.497898 0-6.666401-.8290347-9.505603-2.487129-2.839203-1.6580943-5.087817-3.9294223-6.745912-6.8140521-1.658094-2.8846298-2.487129-6.0985589-2.487129-9.6418837v-31.0720776c0-1.0448265.317986-1.8852179.953968-2.5211992.635981-.6359814 1.476372-.9539673 2.521199-.9539673zm15.263477 47.357662c2.271362 0 4.326913-.5564754 6.166717-1.6694428 1.839803-1.1129674 3.293453-2.6461138 4.360993-4.5994851 1.06754-1.9533714 1.601302-4.1338462 1.601302-6.54149s-.533762-4.576762-1.601302-6.5074198c-1.06754-1.9306577-2.52119-3.4524475-4.360993-4.5654149-1.839804-1.1129674-3.895355-1.6694427-6.166717-1.6694427-2.271363 0-4.326914.5564753-6.166718 1.6694427-1.839803 1.1129674-3.282096 2.6347572-4.326923 4.5654149-1.044826 1.9306578-1.567232 4.099776-1.567232 6.5074198s.522406 4.5881186 1.567232 6.54149c1.044827 1.9533713 2.48712 3.4865177 4.326923 4.5994851 1.839804 1.1129674 3.895355 1.6694428 6.166718 1.6694428zm46.062992-31.6853422c3.588752 0 6.802681.8063214 9.641883 2.4189885 2.839203 1.612667 5.065104 3.8499251 6.677771 6.7118413s2.418989 6.1326285 2.418989 9.812235c0 3.6341793-.794965 6.8821783-2.384918 9.7440945-1.589954 2.8619162-3.804499 5.0991742-6.643701 6.7118413-2.839203 1.612667-6.075845 2.4189885-9.710024 2.4189885-3.63418 0-6.882179-.8063215-9.744095-2.4189885-2.861916-1.6126671-5.087817-3.8499251-6.677771-6.7118413-1.589953-2.8619162-2.384918-6.1099152-2.384918-9.7440945 0-3.6796065.794965-6.9503188 2.384918-9.812235 1.589954-2.8619162 3.815855-5.0991743 6.677771-6.7118413 2.861916-1.6126671 6.109915-2.4189885 9.744095-2.4189885zm0 6.1326469c-2.31679 0-4.395055.5451187-6.234858 1.6353725s-3.282097 2.6120435-4.326923 4.5654149c-1.044827 1.9533713-1.567232 4.1565595-1.567232 6.6096305s.522405 4.6449025 1.567232 6.5755603c1.044826 1.9306577 2.48712 3.4410908 4.326923 4.5313446s3.918068 1.6353725 6.234858 1.6353725c2.316789 0 4.395054-.5451187 6.234857-1.6353725 1.839804-1.0902538 3.27074-2.6006869 4.292853-4.5313446 1.022113-1.9306578 1.533162-4.1224893 1.533162-6.5755603s-.511049-4.6562592-1.533162-6.6096305c-1.022113-1.9533714-2.453049-3.4751611-4.292853-4.5654149-1.839803-1.0902538-3.918068-1.6353725-6.234857-1.6353725zm47.357662-6.268928c2.407643 0 4.292846.3634125 5.655663 1.0902484 1.362817.7268358 2.044216 1.635367 2.044216 2.7256208 0 .3179907-.022714.5451235-.068141.6814052-.408845 1.4536717-1.317376 2.1804967-2.725621 2.1804967-.227136 0-.567835-.0454266-1.022108-.136281-1.817089-.3179907-3.293452-.4769837-4.429133-.4769837-3.270762 0-5.905502.7495382-7.904301 2.2486372-1.998799 1.4990989-2.998183 3.5205809-2.998183 6.0645064v19.8970321c0 1.0902537-.283916 1.9306451-.851756 2.5211992-.567841.5905542-1.419589.8858268-2.55527.8858268-1.090254 0-1.930645-.283916-2.521199-.8517565s-.885827-1.4195885-.885827-2.5552695v-30.4588129c0-1.0902538.295273-1.9306451.885827-2.5211993.590554-.5905541 1.430945-.8858267 2.521199-.8858267 2.271362 0 3.407026 1.135664 3.407026 3.407026v1.2946699c1.362817-1.5899534 3.0436-2.8391838 5.042399-3.7477286 1.998798-.9085449 4.133847-1.3628105 6.405209-1.3628105z" fill="#7ea2aa"/><g transform="translate(344.791036 11.432465)"><path d="m43.7613568 6.43549364h19.8364627v26.87764986h-19.8364627z" fill="#3e2723"/><path d="m47.6983646 26.6505148v8.5175652s1.018297 8.5175651 5.9433677 8.5175651c4.9250706 0 5.9433676-8.5175651 5.9433676-8.5175651v-8.5175652z" fill="#ef8d3c"/><path d="m65.6420351 12.3371796c0-10.03338967-23.8491823-6.53295326-23.8491823 0v10.3599378c0 6.5269799 5.3362546 11.8274132 11.9245912 11.8274132 6.5863492 0 11.9245911-5.3004333 11.9245911-11.8274132z" fill="#ffaa45"/><path d="m46.7141127 20.4421563c0-.8338381.6686856-1.5142338 1.4926018-1.5142338.8239163 0 1.4926019.6803957 1.4926019 1.5142338 0 .833838-.6686856 1.5142338-1.4926019 1.5142338-.8239162 0-1.4926018-.6803958-1.4926018-1.5142338m10.9457471 0c0 .833838.6686857 1.5142338 1.4926019 1.5142338.8239163 0 1.4926019-.6803958 1.4926019-1.5142338 0-.8338381-.6686856-1.5142338-1.4926019-1.5142338-.8239162 0-1.4926019.6803957-1.4926019 1.5142338" fill="#784719"/><path d="m53.7552998 0c-8.2789824 0-19.9878861 2.87327856-19.9878861 29.826421l9.9939431 7.9537123v-19.8842807l15.9903089-7.95371227 3.9975772 6.14623117v21.6917618l9.993943-7.9537123c0-5.4582351-.4637189-27.11420512-14.5371895-27.11420512l-1.4531194-2.71221588z" fill="#4e342e"/><g fill="#efcb68" transform="translate(31.79891 35.357359)"><path d="m27.8742551 0-.09355.02187563c-.3324011 1.91312336-1.711766 7.93289925-5.8777265 7.93289925-4.1659606 0-5.5453255-6.02176458-5.8777265-7.93289925l-.09355-.02187563s-15.84577739 2.77025035-15.87364335 17.8982435h-.04976064v11.9321623h43.78936089v-11.8923884h.0477702c0-15.10810624-15.9711741-17.9380174-15.9711741-17.9380174z"/><path d="m27.8742551 0-.09355.02187563c-.3324011 1.91312336-1.711766 7.93289925-5.8777265 7.93289925-4.1659606 0-5.5453255-6.02176458-5.8777265-7.93289925l-.09355-.02187563s-15.84577739 2.77025035-15.87364335 17.8982435h-.04976064v11.9321623h43.78936089v-11.8923884h.0477702c0-15.10810624-15.9711741-17.9380174-15.9711741-17.9380174z"/></g><path d="m53.717444 47.7740763c6.1136918 0 8.8848605-6.3121845 9.7289521-10.8200333-2.1699525-.8593024-3.7566058-1.1424137-3.7566058-1.1424137l-.0935668.0219312c-.3324606 1.917979-1.7120726 7.9530335-5.8787795 7.9530335-4.166707 0-5.546319-6.0370483-5.8787796-7.9530335l-.0935667-.0219312s-1.5886442.2811175-3.7566059 1.14042c.8440916 4.5078487 3.6152603 10.822027 9.7289522 10.822027z" fill="#efcb68"/><g fill="#ffa726" transform="translate(7.949727 25.287704)"><path d="m27.7861902 3.0284676c0 1.67171411-1.3337371 3.02846759-2.9770918 3.02846759-1.6453394 0-2.9770918-1.35675348-2.9770918-3.02846759 0-1.67171412 1.3317524-3.0284676 2.9770918-3.0284676 1.6433547 0 2.9770918 1.35675348 2.9770918 3.0284676"/><path d="m5.95418361 3.0284676c0 1.67171411-1.33373713 3.02846759-2.9770918 3.02846759-1.64335468 0-2.97709181-1.35675348-2.97709181-3.02846759 0-1.67171412 1.33373713-3.0284676 2.97709181-3.0284676 1.64335467 0 2.9770918 1.35675348 2.9770918 3.0284676"/></g><path d="m43.8370684 61.2356148c0-15.1638814-15.9711513-18.0042399-15.9711513-18.0042399l-5.9234978 1.4211773-6.0190381-1.4211773s-15.84575472 2.7804774-15.87362063 17.9643192h-.04976057v3.9920709h43.7892983v-3.9521502z" fill="#7ea2aa"/><path d="m21.9185342 49.1368867c-5.9433676 0-5.9433676-5.9704075-5.9433676-5.9704075v-7.9605434h11.8867353v7.9605434s0 5.9704075-5.9433677 5.9704075z" fill="#ff9800"/><path d="m21.9185342 53.3010297c6.6101665 0 9.4040928-4.9200333 9.8803756-8.8532405-2.2419166-.9123107-3.9019313-1.2164143-3.9019313-1.2164143s0 6.0417929-5.9784443 6.0417929c-5.9784442 0-5.9784442-6.0417929-5.9784442-6.0417929s-1.6620075.3020897-3.9019313 1.2144004c.4762827 3.9352211 3.270209 8.8552544 9.8803755 8.8552544z" fill="#7ea2aa"/><g fill="#ffb74d" transform="translate(10.069655 13.325257)"><path d="m23.8491823 6.30970648c0-10.01866298-23.8491823-6.52336441-23.8491823 0v10.34473182c0 6.5173997 5.33625454 11.8100532 11.9245912 11.8100532 6.5863491 0 11.9245911-5.2926535 11.9245911-11.8100532z"/><path d="m23.8491823 6.30970648c0-10.01866298-23.8491823-6.52336441-23.8491823 0v10.34473182c0 6.5173997 5.33625454 11.8100532 11.9245912 11.8100532 6.5863491 0 11.9245911-5.2926535 11.9245911-11.8100532z"/></g><path d="m21.8428225 7.41974561c-8.4410476 0-13.89309506 7.53104179-13.89309506 14.27165359v3.6926656l3.96945576 3.9920709v-5.9881064l15.8778229-5.9881064 3.9694558 3.9920709v7.9841419l3.9694557-3.9920709v-1.912202c0-5.6208359-1.4428971-11.8804031-8.335857-13.2596636l-1.5877823-2.79245359z" fill="#795548"/><g fill="#784719" transform="translate(14.990915 26.347668)"><path d="m.02679029 1.52775374c0 .8263931.66611378 1.50071386 1.48686111 1.50071386s1.48686111-.67432076 1.48686111-1.50071386c0-.82639309-.66611378-1.50071385-1.48686111-1.50071385s-1.48686111.67432076-1.48686111 1.50071385"/><path d="m10.9304384 1.52775374c0 .8263931.6661138 1.50071386 1.4868611 1.50071386.8207474 0 1.4868611-.67432076 1.4868611-1.50071386 0-.82639309-.6661137-1.50071385-1.4868611-1.50071385-.8207473 0-1.4868611.67432076-1.4868611 1.50071385"/></g></g></g></svg>