<svg preserveAspectRatio="none" width="100%" height="100%" viewBox="0 0 950 331" xmlns="http://www.w3.org/2000/svg"><g fill="none" fill-rule="evenodd"><g transform="translate(0 285)"><path d="m0 0h950v10h-950z" fill="#1b9653"/><path d="m0 40v-14h8.04826118v1.4939024h-6.28105039v4.7378049h5.32292406v1.4939025h-5.32292406v6.2743902zm13.17956 0v-14h1.7672108v14zm8.2611781 0v-14h1.8310859l5.046132 8.7926829 1.5117104 2.9024391h.0851668c-.0425836-.7113857-.0887151-1.4476588-.138396-2.2088415s-.0745209-1.5116833-.0745209-2.2515244v-7.2347561h1.682044v14h-1.8310859l-5.0674237-8.8140244-1.5117105-2.8810976h-.0851667c.0567781.7113857.1100068 1.4334313.1596877 2.1661586.0496809.7327272.0745209 1.4690004.0745209 2.2088414v7.320122zm18.8431512-7.8323171-.6600426 2.1341464h4.1944642l-.6600426-2.1341464c-.2555017-.7825242-.4968051-1.5614798-.7239177-2.3368902s-.4542217-1.5685935-.6813343-2.3795732h-.0851668c-.212918.8109797-.43293 1.6041628-.6600425 2.3795732-.2271126.7754104-.4684161 1.554366-.7239177 2.3368902zm-4.2583393 7.8323171 4.7267566-14h2.0014194l4.7267566 14h-1.894961l-1.3200851-4.2682927h-5.0887154l-1.3413769 4.2682927zm16.0965224 0v-14h1.7672108v12.4847561h6.1107168v1.5152439z" fill="#000"/></g><path d="m475 0h475v260h-475z" fill="#33312e"/><g transform="translate(542 96)"><path d="m130.787643 23.6590545c2.155925 0 4.093103.468359 5.811594 1.405091 1.718491.9367319 3.062018 2.3027789 4.030621 4.0981818.968604 1.7954029 1.452899 3.9576601 1.452899 6.4868363v11.5217455c0 .6869368-.226525 1.2567735-.679582 1.7095273-.453056.4527537-1.023274.6791272-1.71067.6791272-.687397 0-1.257615-.2263735-1.710671-.6791272-.453057-.4527538-.679582-1.0225905-.679582-1.7095273v-11.5217455c0-2.5291762-.679574-4.441642-2.038744-5.7374545s-3.163558-1.9437091-5.413219-1.9437091c-1.312302 0-2.507416.2654034-3.585378.7962182-1.077963.5308148-1.921573 1.2489652-2.530856 2.1544727-.609283.9055076-.91392 1.9202853-.91392 3.0443636v13.2078546c0 .6869368-.218713 1.2567735-.656147 1.7095273-.437434.4527537-1.015463.6791272-1.734105.6791272-.687396 0-1.257614-.2263735-1.710671-.6791272-.453056-.4527538-.679581-1.0225905-.679581-1.7095273v-20.8890182c0-.7181612.226525-1.2958039.679581-1.7329454.453057-.4371416 1.023275-.6557091 1.710671-.6557091.718642 0 1.296671.2185675 1.734105.6557091.437434.4371415.656147 1.0147842.656147 1.7329454v.5152c.999849-.9991807 2.187152-1.771973 3.561945-2.3184s2.843299-.8196364 4.405563-.8196364zm42.227791 12.6458182c0 .5932636-.203091 1.0850405-.60928 1.4753455s-.921728.5854545-1.546634.5854545h-17.809723c.343698 2.1857079 1.335721 3.94986 2.976098 5.2925091 1.640378 1.3426492 3.647857 2.0139637 6.022499 2.0139637.937358 0 1.913759-.1717317 2.929231-.5152 1.015471-.3434684 1.85127-.7649915 2.507421-1.2645819.437434-.3434683.952974-.5152 1.546634-.5152s1.062333.1561197 1.406031.4683637c.562415.468366.843618.9991728.843618 1.5924363 0 .5620392-.249958 1.0303982-.749883 1.4050909-1.06234.8430588-2.382433 1.5299853-3.96032 2.0608-1.577887.5308148-3.085449.7962182-4.522732.7962182-2.562113 0-4.858607-.5542247-6.889551-1.6626909-2.030943-1.1084661-3.616618-2.6462447-4.757071-4.6133818s-1.71067-4.1996481-1.71067-6.6976.538973-4.7382689 1.616935-6.7210182 2.577713-3.5283338 4.499298-4.6368c1.921585-1.1084661 4.100911-1.6626909 6.538043-1.6626909 2.405887 0 4.483668.5308068 6.233404 1.5924364 1.749735 1.0616295 3.093263 2.5447662 4.030621 4.4494545.937359 1.9046883 1.406031 4.0903634 1.406031 6.5570909zm-11.670056-8.5710545c-2.280905 0-4.132161.6244786-5.553821 1.8734545-1.421661 1.248976-2.319949 2.9194562-2.694892 5.0114909h15.606941c-.281207-2.0920347-1.062328-3.7625149-2.343384-5.0114909-1.281057-1.2489759-2.952655-1.8734545-5.014844-1.8734545zm18.231533-1.4519273c0-.7181612.226525-1.2958039.679581-1.7329454.453057-.4371416 1.023275-.6557091 1.710671-.6557091.718642 0 1.296671.2185675 1.734105.6557091.437434.4371415.656147 1.0147842.656147 1.7329454v20.8421818c0 .6869368-.218713 1.2567735-.656147 1.7095273s-1.015463.6791273-1.734105.6791273c-.687396 0-1.257614-.2263735-1.710671-.6791273-.453056-.4527538-.679581-1.0225905-.679581-1.7095273zm2.390252-12.7394909c.843623 0 1.570065.3044333 2.179348.9133091s.91392 1.3348321.91392 2.1778909-.304637 1.5690151-.91392 2.1778909-1.335725.9133091-2.179348.9133091-1.570065-.3044333-2.179348-.9133091-.91392-1.3348321-.91392-2.1778909.304637-1.5690151.91392-2.1778909 1.335725-.9133091 2.179348-.9133091zm22.918302 10.1634909c2.468377 0 4.678948.5542248 6.631778 1.6626909 1.95283 1.1084662 3.483826 2.6462447 4.593034 4.6133818s1.663803 4.2152601 1.663803 6.7444364v10.1166545c0 2.4667275-.546784 4.7148505-1.640369 6.7444364s-2.632392 3.6298123-4.616468 4.8007273c-1.984075 1.1709149-4.225891 1.7563636-6.725514 1.7563636-2.24966 0-4.343063-.444941-6.280271-1.3348363-1.937207-.8898954-3.561938-2.1622706-4.87424-3.8171637-.343698-.4371416-.515544-.8742766-.515544-1.3114182 0-.6557123.32807-1.2177431.984221-1.6861091.437434-.2810195.874862-.4215272 1.312296-.4215272.781132 0 1.421651.3278512 1.921575.9835636.843623 1.092854 1.905947 1.9280941 3.187003 2.5057455 1.281057.5776513 2.733941.8664727 4.358696.8664727 1.531019 0 2.921413-.3668812 4.171224-1.1006546 1.249812-.7337733 2.249646-1.8109989 2.999533-3.231709.749886-1.4207102 1.124824-3.1146084 1.124824-5.0817455v-2.2949818c-.968604 1.7173419-2.249641 3.0599709-3.843151 4.0279273-1.593509.9679563-3.390086 1.4519272-5.389784 1.4519272-2.312151 0-4.38212-.5542247-6.209969-1.6626909-1.82785-1.1084661-3.249489-2.6462447-4.26496-4.6133818-1.015472-1.9671371-1.5232-4.1996481-1.5232-6.6976 0-2.5291763.546784-4.7772993 1.640369-6.7444364s2.624581-3.5049156 4.593034-4.6133818c1.968453-1.1084661 4.202457-1.6626909 6.70208-1.6626909zm0 21.7789091c1.593509 0 3.022959-.3746872 4.288393-1.1240727 1.265434-.7493856 2.249646-1.7875813 2.952665-3.1146182s1.054523-2.8335916 1.054523-4.5197091-.351504-3.2004781-1.054523-4.5431273c-.703019-1.3426491-1.687231-2.3886508-2.952665-3.1380363-1.265434-.7493856-2.694884-1.1240728-4.288393-1.1240728-1.59351 0-3.02296.3746872-4.288394 1.1240728-1.265434.7493855-2.257457 1.7953872-2.976099 3.1380363-.718641 1.3426492-1.077957 2.8570098-1.077957 4.5431273s.359316 3.1926722 1.077957 4.5197091c.718642 1.3270369 1.710665 2.3652326 2.976099 3.1146182 1.265434.7493855 2.694884 1.1240727 4.288394 1.1240727zm32.760517-21.8257455c2.155924 0 4.093103.468359 5.811593 1.405091 1.718491.9367319 3.062018 2.3027789 4.030622 4.0981818s1.452898 3.9576601 1.452898 6.4868363v11.5217455c0 .6869368-.226525 1.2567735-.679581 1.7095273-.453057.4527537-1.023275.6791272-1.710671.6791272s-1.257614-.2263735-1.710671-.6791272c-.453056-.4527538-.679581-1.0225905-.679581-1.7095273v-11.5217455c0-2.5291762-.679575-4.441642-2.038745-5.7374545s-3.163558-1.9437091-5.413218-1.9437091c-1.312302 0-2.507416.2654034-3.585379.7962182-1.077962.5308148-1.921572 1.2489652-2.530855 2.1544727-.609283.9055076-.91392 1.9202853-.91392 3.0443636v13.2078546c0 .6869368-.218714 1.2567735-.656148 1.7095273-.437434.4527537-1.015463.6791272-1.734104.6791272-.687397 0-1.257615-.2263735-1.710671-.6791272-.453057-.4527538-.679582-1.0225905-.679582-1.7095273v-31.8487273c0-.7181611.226525-1.2958039.679582-1.7329454.453056-.4371416 1.023274-.6557091 1.710671-.6557091.718641 0 1.29667.2185675 1.734104.6557091.437434.4371415.656148 1.0147843.656148 1.7329454v11.4749091c.999849-.9991807 2.187152-1.771973 3.561944-2.3184 1.374793-.546427 2.843299-.8196364 4.405564-.8196364zm21.652873-10.7255272c.687397 0 1.257615.2185675 1.710671.6557091.453057.4371415.679582 1.0147843.679582 1.7329454v12.6458182c1.093585-1.3426491 2.421489-2.3886508 3.983754-3.1380364 1.562264-.7493855 3.249484-1.1240727 5.06171-1.1240727 2.249661 0 4.288385.5620308 6.116234 1.6861091s3.265111 2.6774689 4.311828 4.6602182 1.570068 4.1918423 1.570068 6.6273454-.562407 4.6445962-1.687237 6.6273455c-1.124831 1.9827493-2.67926 3.5439458-4.663336 4.6836364-1.984075 1.1396905-4.179024 1.7095272-6.584911 1.7095272-2.405886 0-4.585212-.5698367-6.538043-1.7095272-1.95283-1.1396906-3.499448-2.7008871-4.639901-4.6836364s-1.710671-4.1918424-1.710671-6.6273455v-21.3573818c0-.7181611.218714-1.2958039.656148-1.7329454.437434-.4371416 1.015463-.6557091 1.734104-.6557091zm10.498363 32.5512727c1.562265 0 2.976093-.3824931 4.241527-1.1474909s2.265268-1.8188054 2.999532-3.1614546c.734264-1.3426491 1.101391-2.8413977 1.101391-4.4962909 0-1.6548931-.367127-3.1458358-1.101391-4.4728727s-1.734098-2.3730386-2.999532-3.1380364c-1.265434-.7649977-2.679262-1.1474909-4.241527-1.1474909-1.562264 0-2.976092.3824932-4.241526 1.1474909-1.265434.7649978-2.257457 1.8109995-2.976098 3.1380364-.718642 1.3270369-1.077957 2.8179796-1.077957 4.4728727 0 1.6548932.359315 3.1536418 1.077957 4.4962909.718641 1.3426492 1.710664 2.3964568 2.976098 3.1614546s2.679262 1.1474909 4.241526 1.1474909zm31.68256-21.7789091c2.468378 0 4.678949.5542248 6.631779 1.6626909 1.95283 1.1084662 3.483826 2.6462447 4.593034 4.6133818 1.109207 1.9671371 1.663803 4.2152601 1.663803 6.7444364 0 2.4979519-.546784 4.7304629-1.640369 6.6976s-2.61677 3.5049157-4.5696 4.6133818c-1.952831 1.1084662-4.179024 1.6626909-6.678647 1.6626909-2.499622 0-4.733627-.5542247-6.70208-1.6626909-1.968452-1.1084661-3.499448-2.6462447-4.593033-4.6133818s-1.64037-4.1996481-1.64037-6.6976c0-2.5291763.546785-4.7772993 1.64037-6.7444364s2.624581-3.5049156 4.593033-4.6133818c1.968453-1.1084661 4.202458-1.6626909 6.70208-1.6626909zm0 4.2152727c-1.593509 0-3.022959.3746872-4.288393 1.1240728-1.265434.7493855-2.257457 1.7953872-2.976099 3.1380363-.718641 1.3426492-1.077957 2.8570098-1.077957 4.5431273s.359316 3.1926722 1.077957 4.5197091c.718642 1.3270369 1.710665 2.3652326 2.976099 3.1146182 1.265434.7493855 2.694884 1.1240727 4.288393 1.1240727 1.59351 0 3.02296-.3746872 4.288394-1.1240727 1.265434-.7493856 2.249646-1.7875813 2.952665-3.1146182s1.054523-2.8335916 1.054523-4.5197091-.351504-3.2004781-1.054523-4.5431273c-.703019-1.3426491-1.687231-2.3886508-2.952665-3.1380363-1.265434-.7493856-2.694884-1.1240728-4.288394-1.1240728zm32.573047-4.3089454c1.656 0 2.95266.2497914 3.890018.7493818.937359.4995904 1.406031 1.124069 1.406031 1.8734545 0 .2185708-.015623.3746905-.046868.4683637-.281207.9991807-.906104 1.4987636-1.874708 1.4987636-.156226 0-.390562-.0312239-.703015-.0936727-1.249811-.2185708-2.265268-.3278546-3.0464-.3278546-2.24966 0-4.06186.5151949-5.436652 1.5456-1.374793 1.0304052-2.062179 2.4198701-2.062179 4.1684364v13.6762182c0 .7493856-.19528 1.3270283-.585846 1.7329454-.390566.4059172-.976406.6088728-1.757538.6088728-.749887 0-1.327916-.1951496-1.734105-.5854546s-.60928-.9757536-.60928-1.7563636v-20.9358546c0-.7493855.203091-1.3270282.60928-1.7329454s.984218-.6088727 1.734105-.6088727c1.562264 0 2.343384.7805982 2.343384 2.3418181v.889891c.937359-1.092854 2.093417-1.9515121 3.46821-2.576 1.374792-.624488 2.843298-.9367273 4.405563-.9367273z" fill="#fff" fill-rule="nonzero"/><path d="m79.2481201 16.2111667c0-5.6608651 4.4011119-10.53818184 10.5890958-10.53818184s10.4849021 5.05532524 10.4849021 10.53818184v36.8683308c0 5.6141299-4.8120776 10.5534874-10.5369992 10.5534874s-10.5369987-4.7633975-10.5369987-10.5534874c0-5.79009 0-31.2074658 0-36.8683308z" fill="#fff"/><path d="m90.3467645 22.257911 6.1670407 23.6360924-8.5872431 8.5872431-1.7391096-28.0640235z" fill="#33312e" fill-opacity=".503196" transform="matrix(.70710678 -.70710678 .70710678 .70710678 -.37541 75.832839)"/><g fill="#fff"><path d="m61.2094768 9.61389718c.0003177-5.66054729 4.4019505-10.53783736 10.5902818-10.53818475s10.4852065 5.05445289 10.4848987 10.53700167c-.0003078 5.4825488-.0025402 45.2508673-.0028553 50.864682-.0003152 5.6138148-4.8129397 10.5531652-10.5381827 10.5534865-5.725243.0003214-10.5373229-4.7625385-10.5369979-10.5523034s.0025376-45.2041347.0028554-50.86468202z" transform="matrix(.70710678 -.70710678 .70710678 .70710678 -3.772614 60.998701)"/><path d="m24.0699406 8.11363282c-.0003178-5.66054729 4.4007675-10.53734321 10.5890988-10.53699582s10.485774 5.05563012 10.4860818 10.53817889c.0003077 5.48254881-1.239257 46.49266451-1.2389419 52.10647921.0003151 5.6138148-4.8117549 10.5526249-10.5369979 10.5523035s-10.5378577-4.7637216-10.5381827-10.5534865c-.000325-5.789765 1.2392597-46.445932 1.2389419-52.10647928z" transform="matrix(.70710678 .70710678 -.70710678 .70710678 34.12033 -14.023527)"/></g></g><g transform="translate(67 94)"><path d="m130.73937 26.24c2.155129 0 4.091593.466662 5.809449 1.4s3.060887 2.2944355 4.029134 4.0833333c.968246 1.7888979 1.452362 3.9433208 1.452362 6.4633334v11.48c0 .6844478-.226441 1.2522199-.679331 1.7033333-.452889.4511134-1.022897.6766667-1.710039.6766667-.687143 0-1.25715-.2255533-1.710039-.6766667-.45289-.4511134-.679331-1.0188855-.679331-1.7033333v-11.48c0-2.5200126-.679324-4.4255491-2.037992-5.7166667-1.358669-1.2911176-3.162391-1.9366667-5.411221-1.9366667-1.311817 0-2.50649.2644418-3.584055.7933334-1.077564.5288915-1.920863 1.2444399-2.529921 2.1466666-.609058.9022268-.913583 1.9133278-.913583 3.0333334v13.16c0 .6844478-.218633 1.2522199-.655905 1.7033333-.437273.4511134-1.015089.6766667-1.733465.6766667-.687142 0-1.25715-.2255533-1.710039-.6766667-.45289-.4511134-.679331-1.0188855-.679331-1.7033333v-20.8133334c0-.7155591.226441-1.2911089.679331-1.7266666.452889-.4355578 1.022897-.6533334 1.710039-.6533334.718376 0 1.296192.2177756 1.733465.6533334.437272.4355577.655905 1.0111075.655905 1.7266666v.5133334c.99948-.9955606 2.186345-1.7655529 3.56063-2.31 1.374285-.5444472 2.842249-.8166667 4.403937-.8166667zm42.212205 12.6c0 .5911141-.203017 1.0811092-.609055 1.47-.406039.3888908-.921388.5833333-1.546063.5833333h-17.80315c.343571 2.1777887 1.335228 3.9355489 2.975 5.2733334 1.639772 1.3377844 3.646511 2.0066666 6.020276 2.0066666.937012 0 1.913052-.1711094 2.928149-.5133333s1.850588-.7622197 2.506496-1.26c.437273-.3422239.952622-.5133333 1.546063-.5133333.593442 0 1.061941.155554 1.405512.4666666.562208.466669.843307.9955526.843307 1.5866667 0 .5600028-.249866 1.0266648-.749606 1.4-1.061948.8400042-2.381554 1.5244418-3.958858 2.0533333-1.577305.5288916-3.084311.7933334-4.521063.7933334-2.561168 0-4.856814-.5522167-6.887008-1.6566667s-3.615283-2.6366569-4.755315-4.5966667-1.71004-4.184432-1.71004-6.6733333.538775-4.7211012 1.616339-6.6966667c1.077564-1.9755654 2.576762-3.51555 4.497638-4.62 1.920876-1.1044499 4.099397-1.6566666 6.53563-1.6566666 2.404999 0 4.482012.5288836 6.231102 1.5866666 1.74909 1.0577831 3.092121 2.5355461 4.029134 4.4333334.937013 1.8977872 1.405512 4.0755432 1.405512 6.5333333zm-11.665748-8.54c-2.280064 0-4.130636.622216-5.551772 1.8666667-1.421136 1.2444506-2.319092 2.9088784-2.693898 4.9933333h15.601182c-.281104-2.0844549-1.061936-3.7488827-2.34252-4.9933333-1.280584-1.2444507-2.951565-1.8666667-5.012992-1.8666667zm18.224803-1.4466667c0-.7155591.226441-1.2911089.679331-1.7266666.452889-.4355578 1.022896-.6533334 1.710039-.6533334.718376 0 1.296192.2177756 1.733465.6533334.437272.4355577.655905 1.0111075.655905 1.7266666v20.7666667c0 .6844479-.218633 1.25222-.655905 1.7033333-.437273.4511134-1.015089.6766667-1.733465.6766667-.687143 0-1.25715-.2255533-1.710039-.6766667-.45289-.4511133-.679331-1.0188854-.679331-1.7033333zm2.38937-12.6933333c.843311 0 1.569485.3033303 2.178543.91s.913583 1.3299958.913583 2.17-.304525 1.5633303-.913583 2.17-1.335232.91-2.178543.91-1.569485-.3033303-2.178543-.91-.913583-1.3299958-.913583-2.17.304525-1.5633303.913583-2.17 1.335232-.91 2.178543-.91zm22.909843 10.1266667c2.467466 0 4.677221.5522167 6.62933 1.6566666 1.95211 1.10445 3.482541 2.6366569 4.591339 4.5966667s1.663189 4.1999874 1.663189 6.72v10.08c0 2.4577901-.546583 4.6977677-1.639764 6.72s-2.631421 3.6166608-4.614764 4.7833333-4.224331 1.75-6.723031 1.75c-2.24883 0-4.34146-.4433289-6.277953-1.33s-3.560623-2.1544362-4.872441-3.8033333c-.343571-.4355577-.515354-.8711089-.515354-1.3066667 0-.6533366.327949-1.213331.983858-1.68.437272-.2800014.874538-.42 1.311811-.42.780844 0 1.421126.3266634 1.920866.98.843311 1.0888944 1.905243 1.9211083 3.185827 2.4966667s2.732931.8633333 4.357087.8633333c1.530453 0 2.920334-.3655519 4.169685-1.0966666 1.24935-.7311148 2.248815-1.8044374 2.998425-3.22.74961-1.4155627 1.124409-3.1033236 1.124409-5.0633334v-2.2866666c-.968246 1.7111196-2.248811 3.048884-3.841732 4.0133333s-3.388835 1.4466667-5.387795 1.4466667c-2.311298 0-4.380503-.5522167-6.207678-1.6566667-1.827174-1.10445-3.248288-2.6366569-4.263385-4.5966667s-1.522638-4.184432-1.522638-6.6733333c0-2.5200126.546582-4.7599902 1.639764-6.72 1.093181-1.9600098 2.623612-3.4922167 4.591338-4.5966667 1.967727-1.1044499 4.200906-1.6566666 6.699607-1.6566666zm0 21.7c1.592921 0 3.021844-.3733296 4.286811-1.12 1.264966-.7466704 2.248815-1.7811045 2.951574-3.1033334.70276-1.3222288 1.054134-2.8233249 1.054134-4.5033333s-.351374-3.1888822-1.054134-4.5266667c-.702759-1.3377844-1.686608-2.3799962-2.951574-3.1266666-1.264967-.7466704-2.69389-1.12-4.286811-1.12-1.592922 0-3.021845.3733296-4.286812 1.12-1.264966.7466704-2.256623 1.7888822-2.975 3.1266666-.718376 1.3377845-1.077559 2.8466583-1.077559 4.5266667s.359183 3.1811045 1.077559 4.5033333c.718377 1.3222289 1.710034 2.356663 2.975 3.1033334 1.264967.7466704 2.69389 1.12 4.286812 1.12zm32.748425-21.7466667c2.155129 0 4.091592.466662 5.809449 1.4 1.717856.933338 3.060887 2.2944355 4.029133 4.0833333.968247 1.7888979 1.452363 3.9433208 1.452363 6.4633334v11.48c0 .6844478-.226442 1.2522199-.679331 1.7033333-.45289.4511134-1.022897.6766667-1.710039.6766667-.687143 0-1.25715-.2255533-1.71004-.6766667-.452889-.4511134-.679331-1.0188855-.679331-1.7033333v-11.48c0-2.5200126-.679323-4.4255491-2.037992-5.7166667-1.358668-1.2911176-3.16239-1.9366667-5.41122-1.9366667-1.311818 0-2.506491.2644418-3.584055.7933334-1.077565.5288915-1.920863 1.2444399-2.529922 2.1466666-.609058.9022268-.913582 1.9133278-.913582 3.0333334v13.16c0 .6844478-.218633 1.2522199-.655906 1.7033333-.437272.4511134-1.015088.6766667-1.733464.6766667-.687143 0-1.25715-.2255533-1.71004-.6766667-.452889-.4511134-.67933-1.0188855-.67933-1.7033333v-31.7333334c0-.7155591.226441-1.2911089.67933-1.7266666.45289-.4355578 1.022897-.6533334 1.71004-.6533334.718376 0 1.296192.2177756 1.733464.6533334.437273.4355577.655906 1.0111075.655906 1.7266666v11.4333334c.99948-.9955606 2.186345-1.7655529 3.56063-2.31 1.374285-.5444472 2.842249-.8166667 4.403937-.8166667zm21.644882-10.6866667c.687142 0 1.25715.2177756 1.710039.6533334.452889.4355577.679331 1.0111075.679331 1.7266666v12.6c1.093181-1.3377844 2.420596-2.3799962 3.982283-3.1266666 1.561688-.7466704 3.248285-1.12 5.059843-1.12 2.24883 0 4.286802.5599944 6.113976 1.68 1.827175 1.1200056 3.263906 2.6677679 4.310236 4.6433333 1.046331 1.9755654 1.569488 4.1766545 1.569488 6.6033333s-.562199 4.6277679-1.686614 6.6033334c-1.124415 1.9755654-2.678271 3.5311054-4.661614 4.6666666-1.983343 1.1355613-4.177481 1.7033334-6.58248 1.7033334s-4.583521-.5677721-6.53563-1.7033334c-1.95211-1.1355612-3.498157-2.6911012-4.638189-4.6666666-1.140032-1.9755655-1.710039-4.1766546-1.710039-6.6033334v-21.28c0-.7155591.218633-1.2911089.655905-1.7266666.437273-.4355578 1.015088-.6533334 1.733465-.6533334zm10.494488 32.4333334c1.561687 0 2.974993-.3811073 4.23996-1.1433334 1.264967-.762226 2.264432-1.8122155 2.998426-3.15.733993-1.3377844 1.100984-2.8311028 1.100984-4.48 0-1.6488971-.366991-3.1344378-1.100984-4.4566666-.733994-1.3222289-1.733459-2.3644407-2.998426-3.1266667s-2.678273-1.1433333-4.23996-1.1433333c-1.561688 0-2.974994.3811073-4.239961 1.1433333s-2.256624 1.8044378-2.975 3.1266667c-.718376 1.3222288-1.077559 2.8077695-1.077559 4.4566666 0 1.6488972.359183 3.1422156 1.077559 4.48.718376 1.3377845 1.710033 2.387774 2.975 3.15 1.264967.7622261 2.678273 1.1433334 4.239961 1.1433334zm31.670866-21.7c2.467466 0 4.677221.5522167 6.629331 1.6566666 1.952109 1.10445 3.48254 2.6366569 4.591338 4.5966667s1.663189 4.1999874 1.663189 6.72c0 2.4889013-.546582 4.7133235-1.639764 6.6733333-1.093181 1.9600098-2.615803 3.4922167-4.567913 4.5966667-1.952109 1.10445-4.177481 1.6566667-6.676181 1.6566667s-4.73188-.5522167-6.699606-1.6566667c-1.967727-1.10445-3.498158-2.6366569-4.591339-4.5966667s-1.639764-4.184432-1.639764-6.6733333c0-2.5200126.546583-4.7599902 1.639764-6.72s2.623612-3.4922167 4.591339-4.5966667c1.967726-1.1044499 4.200906-1.6566666 6.699606-1.6566666zm0 4.2c-1.592921 0-3.021844.3733296-4.286811 1.12s-2.256624 1.7888822-2.975 3.1266666c-.718376 1.3377845-1.077559 2.8466583-1.077559 4.5266667s.359183 3.1811045 1.077559 4.5033333c.718376 1.3222289 1.710033 2.356663 2.975 3.1033334s2.69389 1.12 4.286811 1.12 3.021844-.3733296 4.286811-1.12 2.248815-1.7811045 2.951575-3.1033334c.702759-1.3222288 1.054134-2.8233249 1.054134-4.5033333s-.351375-3.1888822-1.054134-4.5266667c-.70276-1.3377844-1.686608-2.3799962-2.951575-3.1266666s-2.69389-1.12-4.286811-1.12zm32.561024-4.2933334c1.655388 0 2.95157.2488864 3.888582.7466667.937013.4977803 1.405512 1.1199963 1.405512 1.8666667 0 .2177788-.015617.3733328-.04685.4666666-.281104.9955606-.90577 1.4933334-1.874016 1.4933334-.156169 0-.390418-.0311108-.702756-.0933334-1.24935-.2177788-2.264432-.3266666-3.045276-.3266666-2.24883 0-4.06036.5133282-5.434645 1.54s-2.061418 2.4111024-2.061418 4.1533333v13.6266667c0 .7466704-.195208 1.3222202-.58563 1.7266666-.390421.4044465-.976045.6066667-1.756889.6066667-.74961 0-1.327426-.1944425-1.733465-.5833333-.406039-.3888909-.609055-.9722184-.609055-1.75v-20.86c0-.7466704.203016-1.3222202.609055-1.7266667s.983855-.6066667 1.733465-.6066667c1.561687 0 2.342519.77777 2.342519 2.3333334v.8866666c.937013-1.0888943 2.092644-1.9444413 3.46693-2.5666666 1.374285-.6222254 2.842249-.9333334 4.403937-.9333334z" fill="#33312e" fill-rule="nonzero"/><g transform="translate(0 2.666667)"><path d="m79.21887 16.1524306c0-5.6403547 4.3994876-10.50000004 10.5851875-10.50000004 6.1857 0 10.4810315 5.03700884 10.4810315 10.50000004v36.7347499c0 5.5937888-4.8103008 10.5152501-10.5331094 10.5152501s-10.5331096-4.7461388-10.5331096-10.5152501c0-5.7691114 0-31.0943953 0-36.7347499z" fill="#ff8552"/><path d="m90.2873449 22.1530209 6.1931873 23.5989455-8.5561298 8.5561298-1.7812996-28.0108333z" fill="#33312e" fill-opacity=".503196" transform="matrix(.70710678 -.70710678 .70710678 .70710678 -.288475 75.764677)"/><path d="m61.1626694 9.52052748c-.0088928-5.64924751 4.3760181-10.50964016 10.5519961-10.49991815 6.1759779.00972201 10.4725003 5.06142341 10.4811135 10.53302774s.0710902 45.16053603.0799096 50.76314433c.0088194 5.6026082-4.7861619 10.5242686-10.499976 10.5152741s-10.5240377-4.7701765-10.5331336-10.5483837c-.0090958-5.7782072-.0710167-45.1138968-.0799096-50.76314432z" fill="#17a398" transform="matrix(.70710678 -.70710678 .70710678 .70710678 -3.690585 60.942803)"/><path d="m24.1196238 8.05799101c.0088928-5.64924751 4.4091277-10.52346943 10.5851056-10.53319144 6.175978-.00972201 10.4566172 5.02847752 10.448004 10.50008185-.0086132 5.47160438-1.312429 46.40187488-1.3212485 52.00448318-.0088194 5.6026082-4.8193195 10.5393892-10.5331336 10.5483837s-10.5090718-4.7370669-10.499976-10.5152741c.0090959-5.7782072 1.3123556-46.3552357 1.3212485-52.00448319z" fill="#1b9653" transform="matrix(.70710678 .70710678 -.70710678 .70710678 34.029095 -14.050958)"/></g></g></g></svg>