<svg height="315" viewBox="0 0 315 315" width="315" xmlns="http://www.w3.org/2000/svg" xmlns:xlink="http://www.w3.org/1999/xlink"><linearGradient id="a" x1="31.508601%" x2="53.506642%" y1="4.049151%" y2="57.732895%"><stop offset="0" stop-color="#ff8552"/><stop offset="1" stop-color="#17a398"/></linearGradient><linearGradient id="b" x1="38.646908%" x2="61.353092%" y1="0%" y2="100%"><stop offset="0" stop-color="#1b9653"/><stop offset="1" stop-color="#33312e"/></linearGradient><linearGradient id="c" x1="68.251056%" x2="30.260788%" y1="100%" y2="0%"><stop offset="0" stop-color="#662c91"/><stop offset="1" stop-color="#cc6a42"/></linearGradient><g fill="none" fill-rule="evenodd"><rect fill="#1b9653" height="71" rx="5.674419" width="71" x="161" y="161"/><rect fill="#17a398" height="71" rx="5.674419" width="71" x="161" y="83"/><rect fill="#ff8552" height="71" rx="5.674419" width="71" x="161" y="5"/><rect fill="#662c91" height="71" rx="5.674419" width="71" x="5" y="83"/><rect fill="#33312e" height="71" rx="5.674419" width="71" x="161" y="239"/><g fill="#fff" font-family="Comfortaa-Bold, Comfortaa" font-size="9.930233" font-weight="bold" letter-spacing=".179620035"><text><tspan x="168" y="208">SEA</tspan> <tspan x="168" y="221">GREEN</tspan></text><text><tspan x="168" y="129">PERSIAN</tspan> <tspan x="168" y="142">GREEN</tspan></text><text><tspan x="168" y="66">CORAL</tspan></text><text><tspan x="12" y="129">REBECCA </tspan><tspan x="12" y="142">PURPLE</tspan></text><text><tspan x="168" y="300">JET</tspan></text></g><rect fill="url(#a)" height="113" rx="5.674419" width="71" x="239" y="40"/><rect fill="url(#b)" height="149" rx="5.674419" width="71" x="239" y="161"/><rect fill="url(#c)" height="113" rx="5.674419" transform="matrix(-1 0 0 1 237 0)" width="71" x="83" y="40"/></g></svg>