<svg height="78" viewBox="0 0 540 78" width="540" xmlns="http://www.w3.org/2000/svg"><path d="m47.6108736 2c1.1193061 0 2.0387224.36140677 2.7582764 1.08423115.7195539.72282437 1.0793255 1.64641945 1.0793255 2.77081292 0 1.12439348-.3597716 2.04798855-1.0793255 2.77081293-.719554.72282438-1.6389703 1.08423115-2.7582764 1.08423115h-17.1892587v50.83839375c0 1.177936-.3997462 2.1684583-1.1992506 2.9715965s-1.7855451 1.2047012-2.9581515 1.2047012c-1.1726065 0-2.1586471-.401563-2.9581515-1.2047012s-1.1992506-1.7936605-1.1992506-2.9715965v-50.83839375h-17.26920876c-1.11930616 0-2.03872243-.36140677-2.75827639-1.08423115-.71955397-.72282438-1.07932555-1.64641945-1.07932555-2.77081293 0-1.12439347.35977158-2.04798855 1.07932555-2.77081292.71955396-.72282438 1.63897023-1.08423115 2.75827639-1.08423115zm38.122352 19.194907c1.6523091.6425105 2.4784512 1.6865745 2.4784512 3.1322233 0 .5354254-.1598984 1.1779264-.4797002 1.927522l-24.4647124 55.2556317c-.6396035 1.659819-1.6789436 2.489716-3.1180516 2.489716-.5330029 0-1.1725968-.1606252-1.9188009-.4818805-1.5990088-.6960531-2.3985012-1.7401171-2.3985012-3.1322233 0-.6425106.1598984-1.2850115.4797002-1.9275221l7.9950041-18.0705191-17.9887592-34.2938295c-.2665014-.481883-.3997502-1.0440713-.3997502-1.6865818 0-.6960531.213198-1.338554.6396004-1.9275221.4264023-.588968.986047-1.0440728 1.6789508-1.3653281.4797027-.2141702 1.0126976-.3212536 1.5990008-.3212536 1.4924082 0 2.6116976.7495844 3.3579017 2.2487757l14.6308574 29.2340842 12.8719565-29.1537708c.6929039-1.5527339 1.732244-2.3290891 3.1180516-2.3290891.6929038 0 1.3324978.1338543 1.918801.4015671zm32.9255994-.7228208c4.104123 0 7.848412.9771368 11.232981 2.9314398 3.384568 1.9543029 6.036218 4.6313901 7.955029 8.0313418 1.91881 3.3999517 2.878201 7.18803 2.878201 11.3643487 0 4.1763186-.892766 7.9643969-2.678326 11.3643486s-4.237337 6.0636535-7.355404 7.9911851c-3.118067 1.9275317-6.595859 2.8912831-10.43348 2.8912831-3.091417 0-5.96959-.6425009-8.634605-1.927522-2.665014-1.2850212-4.930243-3.0786696-6.795753-5.3809991v21.684623c0 1.2314785-.373096 2.2220008-1.119301 2.9715964-.746204.7495957-1.732244 1.1243879-2.958151 1.1243879-1.1726065 0-2.1453223-.3747922-2.9181766-1.1243879-.7728542-.7495956-1.1592756-1.7401179-1.1592756-2.9715964v-36.6229187c0-4.1763187.9727158-7.964397 2.9181765-11.3643487s4.5837857-6.0770389 7.9150537-8.0313418c3.331269-1.954303 7.048908-2.9314398 11.153031-2.9314398zm0 37.3457395c2.665015 0 5.076817-.6558864 7.235479-1.9676788s3.864245-3.1054408 5.116802-5.380999 1.878826-4.8321765 1.878826-7.6699314c0-2.837755-.626269-5.4077587-1.878826-7.7100882s-2.95814-4.1093633-5.116802-5.4211557-4.570464-1.9676788-7.235479-1.9676788-5.076817.6558864-7.235479 1.9676788-3.850921 3.1188262-5.076827 5.4211557c-1.225907 2.3023295-1.838851 4.8723332-1.838851 7.7100882 0 2.8377549.612944 5.3943732 1.838851 7.6699314 1.225906 2.2755582 2.918165 4.0692066 5.076827 5.380999s4.570464 1.9676788 7.235479 1.9676788zm55.311611-37.3457395c4.210723 0 7.981662.9503659 11.31293 2.8511263 3.331269 1.9007604 5.942944 4.5376913 7.835104 7.9108717 1.892161 3.3731805 2.838227 7.228186 2.838227 11.5651323 0 4.2834037-.932741 8.1116383-2.798252 11.4848188-1.86551 3.3731804-4.46386 6.0101113-7.795129 7.9108717-3.331268 1.9007604-7.128857 2.8511263-11.39288 2.8511263-4.264024 0-8.074938-.9503659-11.432856-2.8511263-3.357919-1.9007604-5.969594-4.5376913-7.835104-7.9108717-1.86551-3.3731805-2.798251-7.2014151-2.798251-11.4848188 0-4.3369463.932741-8.1919518 2.798251-11.5651323 1.86551-3.3731804 4.477185-6.0101113 7.835104-7.9108717 3.357918-1.9007604 7.168832-2.8511263 11.432856-2.8511263zm0 7.2282076c-2.718315 0-5.156767.642501-7.315429 1.9275221s-3.850921 3.0786695-5.076828 5.380999c-1.225906 2.3023295-1.838851 4.899104-1.838851 7.7904016 0 2.8912975.612945 5.4746866 1.838851 7.7502448 1.225907 2.2755582 2.918166 4.0558212 5.076828 5.3408423s4.597114 1.9275221 7.315429 1.9275221 5.156766-.642501 7.315428-1.9275221 3.837596-3.0652841 5.036853-5.3408423 1.798876-4.8589473 1.798876-7.7502448c0-2.8912976-.599619-5.4880721-1.798876-7.7904016s-2.878191-4.0959779-5.036853-5.380999-4.597113-1.9275221-7.315428-1.9275221zm55.23166-7.2282076c4.210724 0 7.981663.9503659 11.312931 2.8511263s5.942944 4.5376913 7.835104 7.9108717c1.89216 3.3731805 2.838226 7.228186 2.838226 11.5651323v17.3476983c0 4.2298612-.932741 8.0848667-2.798251 11.5651322s-4.49051 6.2242799-7.875079 8.2321254-7.208807 3.0117532-11.472831 3.0117532c-3.837621 0-7.408687-.7629699-10.713305-2.2889325-3.304618-1.5259625-6.076192-3.7077886-8.314804-6.5455435-.586304-.7495957-.879451-1.4991801-.879451-2.2487758 0-1.1243934.559645-2.0881448 1.678951-2.891283.746204-.4818829 1.492397-.7228208 2.238601-.7228208 1.332508 0 2.425147.5621883 3.277952 1.6865818 1.439108 1.8739891 3.251291 3.3062308 5.436603 4.2967679s4.663738 1.4857982 7.435353 1.4857982c2.611715 0 4.983542-.6291155 7.115554-1.8873653s3.837595-3.10544 5.116803-5.5416259c1.279207-2.4361858 1.918801-5.3408254 1.918801-8.7140058v-3.9353575c-1.65231 2.94484-3.837589 5.247135-6.555904 6.9069539-2.718315 1.659819-5.783036 2.489716-9.194254 2.489716-3.944222 0-7.475314-.9503659-10.593381-2.8511263s-5.543194-4.5376913-7.275454-7.9108717c-1.732259-3.3731805-2.598376-7.2014151-2.598376-11.4848188 0-4.3369463.932741-8.1919518 2.798252-11.5651323 1.86551-3.3731804 4.477185-6.0101113 7.835104-7.9108717 3.357918-1.9007604 7.168832-2.8511263 11.432855-2.8511263zm0 37.3457395c2.718315 0 5.156767-.642501 7.315429-1.9275221s3.837596-3.0652841 5.036853-5.3408423c1.199256-2.2755582 1.798876-4.8589473 1.798876-7.7502448 0-2.8912976-.59962-5.4880721-1.798876-7.7904016-1.199257-2.3023295-2.878191-4.0959779-5.036853-5.380999s-4.597114-1.9275221-7.315429-1.9275221-5.156766.642501-7.315428 1.9275221-3.850921 3.0786695-5.076828 5.380999-1.838851 4.899104-1.838851 7.7904016c0 2.8912975.612944 5.4746866 1.838851 7.7502448s2.918166 4.0558212 5.076828 5.3408423 4.597113 1.9275221 7.315428 1.9275221zm56.830662-37.5063663c2.824915 0 5.036844.4283339 6.635853 1.2850146 1.599009.8566808 2.398501 1.9275157 2.398501 3.2125368 0 .3747978-.026649.6425065-.07995.8031342-.479702 1.7133614-1.545692 2.5700293-3.198001 2.5700293-.266502 0-.666248-.0535417-1.199251-.1606268-2.132012-.3747978-3.864245-.5621939-5.196753-.5621939-3.837621 0-6.928991.8834387-9.274204 2.6503428-2.345213 1.766904-3.517802 4.1495116-3.517802 7.1478942v23.4515181c0 1.2850211-.333122 2.2755434-.999375 2.9715965-.666254.6960531-1.66562 1.0440744-2.998127 1.0440744-1.279207 0-2.265248-.3346359-2.958151-1.0039177-.692904-.6692818-1.039351-1.6731895-1.039351-3.0117532v-35.9000979c0-1.2850211.346447-2.2755434 1.039351-2.9715965.692903-.6960531 1.678944-1.0440744 2.958151-1.0440744 2.665015 0 3.997502 1.3385435 3.997502 4.0156709v1.5259549c1.599009-1.8739891 3.57109-3.3463871 5.916303-4.417238s4.850289-1.6062683 7.515304-1.6062683zm35.3241.1606268c4.104123 0 7.821763.9771368 11.153031 2.9314398 3.331268 1.9543029 5.969593 4.6313901 7.915054 8.0313418s2.918177 7.18803 2.918177 11.3643487v17.9098922c0 1.177936-.386422 2.1550729-1.159276 2.9314398s-1.74557 1.1645445-2.918177 1.1645445c-1.172606 0-2.145322-.3881776-2.918176-1.1645445s-1.159276-1.7535038-1.159276-2.9314398v-2.9715965c-1.86551 2.3023295-4.130738 4.0959779-6.795753 5.3809991-2.665015 1.2850211-5.543187 1.927522-8.634604 1.927522-3.837622 0-7.315414-.9637514-10.433481-2.8912831-3.118067-1.9275316-5.569844-4.5912334-7.355403-7.9911851-1.78556-3.3999517-2.678327-7.18803-2.678327-11.3643486 0-4.1763187.959391-7.964397 2.878202-11.3643487 1.91881-3.3999517 4.57046-6.0770389 7.955029-8.0313418 3.384568-1.954303 7.128858-2.9314398 11.23298-2.9314398zm0 37.3457395c2.665015 0 5.076817-.6558864 7.235479-1.9676788s3.850921-3.1054408 5.076828-5.380999c1.225906-2.2755582 1.838851-4.8321765 1.838851-7.6699314 0-2.837755-.612945-5.4077587-1.838851-7.7100882-1.225907-2.3023295-2.918166-4.1093633-5.076828-5.4211557s-4.570464-1.9676788-7.235479-1.9676788c-2.665014 0-5.076816.6558864-7.235478 1.9676788s-3.864246 3.1188262-5.116803 5.4211557-1.878826 4.8723332-1.878826 7.7100882c0 2.8377549.626269 5.3943732 1.878826 7.6699314s2.958141 4.0692066 5.116803 5.380999 4.570464 1.9676788 7.235478 1.9676788zm57.390312-37.3457395c4.104123 0 7.848412.9771368 11.232981 2.9314398 3.384568 1.9543029 6.036218 4.6313901 7.955029 8.0313418 1.91881 3.3999517 2.878201 7.18803 2.878201 11.3643487 0 4.1763186-.892766 7.9643969-2.678326 11.3643486s-4.237337 6.0636535-7.355404 7.9911851c-3.118067 1.9275317-6.595859 2.8912831-10.43348 2.8912831-3.091417 0-5.96959-.6425009-8.634604-1.927522-2.665015-1.2850212-4.930244-3.0786696-6.795754-5.3809991v21.684623c0 1.2314785-.373096 2.2220008-1.1193 2.9715964-.746205.7495957-1.732245 1.1243879-2.958152 1.1243879-1.172606 0-2.145322-.3747922-2.918176-1.1243879-.772855-.7495956-1.159276-1.7401179-1.159276-2.9715964v-36.6229187c0-4.1763187.972716-7.964397 2.918177-11.3643487 1.94546-3.3999517 4.583785-6.0770389 7.915054-8.0313418 3.331268-1.954303 7.048908-2.9314398 11.15303-2.9314398zm0 37.3457395c2.665015 0 5.076817-.6558864 7.235479-1.9676788s3.864246-3.1054408 5.116802-5.380999c1.252557-2.2755582 1.878826-4.8321765 1.878826-7.6699314 0-2.837755-.626269-5.4077587-1.878826-7.7100882-1.252556-2.3023295-2.95814-4.1093633-5.116802-5.4211557s-4.570464-1.9676788-7.235479-1.9676788-5.076817.6558864-7.235478 1.9676788c-2.158662 1.3117924-3.850921 3.1188262-5.076828 5.4211557s-1.838851 4.8723332-1.838851 7.7100882c0 2.8377549.612944 5.3943732 1.838851 7.6699314s2.918166 4.0692066 5.076828 5.380999c2.158661 1.3117924 4.570463 1.9676788 7.235478 1.9676788zm57.230412-37.4260529c3.67772 0 6.982289.8031261 9.913805 2.4094025s5.223394 3.9487277 6.875703 7.0274241 2.478452 6.7864622 2.478452 11.1234084v19.7571009c0 1.177936-.386422 2.1550729-1.159276 2.9314398s-1.74557 1.1645445-2.918176 1.1645445c-1.172607 0-2.145323-.3881776-2.918177-1.1645445s-1.159276-1.7535038-1.159276-2.9314398v-19.7571009c0-4.3369462-1.159264-7.616378-3.477826-9.8383937-2.318563-2.2220157-5.396609-3.3330069-9.23423-3.3330069-2.238612 0-4.277318.4551049-6.116178 1.3653282-1.83886.9102232-3.277947 2.1416833-4.317302 3.6944172-1.039356 1.5527338-1.559026 3.2928405-1.559026 5.2203722v22.6483839c0 1.177936-.373096 2.1550729-1.119301 2.9314398-.746204.7763669-1.732244 1.1645445-2.958151 1.1645445-1.172607 0-2.145322-.3881776-2.918177-1.1645445-.772854-.7763669-1.159275-1.7535038-1.159275-2.9314398v-54.61312437c0-1.23147857.386421-2.22200082 1.159275-2.97159647.772855-.74959566 1.74557-1.12438786 2.918177-1.12438786 1.225907 0 2.211947.3747922 2.958151 1.12438786.746205.74959565 1.119301 1.7401179 1.119301 2.97159647v19.67678747c1.705609-1.7133615 3.73099-3.0385196 6.076203-3.9755142s4.850289-1.4054848 7.515304-1.4054848zm67.543967.8031342c1.652309.6425105 2.478451 1.6865745 2.478451 3.1322233 0 .5354254-.159898 1.1779264-.4797 1.927522l-24.464713 55.2556317c-.639603 1.659819-1.678943 2.489716-3.118051 2.489716-.533003 0-1.172597-.1606252-1.918801-.4818805-1.599009-.6960531-2.398501-1.7401171-2.398501-3.1322233 0-.6425106.159898-1.2850115.4797-1.9275221l7.995004-18.0705191-17.988759-34.2938295c-.266502-.481883-.39975-1.0440713-.39975-1.6865818 0-.6960531.213198-1.338554.6396-1.9275221.426402-.588968.986047-1.0440728 1.678951-1.3653281.479702-.2141702 1.012697-.3212536 1.599001-.3212536 1.492408 0 2.611697.7495844 3.357901 2.2487757l14.630858 29.2340842 12.871956-29.1537708c.692904-1.5527339 1.732244-2.3290891 3.118052-2.3290891.692904 0 1.332498.1338543 1.918801.4015671z" fill="#eee"/></svg>