<svg height="133" viewBox="0 0 1440 133" width="1440" xmlns="http://www.w3.org/2000/svg"><g fill="#fff" fill-rule="evenodd"><path d="m653.763085-653.763085h49.52617c11.474959 168.674552 21.474959 288.832495 30 360.47383 12.787561 107.462003 52 260.4624267 52 360.0000002 0 99.5375738-42.306747 264.2731768-52 359.9999998-6.462169 63.817882-16.462169 183.659939-30 359.52617h-49.52617z" opacity=".353627" transform="matrix(0 1 1 0 653.289255 -653.289255)"/><path d="m675.346982-677.346982h36c10.824523 166.981433 19.157856 287.314766 25 361 8.763215 110.527851 28.306036 273.363649 28.306036 360.0000003 0 80.9984177-18.621045 232.5750217-28.306036 359.9999997-5.911381 77.775753-14.244714 198.109086-25 361h-36z" transform="matrix(0 1 1 0 676.346982 -676.346982)"/></g></svg>