<svg height="835" viewBox="0 0 1440 835" width="1440" xmlns="http://www.w3.org/2000/svg" xmlns:xlink="http://www.w3.org/1999/xlink"><defs><path id="a" d="m1265.9457 1266.16272c-418.57686 0-757.900451-221.91046-757.900451-495.650886s339.323591-495.650887 757.900451-495.650887 757.90045 221.910461 757.90045 495.650887-339.32359 495.650886-757.90045 495.650886zm-9.02262-63.08284c378.7124 0 685.71945-191.64994 685.71945-428.062129 0-236.412186-307.00705-428.06213-685.71945-428.06213-378.712402 0-685.71946 191.649944-685.71946 428.06213 0 236.412189 307.007058 428.062129 685.71946 428.062129z"/><mask id="b" height="999.301775" width="1523.8009" x="-4" y="-4"><path d="m504.045249 270.860947h1523.8009v999.301775h-1523.8009z" fill="#fff"/><use xlink:href="#a"/></mask><linearGradient id="c" x1="50%" x2="50%" y1="23.515283%" y2="100%"><stop offset="0" stop-color="#fff"/><stop offset="1" stop-color="#fff" stop-opacity="0"/></linearGradient><mask id="d" fill="#fff"><path d="m0 0h1440v760h-1440z" fill="none"/></mask></defs><g fill="none" fill-rule="evenodd" transform=""><g mask="url(#d)" opacity=".49615" transform="translate(0 75)"><g transform="translate(-221 -3)"><g fill="none" fill-rule="evenodd" stroke="#efefef" stroke-width="4"><path d="m2 272.35503h1990v1h-1990z"/><path d="m2 218.284024h1990v1h-1990z"/><path d="m2 164.213018h1990v1h-1990z"/><path d="m2 110.142012h1990v1h-1990z"/><path d="m2 56.071006h1990v1h-1990z"/><path d="m2 326.426036h1990v1h-1990z"/><path d="m2 380.497041h1990v1h-1990z"/><path d="m2 434.568047h1990v1h-1990z"/><path d="m2 488.639053h1990v1h-1990z"/><path d="m2 542.710059h1990v1h-1990z"/><path d="m2 596.781065h1990v1h-1990z"/><path d="m2 650.852071h1990v1h-1990z"/><path d="m2 704.923077h1990v1h-1990z"/><path d="m2 758.994083h1990v1h-1990z"/><path d="m546.135747 2h1v1519h-1z"/><path d="m600.271493 2h1v1519h-1z"/><path d="m654.40724 2h1v1519h-1z"/><path d="m708.542986 2h1v1519h-1z"/><path d="m762.678733 2h1v1519h-1z"/><path d="m816.81448 2h1v1519h-1z"/><path d="m270.271493 2h1v1519h-1z"/><path d="m324.40724 2h1v1519h-1z"/><path d="m378.542986 2h1v1519h-1z"/><path d="m432.678733 2h1v1519h-1z"/><path d="m486.81448 2h1v1519h-1z"/><path d="m870.950226 2h1v1519h-1z"/><path d="m925.085973 2h1v1519h-1z"/><path d="m979.221719 2h1v1519h-1z"/><path d="m1033.35747 2h1v1519h-1z"/><path d="m1087.49321 2h1v1519h-1z"/><path d="m1141.62896 2h1v1519h-1z"/><path d="m1195.76471 2h1v1519h-1z"/><path d="m1249.90045 2h1v1519h-1z"/><path d="m1304.0362 2h1v1519h-1z"/><path d="m1358.17195 2h1v1519h-1z"/><path d="m1412.30769 2h1v1519h-1z"/><path d="m1412.30769 2h1v1519h-1z"/><path d="m1466.44344 2h1v1519h-1z"/><path d="m1520.57919 2h1v1519h-1z"/><path d="m1574.71493 2h1v1519h-1z"/><path d="m1628.85068 2h1v1519h-1z"/></g><path d="m1392.64119 13.5177515c25.70968 0 51.16237 1.1874757 76.31356 3.5143793-291.26118 27.3710607-520.891529 176.2741242-631.839354 417.5394412-107.738498 47.06277-200.937774 101.728977-281.123207 170.916016 67.417453-335.851693 430.885284-591.9698365 836.649001-591.9698365z" fill="#cacaca" fill-rule="evenodd"/><path d="m1428.35294 1365.2929c483.35662 0 875.19457-302.60517 875.19457-675.887575 0-373.282399-391.83795-675.8875735-875.19457-675.8875735-483.356613 0-875.194569 302.6051745-875.194569 675.8875735 0 373.282405 391.837956 675.887575 875.194569 675.887575z" fill="none" stroke="#cbcbcb" stroke-dasharray="10 10" stroke-width="4"/><path d="m1581.13344 1365.2929c483.69026 0 875.79869-302.60517 875.79869-675.887575 0-373.282399-392.10843-675.8875735-875.79869-675.8875735-483.69025 0-792.409458 302.6051745-792.409458 675.8875735 0 373.282405 308.719208 675.887575 792.409458 675.887575z" fill="none" stroke="#cbcbcb" stroke-dasharray="10 10" stroke-width="4"/><path d="m568.703241 819.719333c-.007286-.972621-.010933-6.132709-.010933-7.106624 0-278.973899 297.432214-446.650882 666.468712-463.258777 19.45278-.875441 38.78569.630303 57.85255 1.865404-201.62548 13.266551-362.160629 92.74022-442.107801 170.780664s-114.935734 180.737923-114.935734 285.073657c0 .973916-.005925 11.673055 0 12.645676-11.444746 36.285731-40.189526 54.428596-86.234342 54.428596s-73.055634-18.142865-81.032452-54.428596z" fill="#cacaca" fill-rule="evenodd"/><g fill="none"><use mask="url(#b)" stroke="#cbcbcb" stroke-dasharray="10" stroke-width="8" xlink:href="#a"/><path d="m1244 1190c385.49476 0 698-196.770852 698-439.5s-312.50524-439.5-698-439.5c-385.494755 0-690.091612 209.249703-706 450.238484-15.908388 240.988786 320.505245 428.761516 706 428.761516z" stroke="#fff" stroke-width="64"/><path d="m1376.7958 1203.07988c382.27133 0 692.16348-191.64994 692.16348-428.062129 0-236.412186-309.89215-428.06213-692.16348-428.06213s-634.162316 191.649944-634.162316 428.06213c0 236.412189 251.890986 428.062129 634.162316 428.062129z" stroke="#cbcbcb" stroke-dasharray="10 10" stroke-width="4"/></g></g></g><path d="m0 0h1440v562h-1440z" fill="url(#c)"/></g></svg>