<?xml version="1.0" encoding="UTF-8"?>
<svg width="480px" height="260px" viewBox="0 0 480 260" version="1.1" xmlns="http://www.w3.org/2000/svg" xmlns:xlink="http://www.w3.org/1999/xlink">
    <!-- Generator: Sketch 50.2 (55047) - http://www.bohemiancoding.com/sketch -->
    <title>logo-outline-text</title>
    <desc>Created with Sketch.</desc>
    <defs>
        <rect id="path-1" x="0" y="0" width="480" height="260"></rect>
    </defs>
    <g id="Brand-Page" stroke="none" stroke-width="1" fill="none" fill-rule="evenodd">
        <g id="logo-blueprint">
            <g id="logo-outline-text">
                <mask id="mask-2" fill="white">
                    <use xlink:href="#path-1"></use>
                </mask>
                <use id="Mask" fill="#FFFFFF" xlink:href="#path-1"></use>
                <g id="Grid-v1" mask="url(#mask-2)" stroke="#EFEFEF" stroke-width="2">
                    <g transform="translate(-55.666667, -3.028743)" id="Rectangle-21">
                        <rect x="1" y="91.010417" width="662.666667" height="1"></rect>
                        <rect x="1" y="73.0083336" width="662.666667" height="1"></rect>
                        <rect x="1" y="55.0062502" width="662.666667" height="1"></rect>
                        <rect x="1" y="37.0041668" width="662.666667" height="1"></rect>
                        <rect x="1" y="19.0020834" width="662.666667" height="1"></rect>
                        <rect x="1" y="109.0125" width="662.666667" height="1"></rect>
                        <rect x="1" y="127.014584" width="662.666667" height="1"></rect>
                        <rect x="1" y="145.016667" width="662.666667" height="1"></rect>
                        <rect x="1" y="163.018751" width="662.666667" height="1"></rect>
                        <rect x="1" y="181.020834" width="662.666667" height="1"></rect>
                        <rect x="1" y="199.022917" width="662.666667" height="1"></rect>
                        <rect x="1" y="217.025001" width="662.666667" height="1"></rect>
                        <rect x="1" y="235.027084" width="662.666667" height="1"></rect>
                        <rect x="1" y="253.029168" width="662.666667" height="1"></rect>
                        <rect x="182.378582" y="1" width="1" height="505.058683"></rect>
                        <rect x="200.423831" y="1" width="1" height="505.058683"></rect>
                        <rect x="218.46908" y="1" width="1" height="505.058683"></rect>
                        <rect x="236.514329" y="1" width="1" height="505.058683"></rect>
                        <rect x="254.559578" y="1" width="1" height="505.058683"></rect>
                        <rect x="272.604827" y="1" width="1" height="505.058683"></rect>
                        <rect x="72.3785822" y="1" width="1" height="505.058683"></rect>
                        <rect x="90.4238311" y="1" width="1" height="505.058683"></rect>
                        <rect x="108.46908" y="1" width="1" height="505.058683"></rect>
                        <rect x="126.514329" y="1" width="1" height="505.058683"></rect>
                        <rect x="144.559578" y="1" width="1" height="505.058683"></rect>
                        <rect x="162.604827" y="1" width="1" height="505.058683"></rect>
                        <rect x="290.650075" y="1" width="1" height="505.058683"></rect>
                        <rect x="308.695324" y="1" width="1" height="505.058683"></rect>
                        <rect x="326.740573" y="1" width="1" height="505.058683"></rect>
                        <rect x="344.785822" y="1" width="1" height="505.058683"></rect>
                        <rect x="362.831071" y="1" width="1" height="505.058683"></rect>
                        <rect x="380.87632" y="1" width="1" height="505.058683"></rect>
                        <rect x="398.921569" y="1" width="1" height="505.058683"></rect>
                        <rect x="416.966817" y="1" width="1" height="505.058683"></rect>
                        <rect x="435.012066" y="1" width="1" height="505.058683"></rect>
                        <rect x="453.057315" y="1" width="1" height="505.058683"></rect>
                        <rect x="471.102564" y="1" width="1" height="505.058683"></rect>
                        <rect x="471.102564" y="1" width="1" height="505.058683"></rect>
                        <rect x="489.147813" y="1" width="1" height="505.058683"></rect>
                        <rect x="507.193062" y="1" width="1" height="505.058683"></rect>
                        <rect x="525.238311" y="1" width="1" height="505.058683"></rect>
                    </g>
                </g>
                <g id="Resinate-Text-R4" mask="url(#mask-2)" fill="#FFFFFF" stroke="#E5E5E5" stroke-width="3">
                    <g transform="translate(-155.000000, -2.000000)" id="resinate">
                        <path d="M80.0537303,63.9626168 C90.6081306,63.9626168 98.8723012,65.5623034 104.84649,68.7617245 C110.820679,71.9611456 113.807729,75.960362 113.807729,80.7594937 C113.807729,82.1592404 113.70816,83.1590445 113.509021,83.758936 C111.716764,90.1577782 107.734031,93.3571513 101.560703,93.3571513 C100.565005,93.3571513 99.0714797,93.1571905 97.0800834,92.7572628 C89.1144983,91.3575161 82.6425574,90.6576532 77.6640667,90.6576532 C63.3260135,90.6576532 51.7760883,93.9570068 43.0139447,100.555813 C34.251801,107.154619 29.8707949,116.052875 29.8707949,127.250849 L29.8707949,229.831776 C23.2328571,229.831776 18.2543913,229.831776 14.9353974,229.831776 C11.7491634,229.831776 6.77069758,229.831776 0,229.831776 L0,80.7594937 C0,75.960362 1.29438817,72.2610868 3.88320334,69.6615572 C6.47201851,67.0620275 10.1560464,65.7622822 14.9353974,65.7622822 C24.8923789,65.7622822 29.8707949,70.7613027 29.8707949,80.7594937 L29.8707949,86.458434 C35.8449837,79.4597003 43.2130395,73.9607778 51.9751831,69.9615014 C60.7373268,65.962225 70.0967489,63.9626168 80.0537303,63.9626168 Z M267.027127,146.525082 C267.027127,150.310703 265.720702,153.448737 263.107814,155.939278 C260.494925,158.429818 257.178616,159.675069 253.158787,159.675069 L138.594244,159.675069 C140.80515,173.622095 147.186532,184.879169 157.738582,193.446628 C168.290632,202.014087 181.204138,206.297752 196.479487,206.297752 C198.232537,206.297752 222.34038,206.291956 268.803016,206.280365 L268.803016,232 C222.510227,232 198.402384,232 196.479487,232 C179.998189,232 165.225541,228.463486 152.161098,221.390351 C139.096655,214.317216 128.896492,204.504635 121.560305,191.952311 C114.224118,179.399988 110.556079,165.154311 110.556079,149.214852 C110.556079,133.275394 114.023129,118.979907 120.957334,106.327962 C127.891538,93.6760166 137.538982,83.8136247 149.899955,76.74049 C162.260928,69.6673554 176.279871,66.1308411 191.957202,66.1308411 C207.433543,66.1308411 220.799272,69.5179252 232.054792,76.292195 C243.310313,83.0664648 251.952815,92.5303762 257.982558,104.684213 C264.012301,116.83805 267.027127,130.784867 267.027127,146.525082 Z M193.035354,91.0654206 C206.068056,91.0654206 216.632285,95.0969991 224.728357,103.160277 C232.824429,111.223555 237.760985,122.008028 239.538172,135.514019 L140.904807,135.514019 C143.274389,122.008028 148.951428,111.223555 157.936093,103.160277 C166.920759,95.0969991 178.620396,91.0654206 193.035354,91.0654206 Z M350.051537,66.1308411 C362.965635,66.1308411 374.53848,68.2228636 384.770418,72.4069715 C395.002357,76.5910793 403.098381,82.3690462 409.058734,89.7410457 C411.641554,92.9289374 412.932944,96.1167812 412.932944,99.3046729 C412.932944,102.691808 411.244203,105.780032 407.86667,108.569437 C405.681207,110.163383 402.899751,110.960344 399.522217,110.960344 C394.356578,110.960344 389.687706,109.067561 385.515459,105.28194 C380.548498,100.699346 375.283599,97.4616917 369.720603,95.568881 C364.157607,93.6760704 357.402642,92.7296792 349.455505,92.7296792 C340.316298,92.7296792 332.8163,94.2737911 326.955286,97.3620611 C321.094273,100.450331 318.16381,104.783806 318.16381,110.362617 C318.16381,114.347481 319.157187,117.684755 321.143971,120.374539 C323.130756,123.064323 326.905589,125.554826 332.468585,127.846123 C338.031581,130.13742 346.077936,132.378873 356.607893,134.570548 C378.263841,138.953899 393.611519,145.030726 402.651387,152.801212 C411.691255,160.571698 416.211122,170.633331 416.211122,182.986411 C416.211122,192.151599 413.727679,200.469879 408.760718,207.9415 C403.793757,215.413121 396.492435,221.290709 386.856531,225.574438 C377.220628,229.858167 365.647783,232 352.137651,232 C348.400559,232 320.622348,232 268.803016,232 L268.803016,206.280365 C321.393293,205.494987 348.77415,205.102299 350.945586,205.102299 C362.270256,205.102299 371.061644,203.209516 377.320015,199.423895 C383.578385,195.638274 386.707523,190.557647 386.707523,184.181864 C386.707523,178.005324 383.628054,172.874888 377.469023,168.790402 C371.309992,164.705915 360.879531,161.269021 346.177328,158.479616 C308.03107,151.107617 288.958228,135.367638 288.958228,111.259207 C288.958228,101.496289 291.839022,93.2278187 297.600696,86.4535489 C303.36237,79.6792791 310.912037,74.598653 320.249923,71.2115181 C329.587809,67.8243832 339.521581,66.1308411 350.051537,66.1308411 Z M444.392083,81.5957901 C444.392083,76.9461744 445.830162,73.2063221 448.706363,70.3761212 C451.582564,67.5459203 455.202556,66.1308411 459.566447,66.1308411 C464.128697,66.1308411 467.798277,67.5459203 470.575299,70.3761212 C473.352321,73.2063221 474.740811,76.9461744 474.740811,81.5957901 L474.740811,232 C467.666068,232 462.607947,232 459.566447,232 C456.657186,232 451.599065,232 444.392083,232 L444.392083,81.5957901 Z M459.024505,0 C464.19761,0 468.652161,1.86843218 472.388291,5.60535259 C476.124422,9.342273 477.99246,13.7977651 477.99246,18.9719626 C477.99246,24.1461601 476.124422,28.6016522 472.388291,32.3385726 C468.652161,36.0754931 464.19761,37.9439252 459.024505,37.9439252 C453.851401,37.9439252 449.39685,36.0754931 445.660719,32.3385726 C441.924588,28.6016522 440.05655,24.1461601 440.05655,18.9719626 C440.05655,13.7977651 441.924588,9.342273 445.660719,5.60535259 C449.39685,1.86843218 453.851401,0 459.024505,0 Z M597.468918,66.1308411 C611.075628,66.1308411 623.301764,69.1302534 634.147693,75.129168 C644.993621,81.1280826 653.473038,89.8763685 659.586197,101.374288 C665.699357,112.872208 668.755891,126.719494 668.755891,142.916564 L668.755891,232 C661.591055,232 656.562513,232 653.670266,232 C650.778018,232 645.749477,232 638.584641,232 L638.584641,142.916564 C638.584641,126.719494 634.295634,114.471894 625.71749,106.173396 C617.139347,97.8748972 605.751293,93.7257102 591.552987,93.7257102 C583.270642,93.7257102 575.727905,95.4253772 568.92455,98.8247621 C562.121195,102.224147 556.79691,106.823246 552.951535,112.622197 C549.106161,118.421147 547.183502,124.919874 547.183502,132.118572 L547.183502,232 C540.150132,232 535.121591,232 532.097877,232 C529.20563,232 524.177088,232 517.012253,232 L517.012253,82.927718 C517.012253,78.3285501 518.441922,74.629275 521.301303,71.8297815 C524.160684,69.030288 527.759506,67.6305623 532.097877,67.6305623 C536.633447,67.6305623 540.281569,69.030288 543.04235,71.8297815 C545.803132,74.629275 547.183502,78.3285501 547.183502,82.927718 L547.183502,86.2271045 C553.493861,79.8282623 560.987299,74.879232 569.664041,71.3798651 C578.340784,67.8804983 587.608984,66.1308411 597.468918,66.1308411 Z M781.086312,66.1308411 C796.334191,66.1308411 810.146186,69.7669755 822.522712,77.0393534 C834.899237,84.3117312 844.701298,94.2737433 851.929189,106.925688 C859.15708,119.577633 862.770971,133.67388 862.770971,149.214852 L862.770971,231.10341 C855.576135,231.10341 850.526537,231.10341 847.62218,231.10341 C844.717822,231.10341 839.668225,231.10341 832.473388,231.10341 L832.473388,204.803435 C825.542534,213.370894 817.126623,220.045442 807.225403,224.82728 C797.324183,229.609117 786.631025,232 775.14561,232 C760.887852,232 747.966954,228.413676 736.382526,221.240919 C724.798098,214.068163 715.689112,204.155961 709.055295,191.504016 C702.421477,178.852071 699.104618,164.755824 699.104618,149.214852 C699.104618,133.67388 702.669004,119.577633 709.797883,106.925688 C716.926761,94.2737433 726.778328,84.3117312 739.352877,77.0393534 C751.927427,69.7669755 765.838433,66.1308411 781.086312,66.1308411 Z M782.169757,204.897196 C792.041794,204.897196 800.975853,202.418218 808.972203,197.460187 C816.968552,192.502156 823.237201,185.722909 827.778338,177.122243 C832.319475,168.521577 834.590009,158.858621 834.590009,148.133084 C834.590009,137.407548 832.319475,127.694 827.778338,118.99215 C823.237201,110.290299 816.968552,103.460461 808.972203,98.5024299 C800.975853,93.5443989 792.041794,91.0654206 782.169757,91.0654206 C772.297721,91.0654206 763.363662,93.5443989 755.367312,98.5024299 C747.370963,103.460461 741.052954,110.290299 736.413097,118.99215 C731.77324,127.694 729.453346,137.407548 729.453346,148.133084 C729.453346,158.858621 731.77324,168.521577 736.413097,177.122243 C741.052954,185.722909 747.370963,192.502156 755.367312,197.460187 C763.363662,202.418218 772.297721,204.897196 782.169757,204.897196 Z M966.084455,199.909679 C969.618057,199.909679 972.611758,201.306029 975.065649,204.098772 C977.519539,206.891515 978.746466,210.482131 978.746466,214.870727 C978.746466,219.259323 977.126922,222.849939 973.887787,225.642682 C970.648652,228.435425 966.477101,229.831776 961.373009,229.831776 L956.072633,229.831776 C946.453383,229.831776 937.668588,227.288423 929.717983,222.201641 C921.767379,217.114859 915.534591,210.182976 911.019433,201.405784 C906.504275,192.628591 904.24673,182.754398 904.24673,171.782908 L904.24673,97.8753289 L890.701323,97.8753289 C886.578788,97.8753289 883.241547,96.678457 880.689501,94.2846773 C878.137455,91.8908976 876.861451,88.8987178 876.861451,85.3080483 C876.861451,81.3184154 878.137455,78.126757 880.689501,75.7329773 C883.241547,73.3391976 886.578788,72.1423257 890.701323,72.1423257 L904.24673,72.1423257 L904.24673,29.0545063 C904.24673,24.6659102 905.620888,21.0752945 908.369245,18.2825515 C911.117602,15.4898085 914.651151,14.0934579 918.969998,14.0934579 C923.288845,14.0934579 926.822394,15.4898085 929.570751,18.2825515 C932.319108,21.0752945 933.693266,24.6659102 933.693266,29.0545063 L933.693266,72.1423257 L958.722821,72.1423257 C962.845357,72.1423257 966.182598,73.3391976 968.734643,75.7329773 C971.286689,78.126757 972.562693,81.3184154 972.562693,85.3080483 C972.562693,88.8987178 971.286689,91.8908976 968.734643,94.2846773 C966.182598,96.678457 962.845357,97.8753289 958.722821,97.8753289 L933.693266,97.8753289 L933.693266,171.782908 C933.693266,179.762174 935.852657,186.444708 940.171504,191.830713 C944.49035,197.216717 949.790674,199.909679 956.072633,199.909679 L966.084455,199.909679 Z M1150,146.525082 C1150,150.310703 1148.7059,153.448737 1146.11765,155.939278 C1143.52941,158.429818 1140.24438,159.675069 1136.26246,159.675069 L1022.77843,159.675069 C1024.96849,173.622095 1031.28968,184.879169 1041.74221,193.446628 C1052.19474,202.014087 1064.98645,206.297752 1080.11773,206.297752 C1086.0906,206.297752 1092.31225,205.201931 1098.78287,203.010255 C1105.25348,200.81858 1110.57921,198.128836 1114.76022,194.940945 C1117.54756,192.749269 1120.8326,191.653448 1124.61542,191.653448 C1128.39824,191.653448 1131.38463,192.649649 1133.57468,194.642081 C1137.1584,197.63073 1138.95024,201.017814 1138.95024,204.803435 C1138.95024,208.389813 1137.3575,211.378417 1134.17196,213.769336 C1127.40271,219.148903 1118.99104,223.532188 1108.9367,226.919323 C1098.88236,230.306458 1089.27614,232 1080.11773,232 C1063.79188,232 1049.15856,228.463486 1036.21733,221.390351 C1023.27611,214.317216 1013.17215,204.504635 1005.90515,191.952311 C998.638156,179.399988 995.004713,165.154311 995.004713,149.214852 C995.004713,133.275394 998.439063,118.979907 1005.30787,106.327962 C1012.17667,93.6760166 1021.73313,83.8136247 1033.97752,76.74049 C1046.22191,69.6673554 1060.10863,66.1308411 1075.6381,66.1308411 C1090.96847,66.1308411 1104.20814,69.5179252 1115.35751,76.292195 C1126.50687,83.0664648 1135.06786,92.5303762 1141.04073,104.684213 C1147.01361,116.83805 1150,130.784867 1150,146.525082 Z M1074.23234,91.0654206 C1059.81738,91.0654206 1048.11774,95.0969991 1039.13308,103.160277 C1030.14841,111.223555 1024.47137,122.008028 1022.10179,135.514019 L1120.73516,135.514019 C1118.95797,122.008028 1114.02141,111.223555 1105.92534,103.160277 C1097.82927,95.0969991 1087.26504,91.0654206 1074.23234,91.0654206 Z"></path>
                    </g>
                </g>
            </g>
        </g>
    </g>
</svg>