<svg height="112" viewBox="0 0 511 112" width="511" xmlns="http://www.w3.org/2000/svg"><g fill="#fff" fill-rule="evenodd" transform=""><path d="m399.60126 105.346033c-.00084-.111756-.00126-.704662-.00126-.816567 0-32.0547228 34.488926-53.229466 77.033173-53.229466 2.246023 0 4.469595.0724232 6.666827.2143391-38.811314 2.5462597-63.963277 22.6526566-63.963277 53.0151269 0 .111905.000342.704811.001024.816567-1.472523 4.169311-4.861847 6.253967-10.167972 6.253967-5.306124 0-8.495629-2.084656-9.568515-6.253967z"/><path d="m405.039309 68.2580002c12.85825-42.0508593 51.576679-68.2580002 97.343274-68.2580002 2.970547 0 5.9114.13549018 8.817417.4009883-33.65288 3.12301947-59.540863 20.3662645-73.380772 47.8792095-12.448314 5.3698302-23.515139 12.0836081-32.779919 19.9778024z"/><path d="m25.9559055 56.7c3.4220644 0 6.1015651.5207905 8.0385827 1.562387 1.9370175 1.0415965 2.9055118 2.3435726 2.9055118 3.9059674 0 .4556985-.0322831.7811925-.0968504.9764919-.5811053 2.083193-1.8724309 3.124774-3.8740157 3.124774-.3228363 0-.8070834-.0650989-1.4527559-.1952984-2.5826901-.4556985-4.6810943-.6835443-6.2952756-.6835443-4.6488422 0-8.3936866 1.0741303-11.2346457 3.2224231-2.8409591 2.1482929-4.26141733 5.0451898-4.26141733 8.6907776v33.3960217c-2.15222559 0-3.76639882 0-4.84251968 0-1.03307604 0-2.64724926 0-4.84251969 0v-48.5316456c0-1.5623948.41968084-2.7667227 1.25905512-3.6130199.83937427-.8462971 2.03385052-1.2694394 3.58346457-1.2694394 3.22836259 0 4.84251968 1.6274702 4.84251968 4.8824593v1.8553346c1.93701753-2.2784924 4.32597003-4.0687096 7.16692913-5.3707053 2.8409591-1.3019956 5.8755744-1.9529837 9.103937-1.9529837zm60.7683923 27.072973c0 1.2324386-.4235127 2.25405-1.2705508 3.0648648-.8470382.8108149-1.9221089 1.2162163-3.2252444 1.2162163h-37.1391776c.7167246 4.5405632 2.7854212 8.2053914 6.2061521 10.9945945 3.4207308 2.7892034 7.606991 4.1837834 12.5589061 4.1837834.5682984 0 8.383504-.001886 23.4456168-.00566v8.373228c-15.0070524 0-22.8222581 0-23.4456168 0-5.3428558 0-10.1318071-1.15134-14.3669977-3.454054-4.2351905-2.302714-7.5418474-5.497277-9.9200698-9.5837838-2.3782223-4.086507-3.5673157-8.7242984-3.5673157-13.9135136 0-5.1892151 1.1239376-9.8432226 3.3718464-13.9621621s5.3753872-7.3297182 9.382529-9.6324324c4.0071419-2.3027143 8.5517589-3.4540541 13.6339876-3.4540541 5.0170719 0 9.3499326 1.1026917 12.9987121 3.3081081 3.6487796 2.2054164 6.450479 5.2864667 8.4051823 9.2432433 1.9547034 3.9567765 2.9320404 8.4972716 2.9320404 13.6216216zm-23.6999735-18.072973c4.2811025 0 7.7513381 1.3061094 10.4108108 3.9183673 2.6594728 2.612258 4.2810782 6.1061006 4.8648649 10.4816327h-32.4c.7783823-4.3755321 2.6432285-7.8693747 5.5945946-10.4816327 2.9513661-2.6122579 6.7945709-3.9183673 11.5297297-3.9183673zm50.5670007-8.1c4.178892 0 7.923765.6810743 11.234733 2.0432432 3.310968 1.362169 5.930772 3.2432313 7.859491 5.6432433.835778 1.037843 1.253661 2.0756705 1.253661 3.1135135 0 1.1027082-.546462 2.1081036-1.639403 3.0162162-.707197.5189215-1.607253.7783784-2.700193.7783784-1.671557 0-3.182364-.6162101-4.532468-1.8486487-1.607265-1.4918993-3.310942-2.5459428-5.111079-3.1621621-1.800138-.6162193-3.985987-.9243243-6.557613-.9243243-2.957369 0-5.384304.5026976-7.280878 1.5081081-1.896573 1.0054104-2.844846 2.4162071-2.844846 4.2324324 0 1.2973038.321448 2.3837794.964355 3.2594595.642906.87568 1.86441 1.6864827 3.664548 2.4324324 1.800137.7459497 4.403869 1.4756721 7.811273 2.1891892 7.007679 1.4270341 11.974056 3.4053927 14.89928 5.9351351s4.387814 5.8053853 4.387814 9.827027c0 2.9837987-.803621 5.6918798-2.410887 8.1243248-1.607266 2.432444-3.969911 4.345939-7.088007 5.74054-3.118096 1.394602-6.862969 2.091892-11.234732 2.091892-1.209291 0-10.198082 0-26.966374 0v-8.373228c17.017763-.255686 25.877974-.383529 26.580632-.383529 3.664566 0 6.509384-.61621 8.534539-1.848648 2.025155-1.232439 3.037717-2.8864765 3.037717-4.9621626 0-2.0108208-.99649-3.6810744-2.989499-5.0108108-1.99301-1.3297364-5.368218-2.4486441-10.125725-3.3567567-12.3438017-2.400012-18.5156101-7.5242851-18.5156101-15.372973 0-3.1783943.9322002-5.8702593 2.7966286-8.0756757 1.8644285-2.2054164 4.3074355-3.8594539 7.3290955-4.9621621 3.02166-1.1027083 6.236144-1.6540541 9.643547-1.6540541zm31.308675 5.0347349c0-1.5137187.469113-2.7312568 1.407353-3.6526508s2.11911-1.3820841 3.542647-1.3820841c1.488243 0 2.68529.4606901 3.591176 1.3820841.905887.921394 1.358824 2.1389321 1.358824 3.6526508v48.9652651c-2.307838 0-3.957838 0-4.95 0-.949024 0-2.599024 0-4.95 0zm4.5-26.6347349c1.71819 0 3.197721.6204483 4.438636 1.8613636 1.240916 1.2409153 1.861364 2.720446 1.861364 4.4386364s-.620448 3.1977211-1.861364 4.4386364c-1.240915 1.2409153-2.720446 1.8613636-4.438636 1.8613636s-3.197721-.6204483-4.438636-1.8613636c-1.240916-1.2409153-1.861364-2.720446-1.861364-4.4386364s.620448-3.1977211 1.861364-4.4386364c1.240915-1.2409153 2.720446-1.8613636 4.438636-1.8613636zm45.145614 21.6c4.438619 0 8.426883.9764821 11.964912 2.9294756 3.53803 1.9529935 6.304084 4.8010663 8.298246 8.5443038s2.991228 8.2513299 2.991228 13.5244123v29.0018083c-2.337227 0-3.977578 0-4.921053 0-.943474 0-2.583825 0-4.921052 0v-29.0018083c0-5.2730824-1.399109-9.2603843-4.197369-11.9620253-2.798259-2.701641-6.513134-4.0524413-11.144737-4.0524413-2.701767 0-5.162269.5533399-7.381578 1.6600362-2.21931 1.1066963-3.956135 2.6039689-5.210527 4.4918626s-1.881579 4.0036049-1.881579 6.3471971v32.517179c-2.294342 0-3.934693 0-4.921052 0-.943475 0-2.583826 0-4.921053 0v-48.5316456c0-1.497295.46637-2.7016229 1.399123-3.6130199.932753-.9113969 2.106718-1.3670886 3.52193-1.3670886 1.479539 0 2.669586.4556917 3.570175 1.3670886.900589.911397 1.350877 2.1157249 1.350877 3.6130199v1.0741411c2.05849-2.0831931 4.50291-3.6943885 7.333334-4.8336347 2.830423-1.1392462 5.853785-1.7088608 9.070175-1.7088608zm59.752571 0c4.94703 0 9.428201 1.1837719 13.443648 3.5513514 4.015447 2.3675794 7.195633 5.6107902 9.540653 9.7297297 2.345021 4.1189395 3.517514 8.7080828 3.517514 13.7675675v26.6594594c-2.334297 0-3.972591 0-4.914882 0s-2.580586 0-4.914882 0v-8.562162c-2.24865 2.789203-4.979113 4.962154-8.19147 6.518919-3.212357 1.556764-6.681651 2.335135-10.407986 2.335135-4.625794 0-8.817857-1.167556-12.576315-3.502703s-6.713783-5.562141-8.866062-9.6810808c-2.152279-4.1189395-3.228403-8.7080828-3.228403-13.7675676 0-5.0594847 1.156431-9.648628 3.469328-13.7675675 2.312898-4.1189395 5.509145-7.3621503 9.588839-9.7297297 4.079694-2.3675795 8.592988-3.5513514 13.540018-3.5513514zm.449984 45c3.211284 0 6.117452-.803592 8.718592-2.4108 2.601139-1.607208 4.640274-3.8047861 6.117464-6.5928 1.477191-2.7880139 2.215775-5.9203826 2.215775-9.3972s-.738584-6.6255859-2.215775-9.4464c-1.47719-2.8208141-3.516325-5.034792-6.117464-6.642-2.60114-1.607208-5.507308-2.4108-8.718592-2.4108s-6.117452.803592-8.718592 2.4108c-2.601139 1.607208-4.65633 3.8211859-6.165633 6.642-1.509304 2.8208141-2.263944 5.9695826-2.263944 9.4464s.75464 6.6091861 2.263944 9.3972c1.509303 2.7880139 3.564494 4.985592 6.165633 6.5928 2.60114 1.607208 5.507308 2.4108 8.718592 2.4108zm59.713392-1.636477c1.154919 0 2.133377.454364 2.935404 1.363107.802027.908742 1.203035 2.077108 1.203035 3.505131 0 1.428024-.52933 2.59639-1.588006 3.505132-1.058676.908743-2.422101 1.363107-4.090318 1.363107h-1.73237c-3.143946 0-6.01516-.827592-8.613728-2.482802-2.598568-1.655209-4.635686-3.910804-6.111416-6.766851-1.47573-2.8560478-2.213584-6.0690531-2.213584-9.6391126v-24.0490985h-4.427168c-1.347405 0-2.438146-.3894552-3.272254-1.1683772-.834108-.7789221-1.251156-1.7525601-1.251156-2.9209432 0-1.2982034.417048-2.3367506 1.251156-3.1156726.834108-.7789221 1.924849-1.1683773 3.272254-1.1683773h4.427168v-14.020527c0-1.4280238.449128-2.5963894 1.347399-3.5051318.89827-.9087424 2.053172-1.3631068 3.46474-1.3631068s2.566469.4543644 3.46474 1.3631068c.89827.9087424 1.347398 2.077108 1.347398 3.5051318v14.020527h8.180636c1.347406 0 2.438146.3894552 3.272255 1.1683773.834108.778922 1.251156 1.8174692 1.251156 3.1156726 0 1.1683831-.417048 2.1420211-1.251156 2.9209432-.834109.778922-1.924849 1.1683772-3.272255 1.1683772h-8.180636v24.0490985c0 2.5964069.705774 4.770865 2.117342 6.5234397 1.411567 1.7525749 3.14392 2.6288489 5.197109 2.6288489zm59.938439-17.19055c0 1.2324386-.420805 2.25405-1.262428 3.0648648-.841622.8108149-1.90982 1.2162163-3.204624 1.2162163h-36.901734c.712142 4.5405632 2.767613 8.2053914 6.166474 10.9945945 3.398861 2.7892034 7.558357 4.1837834 12.478613 4.1837834 1.942206 0 3.965307-.356753 6.069364-1.07027s3.835831-1.589184 5.195375-2.6270269c.906363-.713517 1.974561-1.0702702 3.204625-1.0702702s2.201152.324321 2.913295.9729729c1.165323.9729782 1.747976 2.0756692 1.747976 3.3081082 0 1.167573-.517913 2.140537-1.553757 2.918919-2.201167 1.75136-4.9364 3.178373-8.20578 4.281081-3.269381 1.102708-6.393049 1.654054-9.371098 1.654054-5.308697 0-10.067031-1.15134-14.275145-3.454054-4.208113-2.302714-7.49363-5.497277-9.856647-9.5837838-2.363018-4.086507-3.544509-8.7242984-3.544509-13.9135136 0-5.1892151 1.116752-9.8432226 3.350289-13.9621621s5.341021-7.3297182 9.322543-9.6324324c3.981523-2.3027143 8.497085-3.4540541 13.546821-3.4540541 4.984996 0 9.290155 1.1026917 12.915607 3.3081081s6.409239 5.2864667 8.351445 9.2432433c1.942206 3.9567765 2.913295 8.4972716 2.913295 13.6216216zm-24.275676-18.072973c-4.735158 0-8.578363 1.3061094-11.529729 3.9183673-2.951367 2.612258-4.816213 6.1061006-5.594595 10.4816327h32.4c-.583787-4.3755321-2.205392-7.8693747-4.864865-10.4816327-2.659473-2.6122579-6.129708-3.9183673-10.410811-3.9183673z"/></g></svg>