<svg height="57" viewBox="0 0 198 57" width="198" xmlns="http://www.w3.org/2000/svg"><g fill="#fff" fill-rule="evenodd"><path d="m118.353596 5.07161863-.787188-.77709425c-.803628-.79332319-2.096223-.79152301-2.897638.00403551-.793218.78742165-.797917 2.06878346-.010495 2.8620017.003485.00351137.006984.00700995.010495.01049566l.77467.7690088c.804457.79857805 2.101808.80087006 2.909082.00513943.793812-.78246154.803013-2.06028359.020551-2.85409544-.006448-.00654138-.01294-.01303867-.019477-.01949141zm-3.998185 8.50653377h-2.082224c-1.125132 0-2.037232.9121-2.037232 2.0372322 0 1.1251323.9121 2.0372322 2.037232 2.0372322h2.082224c1.125132 0 2.037232-.9120999 2.037232-2.0372322 0-1.1251322-.9121-2.0372322-2.037232-2.0372322zm9.661263-11.52592317v1.90537645c0 1.13341491.918815 2.05222923 2.05223 2.05222923s2.052229-.91881432 2.052229-2.05222923v-1.90537645c0-1.1334149-.918814-2.05222923-2.052229-2.05222923s-2.05223.91881433-2.05223 2.05222923zm13.452363 2.24633066c-.800768-.79491655-2.092875-.79491655-2.893643 0l-.779847.77414822c-.793219.78742165-.797918 2.06878346-.010496 2.86200171.003486.00351137.006984.00700995.010496.01049566.800768.79491654 2.092875.79491654 2.893643 0l.779847-.77414823c.793218-.78742165.797917-2.06878345.010496-2.8620017-.003486-.00351137-.006985-.00700995-.010496-.01049566zm-1.723873 11.31682471c0 1.1251323.9121 2.0372322 2.037233 2.0372322h2.082223c1.125132 0 2.037232-.9120999 2.037232-2.0372322 0-1.1251322-.9121-2.0372322-2.037232-2.0372322h-2.082223c-1.125133 0-2.037233.9121-2.037233 2.0372322z" fill-rule="nonzero"/><path d="m6.31685393 32.1587692h-6.22921348v-6.3710769h6.22921348v-4.2473846c0-2.0820617.14681501-3.9662993.44044944-5.6527692.29363443-1.68647.84943411-3.1334812 1.66741573-4.341077.81798162-1.2075957 1.9610413-2.1340993 3.4292135-2.77953842 1.4681721-.64543913 3.3767673-.96815385 5.7258427-.96815385 1.7198588 0 3.3138503.14574213 4.7820225.43723077l-.5033708 6.3710769c-.5453211-.1249237-1.0696604-.2290252-1.5730337-.3123077-.5033733-.0832824-1.0277127-.124923-1.5730337-.124923-1.0486944 0-1.8876374.1665624-2.516854.4996923-.6292166.3331298-1.1220956.7807664-1.4786517 1.342923-.3565561.5621567-.5872654 1.2179963-.6921348 1.9675385s-.1573034 1.5407138-.1573034 2.3735385v5.4341538h6.9842697v6.3710769h-6.9842697v23.6104616h-7.55056177zm47.00224717 23.6104616h-7.1730337v-4.8095385h-.1258427c-.7131122 1.4990844-1.803738 2.8003535-3.2719101 3.9038462s-3.4606616 1.6552307-5.9775281 1.6552307c-2.0134932 0-3.7228394-.3227147-5.1280899-.9681538-1.4052504-.6454391-2.5483102-1.5198919-3.4292135-2.6233846-.8809032-1.1034927-1.5101104-2.3631212-1.8876404-3.7789231-.37753-1.415802-.5662921-2.8940436-.5662921-4.4347692v-18.9258462h7.5505618v15.1781539c0 .8328246.0419471 1.7593282.1258427 2.7795384.0838955 1.0202102.304118 1.9779443.6606741 2.8732308s.901869 1.6448175 1.6359551 2.2486154c.734086.6037979 1.7722779.9056923 3.1146067.9056923 1.2584333 0 2.3175987-.2082031 3.1775281-.6246154s1.5730309-.9785606 2.1393258-1.6864615c.566295-.707901.9752797-1.5198929 1.2269663-2.436.2516867-.9161072.3775281-1.8738412.3775281-2.8732308v-16.3649231h7.5505618zm6.4179776-6.9332308 16.1707865-16.9270769v-.1249231h-15.4157304v-5.9963077h24.5393259v6.8083077l-16.3595506 17.1769231h17.1146068v5.9963077h-26.0494382zm30.3280898 0 16.1707865-16.9270769v-.1249231h-15.4157303v-5.9963077h24.5393263v6.8083077l-16.359551 17.1769231h17.114607v5.9963077h-26.0494385zm32.5932585-23.0483077h7.550562v29.9815385h-7.550562zm-1.069663-10.1812308c0-1.2075957.450932-2.2590211 1.352809-3.1543077.901877-.8952865 2.044937-1.342923 3.429214-1.342923 1.384276 0 2.548309.4268162 3.492134 1.2804615s1.415731 1.925891 1.415731 3.2167692c0 1.2908783-.471906 2.363124-1.415731 3.2167693s-2.107858 1.2804615-3.492134 1.2804615c-1.384277 0-2.527337-.4476365-3.429214-1.3429231-.901877-.8952865-1.352809-1.9467119-1.352809-3.1543077zm23.34382 27.7953847c.251687 2.2486266 1.132577 3.9975322 2.642697 5.2467692s3.334821 1.8738461 5.474157 1.8738461c1.88765 0 3.471155-.3851756 4.750562-1.1555384s2.401493-1.738507 3.366292-2.9044616l5.411236 4.06c-1.761806 2.1653442-3.733322 3.7060467-5.914607 4.6221539-2.181284.9161071-4.467403 1.3741538-6.858427 1.3741538-2.265179 0-4.404484-.3747655-6.417977-1.1243077s-3.7543-1.8113777-5.222472-3.1855384-2.632205-3.029375-3.492135-4.9656923c-.859929-1.9363174-1.289888-4.0912189-1.289888-6.4647693 0-2.3735503.429959-4.5284518 1.289888-6.4647692.85993-1.9363174 2.023963-3.5915316 3.492135-4.9656923s3.208979-2.4359963 5.222472-3.1855385 4.152798-1.1243077 6.417977-1.1243077c2.097389 0 4.016471.3643554 5.757304 1.093077 1.740832.7287216 3.229956 1.7801469 4.467415 3.1543077 1.23746 1.3741607 2.202244 3.0710155 2.894383 5.0906153.692138 2.0195999 1.038202 4.3410639 1.038202 6.9644616v2.0612308zm15.478652-5.6215385c-.041948-2.2069854-.734076-3.9454808-2.076405-5.2155385-1.342328-1.2700576-3.208976-1.9050769-5.6-1.9050769-2.265179 0-4.05842.6454295-5.379775 1.9363077s-2.128837 3.0189635-2.422472 5.1843077zm30.705618-3.6852308c-1.468172-2.0404204-3.439688-3.0606154-5.914607-3.0606154-1.006746 0-1.992504.2498437-2.957303.7495385s-1.447191 1.3116867-1.447191 2.436c0 .9161071.398498 1.5823569 1.195505 1.9987692.797008.4164124 1.80374.7703575 3.020225 1.0618462 1.216486.2914886 2.527334.593383 3.932584.9056923 1.405251.3123092 2.716099.7911763 3.932585 1.4366154 1.216485.6454391 2.223217 1.530302 3.020224 2.6546154.797008 1.1243133 1.195506 2.6650158 1.195506 4.6221538 0 1.7905731-.388011 3.3000451-1.164045 4.5284615s-1.782765 2.2173809-3.020225 2.9669231c-1.237459.7495422-2.632202 1.2908702-4.184269 1.624-1.552068.3331299-3.104112.4996923-4.65618.4996923-2.349075 0-4.509354-.3331248-6.480899-.9993846-1.971545-.6662597-3.733326-1.8738374-5.285393-3.6227692l5.033708-4.6846154c.964798 1.0826721 2.00299 1.967535 3.114606 2.6546154 1.111616.6870803 2.464412 1.0306154 4.058427 1.0306154.545321 0 1.111608-.0624609 1.698877-.1873846s1.132582-.3331268 1.635955-.6246154c.503373-.2914887.912358-.655844 1.226966-1.093077.314608-.4372329.47191-.9473304.47191-1.5303076 0-1.0410309-.398498-1.8113822-1.195505-2.311077-.797008-.4996948-1.80374-.9056907-3.020225-1.218-1.216486-.3123092-2.527334-.6037935-3.932584-.8744615-1.405251-.270668-2.716099-.7078944-3.932585-1.3116923-1.216485-.6037979-2.223217-1.4470202-3.020224-2.5296923-.797008-1.0826721-1.195506-2.581734-1.195506-4.4972308 0-1.6656493.346064-3.1126605 1.038202-4.3410769.692139-1.2284164 1.604489-2.2382012 2.737079-3.0293846 1.13259-.7911835 2.432951-1.374152 3.901124-1.7489231 1.468172-.3747711 2.957295-.5621539 4.467415-.5621539 2.013493 0 4.005983.3435351 5.977528 1.0306154 1.971546.6870804 3.565537 1.8634276 4.782023 3.529077z"/></g></svg>