<?xml version="1.0" encoding="UTF-8"?>
<svg width="1440px" height="133px" viewBox="0 0 1440 133" version="1.1" xmlns="http://www.w3.org/2000/svg" xmlns:xlink="http://www.w3.org/1999/xlink">
    <!-- Generator: Sketch 50.2 (55047) - http://www.bohemiancoding.com/sketch -->
    <title>divider-left</title>
    <desc>Created with Sketch.</desc>
    <defs></defs>
    <g id="divider-left" stroke="none" stroke-width="1" fill="none" fill-rule="evenodd">
        <path d="M655,-655 L692.317254,-655 C729.653132,-594.230499 756.391772,-497.100899 772.533174,-363.6112 C796.745277,-163.376652 779.687392,58.654033 750.072257,339.945819 C730.328834,527.473676 711.435917,675.825069 693.393505,785 L655,785 L655,-655 Z" id="Rectangle-3" fill="#FFFFFF" opacity="0.353627232" transform="translate(719.526170, 65.000000) scale(-1, 1) rotate(90.000000) translate(-719.526170, -65.000000) "></path>
        <path d="M671.621639,-673.621639 L711.975769,-673.621639 C737.479553,-634.122283 754.685749,-542.406791 763.594356,-398.475161 C776.957266,-182.577717 759.481292,334.051367 745.95946,478.432497 C736.944905,574.686584 729.85718,671.335205 724.696285,768.378361 L671.621639,768.378361 L671.621639,-673.621639 Z" id="Rectangle-3" fill="#FFFFFF" transform="translate(720.000000, 47.378361) scale(-1, 1) rotate(90.000000) translate(-720.000000, -47.378361) "></path>
    </g>
</svg>