<?xml version="1.0" encoding="UTF-8"?>
<svg width="1440px" height="132px" viewBox="0 0 1440 132" version="1.1" xmlns="http://www.w3.org/2000/svg" xmlns:xlink="http://www.w3.org/1999/xlink">
    <!-- Generator: Sketch 50.2 (55047) - http://www.bohemiancoding.com/sketch -->
    <title>divider-right</title>
    <desc>Created with Sketch.</desc>
    <defs></defs>
    <g id="divider-right" stroke="none" stroke-width="1" fill="none" fill-rule="evenodd">
        <path d="M655,-653 L692.317254,-653 C729.653132,-592.230499 756.391772,-495.100899 772.533174,-361.6112 C796.745277,-161.376652 779.687392,60.654033 750.072257,341.945819 C730.328834,529.473676 711.435917,677.825069 693.393505,787 L655,787 L655,-653 Z" id="Rectangle-3" fill="#FFFFFF" opacity="0.353627232" transform="translate(719.526170, 67.000000) scale(1, -1) rotate(90.000000) translate(-719.526170, -67.000000) "></path>
        <path d="M671.621639,-636.378361 L711.975769,-636.378361 C737.479553,-596.554636 754.685749,-504.676959 763.594356,-360.745329 C776.957266,-144.847885 759.481292,371.781199 745.95946,516.162329 C736.944905,612.416416 729.85718,708.902853 724.696285,805.621639 L671.621639,805.621639 L671.621639,-636.378361 Z" id="Rectangle-3" fill="#FFFFFF" transform="translate(720.000000, 84.621639) scale(1, -1) rotate(90.000000) translate(-720.000000, -84.621639) "></path>
    </g>
</svg>