<?xml version="1.0" encoding="UTF-8"?>
<svg width="1440px" height="133px" viewBox="0 0 1440 133" version="1.1" xmlns="http://www.w3.org/2000/svg" xmlns:xlink="http://www.w3.org/1999/xlink">
    <!-- Generator: Sketch 50.2 (55047) - http://www.bohemiancoding.com/sketch -->
    <title>divider-center-down</title>
    <desc>Created with Sketch.</desc>
    <defs></defs>
    <g id="divider-center-down" stroke="none" stroke-width="1" fill="none" fill-rule="evenodd">
        <path d="M653.763085,-653.763085 L703.289255,-653.763085 C714.764214,-485.088533 724.764214,-364.93059 733.289255,-293.289255 C746.076816,-185.827252 785.289255,-32.8268283 785.289255,66.7107452 C785.289255,166.248319 742.982508,330.983922 733.289255,426.710745 C726.827086,490.528627 716.827086,610.370684 703.289255,786.236915 L653.763085,786.236915 L653.763085,-653.763085 Z" id="Rectangle-3" fill="#FFFFFF" opacity="0.353627232" transform="translate(719.526170, 66.236915) scale(-1, 1) rotate(90.000000) translate(-719.526170, -66.236915) "></path>
        <path d="M675.346982,-677.346982 L711.346982,-677.346982 C722.171505,-510.365549 730.504838,-390.032216 736.346982,-316.346982 C745.110197,-205.819131 764.653018,-42.983333 764.653018,43.6530183 C764.653018,124.651436 746.031973,276.22804 736.346982,403.653018 C730.435601,481.428771 722.102268,601.762104 711.346982,764.653018 L675.346982,764.653018 L675.346982,-677.346982 Z" id="Rectangle-3" fill="#FFFFFF" transform="translate(720.000000, 43.653018) scale(-1, 1) rotate(90.000000) translate(-720.000000, -43.653018) "></path>
    </g>
</svg>