<?xml version="1.0" encoding="UTF-8"?>
<svg width="1440px" height="133px" viewBox="0 0 1440 133" version="1.1" xmlns="http://www.w3.org/2000/svg" xmlns:xlink="http://www.w3.org/1999/xlink">
    <!-- Generator: Sketch 50.2 (55047) - http://www.bohemiancoding.com/sketch -->
    <title>divider-left</title>
    <desc>Created with Sketch.</desc>
    <defs></defs>
    <g id="divider-left" stroke="none" stroke-width="1" fill="none" fill-rule="evenodd">
        <path d="M655.47383,-656 L692.791084,-656 C730.126962,-594.879719 756.865602,-497.574729 773.007004,-364.085031 C797.219107,-163.850482 780.161222,58.1802028 750.546087,339.471988 C730.802664,526.999846 711.909747,675.842516 693.867335,786 L655.47383,786 L655.47383,-656 Z" id="Rectangle-3" fill="#FFFFFF" opacity="0.353627232" transform="translate(720.000000, 65.000000) scale(-1, 1) rotate(90.000000) translate(-720.000000, -65.000000) "></path>
        <path d="M671.621639,-673.621639 L711.975769,-673.621639 C737.479553,-634.122283 754.685749,-542.406791 763.594356,-398.475161 C776.957266,-182.577717 759.481292,334.051367 745.95946,478.432497 C736.944905,574.686584 729.85718,671.335205 724.696285,768.378361 L671.621639,768.378361 L671.621639,-673.621639 Z" id="Rectangle-3" fill="#FFFFFF" transform="translate(720.000000, 47.378361) scale(-1, 1) rotate(90.000000) translate(-720.000000, -47.378361) "></path>
    </g>
</svg>