<svg height="133" viewBox="0 0 1440 133" width="1440" xmlns="http://www.w3.org/2000/svg"><g fill="#fff" fill-rule="evenodd"><path d="m653.236915-652h49.52617c11.474959 168.674552 21.474959 288.832495 30 360.47383 12.787561 107.462003 52 260.4624267 52 360.0000001 0 99.5375739-42.306747 264.2731769-52 359.9999999-6.462169 63.817882-16.462169 183.659939-30 359.52617h-49.52617z" opacity=".353627" transform="matrix(0 -1 1 0 651 787)"/><path d="m675.346982-632h36c10.824523 166.981433 19.157856 287.314766 25 361 8.763215 110.527851 28.306036 273.36364873 28.306036 360 0 80.998418-18.621045 232.575022-28.306036 360-5.911381 77.775753-14.244714 198.109086-25 361h-36z" transform="matrix(0 -1 1 0 631 809)"/></g></svg>