<svg height="260" viewBox="0 0 480 260" width="480" xmlns="http://www.w3.org/2000/svg" xmlns:xlink="http://www.w3.org/1999/xlink"><defs><path id="a" d="m0 0h480v260h-480z"/><path id="b" d="m421.9819 431.548786c-139.52562 0-252.633484-73.881566-252.633484-165.019097 0-91.137532 113.107864-165.019098 252.633484-165.019098 139.525621 0 252.633485 73.881566 252.633485 165.019098 0 91.137531-113.107864 165.019097-252.633485 165.019097zm-3.007541-21.00243c126.237466 0 228.573152-63.806808 228.573152-142.516494s-102.335686-142.516493-228.573152-142.516493-228.573152 63.806807-228.573152 142.516493 102.335686 142.516494 228.573152 142.516494z"/><mask id="c" height="332.704862" width="507.933635" x="-1.333333" y="-1.333333"><path d="m168.015083 100.177257h507.933635v332.704862h-507.933635z" fill="#fff"/><use xlink:href="#b"/></mask><mask id="d" fill="#fff"><use fill="none" xlink:href="#a"/></mask><mask id="e" fill="#fff"><path d="m0 0h480v253.02994h-480z" fill="none"/></mask></defs><g fill="none" fill-rule="evenodd" transform=""><use fill="#fff" xlink:href="#a"/><g mask="url(#d)" opacity=".49615"><g mask="url(#e)" transform="translate(0 7.97006)"><g transform="translate(-73.666667 -10.998802)"><g fill="none" fill-rule="evenodd" stroke="#efefef" stroke-width="2"><path d="m1 91.010417h662.666667v1h-662.666667z"/><path d="m1 73.008334h662.666667v1h-662.666667z"/><path d="m1 55.00625h662.666667v1h-662.666667z"/><path d="m1 37.004167h662.666667v1h-662.666667z"/><path d="m1 19.002083h662.666667v1h-662.666667z"/><path d="m1 109.0125h662.666667v1h-662.666667z"/><path d="m1 127.014584h662.666667v1h-662.666667z"/><path d="m1 145.016667h662.666667v1h-662.666667z"/><path d="m1 163.018751h662.666667v1h-662.666667z"/><path d="m1 181.020834h662.666667v1h-662.666667z"/><path d="m1 199.022917h662.666667v1h-662.666667z"/><path d="m1 217.025001h662.666667v1h-662.666667z"/><path d="m1 235.027084h662.666667v1h-662.666667z"/><path d="m1 253.029168h662.666667v1h-662.666667z"/><path d="m182.378582 1h1v505.058683h-1z"/><path d="m200.423831 1h1v505.058683h-1z"/><path d="m218.46908 1h1v505.058683h-1z"/><path d="m236.514329 1h1v505.058683h-1z"/><path d="m254.559578 1h1v505.058683h-1z"/><path d="m272.604827 1h1v505.058683h-1z"/><path d="m90.423831 1h1v505.058683h-1z"/><path d="m108.46908 1h1v505.058683h-1z"/><path d="m126.514329 1h1v505.058683h-1z"/><path d="m144.559578 1h1v505.058683h-1z"/><path d="m162.604827 1h1v505.058683h-1z"/><path d="m290.650075 1h1v505.058683h-1z"/><path d="m308.695324 1h1v505.058683h-1z"/><path d="m326.740573 1h1v505.058683h-1z"/><path d="m344.785822 1h1v505.058683h-1z"/><path d="m362.831071 1h1v505.058683h-1z"/><path d="m380.87632 1h1v505.058683h-1z"/><path d="m398.921569 1h1v505.058683h-1z"/><path d="m416.966817 1h1v505.058683h-1z"/><path d="m435.012066 1h1v505.058683h-1z"/><path d="m453.057315 1h1v505.058683h-1z"/><path d="m471.102564 1h1v505.058683h-1z"/><path d="m471.102564 1h1v505.058683h-1z"/><path d="m489.147813 1h1v505.058683h-1z"/><path d="m507.193062 1h1v505.058683h-1z"/><path d="m525.238311 1h1v505.058683h-1z"/><path d="m543.28356 1h1v505.058683h-1z"/></g><path d="m464.213729 14.5005209c8.569894 0 17.054126.3953512 25.437855 1.1700568-97.087061 9.1127603-173.63051 58.6876724-210.613119 139.0131313-35.912832 15.668803-66.979258 33.869049-93.707735 56.903775 22.472484-111.8164915 143.628428-197.0869631 278.882999-197.0869631z" fill="#cacaca" fill-rule="evenodd"/><path d="m476.117647 464.552606c161.118871 0 291.731523-100.747591 291.731523-225.026043 0-124.278451-130.612652-225.0260421-291.731523-225.0260421s-291.731523 100.7475911-291.731523 225.0260421c0 124.278452 130.612652 225.026043 291.731523 225.026043z" fill="none" stroke="#cbcbcb" stroke-dasharray="3.333333 3.333333" stroke-width="1.333333"/><path d="m527.044481 464.552606c161.230086 0 291.932895-100.747591 291.932895-225.026043 0-124.278451-130.702809-225.0260421-291.932895-225.0260421-161.230085 0-264.136487 100.7475911-264.136487 225.0260421 0 124.278452 102.906402 225.026043 264.136487 225.026043z" fill="none" stroke="#cbcbcb" stroke-dasharray="3.333333 3.333333" stroke-width="1.333333"/><path d="m189.567747 282.912544c-.002429-.323818-.003644-2.041788-.003644-2.366037 0-92.879933 99.144071-148.705324 222.156239-154.234659 6.484259-.291464 12.928562.209849 19.284183.621057-67.208495 4.416887-120.720211 30.876384-147.369269 56.858712-26.649057 25.982327-38.311911 60.173823-38.311911 94.91075 0 .32425-.001975 3.886359 0 4.210177-3.814915 12.080759-13.396509 18.121138-28.744781 18.121138s-24.351878-6.040379-27.010817-18.121138z" fill="#cacaca" fill-rule="evenodd"/><g fill="none"><use mask="url(#c)" stroke="#cbcbcb" stroke-dasharray="3.333333" stroke-width="2.666667" xlink:href="#b"/><path d="m414.666667 406.191617c128.498251 0 232.666666-65.511733 232.666666-146.324551s-104.168415-146.324551-232.666666-146.324551c-128.498252 0-230.030538 69.666368-235.333334 149.899759-5.302796 80.23339 106.835082 142.749343 235.333334 142.749343z" stroke="#fff" stroke-width="21.333333"/><path d="m458.931934 410.546356c127.423777 0 230.721158-63.806808 230.721158-142.516494s-103.297381-142.516493-230.721158-142.516493-211.387439 63.806807-211.387439 142.516493 83.963662 142.516494 211.387439 142.516494z" stroke="#cbcbcb" stroke-dasharray="3.333333 3.333333" stroke-width="1.333333"/></g></g></g></g><g mask="url(#d)"><g transform="translate(191 75)"><path d="m.00139987 117.051148c-.00093283-.124174-.00139987-.782958-.00139987-.907297 0-35.6163585 38.3210291-59.143851 85.5924141-59.143851 2.495581 0 4.9662168.0804702 7.4075859.2381546-43.1236821 2.8291774-71.0703077 25.1696185-71.0703077 58.9056964 0 .124339.0003796.783123.0011382.907297-1.6361373 4.632568-5.4020529 6.948852-11.2977468 6.948852-5.89569395 0-9.43958855-2.316284-10.63168383-6.948852z" fill="#83bc39"/><path d="m6.0436764 75.8422224c14.2869449-46.723177 57.307421-75.8422224 108.1591936-75.8422224 3.300607 0 6.568222.15054464 9.79713.44554256-37.3920887 3.47002163-66.1565146 22.62918284-81.5341912 53.19912164-13.8314602 5.966478-26.1279326 13.4262313-36.4221324 22.1975582z" fill="#8e42ff"/></g></g></g></svg>