<?xml version="1.0" encoding="UTF-8"?>
<svg width="950px" height="344px" viewBox="0 0 950 344" version="1.1" xmlns="http://www.w3.org/2000/svg" xmlns:xlink="http://www.w3.org/1999/xlink">
    <!-- Generator: Sketch 50.2 (55047) - http://www.bohemiancoding.com/sketch -->
    <title>logo-final</title>
    <desc>Created with Sketch.</desc>
    <defs></defs>
    <g id="Brand-Page" stroke="none" stroke-width="1" fill="none" fill-rule="evenodd">
        <g id="logo-final">
            <g id="Group-4" transform="translate(0.000000, 310.000000)">
                <rect id="Rectangle-6" fill="#83BC39" opacity="0.500679348" x="0" y="0" width="950" height="10"></rect>
                <path d="M2.44,34 L2.44,23.504 L8.488,23.504 L8.488,24.624 L3.768,24.624 L3.768,28.176 L7.768,28.176 L7.768,29.296 L3.768,29.296 L3.768,34 L2.44,34 Z M12.344,34 L12.344,23.504 L13.672,23.504 L13.672,34 L12.344,34 Z M18.552,34 L18.552,23.504 L19.928,23.504 L23.72,30.096 L24.856,32.272 L24.92,32.272 C24.8879998,31.738664 24.8533335,31.1866695 24.816,30.616 C24.7786665,30.0453305 24.76,29.4826694 24.76,28.928 L24.76,23.504 L26.024,23.504 L26.024,34 L24.648,34 L20.84,27.392 L19.704,25.232 L19.64,25.232 C19.6826669,25.765336 19.7226665,26.3066639 19.76,26.856 C19.7973335,27.4053361 19.816,27.9573306 19.816,28.512 L19.816,34 L18.552,34 Z M32.712,28.128 L32.216,29.728 L35.368,29.728 L34.872,28.128 C34.679999,27.5413304 34.4986675,26.9573362 34.328,26.376 C34.1573325,25.7946638 33.9866675,25.200003 33.816,24.592 L33.752,24.592 C33.5919992,25.200003 33.4266675,25.7946638 33.256,26.376 C33.0853325,26.9573362 32.904001,27.5413304 32.712,28.128 Z M29.512,34 L33.064,23.504 L34.568,23.504 L38.12,34 L36.696,34 L35.704,30.8 L31.88,30.8 L30.872,34 L29.512,34 Z M41.608,34 L41.608,23.504 L42.936,23.504 L42.936,32.864 L47.528,32.864 L47.528,34 L41.608,34 Z" id="FINAL" fill="#000000"></path>
            </g>
            <rect id="Rectangle-5" fill="#000000" x="468" y="0" width="479.332408" height="260"></rect>
            <g id="Resinate-Logo-R4" transform="translate(59.000000, 85.000000)">
                <g>
                    <g id="Resinate-Logo-R4-Leaf" transform="translate(265.878669, 0.000000)">
                        <g id="Combined-Shape">
                            <path d="M0.000832420578,69.6036289 C0.000277721224,69.5297899 0,69.1380488 0,69.0641115 C0,47.8850982 22.7873262,33.8946429 50.8969177,33.8946429 C52.3808971,33.8946429 53.850043,33.9424939 55.3017857,34.0362598 C29.6585962,35.7186099 13.0403349,49.0031936 13.0403349,69.0641115 C13.0403349,69.1380488 13.0405606,69.5297899 13.0410117,69.6036289 C12.0680944,72.3583525 9.82871953,73.7357143 6.32288725,73.7357143 C2.81705497,73.7357143 0.709703364,72.3583525 0.000832420578,69.6036289 Z" fill="#83BC39"></path>
                            <path d="M3.593829,45.0990358 C12.0894588,17.3154324 37.6712776,0 67.9099211,0 C69.8726035,0 71.8156675,0.0895202973 73.7357143,0.264938699 C51.5007758,2.32836228 34.3962154,13.7212206 25.2519899,31.8994164 C17.0272108,35.4473399 9.71520141,39.8832289 3.593829,45.0990358 Z" fill="#8E42FF"></path>
                        </g>
                    </g>
                    <path d="M17.2700741,37.4625 C19.5469858,37.4625 21.3298239,37.8065937 22.6186418,38.4947914 C23.9074598,39.1829891 24.5518591,40.0432233 24.5518591,41.0755199 C24.5518591,41.3766064 24.5303791,41.5916649 24.4874185,41.720702 C24.1007731,43.0970974 23.2415741,43.7852848 21.9097955,43.7852848 C21.6949925,43.7852848 21.3727929,43.7422731 20.9431869,43.6562484 C19.224763,43.3551619 17.8285645,43.2046209 16.7545495,43.2046209 C13.6613864,43.2046209 11.1697091,43.9143141 9.27944281,45.3337219 C7.38917649,46.7531297 6.44405751,48.6671508 6.44405751,51.0758428 L6.44405751,73.1410714 C5.01204831,73.1410714 3.93803872,73.1410714 3.22202875,73.1410714 C2.53465918,73.1410714 1.4606496,73.1410714 0,73.1410714 L0,41.0755199 C0,40.0432233 0.2792397,39.2475067 0.837727476,38.688346 C1.39621525,38.1291854 2.1909744,37.8496093 3.22202875,37.8496093 C5.37005866,37.8496093 6.44405751,38.9249021 6.44405751,41.0755199 L6.44405751,42.3013659 C7.73287545,40.7959334 9.32239374,39.6131114 11.2126601,38.7528642 C13.1029264,37.8926171 15.1220442,37.4625 17.2700741,37.4625 Z M57.7030553,55.35 C57.7030553,56.1642898 57.421266,56.839283 56.857679,57.375 C56.294092,57.910717 55.5787808,58.1785714 54.7117238,58.1785714 L30.0007251,58.1785714 C30.4776064,61.1785864 31.8540386,63.5999908 34.130063,65.4428571 C36.4060874,67.2857235 39.191466,68.2071429 42.4862823,68.2071429 C42.8644065,68.2071429 48.0643476,68.2058962 58.0861057,68.2034029 L58.0861057,73.7357143 C48.1009827,73.7357143 42.9010416,73.7357143 42.4862823,73.7357143 C38.931349,73.7357143 35.7449626,72.9750076 32.9270276,71.4535714 C30.1090926,69.9321353 27.9089686,67.8214421 26.3265897,65.1214286 C24.7442108,62.4214151 23.9530333,59.35716 23.9530333,55.9285714 C23.9530333,52.4999829 24.7008586,49.4250136 26.1965318,46.7035714 C27.692205,43.9821292 29.7731104,41.8607219 32.4393105,40.3392857 C35.1055105,38.8178495 38.1293262,38.0571429 41.5108482,38.0571429 C44.8490173,38.0571429 47.7319384,38.785707 50.1596977,40.2428571 C52.5874571,41.7000073 54.4516016,43.7357012 55.7521869,46.35 C57.0527723,48.9642988 57.7030553,51.9642688 57.7030553,55.35 Z M41.9339927,43.4089286 C44.7824758,43.4089286 47.0914388,44.2718937 48.860951,45.9978499 C50.6304632,47.723806 51.7094178,50.0322377 52.0978474,52.9232143 L30.5401174,52.9232143 C31.0580234,50.0322377 32.2988213,47.723806 34.2625483,45.9978499 C36.2262752,44.2718937 38.7833978,43.4089286 41.9339927,43.4089286 Z M75.5793555,38.0571429 C78.3598311,38.0571429 80.8515276,38.5071384 83.0545199,39.4071429 C85.2575121,40.3071474 87.0006303,41.5499921 88.2839267,43.1357143 C88.8400218,43.821432 89.1180652,44.5071394 89.1180652,45.1928571 C89.1180652,45.9214322 88.75447,46.5857113 88.0272687,47.1857143 C87.5567267,47.5285731 86.957864,47.7 86.2306627,47.7 C85.1184724,47.7 84.1132386,47.2928612 83.2149311,46.4785714 C82.1455174,45.4928522 81.0119559,44.7964306 79.8142126,44.3892857 C78.6164692,43.9821408 77.1620884,43.7785714 75.4510265,43.7785714 C73.4833053,43.7785714 71.8685148,44.110711 70.6066066,44.775 C69.3446985,45.439289 68.7137538,46.3714226 68.7137538,47.5714286 C68.7137538,48.4285757 68.9276334,49.1464257 69.3553988,49.725 C69.7831643,50.3035743 70.5959066,50.8392833 71.7936499,51.3321429 C72.9913932,51.8250025 74.7238175,52.3071405 76.9909745,52.7785714 C81.6536182,53.7214333 84.958057,55.0285631 86.9043899,56.7 C88.8507229,58.3714369 89.8238748,60.535701 89.8238748,63.1928571 C89.8238748,65.1642956 89.2891759,66.9535634 88.2197622,68.5607143 C87.1503485,70.1678652 85.578334,71.4321383 83.5036714,72.3535714 C81.4290088,73.2750046 78.9373122,73.7357143 76.028507,73.7357143 C75.2238909,73.7357143 69.2430904,73.7357143 58.0861057,73.7357143 L58.0861057,68.2034029 C69.4090792,68.0344676 75.3043269,67.95 75.771849,67.95 C78.2101122,67.95 80.1029461,67.5428612 81.4504073,66.7285714 C82.7978686,65.9142816 83.4715891,64.8214354 83.4715891,63.45 C83.4715891,62.1214219 82.8085626,61.0178615 81.4824896,60.1392857 C80.1564166,59.2607099 77.9106815,58.5214316 74.745217,57.9214286 C66.5321197,56.3357064 62.4256327,52.9500259 62.4256327,47.7642857 C62.4256327,45.6642752 63.0458834,43.8857216 64.2864032,42.4285714 C65.5269231,40.9714213 67.1524076,39.8785751 69.1629053,39.15 C71.1734031,38.4214249 73.3121984,38.0571429 75.5793555,38.0571429 Z M96.4109589,41.3836641 C96.4109589,40.3835286 96.7230889,39.5790837 97.3473581,38.9703056 C97.9716274,38.3615274 98.7573338,38.0571429 99.704501,38.0571429 C100.694721,38.0571429 101.491191,38.3615274 102.093933,38.9703056 C102.696676,39.5790837 102.998043,40.3835286 102.998043,41.3836641 L102.998043,73.7357143 C101.462495,73.7357143 100.364648,73.7357143 99.704501,73.7357143 C99.0730562,73.7357143 97.9752088,73.7357143 96.4109589,73.7357143 L96.4109589,41.3836641 Z M99.4050881,23.7857143 C100.548307,23.7857143 101.53273,24.1956534 102.358388,25.0155438 C103.184046,25.8354343 103.596869,26.8129813 103.596869,27.9482143 C103.596869,29.0834472 103.184046,30.0609943 102.358388,30.8808847 C101.53273,31.7007752 100.548307,32.1107143 99.4050881,32.1107143 C98.2618694,32.1107143 97.2774459,31.7007752 96.4517879,30.8808847 C95.62613,30.0609943 95.2133072,29.0834472 95.2133072,27.9482143 C95.2133072,26.8129813 95.62613,25.8354343 96.4517879,25.0155438 C97.2774459,24.1956534 98.2618694,23.7857143 99.4050881,23.7857143 Z M129.443266,38.0571429 C132.396554,38.0571429 135.050194,38.7023185 137.404264,39.9926892 C139.758335,41.2830599 141.598762,43.1648223 142.925602,45.6380328 C144.252441,48.1112433 144.915851,51.0898043 144.915851,54.5738052 L144.915851,73.7357143 C143.360749,73.7357143 142.269322,73.7357143 141.64157,73.7357143 C141.013818,73.7357143 139.92239,73.7357143 138.367288,73.7357143 L138.367288,54.5738052 C138.367288,51.0898043 137.436374,48.455337 135.574518,46.6703242 C133.712663,44.8853114 131.240926,43.9928184 128.159234,43.9928184 C126.36158,43.9928184 124.724455,44.3584179 123.247811,45.089628 C121.771167,45.8208381 120.61555,46.8101074 119.780925,48.0574658 C118.9463,49.3048241 118.528994,50.7027047 118.528994,52.2511496 L118.528994,73.7357143 C117.002426,73.7357143 115.910998,73.7357143 115.254712,73.7357143 C114.62696,73.7357143 113.535533,73.7357143 111.980431,73.7357143 L111.980431,41.6701627 C111.980431,40.6808785 112.290735,39.8851619 112.911354,39.2829889 C113.531972,38.6808159 114.313084,38.3797339 115.254712,38.3797339 C116.239142,38.3797339 117.030953,38.6808159 117.630171,39.2829889 C118.229389,39.8851619 118.528994,40.6808785 118.528994,41.6701627 L118.528994,42.3798631 C119.898635,41.0034677 121.525059,39.9389278 123.408315,39.1862116 C125.291572,38.4334953 127.303202,38.0571429 129.443266,38.0571429 Z M169.200358,38.0571429 C172.491924,38.0571429 175.473525,38.8392779 178.145251,40.4035714 C180.816977,41.967865 182.932952,44.1107007 184.493239,46.8321429 C186.053527,49.553585 186.833659,52.5856976 186.833659,55.9285714 L186.833659,73.5428571 C185.280507,73.5428571 184.190449,73.5428571 183.563484,73.5428571 C182.936519,73.5428571 181.84646,73.5428571 180.293308,73.5428571 L180.293308,67.8857143 C178.797141,69.7285806 176.980395,71.1642806 174.843014,72.1928571 C172.705634,73.2214337 170.397298,73.7357143 167.917936,73.7357143 C164.840108,73.7357143 162.050868,72.9642934 159.550133,71.4214286 C157.049398,69.8785637 155.083037,67.7464422 153.650992,65.025 C152.218947,62.3035578 151.502935,59.2714453 151.502935,55.9285714 C151.502935,52.5856976 152.272381,49.553585 153.811295,46.8321429 C155.350209,44.1107007 157.476871,41.967865 160.191344,40.4035714 C162.905817,38.8392779 165.908792,38.0571429 169.200358,38.0571429 Z M169.49976,67.7892857 C171.636426,67.7892857 173.57008,67.258341 175.30078,66.1964357 C177.03148,65.1345304 178.388242,63.6825592 179.371109,61.8404786 C180.353975,59.9983979 180.845401,57.9287972 180.845401,55.6316143 C180.845401,53.3344314 180.353975,51.253995 179.371109,49.3902429 C178.388242,47.5264907 177.03148,46.0636839 175.30078,45.0017786 C173.57008,43.9398733 171.636426,43.4089286 169.49976,43.4089286 C167.363094,43.4089286 165.42944,43.9398733 163.69874,45.0017786 C161.968041,46.0636839 160.600595,47.5264907 159.596362,49.3902429 C158.592129,51.253995 158.09002,53.3344314 158.09002,55.6316143 C158.09002,57.9287972 158.592129,59.9983979 159.596362,61.8404786 C160.600595,63.6825592 161.968041,65.1345304 163.69874,66.1964357 C165.42944,67.258341 167.363094,67.7892857 169.49976,67.7892857 Z M209.230784,66.7080419 C209.999223,66.7080419 210.650252,67.0082469 211.183891,67.608666 C211.717529,68.2090851 211.984344,68.981041 211.984344,69.9245567 C211.984344,70.8680724 211.632148,71.6400282 210.927746,72.2404473 C210.223343,72.8408664 209.316171,73.1410714 208.206203,73.1410714 L207.05355,73.1410714 C204.961688,73.1410714 203.051291,72.5942694 201.322302,71.5006489 C199.593314,70.4070284 198.237893,68.9167248 197.255998,67.0296934 C196.274103,65.142662 195.783163,63.0197834 195.783163,60.6609942 L195.783163,44.7714112 L192.837494,44.7714112 C191.940982,44.7714112 191.215244,44.5140926 190.66026,43.9994477 C190.105276,43.4848028 189.827789,42.8415062 189.827789,42.0695388 C189.827789,41.2117973 190.105276,40.5256143 190.66026,40.0109694 C191.215244,39.4963245 191.940982,39.2390058 192.837494,39.2390058 L195.783163,39.2390058 L195.783163,29.9754433 C195.783163,29.0319276 196.081996,28.2599718 196.679672,27.6595527 C197.277347,27.0591336 198.045774,26.7589286 198.984978,26.7589286 C199.924181,26.7589286 200.692609,27.0591336 201.290284,27.6595527 C201.887959,28.2599718 202.186792,29.0319276 202.186792,29.9754433 L202.186792,39.2390058 L207.629877,39.2390058 C208.526389,39.2390058 209.252127,39.4963245 209.807111,40.0109694 C210.362095,40.5256143 210.639582,41.2117973 210.639582,42.0695388 C210.639582,42.8415062 210.362095,43.4848028 209.807111,43.9994477 C209.252127,44.5140926 208.526389,44.7714112 207.629877,44.7714112 L202.186792,44.7714112 L202.186792,60.6609942 C202.186792,62.3764773 202.656387,63.8131728 203.595591,64.9711239 C204.534794,66.129075 205.687436,66.7080419 207.05355,66.7080419 L209.230784,66.7080419 Z M249.111546,55.35 C249.111546,56.1642898 248.831558,56.839283 248.271574,57.375 C247.711591,57.910717 247.000853,58.1785714 246.139339,58.1785714 L221.586326,58.1785714 C222.060159,61.1785864 223.427791,63.5999908 225.689264,65.4428571 C227.950737,67.2857235 230.718308,68.2071429 233.992059,68.2071429 C235.284329,68.2071429 236.630424,67.9714309 238.030384,67.5 C239.430343,67.0285691 240.5826,66.4500034 241.487189,65.7642857 C242.090249,65.2928548 242.800987,65.0571429 243.619425,65.0571429 C244.437863,65.0571429 245.083988,65.2714264 245.55782,65.7 C246.333183,66.3428604 246.720858,67.0714245 246.720858,67.8857143 C246.720858,68.6571467 246.376258,69.2999974 245.687047,69.8142857 C244.222474,70.9714344 242.402554,71.9142821 240.227232,72.6428571 C238.05191,73.3714322 235.97354,73.7357143 233.992059,73.7357143 C230.459854,73.7357143 227.293839,72.9750076 224.49392,71.4535714 C221.694001,69.9321353 219.507943,67.8214421 217.935681,65.1214286 C216.363419,62.4214151 215.577299,59.35716 215.577299,55.9285714 C215.577299,52.4999829 216.320344,49.4250136 217.806455,46.7035714 C219.292565,43.9821292 221.360167,41.8607219 224.009321,40.3392857 C226.658475,38.8178495 229.662958,38.0571429 233.022861,38.0571429 C236.339688,38.0571429 239.204178,38.785707 241.616416,40.2428571 C244.028654,41.7000073 245.88088,43.7357012 247.17315,46.35 C248.465421,48.9642988 249.111546,51.9642688 249.111546,55.35 Z M232.959433,43.4089286 C229.808838,43.4089286 227.251716,44.2718937 225.287989,45.9978499 C223.324262,47.723806 222.083464,50.0322377 221.565558,52.9232143 L243.123288,52.9232143 C242.734858,50.0322377 241.655903,47.723806 239.886391,45.9978499 C238.116879,44.2718937 235.807916,43.4089286 232.959433,43.4089286 Z" id="resinate" fill="#83BC39"></path>
                </g>
            </g>
            <g id="Resinate-Logo-R4-Light" transform="translate(551.000000, 85.000000)" fill="#FFFFFF">
                <g>
                    <path d="M265.879508,69.6036289 C265.878949,69.5297899 265.878669,69.1380488 265.878669,69.0641115 C265.878669,47.8850982 288.826291,33.8946429 317.133618,33.8946429 C318.628036,33.8946429 320.107517,33.9424939 321.569472,34.0362598 C295.745897,35.7186099 279.010736,49.0031936 279.010736,69.0641115 C279.010736,69.1380488 279.010963,69.5297899 279.011417,69.6036289 C278.031656,72.3583525 275.776528,73.7357143 272.246034,73.7357143 C268.715541,73.7357143 266.593365,72.3583525 265.879508,69.6036289 Z" id="Combined-Shape"></path>
                    <path d="M269.497779,45.0990358 C278.053171,17.3154324 303.814943,0 334.266298,0 C336.242787,0 338.199519,0.0895202973 340.133072,0.264938699 C317.741724,2.32836228 300.516843,13.7212206 291.308293,31.8994164 C283.025657,35.4473399 275.662212,39.8832289 269.497779,45.0990358 Z" id="Combined-Shape"></path>
                    <path d="M17.2700741,37.4625 C19.5469858,37.4625 21.3298239,37.8065937 22.6186418,38.4947914 C23.9074598,39.1829891 24.5518591,40.0432233 24.5518591,41.0755199 C24.5518591,41.3766064 24.5303791,41.5916649 24.4874185,41.720702 C24.1007731,43.0970974 23.2415741,43.7852848 21.9097955,43.7852848 C21.6949925,43.7852848 21.3727929,43.7422731 20.9431869,43.6562484 C19.224763,43.3551619 17.8285645,43.2046209 16.7545495,43.2046209 C13.6613864,43.2046209 11.1697091,43.9143141 9.27944281,45.3337219 C7.38917649,46.7531297 6.44405751,48.6671508 6.44405751,51.0758428 L6.44405751,73.1410714 C5.01204831,73.1410714 3.93803872,73.1410714 3.22202875,73.1410714 C2.53465918,73.1410714 1.4606496,73.1410714 0,73.1410714 L0,41.0755199 C0,40.0432233 0.2792397,39.2475067 0.837727476,38.688346 C1.39621525,38.1291854 2.1909744,37.8496093 3.22202875,37.8496093 C5.37005866,37.8496093 6.44405751,38.9249021 6.44405751,41.0755199 L6.44405751,42.3013659 C7.73287545,40.7959334 9.32239374,39.6131114 11.2126601,38.7528642 C13.1029264,37.8926171 15.1220442,37.4625 17.2700741,37.4625 Z M57.7030553,55.35 C57.7030553,56.1642898 57.421266,56.839283 56.857679,57.375 C56.294092,57.910717 55.5787808,58.1785714 54.7117238,58.1785714 L30.0007251,58.1785714 C30.4776064,61.1785864 31.8540386,63.5999908 34.130063,65.4428571 C36.4060874,67.2857235 39.191466,68.2071429 42.4862823,68.2071429 C42.8644065,68.2071429 48.0643476,68.2058962 58.0861057,68.2034029 L58.0861057,73.7357143 C48.1009827,73.7357143 42.9010416,73.7357143 42.4862823,73.7357143 C38.931349,73.7357143 35.7449626,72.9750076 32.9270276,71.4535714 C30.1090926,69.9321353 27.9089686,67.8214421 26.3265897,65.1214286 C24.7442108,62.4214151 23.9530333,59.35716 23.9530333,55.9285714 C23.9530333,52.4999829 24.7008586,49.4250136 26.1965318,46.7035714 C27.692205,43.9821292 29.7731104,41.8607219 32.4393105,40.3392857 C35.1055105,38.8178495 38.1293262,38.0571429 41.5108482,38.0571429 C44.8490173,38.0571429 47.7319384,38.785707 50.1596977,40.2428571 C52.5874571,41.7000073 54.4516016,43.7357012 55.7521869,46.35 C57.0527723,48.9642988 57.7030553,51.9642688 57.7030553,55.35 Z M41.9339927,43.4089286 C44.7824758,43.4089286 47.0914388,44.2718937 48.860951,45.9978499 C50.6304632,47.723806 51.7094178,50.0322377 52.0978474,52.9232143 L30.5401174,52.9232143 C31.0580234,50.0322377 32.2988213,47.723806 34.2625483,45.9978499 C36.2262752,44.2718937 38.7833978,43.4089286 41.9339927,43.4089286 Z M75.5793555,38.0571429 C78.3598311,38.0571429 80.8515276,38.5071384 83.0545199,39.4071429 C85.2575121,40.3071474 87.0006303,41.5499921 88.2839267,43.1357143 C88.8400218,43.821432 89.1180652,44.5071394 89.1180652,45.1928571 C89.1180652,45.9214322 88.75447,46.5857113 88.0272687,47.1857143 C87.5567267,47.5285731 86.957864,47.7 86.2306627,47.7 C85.1184724,47.7 84.1132386,47.2928612 83.2149311,46.4785714 C82.1455174,45.4928522 81.0119559,44.7964306 79.8142126,44.3892857 C78.6164692,43.9821408 77.1620884,43.7785714 75.4510265,43.7785714 C73.4833053,43.7785714 71.8685148,44.110711 70.6066066,44.775 C69.3446985,45.439289 68.7137538,46.3714226 68.7137538,47.5714286 C68.7137538,48.4285757 68.9276334,49.1464257 69.3553988,49.725 C69.7831643,50.3035743 70.5959066,50.8392833 71.7936499,51.3321429 C72.9913932,51.8250025 74.7238175,52.3071405 76.9909745,52.7785714 C81.6536182,53.7214333 84.958057,55.0285631 86.9043899,56.7 C88.8507229,58.3714369 89.8238748,60.535701 89.8238748,63.1928571 C89.8238748,65.1642956 89.2891759,66.9535634 88.2197622,68.5607143 C87.1503485,70.1678652 85.578334,71.4321383 83.5036714,72.3535714 C81.4290088,73.2750046 78.9373122,73.7357143 76.028507,73.7357143 C75.2238909,73.7357143 69.2430904,73.7357143 58.0861057,73.7357143 L58.0861057,68.2034029 C69.4090792,68.0344676 75.3043269,67.95 75.771849,67.95 C78.2101122,67.95 80.1029461,67.5428612 81.4504073,66.7285714 C82.7978686,65.9142816 83.4715891,64.8214354 83.4715891,63.45 C83.4715891,62.1214219 82.8085626,61.0178615 81.4824896,60.1392857 C80.1564166,59.2607099 77.9106815,58.5214316 74.745217,57.9214286 C66.5321197,56.3357064 62.4256327,52.9500259 62.4256327,47.7642857 C62.4256327,45.6642752 63.0458834,43.8857216 64.2864032,42.4285714 C65.5269231,40.9714213 67.1524076,39.8785751 69.1629053,39.15 C71.1734031,38.4214249 73.3121984,38.0571429 75.5793555,38.0571429 Z M96.4109589,41.3836641 C96.4109589,40.3835286 96.7230889,39.5790837 97.3473581,38.9703056 C97.9716274,38.3615274 98.7573338,38.0571429 99.704501,38.0571429 C100.694721,38.0571429 101.491191,38.3615274 102.093933,38.9703056 C102.696676,39.5790837 102.998043,40.3835286 102.998043,41.3836641 L102.998043,73.7357143 C101.462495,73.7357143 100.364648,73.7357143 99.704501,73.7357143 C99.0730562,73.7357143 97.9752088,73.7357143 96.4109589,73.7357143 L96.4109589,41.3836641 Z M99.4050881,23.7857143 C100.548307,23.7857143 101.53273,24.1956534 102.358388,25.0155438 C103.184046,25.8354343 103.596869,26.8129813 103.596869,27.9482143 C103.596869,29.0834472 103.184046,30.0609943 102.358388,30.8808847 C101.53273,31.7007752 100.548307,32.1107143 99.4050881,32.1107143 C98.2618694,32.1107143 97.2774459,31.7007752 96.4517879,30.8808847 C95.62613,30.0609943 95.2133072,29.0834472 95.2133072,27.9482143 C95.2133072,26.8129813 95.62613,25.8354343 96.4517879,25.0155438 C97.2774459,24.1956534 98.2618694,23.7857143 99.4050881,23.7857143 Z M129.443266,38.0571429 C132.396554,38.0571429 135.050194,38.7023185 137.404264,39.9926892 C139.758335,41.2830599 141.598762,43.1648223 142.925602,45.6380328 C144.252441,48.1112433 144.915851,51.0898043 144.915851,54.5738052 L144.915851,73.7357143 C143.360749,73.7357143 142.269322,73.7357143 141.64157,73.7357143 C141.013818,73.7357143 139.92239,73.7357143 138.367288,73.7357143 L138.367288,54.5738052 C138.367288,51.0898043 137.436374,48.455337 135.574518,46.6703242 C133.712663,44.8853114 131.240926,43.9928184 128.159234,43.9928184 C126.36158,43.9928184 124.724455,44.3584179 123.247811,45.089628 C121.771167,45.8208381 120.61555,46.8101074 119.780925,48.0574658 C118.9463,49.3048241 118.528994,50.7027047 118.528994,52.2511496 L118.528994,73.7357143 C117.002426,73.7357143 115.910998,73.7357143 115.254712,73.7357143 C114.62696,73.7357143 113.535533,73.7357143 111.980431,73.7357143 L111.980431,41.6701627 C111.980431,40.6808785 112.290735,39.8851619 112.911354,39.2829889 C113.531972,38.6808159 114.313084,38.3797339 115.254712,38.3797339 C116.239142,38.3797339 117.030953,38.6808159 117.630171,39.2829889 C118.229389,39.8851619 118.528994,40.6808785 118.528994,41.6701627 L118.528994,42.3798631 C119.898635,41.0034677 121.525059,39.9389278 123.408315,39.1862116 C125.291572,38.4334953 127.303202,38.0571429 129.443266,38.0571429 Z M169.200358,38.0571429 C172.491924,38.0571429 175.473525,38.8392779 178.145251,40.4035714 C180.816977,41.967865 182.932952,44.1107007 184.493239,46.8321429 C186.053527,49.553585 186.833659,52.5856976 186.833659,55.9285714 L186.833659,73.5428571 C185.280507,73.5428571 184.190449,73.5428571 183.563484,73.5428571 C182.936519,73.5428571 181.84646,73.5428571 180.293308,73.5428571 L180.293308,67.8857143 C178.797141,69.7285806 176.980395,71.1642806 174.843014,72.1928571 C172.705634,73.2214337 170.397298,73.7357143 167.917936,73.7357143 C164.840108,73.7357143 162.050868,72.9642934 159.550133,71.4214286 C157.049398,69.8785637 155.083037,67.7464422 153.650992,65.025 C152.218947,62.3035578 151.502935,59.2714453 151.502935,55.9285714 C151.502935,52.5856976 152.272381,49.553585 153.811295,46.8321429 C155.350209,44.1107007 157.476871,41.967865 160.191344,40.4035714 C162.905817,38.8392779 165.908792,38.0571429 169.200358,38.0571429 Z M169.49976,67.7892857 C171.636426,67.7892857 173.57008,67.258341 175.30078,66.1964357 C177.03148,65.1345304 178.388242,63.6825592 179.371109,61.8404786 C180.353975,59.9983979 180.845401,57.9287972 180.845401,55.6316143 C180.845401,53.3344314 180.353975,51.253995 179.371109,49.3902429 C178.388242,47.5264907 177.03148,46.0636839 175.30078,45.0017786 C173.57008,43.9398733 171.636426,43.4089286 169.49976,43.4089286 C167.363094,43.4089286 165.42944,43.9398733 163.69874,45.0017786 C161.968041,46.0636839 160.600595,47.5264907 159.596362,49.3902429 C158.592129,51.253995 158.09002,53.3344314 158.09002,55.6316143 C158.09002,57.9287972 158.592129,59.9983979 159.596362,61.8404786 C160.600595,63.6825592 161.968041,65.1345304 163.69874,66.1964357 C165.42944,67.258341 167.363094,67.7892857 169.49976,67.7892857 Z M209.230784,66.7080419 C209.999223,66.7080419 210.650252,67.0082469 211.183891,67.608666 C211.717529,68.2090851 211.984344,68.981041 211.984344,69.9245567 C211.984344,70.8680724 211.632148,71.6400282 210.927746,72.2404473 C210.223343,72.8408664 209.316171,73.1410714 208.206203,73.1410714 L207.05355,73.1410714 C204.961688,73.1410714 203.051291,72.5942694 201.322302,71.5006489 C199.593314,70.4070284 198.237893,68.9167248 197.255998,67.0296934 C196.274103,65.142662 195.783163,63.0197834 195.783163,60.6609942 L195.783163,44.7714112 L192.837494,44.7714112 C191.940982,44.7714112 191.215244,44.5140926 190.66026,43.9994477 C190.105276,43.4848028 189.827789,42.8415062 189.827789,42.0695388 C189.827789,41.2117973 190.105276,40.5256143 190.66026,40.0109694 C191.215244,39.4963245 191.940982,39.2390058 192.837494,39.2390058 L195.783163,39.2390058 L195.783163,29.9754433 C195.783163,29.0319276 196.081996,28.2599718 196.679672,27.6595527 C197.277347,27.0591336 198.045774,26.7589286 198.984978,26.7589286 C199.924181,26.7589286 200.692609,27.0591336 201.290284,27.6595527 C201.887959,28.2599718 202.186792,29.0319276 202.186792,29.9754433 L202.186792,39.2390058 L207.629877,39.2390058 C208.526389,39.2390058 209.252127,39.4963245 209.807111,40.0109694 C210.362095,40.5256143 210.639582,41.2117973 210.639582,42.0695388 C210.639582,42.8415062 210.362095,43.4848028 209.807111,43.9994477 C209.252127,44.5140926 208.526389,44.7714112 207.629877,44.7714112 L202.186792,44.7714112 L202.186792,60.6609942 C202.186792,62.3764773 202.656387,63.8131728 203.595591,64.9711239 C204.534794,66.129075 205.687436,66.7080419 207.05355,66.7080419 L209.230784,66.7080419 Z M249.111546,55.35 C249.111546,56.1642898 248.831558,56.839283 248.271574,57.375 C247.711591,57.910717 247.000853,58.1785714 246.139339,58.1785714 L221.586326,58.1785714 C222.060159,61.1785864 223.427791,63.5999908 225.689264,65.4428571 C227.950737,67.2857235 230.718308,68.2071429 233.992059,68.2071429 C235.284329,68.2071429 236.630424,67.9714309 238.030384,67.5 C239.430343,67.0285691 240.5826,66.4500034 241.487189,65.7642857 C242.090249,65.2928548 242.800987,65.0571429 243.619425,65.0571429 C244.437863,65.0571429 245.083988,65.2714264 245.55782,65.7 C246.333183,66.3428604 246.720858,67.0714245 246.720858,67.8857143 C246.720858,68.6571467 246.376258,69.2999974 245.687047,69.8142857 C244.222474,70.9714344 242.402554,71.9142821 240.227232,72.6428571 C238.05191,73.3714322 235.97354,73.7357143 233.992059,73.7357143 C230.459854,73.7357143 227.293839,72.9750076 224.49392,71.4535714 C221.694001,69.9321353 219.507943,67.8214421 217.935681,65.1214286 C216.363419,62.4214151 215.577299,59.35716 215.577299,55.9285714 C215.577299,52.4999829 216.320344,49.4250136 217.806455,46.7035714 C219.292565,43.9821292 221.360167,41.8607219 224.009321,40.3392857 C226.658475,38.8178495 229.662958,38.0571429 233.022861,38.0571429 C236.339688,38.0571429 239.204178,38.785707 241.616416,40.2428571 C244.028654,41.7000073 245.88088,43.7357012 247.17315,46.35 C248.465421,48.9642988 249.111546,51.9642688 249.111546,55.35 Z M232.959433,43.4089286 C229.808838,43.4089286 227.251716,44.2718937 225.287989,45.9978499 C223.324262,47.723806 222.083464,50.0322377 221.565558,52.9232143 L243.123288,52.9232143 C242.734858,50.0322377 241.655903,47.723806 239.886391,45.9978499 C238.116879,44.2718937 235.807916,43.4089286 232.959433,43.4089286 Z" id="resinate"></path>
                </g>
            </g>
        </g>
    </g>
</svg>