<svg height="344" viewBox="0 0 950 344" width="950" xmlns="http://www.w3.org/2000/svg"><g fill="none" fill-rule="evenodd"><g transform="translate(0 310)"><path d="m0 0h950v10h-950z" fill="#83bc39" opacity=".500679"/><path d="m2.44 34v-10.496h6.048v1.12h-4.72v3.552h4v1.12h-4v4.704zm9.904 0v-10.496h1.328v10.496zm6.208 0v-10.496h1.376l3.792 6.592 1.136 2.176h.064c-.0320002-.533336-.0666665-1.0853305-.104-1.656s-.056-1.1333306-.056-1.688v-5.424h1.264v10.496h-1.376l-3.808-6.608-1.136-2.16h-.064c.0426669.533336.0826665 1.0746639.12 1.624s.056 1.1013306.056 1.656v5.488zm14.16-5.872-.496 1.6h3.152l-.496-1.6c-.192001-.5866696-.3733325-1.1706638-.544-1.752s-.3413325-1.175997-.512-1.784h-.064c-.1600008.608003-.3253325 1.2026638-.496 1.784s-.351999 1.1653304-.544 1.752zm-3.2 5.872 3.552-10.496h1.504l3.552 10.496h-1.424l-.992-3.2h-3.824l-1.008 3.2zm12.096 0v-10.496h1.328v9.36h4.592v1.136z" fill="#000"/></g><path d="m468 0h479.332408v260h-479.332408z" fill="#000"/><g transform="translate(59 85)"><g transform="translate(265.878669)"><path d="m.00083242 69.6036289c-.0005547-.073839-.00083242-.4655801-.00083242-.5395174 0-21.1790133 22.7873262-35.1694686 50.8969177-35.1694686 1.4839794 0 2.9531253.047851 4.404868.1416169-25.6431895 1.6823501-42.2614508 14.9669338-42.2614508 35.0278517 0 .0739373.0002257.4656784.0006768.5395174-.9729173 2.7547236-3.21229217 4.1320854-6.71812445 4.1320854s-5.61318389-1.3773618-6.32205483-4.1320854z" fill="#83bc39"/><path d="m3.593829 45.0990358c8.4956298-27.7836034 34.0774486-45.0990358 64.3160921-45.0990358 1.9626824 0 3.9057464.0895203 5.8257932.2649387-22.2349385 2.06342358-39.3394989 13.4562819-48.4837244 31.6344777-8.2247791 3.5479235-15.53678849 7.9838125-21.6581609 13.1996194z" fill="#8e42ff"/></g><path d="m17.2700741 37.4625c2.2769117 0 4.0597498.3440937 5.3485677 1.0322914 1.288818.6881977 1.9332173 1.5484319 1.9332173 2.5807285 0 .3010865-.02148.516145-.0644406.6451821-.3866454 1.3763954-1.2458444 2.0645828-2.577623 2.0645828-.214803 0-.5370026-.0430117-.9666086-.1290364-1.7184239-.3010865-3.1146224-.4516275-4.1886374-.4516275-3.0931631 0-5.5848404.7096932-7.47510669 2.129101-1.89026632 1.4194078-2.8353853 3.3334289-2.8353853 5.7421209v22.0652286c-1.4320092 0-2.50601879 0-3.22202876 0-.68736957 0-1.76137915 0-3.22202875 0v-32.0655515c0-1.0322966.2792397-1.8280132.83772748-2.3871739.55848777-.5591606 1.35324692-.8387367 2.38430127-.8387367 2.14802991 0 3.22202876 1.0752928 3.22202876 3.2259106v1.225846c1.28881794-1.5054325 2.87833623-2.6882545 4.76860259-3.5485017 1.8902663-.8602471 3.9093841-1.2903642 6.057414-1.2903642zm40.4329812 17.8875c0 .8142898-.2817893 1.489283-.8453763 2.025s-1.2788982.8035714-2.1459552.8035714h-24.7109987c.4768813 3.000015 1.8533135 5.4214194 4.1293379 7.2642857 2.2760244 1.8428664 5.061403 2.7642858 8.3562193 2.7642858.3781242 0 5.5780653-.0012467 15.5998234-.00374v5.5323114c-9.985123 0-15.1850641 0-15.5998234 0-3.5549333 0-6.7413197-.7607067-9.5592547-2.2821429-2.817935-1.5214361-5.018059-3.6321293-6.6004379-6.3321428s-2.3735564-5.7642686-2.3735564-9.1928572c0-3.4285885.7478253-6.5035578 2.2434985-9.225s3.5765786-4.8428495 6.2427787-6.3642857c2.6662-1.5214362 5.6900157-2.2821428 9.0715377-2.2821428 3.3381691 0 6.2210902.7285641 8.6488495 2.1857142 2.4277594 1.4571502 4.2919039 3.4928441 5.5924892 6.1071429 1.3005854 2.6142988 1.9508684 5.6142688 1.9508684 9zm-15.7690626-11.9410714c2.8484831 0 5.1574461.8629651 6.9269583 2.5889213 1.7695122 1.7259561 2.8484668 4.0343878 3.2368964 6.9253644h-21.55773c.517906-2.8909766 1.7587039-5.1994083 3.7224309-6.9253644 1.9637269-1.7259562 4.5208495-2.5889213 7.6714444-2.5889213zm33.6453628-5.3517857c2.7804756 0 5.2721721.4499955 7.4751644 1.35 2.2029922.9000045 3.9461104 2.1428492 5.2294068 3.7285714.5560951.6857177.8341385 1.3714251.8341385 2.0571428 0 .7285751-.3635952 1.3928542-1.0907965 1.9928572-.470542.3428588-1.0694047.5142857-1.796606.5142857-1.1121903 0-2.1174241-.4071388-3.0157316-1.2214286-1.0694137-.9857192-2.2029752-1.6821408-3.4007185-2.0892857-1.1977434-.4071449-2.6521242-.6107143-4.3631861-.6107143-1.9677212 0-3.5825117.3321396-4.8444199.9964286-1.2619081.664289-1.8928528 1.5964226-1.8928528 2.7964286 0 .8571471.2138796 1.5749971.641645 2.1535714.4277655.5785743 1.2405078 1.1142833 2.4382511 1.6071429s2.9301676.9749976 5.1973246 1.4464285c4.6626437.9428619 7.9670825 2.2499917 9.9134154 3.9214286 1.946333 1.6714369 2.9194849 3.835701 2.9194849 6.4928571 0 1.9714385-.5346989 3.7607063-1.6041126 5.3678572s-2.6414282 2.871424-4.7160908 3.7928571c-2.0746626.9214332-4.5663592 1.3821429-7.4751644 1.3821429-.8046161 0-6.7854166 0-17.9424013 0v-5.5323114c11.3229735-.1689353 17.2182212-.2534029 17.6857433-.2534029 2.4382632 0 4.3310971-.4071388 5.6785583-1.2214286 1.3474613-.8142898 2.0211818-1.907136 2.0211818-3.2785714 0-1.3285781-.6630265-2.4321385-1.9890995-3.3107143s-3.5718081-1.6178541-6.7372726-2.2178571c-8.2130973-1.5857222-12.3195843-4.9714027-12.3195843-10.1571429 0-2.1000105.6202507-3.8785641 1.8607705-5.3357143 1.2405199-1.4571501 2.8660044-2.5499963 4.8765021-3.2785714 2.0104978-.7285751 4.1492931-1.0928571 6.4164502-1.0928571zm20.8316034 3.3265212c0-1.0001355.31213-1.8045804.9363992-2.4133585.6242693-.6087782 1.4099757-.9131627 2.3571429-.9131627.99022 0 1.78669.3043845 2.389432.9131627.602743.6087781.90411 1.413223.90411 2.4133585v32.3520502c-1.535548 0-2.633395 0-3.293542 0-.6314448 0-1.7292922 0-3.2935421 0zm2.9941292-17.5979498c1.1432189 0 2.1276419.4099391 2.9532999 1.2298295.825658.8198905 1.238481 1.7974375 1.238481 2.9326705 0 1.1352329-.412823 2.11278-1.238481 2.9326704-.825658.8198905-1.810081 1.2298296-2.9532999 1.2298296-1.1432187 0-2.1276422-.4099391-2.9533002-1.2298296-.8256579-.8198904-1.2384807-1.7974375-1.2384807-2.9326704 0-1.135233.4128228-2.11278 1.2384807-2.9326705.825658-.8198904 1.8100815-1.2298295 2.9533002-1.2298295zm30.0381779 14.2714286c2.953288 0 5.606928.6451756 7.960998 1.9355463 2.354071 1.2903707 4.194498 3.1721331 5.521338 5.6453436 1.326839 2.4732105 1.990249 5.4517715 1.990249 8.9357724v19.1619091c-1.555102 0-2.646529 0-3.274281 0s-1.71918 0-3.274282 0v-19.1619091c0-3.4840009-.930914-6.1184682-2.79277-7.903481-1.861855-1.7850128-4.333592-2.6775058-7.415284-2.6775058-1.797654 0-3.434779.3655995-4.911423 1.0968096s-2.632261 1.7204794-3.466886 2.9678378c-.834625 1.2473583-1.251931 2.6452389-1.251931 4.1936838v21.4845647c-1.526568 0-2.617996 0-3.274282 0-.627752 0-1.719179 0-3.274281 0v-32.0655516c0-.9892842.310304-1.7850008.930923-2.3871738.620618-.602173 1.40173-.903255 2.343358-.903255.98443 0 1.776241.301082 2.375459.903255s.898823 1.3978896.898823 2.3871738v.7097004c1.369641-1.3763954 2.996065-2.4409353 4.879321-3.1936515 1.883257-.7527163 3.894887-1.1290687 6.034951-1.1290687zm39.757092 0c3.291566 0 6.273167.782135 8.944893 2.3464285 2.671726 1.5642936 4.787701 3.7071293 6.347988 6.4285715 1.560288 2.7214421 2.34042 5.7535547 2.34042 9.0964285v17.6142857c-1.553152 0-2.64321 0-3.270175 0s-1.717024 0-3.270176 0v-5.6571428c-1.496167 1.8428663-3.312913 3.2785663-5.450294 4.3071428-2.13738 1.0285766-4.445716 1.5428572-6.925078 1.5428572-3.077828 0-5.867068-.7714209-8.367803-2.3142857-2.500735-1.5428649-4.467096-3.6749864-5.899141-6.3964286s-2.148057-5.7535547-2.148057-9.0964286c0-3.3428738.769446-6.3749864 2.30836-9.0964285 1.538914-2.7214422 3.665576-4.8642779 6.380049-6.4285715 2.714473-1.5642935 5.717448-2.3464285 9.009014-2.3464285zm.299402 29.7321428c2.136666 0 4.07032-.5309447 5.80102-1.59285s3.087462-2.5138765 4.070329-4.3559571c.982866-1.8420807 1.474292-3.9116814 1.474292-6.2088643s-.491426-4.3776193-1.474292-6.2413714c-.982867-1.8637522-2.339629-3.326559-4.070329-4.3884643s-3.664354-1.59285-5.80102-1.59285-4.07032.5309447-5.80102 1.59285c-1.730699 1.0619053-3.098145 2.5247121-4.102378 4.3884643-1.004233 1.8637521-1.506342 3.9441885-1.506342 6.2413714s.502109 4.3667836 1.506342 6.2088643c1.004233 1.8420806 2.371679 3.2940518 4.102378 4.3559571 1.7307 1.0619053 3.664354 1.59285 5.80102 1.59285zm39.731024-1.0812438c.768439 0 1.419468.300205 1.953107.9006241.533638.6004191.800453 1.372375.800453 2.3158907s-.352196 1.7154715-1.056598 2.3158906c-.704403.6004191-1.611575.9006241-2.721543.9006241h-1.152653c-2.091862 0-4.002259-.546802-5.731248-1.6404225-1.728988-1.0936205-3.084409-2.5839241-4.066304-4.4709555s-1.472835-4.00991-1.472835-6.3686992v-15.889583h-2.945669c-.896512 0-1.62225-.2573186-2.177234-.7719635s-.832471-1.1579415-.832471-1.9299089c0-.8577415.277487-1.5439245.832471-2.0585694s1.280722-.7719636 2.177234-.7719636h2.945669v-9.2635625c0-.9435157.298833-1.7154715.896509-2.3158906.597675-.6004191 1.366102-.9006241 2.305306-.9006241.939203 0 1.707631.300205 2.305306.9006241s.896508 1.3723749.896508 2.3158906v9.2635625h5.443085c.896512 0 1.62225.2573187 2.177234.7719636s.832471 1.2008279.832471 2.0585694c0 .7719674-.277487 1.415264-.832471 1.9299089s-1.280722.7719635-2.177234.7719635h-5.443085v15.889583c0 1.7154831.469595 3.1521786 1.408799 4.3101297.939203 1.1579511 2.091845 1.736918 3.457959 1.736918zm39.880762-11.3580419c0 .8142898-.279988 1.489283-.839972 2.025-.559983.535717-1.270721.8035714-2.132235.8035714h-24.553013c.473833 3.000015 1.841465 5.4214194 4.102938 7.2642857 2.261473 1.8428664 5.029044 2.7642858 8.302795 2.7642858 1.29227 0 2.638365-.235712 4.038325-.7071429 1.399959-.4714309 2.552216-1.0499966 3.456805-1.7357143.60306-.4714309 1.313798-.7071428 2.132236-.7071428s1.464563.2142835 1.938395.6428571c.775363.6428604 1.163038 1.3714245 1.163038 2.1857143 0 .7714324-.3446 1.4142831-1.033811 1.9285714-1.464573 1.1571487-3.284493 2.0999964-5.459815 2.8285714-2.175322.7285751-4.253692 1.0928572-6.235173 1.0928572-3.532205 0-6.69822-.7607067-9.498139-2.2821429-2.799919-1.5214361-4.985977-3.6321293-6.558239-6.3321428s-2.358382-5.7642686-2.358382-9.1928572c0-3.4285885.743045-6.5035578 2.229156-9.225 1.48611-2.7214422 3.553712-4.8428495 6.202866-6.3642857s5.653637-2.2821428 9.01354-2.2821428c3.316827 0 6.181317.7285641 8.593555 2.1857142 2.412238 1.4571502 4.264464 3.4928441 5.556734 6.1071429 1.292271 2.6142988 1.938396 5.6142688 1.938396 9zm-16.152113-11.9410714c-3.150595 0-5.707717.8629651-7.671444 2.5889213-1.963727 1.7259561-3.204525 4.0343878-3.722431 6.9253644h21.55773c-.38843-2.8909766-1.467385-5.1994083-3.236897-6.9253644-1.769512-1.7259562-4.078475-2.5889213-6.926958-2.5889213z" fill="#83bc39"/></g><g fill="#fff" transform="translate(551 85)"><path d="m265.879508 69.6036289c-.000559-.073839-.000839-.4655801-.000839-.5395174 0-21.1790133 22.947622-35.1694686 51.254949-35.1694686 1.494418 0 2.973899.047851 4.435854.1416169-25.823575 1.6823501-42.558736 14.9669338-42.558736 35.0278517 0 .0739373.000227.4656784.000681.5395174-.979761 2.7547236-3.234889 4.1320854-6.765383 4.1320854-3.530493 0-5.652669-1.3773618-6.366526-4.1320854z"/><path d="m269.497779 45.0990358c8.555392-27.7836034 34.317164-45.0990358 64.768519-45.0990358 1.976489 0 3.933221.0895203 5.866774.2649387-22.391348 2.06342358-39.616229 13.4562819-48.824779 31.6344777-8.282636 3.5479235-15.646081 7.9838125-21.810514 13.1996194z"/><path d="m17.2700741 37.4625c2.2769117 0 4.0597498.3440937 5.3485677 1.0322914 1.288818.6881977 1.9332173 1.5484319 1.9332173 2.5807285 0 .3010865-.02148.516145-.0644406.6451821-.3866454 1.3763954-1.2458444 2.0645828-2.577623 2.0645828-.214803 0-.5370026-.0430117-.9666086-.1290364-1.7184239-.3010865-3.1146224-.4516275-4.1886374-.4516275-3.0931631 0-5.5848404.7096932-7.47510669 2.129101-1.89026632 1.4194078-2.8353853 3.3334289-2.8353853 5.7421209v22.0652286c-1.4320092 0-2.50601879 0-3.22202876 0-.68736957 0-1.76137915 0-3.22202875 0v-32.0655515c0-1.0322966.2792397-1.8280132.83772748-2.3871739.55848777-.5591606 1.35324692-.8387367 2.38430127-.8387367 2.14802991 0 3.22202876 1.0752928 3.22202876 3.2259106v1.225846c1.28881794-1.5054325 2.87833623-2.6882545 4.76860259-3.5485017 1.8902663-.8602471 3.9093841-1.2903642 6.057414-1.2903642zm40.4329812 17.8875c0 .8142898-.2817893 1.489283-.8453763 2.025s-1.2788982.8035714-2.1459552.8035714h-24.7109987c.4768813 3.000015 1.8533135 5.4214194 4.1293379 7.2642857 2.2760244 1.8428664 5.061403 2.7642858 8.3562193 2.7642858.3781242 0 5.5780653-.0012467 15.5998234-.00374v5.5323114c-9.985123 0-15.1850641 0-15.5998234 0-3.5549333 0-6.7413197-.7607067-9.5592547-2.2821429-2.817935-1.5214361-5.018059-3.6321293-6.6004379-6.3321428s-2.3735564-5.7642686-2.3735564-9.1928572c0-3.4285885.7478253-6.5035578 2.2434985-9.225s3.5765786-4.8428495 6.2427787-6.3642857c2.6662-1.5214362 5.6900157-2.2821428 9.0715377-2.2821428 3.3381691 0 6.2210902.7285641 8.6488495 2.1857142 2.4277594 1.4571502 4.2919039 3.4928441 5.5924892 6.1071429 1.3005854 2.6142988 1.9508684 5.6142688 1.9508684 9zm-15.7690626-11.9410714c2.8484831 0 5.1574461.8629651 6.9269583 2.5889213 1.7695122 1.7259561 2.8484668 4.0343878 3.2368964 6.9253644h-21.55773c.517906-2.8909766 1.7587039-5.1994083 3.7224309-6.9253644 1.9637269-1.7259562 4.5208495-2.5889213 7.6714444-2.5889213zm33.6453628-5.3517857c2.7804756 0 5.2721721.4499955 7.4751644 1.35 2.2029922.9000045 3.9461104 2.1428492 5.2294068 3.7285714.5560951.6857177.8341385 1.3714251.8341385 2.0571428 0 .7285751-.3635952 1.3928542-1.0907965 1.9928572-.470542.3428588-1.0694047.5142857-1.796606.5142857-1.1121903 0-2.1174241-.4071388-3.0157316-1.2214286-1.0694137-.9857192-2.2029752-1.6821408-3.4007185-2.0892857-1.1977434-.4071449-2.6521242-.6107143-4.3631861-.6107143-1.9677212 0-3.5825117.3321396-4.8444199.9964286-1.2619081.664289-1.8928528 1.5964226-1.8928528 2.7964286 0 .8571471.2138796 1.5749971.641645 2.1535714.4277655.5785743 1.2405078 1.1142833 2.4382511 1.6071429s2.9301676.9749976 5.1973246 1.4464285c4.6626437.9428619 7.9670825 2.2499917 9.9134154 3.9214286 1.946333 1.6714369 2.9194849 3.835701 2.9194849 6.4928571 0 1.9714385-.5346989 3.7607063-1.6041126 5.3678572s-2.6414282 2.871424-4.7160908 3.7928571c-2.0746626.9214332-4.5663592 1.3821429-7.4751644 1.3821429-.8046161 0-6.7854166 0-17.9424013 0v-5.5323114c11.3229735-.1689353 17.2182212-.2534029 17.6857433-.2534029 2.4382632 0 4.3310971-.4071388 5.6785583-1.2214286 1.3474613-.8142898 2.0211818-1.907136 2.0211818-3.2785714 0-1.3285781-.6630265-2.4321385-1.9890995-3.3107143s-3.5718081-1.6178541-6.7372726-2.2178571c-8.2130973-1.5857222-12.3195843-4.9714027-12.3195843-10.1571429 0-2.1000105.6202507-3.8785641 1.8607705-5.3357143 1.2405199-1.4571501 2.8660044-2.5499963 4.8765021-3.2785714 2.0104978-.7285751 4.1492931-1.0928571 6.4164502-1.0928571zm20.8316034 3.3265212c0-1.0001355.31213-1.8045804.9363992-2.4133585.6242693-.6087782 1.4099757-.9131627 2.3571429-.9131627.99022 0 1.78669.3043845 2.389432.9131627.602743.6087781.90411 1.413223.90411 2.4133585v32.3520502c-1.535548 0-2.633395 0-3.293542 0-.6314448 0-1.7292922 0-3.2935421 0zm2.9941292-17.5979498c1.1432189 0 2.1276419.4099391 2.9532999 1.2298295.825658.8198905 1.238481 1.7974375 1.238481 2.9326705 0 1.1352329-.412823 2.11278-1.238481 2.9326704-.825658.8198905-1.810081 1.2298296-2.9532999 1.2298296-1.1432187 0-2.1276422-.4099391-2.9533002-1.2298296-.8256579-.8198904-1.2384807-1.7974375-1.2384807-2.9326704 0-1.135233.4128228-2.11278 1.2384807-2.9326705.825658-.8198904 1.8100815-1.2298295 2.9533002-1.2298295zm30.0381779 14.2714286c2.953288 0 5.606928.6451756 7.960998 1.9355463 2.354071 1.2903707 4.194498 3.1721331 5.521338 5.6453436 1.326839 2.4732105 1.990249 5.4517715 1.990249 8.9357724v19.1619091c-1.555102 0-2.646529 0-3.274281 0s-1.71918 0-3.274282 0v-19.1619091c0-3.4840009-.930914-6.1184682-2.79277-7.903481-1.861855-1.7850128-4.333592-2.6775058-7.415284-2.6775058-1.797654 0-3.434779.3655995-4.911423 1.0968096s-2.632261 1.7204794-3.466886 2.9678378c-.834625 1.2473583-1.251931 2.6452389-1.251931 4.1936838v21.4845647c-1.526568 0-2.617996 0-3.274282 0-.627752 0-1.719179 0-3.274281 0v-32.0655516c0-.9892842.310304-1.7850008.930923-2.3871738.620618-.602173 1.40173-.903255 2.343358-.903255.98443 0 1.776241.301082 2.375459.903255s.898823 1.3978896.898823 2.3871738v.7097004c1.369641-1.3763954 2.996065-2.4409353 4.879321-3.1936515 1.883257-.7527163 3.894887-1.1290687 6.034951-1.1290687zm39.757092 0c3.291566 0 6.273167.782135 8.944893 2.3464285 2.671726 1.5642936 4.787701 3.7071293 6.347988 6.4285715 1.560288 2.7214421 2.34042 5.7535547 2.34042 9.0964285v17.6142857c-1.553152 0-2.64321 0-3.270175 0s-1.717024 0-3.270176 0v-5.6571428c-1.496167 1.8428663-3.312913 3.2785663-5.450294 4.3071428-2.13738 1.0285766-4.445716 1.5428572-6.925078 1.5428572-3.077828 0-5.867068-.7714209-8.367803-2.3142857-2.500735-1.5428649-4.467096-3.6749864-5.899141-6.3964286s-2.148057-5.7535547-2.148057-9.0964286c0-3.3428738.769446-6.3749864 2.30836-9.0964285 1.538914-2.7214422 3.665576-4.8642779 6.380049-6.4285715 2.714473-1.5642935 5.717448-2.3464285 9.009014-2.3464285zm.299402 29.7321428c2.136666 0 4.07032-.5309447 5.80102-1.59285s3.087462-2.5138765 4.070329-4.3559571c.982866-1.8420807 1.474292-3.9116814 1.474292-6.2088643s-.491426-4.3776193-1.474292-6.2413714c-.982867-1.8637522-2.339629-3.326559-4.070329-4.3884643s-3.664354-1.59285-5.80102-1.59285-4.07032.5309447-5.80102 1.59285c-1.730699 1.0619053-3.098145 2.5247121-4.102378 4.3884643-1.004233 1.8637521-1.506342 3.9441885-1.506342 6.2413714s.502109 4.3667836 1.506342 6.2088643c1.004233 1.8420806 2.371679 3.2940518 4.102378 4.3559571 1.7307 1.0619053 3.664354 1.59285 5.80102 1.59285zm39.731024-1.0812438c.768439 0 1.419468.300205 1.953107.9006241.533638.6004191.800453 1.372375.800453 2.3158907s-.352196 1.7154715-1.056598 2.3158906c-.704403.6004191-1.611575.9006241-2.721543.9006241h-1.152653c-2.091862 0-4.002259-.546802-5.731248-1.6404225-1.728988-1.0936205-3.084409-2.5839241-4.066304-4.4709555s-1.472835-4.00991-1.472835-6.3686992v-15.889583h-2.945669c-.896512 0-1.62225-.2573186-2.177234-.7719635s-.832471-1.1579415-.832471-1.9299089c0-.8577415.277487-1.5439245.832471-2.0585694s1.280722-.7719636 2.177234-.7719636h2.945669v-9.2635625c0-.9435157.298833-1.7154715.896509-2.3158906.597675-.6004191 1.366102-.9006241 2.305306-.9006241.939203 0 1.707631.300205 2.305306.9006241s.896508 1.3723749.896508 2.3158906v9.2635625h5.443085c.896512 0 1.62225.2573187 2.177234.7719636s.832471 1.2008279.832471 2.0585694c0 .7719674-.277487 1.415264-.832471 1.9299089s-1.280722.7719635-2.177234.7719635h-5.443085v15.889583c0 1.7154831.469595 3.1521786 1.408799 4.3101297.939203 1.1579511 2.091845 1.736918 3.457959 1.736918zm39.880762-11.3580419c0 .8142898-.279988 1.489283-.839972 2.025-.559983.535717-1.270721.8035714-2.132235.8035714h-24.553013c.473833 3.000015 1.841465 5.4214194 4.102938 7.2642857 2.261473 1.8428664 5.029044 2.7642858 8.302795 2.7642858 1.29227 0 2.638365-.235712 4.038325-.7071429 1.399959-.4714309 2.552216-1.0499966 3.456805-1.7357143.60306-.4714309 1.313798-.7071428 2.132236-.7071428s1.464563.2142835 1.938395.6428571c.775363.6428604 1.163038 1.3714245 1.163038 2.1857143 0 .7714324-.3446 1.4142831-1.033811 1.9285714-1.464573 1.1571487-3.284493 2.0999964-5.459815 2.8285714-2.175322.7285751-4.253692 1.0928572-6.235173 1.0928572-3.532205 0-6.69822-.7607067-9.498139-2.2821429-2.799919-1.5214361-4.985977-3.6321293-6.558239-6.3321428s-2.358382-5.7642686-2.358382-9.1928572c0-3.4285885.743045-6.5035578 2.229156-9.225 1.48611-2.7214422 3.553712-4.8428495 6.202866-6.3642857s5.653637-2.2821428 9.01354-2.2821428c3.316827 0 6.181317.7285641 8.593555 2.1857142 2.412238 1.4571502 4.264464 3.4928441 5.556734 6.1071429 1.292271 2.6142988 1.938396 5.6142688 1.938396 9zm-16.152113-11.9410714c-3.150595 0-5.707717.8629651-7.671444 2.5889213-1.963727 1.7259561-3.204525 4.0343878-3.722431 6.9253644h21.55773c-.38843-2.8909766-1.467385-5.1994083-3.236897-6.9253644-1.769512-1.7259562-4.078475-2.5889213-6.926958-2.5889213z"/></g></g></svg>