<svg height="110" viewBox="0 0 540 110" width="540" xmlns="http://www.w3.org/2000/svg"><g fill="none" fill-rule="evenodd"><path d="m27.6862992 22.08c3.650202 0 6.5083361.5555098 8.5744882 1.6665461s3.0992126 2.4998108 3.0992126 4.1663653c0 .4860784-.0344354.833272-.1033071 1.0415913-.6198456 2.2220726-1.9972597 3.3330922-4.1322835 3.3330922-.3443586 0-.8608889-.0694387-1.5496063-.2083182-2.7548694-.4860784-4.9931672-.729114-6.7149606-.729114-4.9587649 0-8.9532657 1.145739-11.983622 3.4372514-3.0303564 2.2915124-4.5455118 5.3815357-4.5455118 9.2701628v35.6224231c-2.29570734 0-4.01749211 0-5.16535437 0-1.10194777 0-2.82373254 0-5.16535433 0v-51.7670886c0-1.6665545.44765957-2.9511709 1.34299213-3.8538879s2.16944055-1.3540687 3.8223622-1.3540687c3.44358677 0 5.16535437 1.7359682 5.16535437 5.2079566v1.9790235c2.066152-2.4303919 4.614368-4.3399569 7.6447244-5.7287523 3.0303563-1.3887953 6.2672793-2.0831826 9.7108661-2.0831826zm64.8196184 28.8778378c0 1.3146012-.4517469 2.40432-1.3552542 3.2691892s-2.0502494 1.2972973-3.4402606 1.2972973h-39.6151228c.7645062 4.8432675 2.971116 8.7524176 6.6198955 11.7275676 3.6487796 2.97515 8.1141238 4.4627027 13.3961665 4.4627027.606185 0 8.9424043-.0020126 25.008658-.0060379v8.9314433c-16.0075226 0-24.3437419 0-25.008658 0-5.6990461 0-10.8072608-1.2280958-15.3247974-3.6843243s-8.0446373-5.863762-10.5814078-10.2227027c-2.5367706-4.3589407-3.8051368-9.3059183-3.8051368-14.8410811s1.1988667-10.4994375 3.5966361-14.892973c2.3977695-4.3935355 5.7337464-7.8183661 10.008031-10.2745946 4.2742847-2.4562285 9.1218762-3.6843243 14.5429201-3.6843243 5.3515433 0 9.9732614 1.1762045 13.865293 3.5286486 3.8920315 2.3524442 6.8805108 5.6388979 8.9655277 9.8594595 2.0850169 4.2205617 3.1275097 9.0637565 3.1275097 14.5297297zm-25.2799717-19.2778378c4.5665094 0 8.268094 1.3931833 11.1048649 4.1795918 2.836771 2.7864085 4.5664834 6.513174 5.1891892 11.1804082h-34.56c.8302744-4.6672342 2.8194437-8.3939997 5.9675676-11.1804082 3.1481238-2.7864085 7.2475423-4.1795918 12.2983783-4.1795918zm53.9381341-8.64c4.457485 0 8.452016.7264792 11.983715 2.1794595 3.531699 1.4529802 6.326157 3.4594466 8.383457 6.0194594.891497 1.1070326 1.337238 2.2140485 1.337238 3.3210811 0 1.1762221-.582893 2.2486438-1.748696 3.2172973-.754344.5535163-1.714403.8302703-2.880206.8302703-1.782994 0-3.394522-.6572908-4.834632-1.9718919-1.714417-1.5913593-3.531671-2.7156724-5.451818-3.372973s-4.251719-.9859459-6.994787-.9859459c-3.154527 0-5.743257.5362108-7.766269 1.6086486s-3.034503 2.5772876-3.034503 4.5145946c0 1.3837907.342878 2.542698 1.028645 3.4767568.685766.9340587 1.988704 1.7989149 3.908851 2.5945946 1.920147.7956796 4.697461 1.5740502 8.332025 2.3351351 7.474857 1.5221698 12.772326 3.6324189 15.892565 6.3308108s4.680335 6.192411 4.680335 10.4821622c0 3.1827186-.857196 6.0713383-2.571613 8.6659459s-4.234572 4.6356682-7.56054 6.1232432c-3.325969 1.4875751-7.320501 2.2313514-11.983715 2.2313514-1.28991 0-10.877954 0-28.764132 0v-8.9314433c18.152281-.2727315 27.603172-.4090972 28.352674-.4090972 3.908871 0 6.943343-.6572908 9.103508-1.9718919 2.160166-1.3146012 3.240232-3.0789079 3.240232-5.292973 0-2.1448756-1.062922-3.9264794-3.188799-5.3448649-2.125877-1.4183854-5.726099-2.611887-10.800773-3.5805405-13.166722-2.5600128-19.749985-8.0259041-19.749985-16.3978378 0-3.3902873.994347-6.2616099 2.983071-8.6140541s4.594598-4.1167509 7.817702-5.292973 6.651887-1.7643243 10.28645-1.7643243zm33.39592 5.3703839c0-1.6146333.500387-2.9133406 1.501176-3.8961609 1.00079-.9828202 2.260385-1.474223 3.778824-1.474223 1.587459 0 2.864309.4914028 3.830588 1.474223.96628.9828203 1.449412 2.2815276 1.449412 3.8961609v52.2296161c-2.461694 0-4.221694 0-5.28 0-1.012293 0-2.772293 0-5.28 0zm4.8-28.4103839c1.832736 0 3.410902.66181156 4.734545 1.98545455 1.323643 1.32364298 1.985455 2.90180901 1.985455 4.73454545s-.661812 3.4109025-1.985455 4.7345455c-1.323643 1.3236429-2.901809 1.9854545-4.734545 1.9854545s-3.410902-.6618116-4.734545-1.9854545c-1.323643-1.323643-1.985455-2.90180906-1.985455-4.7345455s.661812-3.41090247 1.985455-4.73454545c1.323643-1.32364299 2.901809-1.98545455 4.734545-1.98545455zm48.155322 23.04c4.734526 0 8.988675 1.0415809 12.762573 3.124774 3.773898 2.083193 6.724356 5.1211373 8.851462 9.113924s3.190643 8.8014185 3.190643 14.4260398v30.9352622c-2.493042 0-4.24275 0-5.249123 0s-2.75608 0-5.249123 0v-30.9352622c0-5.6246213-1.492382-9.8777433-4.477193-12.7594937-2.98481-2.8817504-6.947343-4.322604-11.887719-4.322604-2.881886 0-5.506421.5902292-7.873684 1.7707053s-4.219876 2.7775668-5.557895 4.7913201c-1.338018 2.0137532-2.007017 4.2705119-2.007017 6.7703435v34.684991c-2.447299 0-4.197006 0-5.249123 0-1.006373 0-2.756081 0-5.249123 0v-51.7670886c0-1.5971147.497461-2.8817311 1.492398-3.8538879.994936-.9721568 2.247166-1.4582278 3.756725-1.4582278 1.578175 0 2.847558.486071 3.808187 1.4582278s1.440936 2.2567732 1.440936 3.8538879v1.1457504c2.195722-2.2220725 4.803103-3.940681 7.822222-5.155877 3.019118-1.2151959 6.244037-1.8227848 9.674854-1.8227848zm63.736075 0c5.276833 0 10.056749 1.2626901 14.339892 3.7881081s7.675341 5.9848429 10.176696 10.3783784c2.501356 4.3935355 3.752015 9.2886217 3.752015 14.6854054v28.4367567c-2.489916 0-4.23743 0-5.242541 0s-2.752624 0-5.242541 0v-9.1329729c-2.39856 2.97515-5.311053 5.2929646-8.737568 6.9535135-3.426514 1.6605488-7.127094 2.4908108-11.101851 2.4908108-4.934181 0-9.405715-1.245393-13.414737-3.7362162-4.009022-2.4908233-7.161368-5.932951-9.457132-10.3264865-2.295765-4.3935355-3.44363-9.2886217-3.44363-14.6854054s1.233527-10.2918699 3.700617-14.6854054 5.876421-7.8529604 10.228094-10.3783784c4.351674-2.525418 9.165854-3.7881081 14.442686-3.7881081zm.479983 48c3.42537 0 6.525282-.8571648 9.299831-2.57152s4.949626-4.0584385 6.525296-7.03232 2.363493-6.3150748 2.363493-10.02368-.787823-7.0672916-2.363493-10.07616-3.750747-5.3704448-6.525296-7.0848-5.874461-2.57152-9.299831-2.57152c-3.425369 0-6.525282.8571648-9.299831 2.57152s-4.966752 4.0759316-6.576676 7.0848c-1.609923 3.0088684-2.414873 6.3675548-2.414873 10.07616s.80495 7.0497985 2.414873 10.02368c1.609924 2.9738815 3.802127 5.3179648 6.576676 7.03232s5.874462 2.57152 9.299831 2.57152zm63.694285-1.7455756c1.231913 0 2.275602.4846554 3.131098 1.4539806s1.283237 2.2155818 1.283237 3.7388072-.564619 2.769482-1.693873 3.7388072c-1.129254.9693253-2.583575 1.4539806-4.363006 1.4539806h-1.847861c-3.353543 0-6.416171-.8827651-9.187977-2.6483218s-4.944732-4.1715243-6.518844-7.217975-2.361156-6.4736564-2.361156-10.2817198v-25.6523717h-4.722312c-1.437233 0-2.600689-.4154189-3.490405-1.2462691-.889715-.8308502-1.334566-1.8693974-1.334566-3.1156727 0-1.3847503.444851-2.492534 1.334566-3.3233842.889716-.8308502 2.053172-1.2462691 3.490405-1.2462691h4.722312v-14.95522881c0-1.52322536.479071-2.76948197 1.437226-3.73880721.958155-.96932523 2.19005-1.45398058 3.695722-1.45398058s2.737568.48465535 3.695723 1.45398058c.958155.96932524 1.437225 2.21558185 1.437225 3.73880721v14.95522881h8.726012c1.437232 0 2.600689.4154189 3.490404 1.2462691.889716.8308502 1.334567 1.9386339 1.334567 3.3233842 0 1.2462753-.444851 2.2848225-1.334567 3.1156727-.889715.8308502-2.053172 1.2462691-3.490404 1.2462691h-8.726012v25.6523717c0 2.7695006.752825 5.0889226 2.258497 6.9583356 1.505673 1.869413 3.353515 2.8041054 5.543584 2.8041054zm63.934335-18.3365866c0 1.3146012-.448859 2.40432-1.34659 3.2691892-.89773.8648692-2.037141 1.2972973-3.418265 1.2972973h-39.36185c.759618 4.8432675 2.95212 8.7524176 6.577572 11.7275676s8.062247 4.4627027 13.31052 4.4627027c2.071687 0 4.229662-.3805367 6.473989-1.1416216s4.091553-1.6951296 5.541734-2.8021622c.966787-.7610849 2.106198-1.1416216 3.418266-1.1416216s2.347896.3459425 3.107514 1.0378378c1.243012 1.0378431 1.864509 2.2140475 1.864509 3.5286487 0 1.2454116-.552442 2.2832391-1.657341 3.1135135-2.347912 1.8681174-5.265493 3.3902644-8.752833 4.5664865-3.487339 1.1762221-6.819252 1.7643243-9.995838 1.7643243-5.66261 0-10.738166-1.2280958-15.226821-3.6843243-4.488654-2.4562285-7.993205-5.863762-10.513757-10.2227027s-3.780809-9.3059183-3.780809-14.8410811 1.191202-10.4994375 3.573642-14.892973c2.382439-4.3935355 5.697088-7.8183661 9.944046-10.2745946s9.063557-3.6843243 14.449942-3.6843243c5.317329 0 9.909499 1.1762045 13.776647 3.5286486 3.867149 2.3524442 6.836522 5.6388979 8.908209 9.8594595 2.071686 4.2205617 3.107514 9.0637565 3.107514 14.5297297zm-25.894054-19.2778378c-5.050836 0-9.150255 1.3931833-12.298378 4.1795918-3.148124 2.7864085-5.137294 6.513174-5.967568 11.1804082h34.56c-.622706-4.6672342-2.352418-8.3939997-5.189189-11.1804082s-6.538356-4.1795918-11.104865-4.1795918z" fill="#fff" transform="translate(.6 28.8)"/><g transform="translate(429.4)"><path d="m1.53133176 78.0162091c1.42735045-4.3250671 3.82642459-6.0040578 7.19722243-5.0369721l-.42522983 18.6346991-7.53336528 5.4809327c-.49672356-7.6506104-.24293267-14.0101637.76137268-19.0786597z" fill="#fff"/><circle cx="80.4" cy="50.63999" fill="#fff" r="4.8"/><path d="m3.20118761 98.4589471c-.00066174-.0880874-.00118761-.529224-.00118761-.7438662 0-29.256165 30.6652173-49.7150809 70.8739313-49.7150809 2.0384018 0 4.0665239.0654176 6.0807588.1955141l.0024268 4.7898612c-33.6637239 2.2085462-54.6133631 19.3983058-54.6133631 44.7297056.0001578.362327.0004262.6392144.0008658.7111753l.0025593.4189091-.1395084.3950047c-1.670091 4.728705-5.6227204 7.15983-11.3012036 7.15983-5.74166181 0-9.58120336-2.509518-10.82962552-7.360977l-.07344003-.2853932z" fill="#83bc39" stroke="#fff" stroke-width="4.8"/><circle cx="105.6" cy="5.2" fill="#fff" r="4.8"/><path d="m8.13984042 64.7719854c11.63069348-38.0363297 46.68225548-62.3719854 88.82245578-62.3719854 2.7006378 0 5.3876218.12259535 8.0560618.36638809l.003411 4.77977781c-28.9001515 2.6819618-51.295592 17.373856-63.3051038 41.2480765l-.392143.7795578-.8012611.34564c-10.9101422 4.7063089-20.5270103 10.5605499-28.5317749 17.3811293l-6.25436459 5.329125z" fill="#8e42ff" stroke="#fff" stroke-width="4.8"/></g></g></svg>