<svg height="260" viewBox="0 0 480 260" width="480" xmlns="http://www.w3.org/2000/svg" xmlns:xlink="http://www.w3.org/1999/xlink"><defs><path id="a" d="m0 0h480v260h-480z"/><mask id="b" fill="#fff"><use fill="none" xlink:href="#a"/></mask></defs><g fill="none" fill-rule="evenodd"><use fill="#fff" xlink:href="#a"/><g mask="url(#b)" stroke="#efefef" stroke-width="2"><g transform="translate(-55.666667 -3.028743)"><path d="m1 91.010417h662.666667v1h-662.666667z"/><path d="m1 73.008334h662.666667v1h-662.666667z"/><path d="m1 55.00625h662.666667v1h-662.666667z"/><path d="m1 37.004167h662.666667v1h-662.666667z"/><path d="m1 19.002083h662.666667v1h-662.666667z"/><path d="m1 109.0125h662.666667v1h-662.666667z"/><path d="m1 127.014584h662.666667v1h-662.666667z"/><path d="m1 145.016667h662.666667v1h-662.666667z"/><path d="m1 163.018751h662.666667v1h-662.666667z"/><path d="m1 181.020834h662.666667v1h-662.666667z"/><path d="m1 199.022917h662.666667v1h-662.666667z"/><path d="m1 217.025001h662.666667v1h-662.666667z"/><path d="m1 235.027084h662.666667v1h-662.666667z"/><path d="m1 253.029168h662.666667v1h-662.666667z"/><path d="m182.378582 1h1v505.058683h-1z"/><path d="m200.423831 1h1v505.058683h-1z"/><path d="m218.46908 1h1v505.058683h-1z"/><path d="m236.514329 1h1v505.058683h-1z"/><path d="m254.559578 1h1v505.058683h-1z"/><path d="m272.604827 1h1v505.058683h-1z"/><path d="m72.378582 1h1v505.058683h-1z"/><path d="m90.423831 1h1v505.058683h-1z"/><path d="m108.46908 1h1v505.058683h-1z"/><path d="m126.514329 1h1v505.058683h-1z"/><path d="m144.559578 1h1v505.058683h-1z"/><path d="m162.604827 1h1v505.058683h-1z"/><path d="m290.650075 1h1v505.058683h-1z"/><path d="m308.695324 1h1v505.058683h-1z"/><path d="m326.740573 1h1v505.058683h-1z"/><path d="m344.785822 1h1v505.058683h-1z"/><path d="m362.831071 1h1v505.058683h-1z"/><path d="m380.87632 1h1v505.058683h-1z"/><path d="m398.921569 1h1v505.058683h-1z"/><path d="m416.966817 1h1v505.058683h-1z"/><path d="m435.012066 1h1v505.058683h-1z"/><path d="m453.057315 1h1v505.058683h-1z"/><path d="m471.102564 1h1v505.058683h-1z"/><path d="m471.102564 1h1v505.058683h-1z"/><path d="m489.147813 1h1v505.058683h-1z"/><path d="m507.193062 1h1v505.058683h-1z"/><path d="m525.238311 1h1v505.058683h-1z"/></g></g><g fill="#fff" mask="url(#b)" stroke="#e5e5e5" stroke-width="3"><path d="m80.0537303 63.9626168c10.5544003 0 18.8185709 1.5996866 24.7927597 4.7991077 5.974189 3.1994211 8.961239 7.1986375 8.961239 11.9977692 0 1.3997467-.099569 2.3995508-.298708 2.9994423-1.792257 6.3988422-5.77499 9.5982153-11.948318 9.5982153-.995698 0-2.4892233-.1999608-4.4806196-.5998885-7.9655851-1.3997467-14.437526-2.0996096-19.4160167-2.0996096-14.3380532 0-25.8879784 3.2993536-34.650122 9.8981598-8.7621437 6.598806-13.1431498 15.497062-13.1431498 26.695036v102.580927c-6.6379378 0-11.6164036 0-14.9353975 0-3.186234 0-8.16469982 0-14.9353974 0v-149.0722823c0-4.7991317 1.29438817-8.4984069 3.88320334-11.0979365 2.58881517-2.5995297 6.27284306-3.899275 11.05219406-3.899275 9.9569815 0 14.9353975 4.9990205 14.9353975 14.9972115v5.6989403c5.9741888-6.9987337 13.3422446-12.4976562 22.1043882-16.4969326 8.7621437-3.9992764 18.1215658-5.9988846 28.0785472-5.9988846zm186.9733967 82.5624652c0 3.785621-1.306425 6.923655-3.919313 9.414196-2.612889 2.49054-5.929198 3.735791-9.949027 3.735791h-114.564543c2.210906 13.947026 8.592288 25.2041 19.144338 33.771559s23.465556 12.851124 38.740905 12.851124c1.75305 0 25.860893-.005796 72.323529-.017387v25.719635c-46.292789 0-70.400632 0-72.323529 0-16.481298 0-31.253946-3.536514-44.318389-10.609649s-23.264606-16.885716-30.600793-29.43804c-7.336187-12.552323-11.004226-26.798-11.004226-42.737459 0-15.939458 3.46705-30.234945 10.401255-42.88689 6.934204-12.6519454 16.581648-22.5143373 28.942621-29.587472 12.360973-7.0731346 26.379916-10.6096489 42.057247-10.6096489 15.476341 0 28.84207 3.3870841 40.09759 10.1613539 11.255521 6.7742698 19.898023 16.2381812 25.927766 28.392018 6.029743 12.153837 9.044569 26.100654 9.044569 41.840869zm-73.991773-55.4596614c13.032702 0 23.596931 4.0315785 31.693003 12.0948564 8.096072 8.063278 13.032628 18.847751 14.809815 32.353742h-98.633365c2.369582-13.505991 8.046621-24.290464 17.031286-32.353742 8.984666-8.0632779 20.684303-12.0948564 35.099261-12.0948564zm157.016183-24.9345795c12.914098 0 24.486943 2.0920225 34.718881 6.2761304 10.231939 4.1841078 18.327963 9.9620747 24.288316 17.3340742 2.58282 3.1878917 3.87421 6.3757355 3.87421 9.5636272 0 3.3871351-1.688741 6.4753591-5.066274 9.2647641-2.185463 1.593946-4.966919 2.390907-8.344453 2.390907-5.165639 0-9.834511-1.892783-14.006758-5.678404-4.966961-4.582594-10.23186-7.8202483-15.794856-9.713059-5.562996-1.8928106-12.317961-2.8392018-20.265098-2.8392018-9.139207 0-16.639205 1.5441119-22.500219 4.6323819-5.861013 3.0882699-8.791476 7.4217449-8.791476 13.0005559 0 3.984864.993377 7.322138 2.980161 10.011922 1.986785 2.689784 5.761618 5.180287 11.324614 7.471584s13.609351 4.53275 24.139308 6.724425c21.655948 4.383351 37.003626 10.460178 46.043494 18.230664s13.559735 17.832119 13.559735 30.185199c0 9.165188-2.483443 17.483468-7.450404 24.955089s-12.268283 13.349209-21.904187 17.632938c-9.635903 4.283729-21.208748 6.425562-34.71888 6.425562-3.737092 0-31.515303 0-83.334635 0v-25.719635c52.590277-.785378 79.971134-1.178066 82.14257-1.178066 11.32467 0 20.116058-1.892783 26.374429-5.678404 6.25837-3.785621 9.387508-8.866248 9.387508-15.242031 0-6.17654-3.079469-11.306976-9.2385-15.391462-6.159031-4.084487-16.589492-7.521381-31.291695-10.310786-38.146258-7.371999-57.2191-23.111978-57.2191-47.220409 0-9.762918 2.880794-18.0313883 8.642468-24.8056581s13.311341-11.8548959 22.649227-15.2420308 19.271658-5.080677 29.801614-5.080677zm94.340546 15.464949c0-4.6496157 1.438079-8.389468 4.31428-11.2196689s6.496193-4.2452801 10.860084-4.2452801c4.56225 0 8.23183 1.4150792 11.008852 4.2452801s4.165512 6.5700532 4.165512 11.2196689v150.4042099c-7.074743 0-12.132864 0-15.174364 0-2.909261 0-7.967382 0-15.174364 0zm14.632422-81.5957901c5.173105 0 9.627656 1.86843218 13.363786 5.60535259 3.736131 3.73692041 5.604169 8.19241251 5.604169 13.36661001s-1.868038 9.6296896-5.604169 13.36661c-3.73613 3.7369205-8.190681 5.6053526-13.363786 5.6053526-5.173104 0-9.627655-1.8684321-13.363786-5.6053526-3.736131-3.7369204-5.604169-8.1924125-5.604169-13.36661s1.868038-9.6296896 5.604169-13.36661001 8.190682-5.60535259 13.363786-5.60535259zm138.444413 66.1308411c13.60671 0 25.832846 2.9994123 36.678775 8.9983269 10.845928 5.9989146 19.325345 14.7472005 25.438504 26.24512 6.11316 11.49792 9.169694 25.345206 9.169694 41.542276v89.083436c-7.164836 0-12.193378 0-15.085625 0-2.892248 0-7.920789 0-15.085625 0v-89.083436c0-16.19707-4.289007-28.44467-12.867151-36.743168-8.578143-8.2984988-19.966197-12.4476858-34.164503-12.4476858-8.282345 0-15.825082 1.699667-22.628437 5.0990519s-12.12764 7.9984839-15.973015 13.7974349c-3.845374 5.79895-5.768033 12.297677-5.768033 19.496375v99.881428c-7.03337 0-12.061911 0-15.085625 0-2.892247 0-7.920789 0-15.085624 0v-149.072282c0-4.5991679 1.429669-8.298443 4.28905-11.0979365s6.458203-4.1992192 10.796574-4.1992192c4.53557 0 8.183692 1.3997257 10.944473 4.1992192 2.760782 2.7994935 4.141152 6.4987686 4.141152 11.0979365v3.2993865c6.310359-6.3988422 13.803797-11.3478725 22.480539-14.8472394 8.676743-3.4993668 17.944943-5.249024 27.804877-5.249024zm183.617394 0c15.247879 0 29.059874 3.6361344 41.4364 10.9085123 12.376525 7.2723778 22.178586 17.2343899 29.406477 29.8863346 7.227891 12.651945 10.841782 26.748192 10.841782 42.289164v81.888558c-7.194836 0-12.244434 0-15.148791 0-2.904358 0-7.953955 0-15.148792 0v-26.299975c-6.930854 8.567459-15.346765 15.242007-25.247985 20.023845-9.90122 4.781837-20.594378 7.17272-32.079793 7.17272-14.257758 0-27.178656-3.586324-38.763084-10.759081-11.584428-7.172756-20.693414-17.084958-27.327231-29.736903-6.633818-12.651945-9.950677-26.748192-9.950677-42.289164s3.564386-29.637219 10.693265-42.289164c7.128878-12.6519447 16.980445-22.6139568 29.554994-29.8863346 12.57455-7.2723779 26.485556-10.9085123 41.733435-10.9085123zm1.083445 138.7663549c9.872037 0 18.806096-2.478978 26.802446-7.437009 7.996349-4.958031 14.264998-11.737278 18.806135-20.337944s6.811671-18.263622 6.811671-28.989159c0-10.725536-2.270534-20.439084-6.811671-29.140934-4.541137-8.701851-10.809786-15.531689-18.806135-20.4897201-7.99635-4.958031-16.930409-7.4370093-26.802446-7.4370093-9.872036 0-18.806095 2.4789783-26.802445 7.4370093-7.996349 4.9580311-14.314358 11.7878691-18.954215 20.4897201-4.639857 8.70185-6.959751 18.415398-6.959751 29.140934 0 10.725537 2.319894 20.388493 6.959751 28.989159s10.957866 15.379913 18.954215 20.337944c7.99635 4.958031 16.930409 7.437009 26.802445 7.437009zm183.914698-4.987517c3.533602 0 6.527303 1.39635 8.981194 4.189093 2.45389 2.792743 3.680817 6.383359 3.680817 10.771955s-1.619544 7.979212-4.858679 10.771955-7.410686 4.189094-12.514778 4.189094h-5.300376c-9.61925 0-18.404045-2.543353-26.35465-7.630135-7.950604-5.086782-14.183392-12.018665-18.69855-20.795857-4.515158-8.777193-6.772703-18.651386-6.772703-29.622876v-73.9075791h-13.545407c-4.122535 0-7.459776-1.1968719-10.011822-3.5906516s-3.82805-5.3859595-3.82805-8.976629c0-3.9896329 1.276004-7.1812913 3.82805-9.575071s5.889287-3.5906516 10.011822-3.5906516h13.545407v-43.0878194c0-4.3885961 1.374158-7.9792118 4.122515-10.7719548s6.281906-4.1890936 10.600753-4.1890936 7.852396 1.3963506 10.600753 4.1890936 4.122515 6.3833587 4.122515 10.7719548v43.0878194h25.029555c4.122536 0 7.459777 1.1968719 10.011822 3.5906516 2.552046 2.3937797 3.82805 5.5854381 3.82805 9.575071 0 3.5906695-1.276004 6.5828493-3.82805 8.976629-2.552045 2.3937797-5.889286 3.5906516-10.011822 3.5906516h-25.029555v73.9075791c0 7.979266 2.159391 14.6618 6.478238 20.047805 4.318846 5.386004 9.61917 8.078966 15.901129 8.078966zm183.915545-53.384597c0 3.785621-1.2941 6.923655-3.88235 9.414196-2.58824 2.49054-5.87327 3.735791-9.85519 3.735791h-113.48403c2.19006 13.947026 8.51125 25.2041 18.96378 33.771559s23.24424 12.851124 38.37552 12.851124c5.97287 0 12.19452-1.095821 18.66514-3.287497 6.47061-2.191675 11.79634-4.881419 15.97735-8.06931 2.78734-2.191676 6.07238-3.287497 9.8552-3.287497s6.76921.996201 8.95926 2.988633c3.58372 2.988649 5.37556 6.375733 5.37556 10.161354 0 3.586378-1.59274 6.574982-4.77828 8.965901-6.76925 5.379567-15.18092 9.762852-25.23526 13.149987s-19.66056 5.080677-28.81897 5.080677c-16.32585 0-30.95917-3.536514-43.9004-10.609649-12.94122-7.073135-23.04518-16.885716-30.31218-29.43804-7.266994-12.552323-10.900437-26.798-10.900437-42.737459 0-15.939458 3.43435-30.234945 10.303157-42.88689 6.8688-12.6519454 16.42526-22.5143373 28.66965-29.587472 12.24439-7.0731346 26.13111-10.6096489 41.66058-10.6096489 15.33037 0 28.57004 3.3870841 39.71941 10.1613539 11.14936 6.7742698 19.71035 16.2381812 25.68322 28.392018 5.97288 12.153837 8.95927 26.100654 8.95927 41.840869zm-75.76766-55.4596614c-14.41496 0-26.1146 4.0315785-35.09926 12.0948564-8.98467 8.063278-14.66171 18.847751-17.03129 32.353742h98.63337c-1.77719-13.505991-6.71375-24.290464-14.80982-32.353742-8.09607-8.0632779-18.6603-12.0948564-31.693-12.0948564z" transform="translate(-155 -2)"/></g></g></svg>