<svg height="512" viewBox="0 0 540 512" width="540" xmlns="http://www.w3.org/2000/svg"><g fill="#fff" fill-rule="evenodd" transform=""><path d="m95.98 46c0-11.200056-1.5399846-19.3199748-4.62-24.36s-7.2799734-7.56-12.6-7.56-10.3599762 2.3399766-15.12 7.02-8.4799866 10.5799644-11.16 17.7-4.02 14.3199636-4.02 21.6c0 10.00005 1.6599834 18.199968 4.98 24.6s8.3399664 9.6 15.06 9.6c5.600028 0 10.5399786-2.4599754 14.82-7.38s7.4599896-11.0199636 9.54-18.3 3.12-14.91996 3.12-22.92zm2.16 43.92c-3.600018 3.9200196-8.099973 7.079988-13.5 9.48s-11.299968 3.6-17.7 3.6-12.0199758-1.439986-16.86-4.32c-4.8400242-2.8800144-8.6999856-6.719976-11.58-11.52-5.7600288-9.600048-8.64-20.799936-8.64-33.6s3.1799682-24.19995 9.54-34.2 14.8599468-16.3199868 25.5-18.96c.6400032.1600008 1.259997.4799976 1.86.96s.9399996.9999972 1.02 1.56c-10.3200516 7.5200376-16.5599892 17.7599352-18.72 30.72 3.3600168-9.4400472 8.4199662-16.8199734 15.18-22.14s14.0199612-7.98 21.78-7.98 14.379973 3.3399666 19.86 10.02 8.22 16.3399368 8.22 28.98c0 12.400062-2.319977 23.5599504-6.96 33.48-2.400012 5.2800264-5.399982 9.91998-9 13.92zm48-28.92c2.880014-10.400052 6.33998-18.0599754 10.38-22.98s7.799983-7.38 11.28-7.38 6.099991 1.299987 7.86 3.9 2.64 5.9599794 2.64 10.08-1.219988 7.8999828-3.66 11.34-5.779979 5.16-10.02 5.16c-1.120006 0-2.439992-.3199968-3.96-.96 2.480012-3.1200156 3.72-6.879978 3.72-11.28 0-2.5600128-1.03999-3.84-3.12-3.84-1.520008 0-3.159991 1.0599894-4.92 3.18s-3.439992 5.0399814-5.04 8.76-2.939995 8.479971-4.02 14.28-1.62 11.9799672-1.62 18.54c0 .800004.199998 4.19997.6 10.2-2.560013.160001-4.199996.24-4.92.24-4.560023 0-7.83999-.799992-9.84-2.4s-3-4.2399816-3-7.92c0-1.600008.839992-7.7599464 2.52-18.48s2.52-19.2599682 2.52-25.62-.679993-12.2199732-2.04-17.58c5.840029 1.8400092 9.919988 4.459983 12.24 7.86s3.48 7.3599774 3.48 11.88-.359996 8.8599792-1.08 13.02zm74.04-29.04c1.520008 0 2.679996.0799992 3.48.24 2.08001.400002 3.199999 1.8799872 3.36 4.44-8.720044 1.8400092-15.659974 6.559962-20.82 14.16s-7.74 15.5199588-7.74 23.76c0 9.600048 2.919971 14.4 8.76 14.4 3.520018 0 6.679986-1.9199808 9.48-5.76 4.960025-6.9600348 8.43999-17.839926 10.44-32.64 1.520008-11.6800584 4.359979-19.1999832 8.52-22.56 2.00001-1.6800084 4.479985-2.9999952 7.44-3.96-1.120006 8.4800424-1.68 14.8799784-1.68 19.2 0 32.00016-3.419966 56.0399196-10.26 72.12-6.840034 16.08008-17.979923 24.12-33.42 24.12-6.240031 0-11.119982-1.659983-14.64-4.98s-5.28-6.95998-5.28-10.92 1.239988-7.199987 3.72-9.72 5.959978-3.78 10.44-3.78c1.840009 0 3.71999.399996 5.64 1.2-3.040015 2.00001-4.56 5.079979-4.56 9.24 0 2.800014.839992 5.21999 2.52 7.26s3.739988 3.06 6.18 3.06 4.579991-.499995 6.42-1.5 3.71999-2.779987 5.64-5.34 3.599993-5.759981 5.04-9.6c3.280016-8.880044 5.079998-20.9999232 5.4-36.36-2.320012 6.8800344-5.839976 12.3999792-10.56 16.56s-9.519976 6.24-14.4 6.24c-6.160031 0-10.859984-2.3399766-14.1-7.02s-4.86-10.6599636-4.86-17.94c0-8.4800424 2.03998-16.3599636 6.12-23.64 4.560023-8.400042 10.87996-14.2399836 18.96-17.52 4.480022-1.8400092 9.399973-2.76 14.76-2.76zm52.08 45.36c0 3.7600188.699993 6.8199882 2.1 9.18s3.379987 3.54 5.94 3.54c3.760019 0 7.339983-2.199978 10.74-6.6s6.11999-10.0399656 8.16-16.92 3.06-13.419969 3.06-19.62-.239998-11.2199808-.72-15.06c2.400012-.1600008 4.079995-.24 5.04-.24 4.08002 0 7.15999.7599924 9.24 2.28s3.12 4.2399804 3.12 8.16c0 1.5200076-.95999 7.6999458-2.88 18.54s-2.88 19.5199674-2.88 26.04 1.239988 12.2999748 3.72 17.34c-6.00003-1.040005-10.399986-3.259983-13.2-6.66s-4.2-8.299968-4.2-14.7c0-1.1200056.159998-3.279984.48-6.48-2.160011 7.600038-5.999972 13.7199768-11.52 18.36s-10.939973 6.96-16.26 6.96-9.599984-1.9799802-12.84-5.94-4.86-9.5799636-4.86-16.86 1.299987-14.3399658 3.9-21.18 6.499974-12.6399762 11.7-17.4 10.999968-7.14 17.4-7.14c3.680018 0 7.439981.8799912 11.28 2.64-8.08004 2.8800144-14.519976 8.5399578-19.32 16.98s-7.2 16.6999596-7.2 24.78zm107.64-46.56c4.720024 0 8.09999 1.4599854 10.14 4.38s3.06 6.879975 3.06 11.88-.779992 12.0199548-2.34 21.06-2.34 15.6199794-2.34 19.74.519995 7.1199906 1.56 9 2.799988 3.499993 5.28 4.86c-1.040005.08-2.51999.12-4.44.12-6.720034 0-11.499986-1.03999-14.34-3.12-2.840014-2.0800104-4.26-5.719974-4.26-10.92 0-2.9600148.799992-8.739957 2.4-17.34s2.4-15.0199788 2.4-19.26c0-5.2800264-1.599984-7.92-4.8-7.92-1.840009 0-3.919988 1.0799892-6.24 3.24s-4.559989 5.0999814-6.72 8.82-3.959993 8.4999708-5.4 14.34-2.16 11.659971-2.16 17.46.239998 10.099986.72 12.9c-2.560013.160001-4.239996.24-5.04.24-4.560023 0-7.83999-.799992-9.84-2.4s-3-4.2399816-3-7.92c0-1.600008.839992-7.7599464 2.52-18.48s2.52-19.2599682 2.52-25.62-.679993-12.2199732-2.04-17.58c5.840029 1.8400092 9.919988 4.459983 12.24 7.86s3.48 7.2799782 3.48 11.64-.479995 9.4199712-1.44 15.18c2.640013-8.9600448 6.799972-16.5599688 12.48-22.8s10.879976-9.36 15.6-9.36zm52.2 9.6c0 1.200006-.97999 7.499943-2.94 18.9s-2.96 20.799963-3 28.2.419995 12.1799892 1.38 14.34c-6.240031-1.600008-10.439989-4.0199838-12.6-7.26s-3.24-7.9799688-3.24-14.22c0-3.3600168.639994-9.439956 1.92-18.24s1.92-15.6399756 1.92-20.52-.239998-8.6399868-.72-11.28c1.760009-.1600008 3.399992-.24 4.92-.24 4.640023 0 7.859991.7799922 9.66 2.34s2.7 4.2199812 2.7 7.98zm1.8-20.88c-2.240011.3200016-4.199992.48-5.88.48-8.240041 0-12.36-2.8799712-12.36-8.64 0-2.0800104.599994-4.919982 1.8-8.52 2.240011-.3200016 4.199992-.48 5.88-.48 8.240041 0 12.36 2.8799712 12.36 8.64 0 2.0800104-.599994 4.919982-1.8 8.52zm29.04 53.4c0 13.3600668 3.919961 20.04 11.76 20.04 3.040015 0 6.119984-1.0399896 9.24-3.12s5.839988-4.9599816 8.16-8.64c2.880014.6400032 4.32 2.1199884 4.32 4.44-3.360017 5.8400292-7.479976 9.9999876-12.36 12.48-4.880024 2.480012-9.759976 3.72-14.64 3.72-6.560033 0-12.139977-2.4199758-16.74-7.26s-6.9-11.859954-6.9-21.06c0-11.7600588 3.239968-21.8199582 9.72-30.18s15.239945-12.54 26.28-12.54c6.160031 0 10.799984 1.499985 13.92 4.5s4.68 6.5599794 4.68 10.68-1.259987 7.6999848-3.78 10.74-5.73998 4.56-9.66 4.56c-1.92001 0-3.83999-.399996-5.76-1.2 1.200006-1.3600068 2.319995-3.4999854 3.36-6.42s1.56-5.6199876 1.56-8.1c0-4.8800244-2.119979-7.32-6.36-7.32-4.960025 0-8.999984 3.6399636-12.12 10.92s-4.68 15.1999572-4.68 23.76zm63.24 27.24c-2.800014.800004-5.639986 1.2-8.52 1.2-5.92003 0-8.88-2.4799752-8.88-7.44 0-1.600008.719993-4.999974 2.16-10.2 2.800014-.800004 5.639986-1.2 8.52-1.2 5.92003 0 8.88 2.4799752 8.88 7.44 0 1.600008-.719993 4.999974-2.16 10.2z"/><path d="m101.88 224.68h-20.64v-9.36h-7.68v54h8.4v19.68h-50.4v-19.68h8.4v-54h-7.68v9.36h-20.64v-29.04h90.24zm55.08-4.08c1.600008 0 3.119993.159998 4.56.48s2.639995.719998 3.6 1.2v22.92c-3.280016-1.360007-6.799981-2.04-10.56-2.04-5.040025 0-8.919986 1.319987-11.64 3.96s-4.08 6.559974-4.08 11.76v10.44h10.8v19.68h-43.68v-19.68h5.28v-27.36h-5.28v-19.68h32.88v8.76c2.240011-3.360017 4.799986-5.939991 7.68-7.74s6.35998-2.7 10.44-2.7zm90.96 48.72v19.68h-32.88v-9.36c-5.760029 7.360037-12.959957 11.04-21.6 11.04-6.640033 0-11.619983-2.079979-14.94-6.24s-4.98-9.879964-4.98-17.16v-25.32h-5.28v-19.68h32.88v39.36c0 2.640013.579994 4.579994 1.74 5.82s2.899988 1.86 5.22 1.86 4.059994-.619994 5.22-1.86 1.74-3.179987 1.74-5.82v-19.68h-6.48v-19.68h34.08v47.04zm32.52 21.36c-10.08005 0-19.799953-1.599984-29.16-4.8v-17.76h19.44v1.2c0 3.840019 2.439976 5.76 7.32 5.76 4.320022 0 6.48-1.479985 6.48-4.44 0-1.600008-.619994-2.799996-1.86-3.6s-3.419984-1.479997-6.54-2.04l-6-1.08c-12.560063-2.240011-18.84-9.35994-18.84-21.36 0-6.960035 2.639974-12.359981 7.92-16.2s12.399955-5.76 21.36-5.76c10.00005 0 18.439966 1.679983 25.32 5.04v16.68h-18.24v-1.2c0-1.600008-.539995-2.819996-1.62-3.66s-2.65999-1.26-4.74-1.26c-4.00002 0-6 1.279987-6 3.84 0 1.360007.559994 2.399996 1.68 3.12s3.159985 1.399997 6.12 2.04l6.84 1.32c7.120036 1.360007 12.199985 3.879982 15.24 7.56s4.56 8.399971 4.56 14.16c0 7.280036-2.539975 12.839981-7.62 16.68s-12.299953 5.76-21.66 5.76zm62.76 0c-8.480042 0-14.859979-2.059979-19.14-6.18s-6.42-11.059951-6.42-20.82v-21.72h-5.28v-19.68c3.040015 0 5.319992-.779992 6.84-2.34s2.28-3.699986 2.28-6.42v-5.4h25.44v14.16h16.2v19.68h-16.2v19.68c0 2.640013.579994 4.579994 1.74 5.82s2.899988 1.86 5.22 1.86c3.040015 0 6.359982-.359996 9.96-1.08v18.84c-2.240011.880004-5.259981 1.699996-9.06 2.46s-7.65998 1.14-11.58 1.14zm60.24 0c-11.360057 0-20.239968-2.97997-26.64-8.94s-9.6-14.659943-9.6-26.1 3.199968-20.13997 9.6-26.1 15.279943-8.94 26.64-8.94c11.280056 0 19.419975 2.939971 24.42 8.82s7.5 13.179956 7.5 21.9v8.64h-38.88v.72c0 2.960015.879991 5.139993 2.64 6.54s4.67998 2.1 8.76 2.1c4.880024 0 9.519978-.359996 13.92-1.08s8.239984-1.639994 11.52-2.76v19.2c-2.800014 1.520008-6.899973 2.899994-12.3 4.14s-11.259968 1.86-17.58 1.86zm6.96-43.92v-1.44c0-2.720014-.579994-4.679994-1.74-5.88s-2.899988-1.8-5.22-1.8-4.059994.619994-5.22 1.86-1.74 3.179987-1.74 5.82v1.44zm52.2 43.92c-8.160041 0-14.299979-3.03997-18.42-9.12s-6.18-14.719944-6.18-25.92 2.059979-19.83997 6.18-25.92 10.259959-9.12 18.42-9.12c4.08002 0 7.699984.99999 10.86 3s5.73999 4.279987 7.74 6.84v-15.12h-7.08v-19.68h34.68v73.68h5.28v19.68h-32.88v-8.16c-2.00001 2.560013-4.579984 4.83999-7.74 6.84s-6.77998 3-10.86 3zm11.64-21.36c2.320012 0 4.059994-.619994 5.22-1.86s1.74-3.179987 1.74-5.82v-12c0-2.640013-.579994-4.579994-1.74-5.82s-2.899988-1.86-5.22-1.86-4.059994.619994-5.22 1.86-1.74 3.179987-1.74 5.82v12c0 2.640013.579994 4.579994 1.74 5.82s2.899988 1.86 5.22 1.86zm46.32 19.68v-19.68h18.72v19.68z"/><path d="m76.808 375.816c-3.8400192 0-7.0186541 2.581308-9.536 7.744s-4.5653254 11.861292-6.144 20.096-3.1999917 16.746623-4.864 25.536-4.1599834 17.514623-7.488 26.176-7.3813094 15.338643-12.16 20.032c2.9866816 1.194673 7.4239706 3.007988 13.312 5.44s10.5813158 4.33066 14.08 5.696c9.6427149 3.754685 16.8533094 5.632 21.632 5.632 4.6933568 0 8.277321-1.493318 10.752-4.48.5973363-.768004 1.066665-1.621329 1.408-2.56 1.3653402 0 2.048 1.02399 2.048 3.072 0 3.498684-1.599984 6.293323-4.8 8.384s-6.8053133 3.136-10.816 3.136-8.5333082-.789325-13.568-2.368-9.0879846-3.05066-12.16-4.416-7.9146336-3.775983-14.528-7.232-10.7306586-5.567996-12.352-6.336c-4.6933568 3.072015-10.3892998 4.608-17.088 4.608-6.69870016 0-11.07198976-1.877315-13.12-5.632-.59733632-1.024005-.896-2.15466-.896-3.392s.81065856-2.602659 2.432-4.096 4.47997952-2.24 8.576-2.24c4.0960205 0 10.5386227 1.578651 19.328 4.736 6.8267008-7.680038 12.2879795-23.381215 16.384-47.104 1.5360077-9.216046 3.2426573-18.154623 5.12-26.816s4.586649-15.743972 8.128-21.248 8.0426394-8.256 13.504-8.256c2.3893453 0 4.2026605.597327 5.44 1.792s1.856 2.389327 1.856 3.584l.128 1.792c-.8533376-.853338-2.3893222-1.28-4.608-1.28zm7.68 27.392c0 .341335-.362663.554666-1.088.64s-1.4719962-.042665-2.24-.384-1.152-.810664-1.152-1.408c0-8.704044.9813235-15.72264 2.944-21.056s4.5653171-8 7.808-8c.8533376 0 1.5786637.298664 2.176.896s.896 1.407995.896 2.432c-3.925353 3.925353-6.6986586 9.642629-8.32 17.152-.6826701 3.072015-1.024 6.31465-1.024 9.728zm-80.384 72.448c0 1.536008 1.08798912 2.751996 3.264 3.648s5.0559821 1.344 8.64 1.344 7.1679821-1.237321 10.752-3.712c-7.5093709-3.41335-13.397312-5.12-17.664-5.12-2.64534656 0-4.26666368.938657-4.864 2.816-.08533376.341335-.128.682665-.128 1.024zm81.92-17.536c0-12.629396 1.3013203-23.893284 3.904-33.792s5.9093133-14.848 9.92-14.848c1.962676 0 2.944 1.066656 2.944 3.2-.853338 2.218678-1.919994 5.162648-3.2 8.832-1.2800064 3.669352-2.9653229 10.303952-5.056 19.904s-3.136 18.154629-3.136 25.664c0 1.194673-.6399936 1.792-1.92 1.792-2.3040115 0-3.456-3.583964-3.456-10.752zm17.152-60.672c-1.792009 0-2.688-1.70665-2.688-5.12 0-2.04801.554661-4.202655 1.664-6.464s2.68799-3.392 4.736-3.392c1.706675 0 2.56.981324 2.56 2.944s-1.578651 5.247977-4.736 9.856zm31.872 59.776c0 5.120026 1.36532 7.68 4.096 7.68 3.498684 0 7.338646-4.693286 11.52-14.08 4.864024-10.752054 7.296-20.821286 7.296-30.208 0-6.400032-1.663983-9.6-4.992-9.6s-7.061313 2.709306-11.2 8.128-7.743985 11.498633-10.816 18.24-5.695989 12.821306-7.872 18.24-3.264 8.426664-3.264 9.024c0 1.280006-.639994 1.92-1.92 1.92-2.560013 0-3.84-3.413299-3.84-10.24 0-13.568068 1.36532-27.199932 4.096-40.896s5.973315-24.661292 9.728-32.896 7.253317-12.352 10.496-12.352c1.36534 0 2.048.68266 2.048 2.048-4.522689 9.98405-8.42665 21.973263-11.712 35.968s-5.738659 27.263937-7.36 39.808h.896c3.925353-9.98405 8.405308-18.94396 13.44-26.88 2.816014-4.437356 5.823984-7.95732 9.024-10.56s6.293318-3.904 9.28-3.904c6.058697 0 9.813326 3.925294 11.264 11.776.512003 2.304012.768 4.735987.768 7.296 0 6.314698-1.36532 13.183963-4.096 20.608-3.840019 10.581386-8.874636 17.535983-15.104 20.864-2.133344 1.194673-4.351988 1.792-6.656 1.792-5.802696 0-8.704-3.839962-8.704-11.52 0-4.09602 1.130655-8.81064 3.392-14.144s5.226648-9.279987 8.896-11.84c.768004-.426669 1.407997-.256004 1.92.512.085334.426669.042668.725332-.128.896-3.242683 2.560013-5.802657 6.314642-7.68 11.264s-2.816 9.301315-2.816 13.056zm73.216-50.304c6.485366 0 9.728 3.797295 9.728 11.392 0 4.352022-1.450652 8.917309-4.352 13.696-4.949358 7.93604-11.519959 11.904-19.712 11.904-1.280006 0-2.346662-.213331-3.2-.64s-1.493331-1.066662-1.92-1.92c6.058697 0 11.605308-3.498632 16.64-10.496 4.09602-5.632028 6.144-10.794643 6.144-15.488 0-3.498684-1.407986-5.248-4.224-5.248-5.632028 0-10.879976 4.394623-15.744 13.184-5.205359 9.557381-7.808 19.370616-7.808 29.44 0 8.533376 2.431976 13.653325 7.296 15.36.938671.341335 2.133326.512 3.584.512s2.986659-.362663 4.608-1.088 2.986661-1.599995 4.096-2.624c2.218678-2.04801 4.053326-4.309321 5.504-6.784.341335-.68267.981329-1.024 1.92-1.024 1.536008 0 2.261334.255997 2.176.768-.256001.938671-1.215992 2.517322-2.88 4.736s-3.199993 3.989327-4.608 5.312-3.242655 2.517328-5.504 3.584-4.543988 1.6-6.848 1.6c-9.045379 0-14.805321-4.266624-17.28-12.8-.768004-2.901348-1.152-5.887985-1.152-8.96 0-5.717362 1.322653-11.946633 3.968-18.688 4.181354-10.240051 9.941297-17.621311 17.28-22.144 4.010687-2.389345 8.106646-3.584 12.288-3.584zm56.96 25.344c-3.242683 0-4.864-3.541298-4.864-10.624 0-4.010687.767992-7.765316 2.304-11.264-5.802696 5.034692-12.287964 14.399932-19.456 28.096s-10.752 22.634646-10.752 26.816c0 1.024005-.68266 1.536-2.048 1.536-2.474679 0-3.712-3.370633-3.712-10.112 0-12.71473 1.279987-24.234615 3.84-34.56s5.674648-15.488 9.344-15.488c1.621341 0 2.432.938657 2.432 2.816-3.925353 12.458729-6.741325 25.215935-8.448 38.272h.896c6.912035-15.957413 14.549292-28.415955 22.912-37.376 4.778691-5.120026 9.130647-7.68 13.056-7.68.853338 0 1.557331.255997 2.112.768s.832 1.151996.832 1.92c-.597336.597336-1.322662 1.493327-2.176 2.688s-2.005326 4.031978-3.456 8.512-2.176 9.365307-2.176 14.656c0 .68267-.213331 1.024-.64 1.024zm19.072 36.736c-6.997368 0-10.496-5.503945-10.496-16.512 0-6.5707 1.621317-13.781294 4.864-21.632 4.522689-11.008055 10.453297-18.517313 17.792-22.528 3.157349-1.706675 6.10132-2.56 8.832-2.56s4.885325.597327 6.464 1.792 2.581331 2.389327 3.008 3.584l.768 1.664c-.256001 1.450674-.981327 2.176-2.176 2.176-1.36534 0-2.154666-.319997-2.368-.96s-.447999-1.194664-.704-1.664-.853329-1.109329-1.792-1.92-2.005327-1.216-3.2-1.216c-5.546694 0-10.581311 4.99195-15.104 14.976-5.120026 11.520058-7.68 22.357283-7.68 32.512 0 5.120026 1.02399 7.68 3.072 7.68 1.621341 0 3.903985-1.813315 6.848-5.44s6.037317-8.170639 9.28-13.632c5.632028-9.386714 10.197316-17.535965 13.696-24.448 2.901348-6.144031 5.887985-9.216 8.96-9.216 1.621341 0 2.432.981324 2.432 2.944-.768004 1.621341-1.749327 3.925318-2.944 6.912s-2.773324 8.917289-4.736 17.792-2.944 17.706623-2.944 26.496 1.322653 13.184 3.968 13.184c1.024005 0 1.962662-.447996 2.816-1.344s1.62133-2.239991 2.304-4.032c.256001-.938671.853329-1.408 1.792-1.408.341335 0 .597332.127999.768.384s.170668.682664 0 1.28-.469331 1.429328-.896 2.496-1.343993 2.495991-2.752 4.288-2.879992 2.688-4.416 2.688c-3.584018 0-6.33599-2.346643-8.256-7.04s-2.88-10.239968-2.88-16.64.469329-12.543971 1.408-18.432h-1.28c-10.837388 18.517426-18.986639 27.776-24.448 27.776zm57.984-55.424c-3.328017 0-4.992-1.36532-4.992-4.096 0-1.024005.426662-1.663999 1.28-1.92.085334-.085334.213332-.128.384-.128.512003.597336 1.471993.896 2.88.896s3.647985-.085332 6.72-.256c4.010687-10.837388 7.850648-16.256 11.52-16.256 1.450674 0 2.176.810659 2.176 2.432-1.36534 3.41335-2.901325 7.807973-4.608 13.184 8.448042-.938671 13.951987-1.408 16.512-1.408.68267 0 1.024.34133 1.024 1.024 0 1.36534-.895991 2.048-2.688 2.048-.938671 0-6.357284.895991-16.256 2.688-6.741367 21.33344-10.112 38.613267-10.112 51.84s2.645307 19.84 7.936 19.84c2.133344 0 4.138657-.917324 6.016-2.752s3.199996-3.647991 3.968-5.44c.341335-.938671 1.066661-1.194669 2.176-.768.512003.170668.682668.426665.512.768-.512003 1.109339-1.151996 2.389326-1.92 3.84s-2.261322 3.242656-4.48 5.376-4.479988 3.2-6.784 3.2c-10.154717 0-15.232-8.831912-15.232-26.496 0-14.933408 2.773306-30.890582 8.32-47.872-1.194673.170668-2.645325.256-4.352.256zm32.768 44.544c0-12.629396 1.30132-23.893284 3.904-33.792s5.909313-14.848 9.92-14.848c1.962676 0 2.944 1.066656 2.944 3.2-.853338 2.218678-1.919994 5.162648-3.2 8.832s-2.965323 10.303952-5.056 19.904-3.136 18.154629-3.136 25.664c0 1.194673-.639994 1.792-1.92 1.792-2.304012 0-3.456-3.583964-3.456-10.752zm17.152-60.672c-1.792009 0-2.688-1.70665-2.688-5.12 0-2.04801.554661-4.202655 1.664-6.464s2.68799-3.392 4.736-3.392c1.706675 0 2.56.981324 2.56 2.944s-1.578651 5.247977-4.736 9.856zm17.28 50.816c11.008055-27.221469 21.717281-40.832 32.128-40.832 4.352022 0 6.528 2.090646 6.528 6.272-.597336 1.962676-1.365329 4.543984-2.304 7.744s-2.197325 8.938625-3.776 17.216-2.368 15.530636-2.368 21.76c0 9.045379 1.322653 13.568 3.968 13.568 1.024005 0 2.005329-.405329 2.944-1.216s1.578665-1.216 1.92-1.216c1.194673 0 1.194673.938657 0 2.816-.426669.597336-1.215994 1.407995-2.368 2.432s-2.325327 1.536-3.52 1.536c-3.242683 0-5.781324-2.32531-7.616-6.976s-2.752-10.687963-2.752-18.112c0-11.776059 1.834648-24.70393 5.504-38.784.341335-1.109339.000005-1.664-1.024-1.664-.68267 0-1.450662.34133-2.304 1.024-4.09602 3.584018-8.405311 9.514625-12.928 17.792s-8.063987 15.679967-10.624 22.208-3.84 10.325328-3.84 11.392-.597327 1.6-1.792 1.6c-2.73068 0-4.096-3.370633-4.096-10.112 0-12.71473 1.30132-24.234615 3.904-34.56s5.738648-15.488 9.408-15.488c1.536008 0 2.304.938657 2.304 2.816-3.925353 12.71473-6.741325 25.642601-8.448 38.784zm58.368 20.736c-6.997368 0-10.496-5.503945-10.496-16.512 0-6.5707 1.621317-13.781294 4.864-21.632 4.522689-11.008055 10.453297-18.517313 17.792-22.528 3.157349-1.706675 6.10132-2.56 8.832-2.56s4.885325.597327 6.464 1.792 2.581331 2.389327 3.008 3.584l.768 1.664c-.256001 1.450674-.981327 2.176-2.176 2.176-1.36534 0-2.154666-.319997-2.368-.96s-.447999-1.194664-.704-1.664-.853329-1.109329-1.792-1.92-2.005327-1.216-3.2-1.216c-5.546694 0-10.581311 4.99195-15.104 14.976-5.120026 11.520058-7.68 22.357283-7.68 32.512 0 5.120026 1.02399 7.68 3.072 7.68 2.816014 0 7.359969-4.927951 13.632-14.784s11.925308-19.946615 16.96-30.272c2.560013-5.205359 5.247986-7.808 8.064-7.808 1.792009 0 2.688 1.02399 2.688 3.072-.341335.597336-.85333 1.57866-1.536 2.944s-1.919991 5.269301-3.712 11.712-3.413326 13.823958-4.864 22.144-2.687995 14.826643-3.712 19.52c6.485366 1.109339 10.239995 3.925311 11.264 8.448.170668.768004.256 1.813327.256 3.136s-.511995 2.474662-1.536 3.456-1.919996 1.472-2.688 1.472c.170668-.597336.213334-1.642659.128-3.136s-.362664-2.751995-.832-3.776-1.343994-2.090661-2.624-3.2-2.94399-1.919997-4.992-2.432c-2.645347 10.410719-6.442642 18.986633-11.392 25.728-5.632028 7.594705-13.226619 11.392-22.784 11.392-6.997368 0-11.647988-2.474642-13.952-7.424-.085334-.256001-.128-.469332-.128-.64 0-.512003.469329-.874666 1.408-1.088s1.578665.106662 1.92.96c1.536008 3.498684 5.119972 5.248 10.752 5.248 7.680038 0 13.653312-3.62663 17.92-10.88 3.840019-6.400032 6.78399-14.378619 8.832-23.936-15.360077.341335-27.221292 6.229276-35.584 17.664-.512003.768004-1.322661.896003-2.432.384-.597336-.341335-.768001-.767997-.512-1.28 3.669352-5.546694 8.7893-10.261314 15.36-14.144s14.549286-5.994665 23.936-6.336c.938671-4.266688 1.770663-8.767976 2.496-13.504s1.343997-8.46932 1.856-11.2.853332-4.693327 1.024-5.888h-1.408c-11.264056 19.370764-19.626639 29.056-25.088 29.056zm58.24.896c-1.792009 0-2.688-1.663983-2.688-4.992 0-2.04801.554661-4.223988 1.664-6.528s2.68799-3.456 4.736-3.456c1.706675 0 2.56.981324 2.56 2.944s-1.578651 5.247977-4.736 9.856z"/></g></svg>