<?xml version="1.0" encoding="UTF-8"?>
<svg width="540px" height="512px" viewBox="0 0 540 512" version="1.1" xmlns="http://www.w3.org/2000/svg" xmlns:xlink="http://www.w3.org/1999/xlink">
    <!-- Generator: Sketch 50.2 (55047) - http://www.bohemiancoding.com/sketch -->
    <title>values-text</title>
    <desc>Created with Sketch.</desc>
    <defs></defs>
    <g id="Brand-Page" stroke="none" stroke-width="1" fill="none" fill-rule="evenodd">
        <g id="Resinate-Brand-Page" transform="translate(-442.000000, -5157.000000)" fill="#FFFFFF">
            <g id="Values" transform="translate(-1.000000, 5033.000000)">
                <g id="values-text" transform="translate(443.000000, 124.000000)">
                    <path d="M95.98,46 C95.98,34.799944 94.4400154,26.6800252 91.36,21.64 C88.2799846,16.5999748 84.0800266,14.08 78.76,14.08 C73.4399734,14.08 68.4000238,16.4199766 63.64,21.1 C58.8799762,25.7800234 55.1600134,31.6799644 52.48,38.8 C49.7999866,45.9200356 48.46,53.1199636 48.46,60.4 C48.46,70.40005 50.1199834,78.599968 53.44,85 C56.7600166,91.400032 61.7799664,94.6 68.5,94.6 C74.100028,94.6 79.0399786,92.1400246 83.32,87.22 C87.6000214,82.2999754 90.7799896,76.2000364 92.86,68.92 C94.9400104,61.6399636 95.98,54.00004 95.98,46 Z M98.14,89.92 C94.539982,93.8400196 90.040027,96.999988 84.64,99.4 C79.239973,101.800012 73.340032,103 66.94,103 C60.539968,103 54.9200242,101.560014 50.08,98.68 C45.2399758,95.7999856 41.3800144,91.960024 38.5,87.16 C32.7399712,77.559952 29.86,66.360064 29.86,53.56 C29.86,40.759936 33.0399682,29.36005 39.4,19.36 C45.7600318,9.35995 54.2599468,3.0400132 64.9,0.4 C65.5400032,0.5600008 66.159997,0.8799976 66.76,1.36 C67.360003,1.8400024 67.6999996,2.3599972 67.78,2.92 C57.4599484,10.4400376 51.2200108,20.6799352 49.06,33.64 C52.4200168,24.1999528 57.4799662,16.8200266 64.24,11.5 C71.0000338,6.1799734 78.2599612,3.52 86.02,3.52 C93.7800388,3.52 100.399973,6.8599666 105.88,13.54 C111.360027,20.2200334 114.1,29.8799368 114.1,42.52 C114.1,54.920062 111.780023,66.0799504 107.14,76 C104.739988,81.2800264 101.740018,85.91998 98.14,89.92 Z M146.14,61 C149.020014,50.599948 152.47998,42.9400246 156.52,38.02 C160.56002,33.0999754 164.319983,30.64 167.8,30.64 C171.280017,30.64 173.899991,31.939987 175.66,34.54 C177.420009,37.140013 178.3,40.4999794 178.3,44.62 C178.3,48.7400206 177.080012,52.5199828 174.64,55.96 C172.199988,59.4000172 168.860021,61.12 164.62,61.12 C163.499994,61.12 162.180008,60.8000032 160.66,60.16 C163.140012,57.0399844 164.38,53.280022 164.38,48.88 C164.38,46.3199872 163.34001,45.04 161.26,45.04 C159.739992,45.04 158.100009,46.0999894 156.34,48.22 C154.579991,50.3400106 152.900008,53.2599814 151.3,56.98 C149.699992,60.7000186 148.360005,65.459971 147.28,71.26 C146.199995,77.060029 145.66,83.2399672 145.66,89.8 C145.66,90.600004 145.859998,93.99997 146.26,100 C143.699987,100.160001 142.060004,100.24 141.34,100.24 C136.779977,100.24 133.50001,99.440008 131.5,97.84 C129.49999,96.239992 128.5,93.6000184 128.5,89.92 C128.5,88.319992 129.339992,82.1600536 131.02,71.44 C132.700008,60.7199464 133.54,52.1800318 133.54,45.82 C133.54,39.4599682 132.860007,33.6000268 131.5,28.24 C137.340029,30.0800092 141.419988,32.699983 143.74,36.1 C146.060012,39.500017 147.22,43.4599774 147.22,47.98 C147.22,52.5000226 146.860004,56.8399792 146.14,61 Z M220.18,31.96 C221.700008,31.96 222.859996,32.0399992 223.66,32.2 C225.74001,32.600002 226.859999,34.0799872 227.02,36.64 C218.299956,38.4800092 211.360026,43.199962 206.2,50.8 C201.039974,58.400038 198.46,66.3199588 198.46,74.56 C198.46,84.160048 201.379971,88.96 207.22,88.96 C210.740018,88.96 213.899986,87.0400192 216.7,83.2 C221.660025,76.2399652 225.13999,65.360074 227.14,50.56 C228.660008,38.8799416 231.499979,31.3600168 235.66,28 C237.66001,26.3199916 240.139985,25.0000048 243.1,24.04 C241.979994,32.5200424 241.42,38.9199784 241.42,43.24 C241.42,75.24016 238.000034,99.2799196 231.16,115.36 C224.319966,131.44008 213.180077,139.48 197.74,139.48 C191.499969,139.48 186.620018,137.820017 183.1,134.5 C179.579982,131.179983 177.82,127.54002 177.82,123.58 C177.82,119.61998 179.059988,116.380013 181.54,113.86 C184.020012,111.339987 187.499978,110.08 191.98,110.08 C193.820009,110.08 195.69999,110.479996 197.62,111.28 C194.579985,113.28001 193.06,116.359979 193.06,120.52 C193.06,123.320014 193.899992,125.73999 195.58,127.78 C197.260008,129.82001 199.319988,130.84 201.76,130.84 C204.200012,130.84 206.339991,130.340005 208.18,129.34 C210.020009,128.339995 211.89999,126.560013 213.82,124 C215.74001,121.439987 217.419993,118.240019 218.86,114.4 C222.140016,105.519956 223.939998,93.4000768 224.26,78.04 C221.939988,84.9200344 218.420024,90.4399792 213.7,94.6 C208.979976,98.7600208 204.180024,100.84 199.3,100.84 C193.139969,100.84 188.440016,98.5000234 185.2,93.82 C181.959984,89.1399766 180.34,83.1600364 180.34,75.88 C180.34,67.3999576 182.37998,59.5200364 186.46,52.24 C191.020023,43.839958 197.33996,38.0000164 205.42,34.72 C209.900022,32.8799908 214.819973,31.96 220.18,31.96 Z M272.26,77.32 C272.26,81.0800188 272.959993,84.1399882 274.36,86.5 C275.760007,88.8600118 277.739987,90.04 280.3,90.04 C284.060019,90.04 287.639983,87.840022 291.04,83.44 C294.440017,79.039978 297.15999,73.4000344 299.2,66.52 C301.24001,59.6399656 302.26,53.100031 302.26,46.9 C302.26,40.699969 302.020002,35.6800192 301.54,31.84 C303.940012,31.6799992 305.619995,31.6 306.58,31.6 C310.66002,31.6 313.73999,32.3599924 315.82,33.88 C317.90001,35.4000076 318.94,38.1199804 318.94,42.04 C318.94,43.5600076 317.98001,49.7399458 316.06,60.58 C314.13999,71.4200542 313.18,80.0999674 313.18,86.62 C313.18,93.1400326 314.419988,98.9199748 316.9,103.96 C310.89997,102.919995 306.500014,100.700017 303.7,97.3 C300.899986,93.899983 299.5,89.000032 299.5,82.6 C299.5,81.4799944 299.659998,79.320016 299.98,76.12 C297.819989,83.720038 293.980028,89.8399768 288.46,94.48 C282.939972,99.1200232 277.520027,101.44 272.2,101.44 C266.879973,101.44 262.600016,99.4600198 259.36,95.5 C256.119984,91.5399802 254.5,85.9200364 254.5,78.64 C254.5,71.3599636 255.799987,64.3000342 258.4,57.46 C261.000013,50.6199658 264.899974,44.8200238 270.1,40.06 C275.300026,35.2999762 281.099968,32.92 287.5,32.92 C291.180018,32.92 294.939981,33.7999912 298.78,35.56 C290.69996,38.4400144 284.260024,44.0999578 279.46,52.54 C274.659976,60.9800422 272.26,69.2399596 272.26,77.32 Z M379.9,30.76 C384.620024,30.76 387.99999,32.2199854 390.04,35.14 C392.08001,38.0600146 393.1,42.019975 393.1,47.02 C393.1,52.020025 392.320008,59.0399548 390.76,68.08 C389.199992,77.1200452 388.42,83.6999794 388.42,87.82 C388.42,91.9400206 388.939995,94.9399906 389.98,96.82 C391.020005,98.7000094 392.779988,100.319993 395.26,101.68 C394.219995,101.76 392.74001,101.8 390.82,101.8 C384.099966,101.8 379.320014,100.76001 376.48,98.68 C373.639986,96.5999896 372.22,92.960026 372.22,87.76 C372.22,84.7999852 373.019992,79.020043 374.62,70.42 C376.220008,61.819957 377.02,55.4000212 377.02,51.16 C377.02,45.8799736 375.420016,43.24 372.22,43.24 C370.379991,43.24 368.300012,44.3199892 365.98,46.48 C363.659988,48.6400108 361.420011,51.5799814 359.26,55.3 C357.099989,59.0200186 355.300007,63.7999708 353.86,69.64 C352.419993,75.4800292 351.7,81.299971 351.7,87.1 C351.7,92.900029 351.939998,97.199986 352.42,100 C349.859987,100.160001 348.180004,100.24 347.38,100.24 C342.819977,100.24 339.54001,99.440008 337.54,97.84 C335.53999,96.239992 334.54,93.6000184 334.54,89.92 C334.54,88.319992 335.379992,82.1600536 337.06,71.44 C338.740008,60.7199464 339.58,52.1800318 339.58,45.82 C339.58,39.4599682 338.900007,33.6000268 337.54,28.24 C343.380029,30.0800092 347.459988,32.699983 349.78,36.1 C352.100012,39.500017 353.26,43.3799782 353.26,47.74 C353.26,52.1000218 352.780005,57.1599712 351.82,62.92 C354.460013,53.9599552 358.619972,46.3600312 364.3,40.12 C369.980028,33.8799688 375.179976,30.76 379.9,30.76 Z M432.1,40.36 C432.1,41.560006 431.12001,47.859943 429.16,59.26 C427.19999,70.660057 426.2,80.059963 426.16,87.46 C426.12,94.860037 426.579995,99.6399892 427.54,101.8 C421.299969,100.199992 417.100011,97.7800162 414.94,94.54 C412.779989,91.2999838 411.7,86.5600312 411.7,80.32 C411.7,76.9599832 412.339994,70.880044 413.62,62.08 C414.900006,53.279956 415.54,46.4400244 415.54,41.56 C415.54,36.6799756 415.300002,32.9200132 414.82,30.28 C416.580009,30.1199992 418.219992,30.04 419.74,30.04 C424.380023,30.04 427.599991,30.8199922 429.4,32.38 C431.200009,33.9400078 432.1,36.5999812 432.1,40.36 Z M433.9,19.48 C431.659989,19.8000016 429.700008,19.96 428.02,19.96 C419.779959,19.96 415.66,17.0800288 415.66,11.32 C415.66,9.2399896 416.259994,6.400018 417.46,2.8 C419.700011,2.4799984 421.659992,2.32 423.34,2.32 C431.580041,2.32 435.7,5.1999712 435.7,10.96 C435.7,13.0400104 435.100006,15.879982 433.9,19.48 Z M462.94,72.88 C462.94,86.2400668 466.859961,92.92 474.7,92.92 C477.740015,92.92 480.819984,91.8800104 483.94,89.8 C487.060016,87.7199896 489.779988,84.8400184 492.1,81.16 C494.980014,81.8000032 496.42,83.2799884 496.42,85.6 C493.059983,91.4400292 488.940024,95.5999876 484.06,98.08 C479.179976,100.560012 474.300024,101.8 469.42,101.8 C462.859967,101.8 457.280023,99.3800242 452.68,94.54 C448.079977,89.6999758 445.78,82.680046 445.78,73.48 C445.78,61.7199412 449.019968,51.6600418 455.5,43.3 C461.980032,34.9399582 470.739945,30.76 481.78,30.76 C487.940031,30.76 492.579984,32.259985 495.7,35.26 C498.820016,38.260015 500.38,41.8199794 500.38,45.94 C500.38,50.0600206 499.120013,53.6399848 496.6,56.68 C494.079987,59.7200152 490.86002,61.24 486.94,61.24 C485.01999,61.24 483.10001,60.840004 481.18,60.04 C482.380006,58.6799932 483.499995,56.5400146 484.54,53.62 C485.580005,50.6999854 486.1,48.0000124 486.1,45.52 C486.1,40.6399756 483.980021,38.2 479.74,38.2 C474.779975,38.2 470.740016,41.8399636 467.62,49.12 C464.499984,56.4000364 462.94,64.3199572 462.94,72.88 Z M526.18,100.12 C523.379986,100.920004 520.540014,101.32 517.66,101.32 C511.73997,101.32 508.78,98.8400248 508.78,93.88 C508.78,92.279992 509.499993,88.880026 510.94,83.68 C513.740014,82.879996 516.579986,82.48 519.46,82.48 C525.38003,82.48 528.34,84.9599752 528.34,89.92 C528.34,91.520008 527.620007,94.919974 526.18,100.12 Z" id="Organic."></path>
                    <path d="M101.88,224.68 L81.24,224.68 L81.24,215.32 L73.56,215.32 L73.56,269.32 L81.96,269.32 L81.96,289 L31.56,289 L31.56,269.32 L39.96,269.32 L39.96,215.32 L32.28,215.32 L32.28,224.68 L11.64,224.68 L11.64,195.64 L101.88,195.64 L101.88,224.68 Z M156.96,220.6 C158.560008,220.6 160.079993,220.759998 161.52,221.08 C162.960007,221.400002 164.159995,221.799998 165.12,222.28 L165.12,245.2 C161.839984,243.839993 158.320019,243.16 154.56,243.16 C149.519975,243.16 145.640014,244.479987 142.92,247.12 C140.199986,249.760013 138.84,253.679974 138.84,258.88 L138.84,269.32 L149.64,269.32 L149.64,289 L105.96,289 L105.96,269.32 L111.24,269.32 L111.24,241.96 L105.96,241.96 L105.96,222.28 L138.84,222.28 L138.84,231.04 C141.080011,227.679983 143.639986,225.100009 146.52,223.3 C149.400014,221.499991 152.87998,220.6 156.96,220.6 Z M247.92,269.32 L247.92,289 L215.04,289 L215.04,279.64 C209.279971,287.000037 202.080043,290.68 193.44,290.68 C186.799967,290.68 181.820017,288.600021 178.5,284.44 C175.179983,280.279979 173.52,274.560036 173.52,267.28 L173.52,241.96 L168.24,241.96 L168.24,222.28 L201.12,222.28 L201.12,261.64 C201.12,264.280013 201.699994,266.219994 202.86,267.46 C204.020006,268.700006 205.759988,269.32 208.08,269.32 C210.400012,269.32 212.139994,268.700006 213.3,267.46 C214.460006,266.219994 215.04,264.280013 215.04,261.64 L215.04,241.96 L208.56,241.96 L208.56,222.28 L242.64,222.28 L242.64,269.32 L247.92,269.32 Z M280.44,290.68 C270.35995,290.68 260.640047,289.080016 251.28,285.88 L251.28,268.12 L270.72,268.12 L270.72,269.32 C270.72,273.160019 273.159976,275.08 278.04,275.08 C282.360022,275.08 284.52,273.600015 284.52,270.64 C284.52,269.039992 283.900006,267.840004 282.66,267.04 C281.419994,266.239996 279.240016,265.560003 276.12,265 L270.12,263.92 C257.559937,261.679989 251.28,254.56006 251.28,242.56 C251.28,235.599965 253.919974,230.200019 259.2,226.36 C264.480026,222.519981 271.599955,220.6 280.56,220.6 C290.56005,220.6 298.999966,222.279983 305.88,225.64 L305.88,242.32 L287.64,242.32 L287.64,241.12 C287.64,239.519992 287.100005,238.300004 286.02,237.46 C284.939995,236.619996 283.36001,236.2 281.28,236.2 C277.27998,236.2 275.28,237.479987 275.28,240.04 C275.28,241.400007 275.839994,242.439996 276.96,243.16 C278.080006,243.880004 280.119985,244.559997 283.08,245.2 L289.92,246.52 C297.040036,247.880007 302.119985,250.399982 305.16,254.08 C308.200015,257.760018 309.72,262.479971 309.72,268.24 C309.72,275.520036 307.180025,281.079981 302.1,284.92 C297.019975,288.760019 289.800047,290.68 280.44,290.68 Z M343.2,290.68 C334.719958,290.68 328.340021,288.620021 324.06,284.5 C319.779979,280.379979 317.64,273.440049 317.64,263.68 L317.64,241.96 L312.36,241.96 L312.36,222.28 C315.400015,222.28 317.679992,221.500008 319.2,219.94 C320.720008,218.379992 321.48,216.240014 321.48,213.52 L321.48,208.12 L346.92,208.12 L346.92,222.28 L363.12,222.28 L363.12,241.96 L346.92,241.96 L346.92,261.64 C346.92,264.280013 347.499994,266.219994 348.66,267.46 C349.820006,268.700006 351.559988,269.32 353.88,269.32 C356.920015,269.32 360.239982,268.960004 363.84,268.24 L363.84,287.08 C361.599989,287.960004 358.580019,288.779996 354.78,289.54 C350.979981,290.300004 347.12002,290.68 343.2,290.68 Z M403.44,290.68 C392.079943,290.68 383.200032,287.70003 376.8,281.74 C370.399968,275.77997 367.2,267.080057 367.2,255.64 C367.2,244.199943 370.399968,235.50003 376.8,229.54 C383.200032,223.57997 392.079943,220.6 403.44,220.6 C414.720056,220.6 422.859975,223.539971 427.86,229.42 C432.860025,235.300029 435.36,242.599956 435.36,251.32 L435.36,259.96 L396.48,259.96 L396.48,260.68 C396.48,263.640015 397.359991,265.819993 399.12,267.22 C400.880009,268.620007 403.79998,269.32 407.88,269.32 C412.760024,269.32 417.399978,268.960004 421.8,268.24 C426.200022,267.519996 430.039984,266.600006 433.32,265.48 L433.32,284.68 C430.519986,286.200008 426.420027,287.579994 421.02,288.82 C415.619973,290.060006 409.760032,290.68 403.44,290.68 Z M410.4,246.76 L410.4,245.32 C410.4,242.599986 409.820006,240.640006 408.66,239.44 C407.499994,238.239994 405.760012,237.64 403.44,237.64 C401.119988,237.64 399.380006,238.259994 398.22,239.5 C397.059994,240.740006 396.48,242.679987 396.48,245.32 L396.48,246.76 L410.4,246.76 Z M462.6,290.68 C454.439959,290.68 448.300021,287.64003 444.18,281.56 C440.059979,275.47997 438,266.840056 438,255.64 C438,244.439944 440.059979,235.80003 444.18,229.72 C448.300021,223.63997 454.439959,220.6 462.6,220.6 C466.68002,220.6 470.299984,221.59999 473.46,223.6 C476.620016,225.60001 479.19999,227.879987 481.2,230.44 L481.2,215.32 L474.12,215.32 L474.12,195.64 L508.8,195.64 L508.8,269.32 L514.08,269.32 L514.08,289 L481.2,289 L481.2,280.84 C479.19999,283.400013 476.620016,285.67999 473.46,287.68 C470.299984,289.68001 466.68002,290.68 462.6,290.68 Z M474.24,269.32 C476.560012,269.32 478.299994,268.700006 479.46,267.46 C480.620006,266.219994 481.2,264.280013 481.2,261.64 L481.2,249.64 C481.2,246.999987 480.620006,245.060006 479.46,243.82 C478.299994,242.579994 476.560012,241.96 474.24,241.96 C471.919988,241.96 470.180006,242.579994 469.02,243.82 C467.859994,245.060006 467.28,246.999987 467.28,249.64 L467.28,261.64 C467.28,264.280013 467.859994,266.219994 469.02,267.46 C470.180006,268.700006 471.919988,269.32 474.24,269.32 Z M520.56,289 L520.56,269.32 L539.28,269.32 L539.28,289 L520.56,289 Z" id="Trusted."></path>
                    <path d="M76.808,375.816 C72.9679808,375.816 69.7893459,378.397308 67.272,383.56 C64.7546541,388.722692 62.7066746,395.421292 61.128,403.656 C59.5493254,411.890708 57.9280083,420.402623 56.264,429.192 C54.5999917,437.981377 52.1040166,446.706623 48.776,455.368 C45.4479834,464.029377 41.3946906,470.706643 36.616,475.4 C39.6026816,476.594673 44.0399706,478.407988 49.928,480.84 C55.8160294,483.272012 60.5093158,485.17066 64.008,486.536 C73.6507149,490.290685 80.8613094,492.168 85.64,492.168 C90.3333568,492.168 93.917321,490.674682 96.392,487.688 C96.9893363,486.919996 97.458665,486.066671 97.8,485.128 C99.1653402,485.128 99.848,486.15199 99.848,488.2 C99.848,491.698684 98.248016,494.493323 95.048,496.584 C91.847984,498.674677 88.2426867,499.72 84.232,499.72 C80.2213133,499.72 75.6986918,498.930675 70.664,497.352 C65.6293082,495.773325 61.5760154,494.30134 58.504,492.936 C55.4319846,491.57066 50.5893664,489.160017 43.976,485.704 C37.3626336,482.247983 33.2453414,480.136004 31.624,479.368 C26.9306432,482.440015 21.2347002,483.976 14.536,483.976 C7.83729984,483.976 3.46401024,482.098685 1.416,478.344 C0.81866368,477.319995 0.52,476.18934 0.52,474.952 C0.52,473.71466 1.33065856,472.349341 2.952,470.856 C4.57334144,469.362659 7.43197952,468.616 11.528,468.616 C15.6240205,468.616 22.0666227,470.194651 30.856,473.352 C37.6827008,465.671962 43.1439795,449.970785 47.24,426.248 C48.7760077,417.031954 50.4826573,408.093377 52.36,399.432 C54.2373427,390.770623 56.946649,383.688028 60.488,378.184 C64.029351,372.679972 68.5306394,369.928 73.992,369.928 C76.3813453,369.928 78.1946605,370.525327 79.432,371.72 C80.6693395,372.914673 81.288,374.109327 81.288,375.304 L81.416,377.096 C80.5626624,376.242662 79.0266778,375.816 76.808,375.816 Z M84.488,403.208 C84.488,403.549335 84.125337,403.762666 83.4,403.848 C82.674663,403.933334 81.9280038,403.805335 81.16,403.464 C80.3919962,403.122665 80.008,402.653336 80.008,402.056 C80.008,393.351956 80.9893235,386.33336 82.952,381 C84.9146765,375.66664 87.5173171,373 90.76,373 C91.6133376,373 92.3386637,373.298664 92.936,373.896 C93.5333363,374.493336 93.832,375.303995 93.832,376.328 C89.906647,380.253353 87.1333414,385.970629 85.512,393.48 C84.8293299,396.552015 84.488,399.79465 84.488,403.208 Z M4.104,475.656 C4.104,477.192008 5.19198912,478.407996 7.368,479.304 C9.54401088,480.200004 12.4239821,480.648 16.008,480.648 C19.5920179,480.648 23.1759821,479.410679 26.76,476.936 C19.2506291,473.52265 13.362688,471.816 9.096,471.816 C6.45065344,471.816 4.82933632,472.754657 4.232,474.632 C4.14666624,474.973335 4.104,475.314665 4.104,475.656 Z M86.024,458.12 C86.024,445.490604 87.3253203,434.226716 89.928,424.328 C92.5306797,414.429284 95.8373133,409.48 99.848,409.48 C101.810676,409.48 102.792,410.546656 102.792,412.68 C101.938662,414.898678 100.872006,417.842648 99.592,421.512 C98.3119936,425.181352 96.6266771,431.815952 94.536,441.416 C92.4453229,451.016048 91.4,459.570629 91.4,467.08 C91.4,468.274673 90.7600064,468.872 89.48,468.872 C87.1759885,468.872 86.024,465.288036 86.024,458.12 Z M103.176,397.448 C101.383991,397.448 100.488,395.74135 100.488,392.328 C100.488,390.27999 101.042661,388.125345 102.152,385.864 C103.261339,383.602655 104.83999,382.472 106.888,382.472 C108.594675,382.472 109.448,383.453324 109.448,385.416 C109.448,387.378676 107.869349,390.663977 104.712,395.272 L103.176,397.448 Z M135.048,457.224 C135.048,462.344026 136.41332,464.904 139.144,464.904 C142.642684,464.904 146.482646,460.210714 150.664,450.824 C155.528024,440.071946 157.96,430.002714 157.96,420.616 C157.96,414.215968 156.296017,411.016 152.968,411.016 C149.639983,411.016 145.906687,413.725306 141.768,419.144 C137.629313,424.562694 134.024015,430.642633 130.952,437.384 C127.879985,444.125367 125.256011,450.205306 123.08,455.624 C120.903989,461.042694 119.816,464.050664 119.816,464.648 C119.816,465.928006 119.176006,466.568 117.896,466.568 C115.335987,466.568 114.056,463.154701 114.056,456.328 C114.056,442.759932 115.42132,429.128068 118.152,415.432 C120.88268,401.735932 124.125315,390.770708 127.88,382.536 C131.634685,374.301292 135.133317,370.184 138.376,370.184 C139.74134,370.184 140.424,370.86666 140.424,372.232 C135.901311,382.21605 131.99735,394.205263 128.712,408.2 C125.42665,422.194737 122.973341,435.463937 121.352,448.008 L122.248,448.008 C126.173353,438.02395 130.653308,429.06404 135.688,421.128 C138.504014,416.690644 141.511984,413.17068 144.712,410.568 C147.912016,407.96532 151.005318,406.664 153.992,406.664 C160.050697,406.664 163.805326,410.589294 165.256,418.44 C165.768003,420.744012 166.024,423.175987 166.024,425.736 C166.024,432.050698 164.65868,438.919963 161.928,446.344 C158.087981,456.925386 153.053364,463.879983 146.824,467.208 C144.690656,468.402673 142.472012,469 140.168,469 C134.365304,469 131.464,465.160038 131.464,457.48 C131.464,453.38398 132.594655,448.66936 134.856,443.336 C137.117345,438.00264 140.082648,434.056013 143.752,431.496 C144.520004,431.069331 145.159997,431.239996 145.672,432.008 C145.757334,432.434669 145.714668,432.733332 145.544,432.904 C142.301317,435.464013 139.741343,439.218642 137.864,444.168 C135.986657,449.117358 135.048,453.469315 135.048,457.224 Z M208.264,406.92 C214.749366,406.92 217.992,410.717295 217.992,418.312 C217.992,422.664022 216.541348,427.229309 213.64,432.008 C208.690642,439.94404 202.120041,443.912 193.928,443.912 C192.647994,443.912 191.581338,443.698669 190.728,443.272 C189.874662,442.845331 189.234669,442.205338 188.808,441.352 C194.866697,441.352 200.413308,437.853368 205.448,430.856 C209.54402,425.223972 211.592,420.061357 211.592,415.368 C211.592,411.869316 210.184014,410.12 207.368,410.12 C201.735972,410.12 196.488024,414.514623 191.624,423.304 C186.418641,432.861381 183.816,442.674616 183.816,452.744 C183.816,461.277376 186.247976,466.397325 191.112,468.104 C192.050671,468.445335 193.245326,468.616 194.696,468.616 C196.146674,468.616 197.682659,468.253337 199.304,467.528 C200.925341,466.802663 202.290661,465.928005 203.4,464.904 C205.618678,462.85599 207.453326,460.594679 208.904,458.12 C209.245335,457.43733 209.885329,457.096 210.824,457.096 C212.360008,457.096 213.085334,457.351997 213,457.864 C212.743999,458.802671 211.784008,460.381322 210.12,462.6 C208.455992,464.818678 206.920007,466.589327 205.512,467.912 C204.103993,469.234673 202.269345,470.429328 200.008,471.496 C197.746655,472.562672 195.464012,473.096 193.16,473.096 C184.114621,473.096 178.354679,468.829376 175.88,460.296 C175.111996,457.394652 174.728,454.408015 174.728,451.336 C174.728,445.618638 176.050653,439.389367 178.696,432.648 C182.877354,422.407949 188.637297,415.026689 195.976,410.504 C199.986687,408.114655 204.082646,406.92 208.264,406.92 Z M265.224,432.264 C261.981317,432.264 260.36,428.722702 260.36,421.64 C260.36,417.629313 261.127992,413.874684 262.664,410.376 C256.861304,415.410692 250.376036,424.775932 243.208,438.472 C236.039964,452.168068 232.456,461.106646 232.456,465.288 C232.456,466.312005 231.77334,466.824 230.408,466.824 C227.933321,466.824 226.696,463.453367 226.696,456.712 C226.696,443.99727 227.975987,432.477385 230.536,422.152 C233.096013,411.826615 236.210648,406.664 239.88,406.664 C241.501341,406.664 242.312,407.602657 242.312,409.48 C238.386647,421.938729 235.570675,434.695935 233.864,447.752 L234.76,447.752 C241.672035,431.794587 249.309292,419.336045 257.672,410.376 C262.450691,405.255974 266.802647,402.696 270.728,402.696 C271.581338,402.696 272.285331,402.951997 272.84,403.464 C273.394669,403.976003 273.672,404.615996 273.672,405.384 C273.074664,405.981336 272.349338,406.877327 271.496,408.072 C270.642662,409.266673 269.490674,412.103978 268.04,416.584 C266.589326,421.064022 265.864,425.949307 265.864,431.24 C265.864,431.92267 265.650669,432.264 265.224,432.264 Z M284.296,469 C277.298632,469 273.8,463.496055 273.8,452.488 C273.8,445.9173 275.421317,438.706706 278.664,430.856 C283.186689,419.847945 289.117297,412.338687 296.456,408.328 C299.613349,406.621325 302.55732,405.768 305.288,405.768 C308.01868,405.768 310.173325,406.365327 311.752,407.56 C313.330675,408.754673 314.333331,409.949327 314.76,411.144 L315.528,412.808 C315.271999,414.258674 314.546673,414.984 313.352,414.984 C311.98666,414.984 311.197334,414.664003 310.984,414.024 C310.770666,413.383997 310.536001,412.829336 310.28,412.36 C310.023999,411.890664 309.426671,411.250671 308.488,410.44 C307.549329,409.629329 306.482673,409.224 305.288,409.224 C299.741306,409.224 294.706689,414.21595 290.184,424.2 C285.063974,435.720058 282.504,446.557283 282.504,456.712 C282.504,461.832026 283.52799,464.392 285.576,464.392 C287.197341,464.392 289.479985,462.578685 292.424,458.952 C295.368015,455.325315 298.461317,450.781361 301.704,445.32 C307.336028,435.933286 311.901316,427.784035 315.4,420.872 C318.301348,414.727969 321.287985,411.656 324.36,411.656 C325.981341,411.656 326.792,412.637324 326.792,414.6 C326.023996,416.221341 325.042673,418.525318 323.848,421.512 C322.653327,424.498682 321.074676,430.429289 319.112,439.304 C317.149324,448.178711 316.168,457.010623 316.168,465.8 C316.168,474.589377 317.490653,478.984 320.136,478.984 C321.160005,478.984 322.098662,478.536004 322.952,477.64 C323.805338,476.743996 324.57333,475.400009 325.256,473.608 C325.512001,472.669329 326.109329,472.2 327.048,472.2 C327.389335,472.2 327.645332,472.327999 327.816,472.584 C327.986668,472.840001 327.986668,473.266664 327.816,473.864 C327.645332,474.461336 327.346669,475.293328 326.92,476.36 C326.493331,477.426672 325.576007,478.855991 324.168,480.648 C322.759993,482.440009 321.288008,483.336 319.752,483.336 C316.167982,483.336 313.41601,480.989357 311.496,476.296 C309.57599,471.602643 308.616,466.056032 308.616,459.656 C308.616,453.255968 309.085329,447.112029 310.024,441.224 L308.744,441.224 C297.906612,459.741426 289.757361,469 284.296,469 Z M342.28,413.576 C338.951983,413.576 337.288,412.21068 337.288,409.48 C337.288,408.455995 337.714662,407.816001 338.568,407.56 C338.653334,407.474666 338.781332,407.432 338.952,407.432 C339.464003,408.029336 340.423993,408.328 341.832,408.328 C343.240007,408.328 345.479985,408.242668 348.552,408.072 C352.562687,397.234612 356.402648,391.816 360.072,391.816 C361.522674,391.816 362.248,392.626659 362.248,394.248 C360.88266,397.66135 359.346675,402.055973 357.64,407.432 C366.088042,406.493329 371.591987,406.024 374.152,406.024 C374.83467,406.024 375.176,406.36533 375.176,407.048 C375.176,408.41334 374.280009,409.096 372.488,409.096 C371.549329,409.096 366.130716,409.991991 356.232,411.784 C349.490633,433.11744 346.12,450.397267 346.12,463.624 C346.12,476.850733 348.765307,483.464 354.056,483.464 C356.189344,483.464 358.194657,482.546676 360.072,480.712 C361.949343,478.877324 363.271996,477.064009 364.04,475.272 C364.381335,474.333329 365.106661,474.077331 366.216,474.504 C366.728003,474.674668 366.898668,474.930665 366.728,475.272 C366.215997,476.381339 365.576004,477.661326 364.808,479.112 C364.039996,480.562674 362.546678,482.354656 360.328,484.488 C358.109322,486.621344 355.848012,487.688 353.544,487.688 C343.389283,487.688 338.312,478.856088 338.312,461.192 C338.312,446.258592 341.085306,430.301418 346.632,413.32 C345.437327,413.490668 343.986675,413.576 342.28,413.576 Z M375.048,458.12 C375.048,445.490604 376.34932,434.226716 378.952,424.328 C381.55468,414.429284 384.861313,409.48 388.872,409.48 C390.834676,409.48 391.816,410.546656 391.816,412.68 C390.962662,414.898678 389.896006,417.842648 388.616,421.512 C387.335994,425.181352 385.650677,431.815952 383.56,441.416 C381.469323,451.016048 380.424,459.570629 380.424,467.08 C380.424,468.274673 379.784006,468.872 378.504,468.872 C376.199988,468.872 375.048,465.288036 375.048,458.12 Z M392.2,397.448 C390.407991,397.448 389.512,395.74135 389.512,392.328 C389.512,390.27999 390.066661,388.125345 391.176,385.864 C392.285339,383.602655 393.86399,382.472 395.912,382.472 C397.618675,382.472 398.472,383.453324 398.472,385.416 C398.472,387.378676 396.893349,390.663977 393.736,395.272 L392.2,397.448 Z M409.48,448.264 C420.488055,421.042531 431.197281,407.432 441.608,407.432 C445.960022,407.432 448.136,409.522646 448.136,413.704 C447.538664,415.666676 446.770671,418.247984 445.832,421.448 C444.893329,424.648016 443.634675,430.386625 442.056,438.664 C440.477325,446.941375 439.688,454.194636 439.688,460.424 C439.688,469.469379 441.010653,473.992 443.656,473.992 C444.680005,473.992 445.661329,473.586671 446.6,472.776 C447.538671,471.965329 448.178665,471.56 448.52,471.56 C449.714673,471.56 449.714673,472.498657 448.52,474.376 C448.093331,474.973336 447.304006,475.783995 446.152,476.808 C444.999994,477.832005 443.826673,478.344 442.632,478.344 C439.389317,478.344 436.850676,476.01869 435.016,471.368 C433.181324,466.71731 432.264,460.680037 432.264,453.256 C432.264,441.479941 434.098648,428.55207 437.768,414.472 C438.109335,413.362661 437.768005,412.808 436.744,412.808 C436.06133,412.808 435.293338,413.14933 434.44,413.832 C430.34398,417.416018 426.034689,423.346625 421.512,431.624 C416.989311,439.901375 413.448013,447.303967 410.888,453.832 C408.327987,460.360033 407.048,464.157328 407.048,465.224 C407.048,466.290672 406.450673,466.824 405.256,466.824 C402.52532,466.824 401.16,463.453367 401.16,456.712 C401.16,443.99727 402.46132,432.477385 405.064,422.152 C407.66668,411.826615 410.802648,406.664 414.472,406.664 C416.008008,406.664 416.776,407.602657 416.776,409.48 C412.850647,422.19473 410.034675,435.122601 408.328,448.264 L409.48,448.264 Z M467.848,469 C460.850632,469 457.352,463.496055 457.352,452.488 C457.352,445.9173 458.973317,438.706706 462.216,430.856 C466.738689,419.847945 472.669297,412.338687 480.008,408.328 C483.165349,406.621325 486.10932,405.768 488.84,405.768 C491.57068,405.768 493.725325,406.365327 495.304,407.56 C496.882675,408.754673 497.885331,409.949327 498.312,411.144 L499.08,412.808 C498.823999,414.258674 498.098673,414.984 496.904,414.984 C495.53866,414.984 494.749334,414.664003 494.536,414.024 C494.322666,413.383997 494.088001,412.829336 493.832,412.36 C493.575999,411.890664 492.978671,411.250671 492.04,410.44 C491.101329,409.629329 490.034673,409.224 488.84,409.224 C483.293306,409.224 478.258689,414.21595 473.736,424.2 C468.615974,435.720058 466.056,446.557283 466.056,456.712 C466.056,461.832026 467.07999,464.392 469.128,464.392 C471.944014,464.392 476.487969,459.464049 482.76,449.608 C489.032031,439.751951 494.685308,429.661385 499.72,419.336 C502.280013,414.130641 504.967986,411.528 507.784,411.528 C509.576009,411.528 510.472,412.55199 510.472,414.6 C510.130665,415.197336 509.61867,416.17866 508.936,417.544 C508.25333,418.90934 507.016009,422.813301 505.224,429.256 C503.431991,435.698699 501.810674,443.079958 500.36,451.4 C498.909326,459.720042 497.672005,466.226643 496.648,470.92 C503.133366,472.029339 506.887995,474.845311 507.912,479.368 C508.082668,480.136004 508.168,481.181327 508.168,482.504 C508.168,483.826673 507.656005,484.978662 506.632,485.96 C505.607995,486.941338 504.712004,487.432 503.944,487.432 C504.114668,486.834664 504.157334,485.789341 504.072,484.296 C503.986666,482.802659 503.709336,481.544005 503.24,480.52 C502.770664,479.495995 501.896006,478.429339 500.616,477.32 C499.335994,476.210661 497.67201,475.400003 495.624,474.888 C492.978653,485.298719 489.181358,493.874633 484.232,500.616 C478.599972,508.210705 471.005381,512.008 461.448,512.008 C454.450632,512.008 449.800012,509.533358 447.496,504.584 C447.410666,504.327999 447.368,504.114668 447.368,503.944 C447.368,503.431997 447.837329,503.069334 448.776,502.856 C449.714671,502.642666 450.354665,502.962662 450.696,503.816 C452.232008,507.314684 455.815972,509.064 461.448,509.064 C469.128038,509.064 475.101312,505.43737 479.368,498.184 C483.208019,491.783968 486.15199,483.805381 488.2,474.248 C472.839923,474.589335 460.978708,480.477276 452.616,491.912 C452.103997,492.680004 451.293339,492.808003 450.184,492.296 C449.586664,491.954665 449.415999,491.528003 449.672,491.016 C453.341352,485.469306 458.4613,480.754686 465.032,476.872 C471.6027,472.989314 479.581286,470.877335 488.968,470.536 C489.906671,466.269312 490.738663,461.768024 491.464,457.032 C492.189337,452.295976 492.807997,448.56268 493.32,445.832 C493.832003,443.10132 494.173332,441.138673 494.344,439.944 L492.936,439.944 C481.671944,459.314764 473.309361,469 467.848,469 Z M526.088,469.896 C524.295991,469.896 523.4,468.232017 523.4,464.904 C523.4,462.85599 523.954661,460.680012 525.064,458.376 C526.173339,456.071988 527.75199,454.92 529.8,454.92 C531.506675,454.92 532.36,455.901324 532.36,457.864 C532.36,459.826676 530.781349,463.111977 527.624,467.72 L526.088,469.896 Z" id="Liberating."></path>
                </g>
            </g>
        </g>
    </g>
</svg>