<?xml version="1.0" encoding="UTF-8"?>
<svg width="312px" height="93px" viewBox="0 0 312 93" version="1.1" xmlns="http://www.w3.org/2000/svg" xmlns:xlink="http://www.w3.org/1999/xlink">
    <!-- Generator: Sketch 49.3 (51167) - http://www.bohemiancoding.com/sketch -->
    <title>logo</title>
    <desc>Created with Sketch.</desc>
    <defs></defs>
    <g id="logo" stroke="none" stroke-width="1" fill="none" fill-rule="evenodd">
        <path d="M14.8043798,36.4395847 L14.8043798,12.752577 L68.1001473,65.4561692 L43.8209643,65.4561692 L59.2175194,80.8527243 L0,80.8527243 L0,21.6352049 L14.8043798,36.4395847 Z M14.8043798,36.4395847 L14.8043798,65.4561692 L43.8209643,65.4561692 L14.8043798,36.4395847 Z" id="path-1" fill="#FFFFFF"></path>
        <path d="M78.729688,73 L78.729688,24.6041237 L89.6410282,24.6041237 L89.6410282,63.7958763 L108.791544,63.7958763 L108.791544,73 L78.729688,73 Z M125.566801,73.8907216 C123.884319,73.8907216 122.362684,73.6061884 121.001853,73.0371134 C119.641021,72.4680384 118.490517,71.6762937 117.550307,70.6618557 C116.610096,69.6474176 115.880206,68.4721716 115.360616,67.1360825 C114.841026,65.7999933 114.581234,64.3402141 114.581234,62.756701 C114.581234,58.8968879 116.214208,55.8783614 119.480203,53.7010309 C122.746199,51.5237005 128.01625,50.0639212 135.290513,49.3216495 C135.191543,47.6886516 134.709074,46.3896956 133.84309,45.4247423 C132.977106,44.459789 131.529698,43.9773196 129.500822,43.9773196 C127.917309,43.9773196 126.346191,44.2742238 124.78742,44.8680412 C123.228649,45.4618586 121.558563,46.2783453 119.777111,47.3175258 L115.84309,40.1175258 C118.21836,38.6824671 120.704933,37.5195921 123.302884,36.628866 C125.900835,35.7381399 128.65957,35.2927835 131.579173,35.2927835 C136.329712,35.2927835 139.954418,36.6412236 142.453399,39.3381443 C144.952381,42.035065 146.201853,46.2288375 146.201853,51.9195876 L146.201853,73 L137.294636,73 L136.552368,69.214433 L136.255461,69.214433 C134.671948,70.6000069 133.014233,71.7257689 131.282265,72.5917526 C129.550298,73.4577363 127.645162,73.8907216 125.566801,73.8907216 Z M129.278142,65.428866 C130.515261,65.428866 131.579168,65.1567038 132.469894,64.6123711 C133.36062,64.0680385 134.300817,63.3010359 135.290513,62.3113402 L135.290513,55.8536083 C131.4307,56.3979409 128.758561,57.1896855 127.274018,58.228866 C125.789474,59.2680464 125.047214,60.5051475 125.047214,61.9402062 C125.047214,63.127841 125.430715,64.0061827 126.197729,64.5752577 C126.964743,65.1443327 127.991537,65.428866 129.278142,65.428866 Z M159.488451,87.4 C158.350301,87.4 157.385362,87.3381449 156.593606,87.214433 C155.801849,87.090721 155.034846,86.9051559 154.292575,86.657732 L156.222471,78.3443299 C156.568865,78.4432995 156.964737,78.5422675 157.4101,78.6412371 C157.855463,78.7402067 158.276078,78.7896907 158.671956,78.7896907 C160.502893,78.7896907 161.913188,78.3443343 162.902884,77.4536082 C163.89258,76.5628821 164.63484,75.4000072 165.129688,73.9649485 L165.649276,72.0350515 L151.471956,36.1835052 L162.457523,36.1835052 L167.727626,51.9938144 C168.271959,53.6762971 168.766799,55.3834965 169.212162,57.1154639 C169.657525,58.8474313 170.127624,60.6288568 170.622471,62.4597938 L170.919379,62.4597938 C171.315257,60.7278264 171.7235,58.9835139 172.144121,57.2268041 C172.564742,55.4700943 172.997727,53.7257819 173.44309,51.9938144 L177.896698,36.1835052 L188.362678,36.1835052 L175.595667,73.371134 C174.704941,75.6969188 173.777115,77.7381355 172.812162,79.4948454 C171.847209,81.2515552 170.733818,82.7113344 169.471956,83.8742268 C168.210094,85.0371192 166.775057,85.9154609 165.166801,86.5092783 C163.558546,87.1030957 161.665781,87.4 159.488451,87.4 Z M209.962678,73.8907216 C207.339984,73.8907216 204.890524,73.4577363 202.614224,72.5917526 C200.337924,71.7257689 198.358562,70.4639258 196.67608,68.8061856 C194.993597,67.1484453 193.68227,65.1319706 192.742059,62.756701 C191.801848,60.3814314 191.33175,57.6598092 191.33175,54.5917526 C191.33175,51.6226656 191.82659,48.9381563 192.816286,46.5381443 C193.805982,44.1381323 195.104938,42.1092866 196.713193,40.4515464 C198.321449,38.7938062 200.164729,37.5195921 202.24309,36.628866 C204.321451,35.7381399 206.474007,35.2927835 208.700822,35.2927835 C211.323516,35.2927835 213.612152,35.7381399 215.566801,36.628866 C217.52145,37.5195921 219.154424,38.7566931 220.46577,40.3402062 C221.777117,41.9237193 222.754427,43.7917418 223.397729,45.9443299 C224.041031,48.096918 224.362678,50.4350389 224.362678,52.9587629 C224.362678,53.9484586 224.313194,54.8886553 224.214224,55.7793814 C224.115254,56.6701076 224.016286,57.3381421 223.917317,57.7835052 L201.871956,57.7835052 C202.366804,60.4556835 203.467824,62.4226741 205.175049,63.6845361 C206.882274,64.9463981 208.972975,65.5773196 211.447214,65.5773196 C214.069907,65.5773196 216.717303,64.7608329 219.389482,63.1278351 L223.026595,69.7340206 C221.146173,71.020625 219.055473,72.0350478 216.75443,72.7773196 C214.453388,73.5195913 212.189493,73.8907216 209.962678,73.8907216 Z M201.797729,50.5835052 L215.084327,50.5835052 C215.084327,48.5051443 214.614229,46.8226869 213.674018,45.5360825 C212.733807,44.2494781 211.150318,43.6061856 208.923502,43.6061856 C207.191535,43.6061856 205.669901,44.1752521 204.358554,45.3134021 C203.047207,46.4515521 202.193607,48.2082356 201.797729,50.5835052 Z M231.933812,73 L231.933812,36.1835052 L240.841028,36.1835052 L241.583296,42.6412371 L241.880203,42.6412371 C243.216293,40.1175132 244.824524,38.2618616 246.704946,37.0742268 C248.585367,35.886592 250.465761,35.2927835 252.346183,35.2927835 C253.385363,35.2927835 254.238963,35.3546386 254.907008,35.4783505 C255.575052,35.6020625 256.181232,35.7876276 256.725564,36.0350516 L254.944121,45.4618557 C254.251334,45.2639165 253.608041,45.1154644 253.014224,45.0164949 C252.420407,44.9175253 251.72763,44.8680412 250.935874,44.8680412 C249.5503,44.8680412 248.102891,45.3628817 246.593605,46.3525773 C245.08432,47.342273 243.834848,49.0989565 242.845152,51.6226804 L242.845152,73 L231.933812,73 Z M274.24309,73 L274.24309,66.7649485 C277.261662,63.9443158 280.020397,61.3092906 282.519379,58.8597938 C285.01836,56.410297 287.170916,54.1092891 288.977111,51.956701 C290.783305,49.804113 292.1936,47.8000093 293.208038,45.9443299 C294.222477,44.0886505 294.729688,42.3195961 294.729688,40.6371134 C294.729688,38.3113286 294.135879,36.5422741 292.948245,35.3298969 C291.76061,34.1175197 290.127636,33.5113402 288.049276,33.5113402 C286.317308,33.5113402 284.783303,33.9938096 283.447214,34.9587629 C282.111125,35.9237162 280.849282,37.0494781 279.661647,38.3360825 L273.723502,32.472165 C276.049287,29.9979258 278.424521,28.1299032 280.849276,26.8680413 C283.27403,25.6061793 286.168846,24.9752577 289.533812,24.9752577 C291.859596,24.9752577 293.975039,25.334017 295.880203,26.0515464 C297.785368,26.7690758 299.430712,27.7834986 300.816286,29.0948454 C302.20186,30.4061921 303.265767,31.9773104 304.008038,33.8082474 C304.75031,35.6391844 305.121441,37.6927721 305.121441,39.9690722 C305.121441,41.9484635 304.700826,43.9649382 303.859585,46.0185567 C303.018344,48.0721752 301.892582,50.1257629 300.482265,52.1793814 C299.071949,54.233 297.463718,56.2865877 295.657523,58.3402062 C293.851328,60.3938247 291.983306,62.4102994 290.053399,64.3896907 C291.241034,64.2412364 292.564732,64.1051553 294.024533,63.9814433 C295.484334,63.8577313 296.783291,63.7958763 297.921441,63.7958763 L307.422471,63.7958763 L307.422471,73 L274.24309,73 Z" id="Layer-2" fill="#FFFFFF"></path>
    </g>
</svg>