<?xml version="1.0" encoding="UTF-8"?>
<svg width="307px" height="58px" viewBox="0 0 307 58" version="1.1" xmlns="http://www.w3.org/2000/svg" xmlns:xlink="http://www.w3.org/1999/xlink">
    <!-- Generator: Sketch 49.3 (51167) - http://www.bohemiancoding.com/sketch -->
    <title>cg-logo</title>
    <desc>Created with Sketch.</desc>
    <defs></defs>
    <g id="cg-logo" stroke="none" stroke-width="1" fill="none" fill-rule="evenodd">
        <g id="Group" transform="translate(-1.000000, 0.000000)" fill="#FE9B27">
            <text id="chris-gurney" font-family="Montserrat-SemiBold, Montserrat" font-size="48" font-weight="500">
                <tspan x="0.276" y="48">chris gurney</tspan>
            </text>
            <path d="M81.0962719,5.37537594 L80.3644406,4.63374809 C79.6312823,3.89077564 78.434642,3.88281963 77.6916695,4.61597784 C77.6844579,4.62309426 77.6773035,4.63026855 77.6702072,4.63750002 L77.6702072,4.63750002 C76.9231978,5.39873822 76.9231978,6.6179285 77.6702072,7.37916669 L78.3905964,8.11327759 C79.1247797,8.86144532 80.3264626,8.87278195 81.0746304,8.13859867 C81.0815547,8.13180376 81.0884268,8.12495586 81.0952462,8.11805558 L81.0952462,8.11805558 C81.8461887,7.35819844 81.8466459,6.13579457 81.0962719,5.37537594 Z M77.1722192,13.0444445 L75.4777747,13.0444445 C74.4959352,13.0444445 73.6999969,13.8403827 73.6999969,14.8222222 L73.6999969,14.8222222 C73.6999969,15.8040618 74.4959352,16.6 75.4777747,16.6 L77.1722192,16.6 C78.1540587,16.6 78.9499969,15.8040618 78.9499969,14.8222222 L78.9499969,14.8222222 C78.9499969,13.8403827 78.1540587,13.0444445 77.1722192,13.0444445 Z M85.9499969,2.35000002 L85.9499969,4.18333336 C85.9499969,5.14983167 86.7334986,5.93333336 87.6999969,5.93333336 L87.6999969,5.93333336 C88.6664953,5.93333336 89.4499969,5.14983167 89.4499969,4.18333336 L89.4499969,2.35000002 C89.4499969,1.38350171 88.6664953,0.600000024 87.6999969,0.600000024 L87.6999969,0.600000024 C86.7334986,0.600000024 85.9499969,1.38350171 85.9499969,2.35000002 Z M97.7255829,4.63750002 L97.7255829,4.63750002 C96.9919668,3.89223922 95.7931002,3.88279932 95.0478394,4.61641543 C95.0407559,4.62338818 95.0337275,4.6304166 95.0267548,4.63750002 L94.299411,5.37638891 C93.5507374,6.13694621 93.5507374,7.35749828 94.299411,8.11805558 L94.299411,8.11805558 C95.0330271,8.86331639 96.2318937,8.87275628 96.9771545,8.13914017 C96.984238,8.13216742 96.9912664,8.12513901 96.9982391,8.11805558 L97.7255829,7.37916669 C98.4742565,6.61860939 98.4742565,5.39805732 97.7255829,4.63750002 Z M96.4499969,14.8222222 L96.4499969,14.8222222 C96.4499969,15.8040618 97.2459352,16.6 98.2277747,16.6 L99.9222192,16.6 C100.904059,16.6 101.699997,15.8040618 101.699997,14.8222222 L101.699997,14.8222222 C101.699997,13.8403827 100.904059,13.0444445 99.9222192,13.0444445 L98.2277747,13.0444445 C97.2459352,13.0444445 96.4499969,13.8403827 96.4499969,14.8222222 Z" id="Shape" fill-rule="nonzero"></path>
        </g>
    </g>
</svg>