<?xml version="1.0" encoding="UTF-8"?>
<svg width="72px" height="65px" viewBox="0 0 72 65" version="1.1" xmlns="http://www.w3.org/2000/svg" xmlns:xlink="http://www.w3.org/1999/xlink">
    <!-- Generator: Sketch 49.1 (51147) - http://www.bohemiancoding.com/sketch -->
    <title>chicken</title>
    <desc>Created with Sketch.</desc>
    <defs>
        <circle id="path-1" cx="39" cy="39" r="39"></circle>
        <polygon id="path-3" points="36.4863727 24.5811481 36.4863727 38.1431609 3.39408118 37.4698475"></polygon>
    </defs>
    <g id="Page-1" stroke="none" stroke-width="1" fill="none" fill-rule="evenodd">
        <g id="chicken" transform="translate(-1.000000, -13.000000)">
            <mask id="mask-2" fill="white">
                <use xlink:href="#path-1"></use>
            </mask>
            <g id="Mask"></g>
            <g id="Chicken" mask="url(#mask-2)">
                <g transform="translate(-3.759036, 15.975904)">
                    <path d="M53.9296245,25.0953219 C46.7669131,32.2875602 46.1394946,44.9957334 53.3022059,52.1879716 C60.4649173,59.3802098 75.9163608,53.8392165 79.8680968,51.1407205 C83.8198328,48.4422245 84.8448654,44.7731995 85.7618228,42.222183 C87.8350831,48.0693373 92.8105814,101.836382 62.6562244,105.746705 C32.5018674,109.657028 32.0762596,56.838586 33.5369255,48.8974018 C34.9975914,40.9562176 30.5240202,30.0284597 37.6867316,22.8362214 C42.4618725,18.041396 46.9986407,18.4077949 51.2970364,23.9354182 L53.3022059,25.4818037" id="Oval-4" stroke="#FF8800" stroke-width="5" fill="#FFFFFF" fill-rule="evenodd"></path>
                    <g id="Rectangle-7" stroke="none" fill="none">
                        <use fill="#FF8800" fill-rule="evenodd" xlink:href="#path-3"></use>
                        <path stroke="#FE9B27" stroke-width="1" d="M35.9863727,25.3124715 L5.92367533,37.0212125 L35.9863727,37.6328841 L35.9863727,25.3124715 Z"></path>
                    </g>
                    <ellipse id="Oval-5" stroke="none" fill="#FF8800" fill-rule="evenodd" cx="33.0922915" cy="34.7526577" rx="10.1822435" ry="10.1715096"></ellipse>
                    <path d="M19.8847828,31.3621545 C11.0901301,34.3979409 4.7218275,36.3035323 0.779874895,37.0789287 L0.825309984,37.3099111 C0.873918125,37.3003497 0.923340464,37.2955351 0.972880061,37.2955351 L31.3952509,37.2955351" id="Path-2" stroke="#FFFFFF" stroke-width="2" fill="none"></path>
                    <path d="M40.7031392,46.6194189 C44.6617319,42.6750645 41.3177522,32.7846206 35.5527596,30.5258397 C29.787767,28.2670588 26.7063468,31.0827585 25.4556088,31.918277" id="Oval-3" stroke="#FFFFFF" stroke-width="2" fill="none" transform="translate(33.940812, 38.143161) rotate(135.000000) translate(-33.940812, -38.143161) "></path>
                    <path d="" id="Path-3" stroke="#979797" stroke-width="1" fill="none"></path>
                    <path d="M30.2999016,17.389029 C30.2999016,17.389029 41.6966681,5.18102089 45.5551082,2.63381523 C51.0202272,-0.974063019 60.7121432,-0.780480167 64.1063014,2.63381523 C67.5004597,6.04811063 64.1063014,13.9266628 64.1063014,13.9266628 C70.5829442,13.5125749 73.8212656,14.9538979 73.8212656,18.2506316 C73.8212656,23.1957323 66.1100743,26.5393525 66.1100743,26.5393525 C67.8793997,28.6298024 68.9194695,30.2010701 69.2302836,31.2531556 C69.6965048,32.8312837 69.4746009,35.4566822 69.0400791,36.4227714 C68.6055572,37.3888606 68.7540336,39.0331214 64.5589455,42.6816807 C60.3638575,46.3302399 52.2267124,46.2213294 51.207362,46.2213294 C50.1880117,46.2213294 50.5874002,48.8472537 48.9747982,42.6816807 C47.3621962,36.5161076 47.0285898,29.8558368 44.5368067,25.5506986 C42.8756179,22.6806065 42.6190237,22.2562208 43.7670239,24.2775413 L29.6982103,24.2775413 C30.0993378,19.6851998 30.2999016,17.389029 30.2999016,17.389029 Z" id="Path-4" stroke="#FF8800" stroke-width="5" fill="#FFFFFF" fill-rule="evenodd"></path>
                    <ellipse id="Eye" stroke="#FF8800" stroke-width="3" fill="#FFFFFF" fill-rule="evenodd" cx="37.7591531" cy="25.8525868" rx="7.21242251" ry="7.20481928"></ellipse>
                    <ellipse id="Eye" stroke="#FF8800" stroke-width="3" fill="#FFFFFF" fill-rule="evenodd" cx="25.0313487" cy="24.5811481" rx="8.9094631" ry="9.32388377"></ellipse>
                    <ellipse id="Eyeball" stroke="#FF8800" stroke-width="2" fill="#FF8800" fill-rule="evenodd" cx="25.4556088" cy="24.5811481" rx="1" ry="1"></ellipse>
                    <ellipse id="Eyeball" stroke="#FF8800" stroke-width="2" fill="#FF8800" fill-rule="evenodd" cx="38.1834133" cy="25.4287739" rx="1" ry="1"></ellipse>
                    <path d="M52.6954159,61.9388398 C55.9381515,60.2021505 59.6259243,59.3338058 63.7587345,59.3338058 C69.9579497,59.3338058 78.4401017,62.5519907 78.0509435,68.3020429 C77.7915047,72.1354111 76.5965895,73.8085877 74.4661978,73.3215729 C75.7342049,75.037176 76.1471866,76.5553818 75.7051428,77.8761905 C75.263099,79.1969991 73.347368,80.5869094 69.9579497,82.0459215 C71.1832991,83.401281 71.6494159,84.4047805 71.3562999,85.05642 C70.916626,86.0338794 67.7940056,90.6959603 60.1283375,90.6959603 C55.0178921,90.6959603 51.0969985,88.9549522 48.3656568,85.4729359 L52.6954159,61.9388398 Z" id="Path-5" stroke="#FFFFFF" stroke-width="2" fill="#FE9B27" fill-rule="evenodd"></path>
                    <ellipse id="Oval-6" stroke="none" fill="#FFFFFF" fill-rule="evenodd" cx="31.3952509" cy="37.2955351" rx="1" ry="1"></ellipse>
                </g>
            </g>
        </g>
    </g>
</svg>