<?xml version="1.0" encoding="UTF-8"?>
<svg width="1200px" height="800px" viewBox="0 0 1200 800" version="1.1" xmlns="http://www.w3.org/2000/svg" xmlns:xlink="http://www.w3.org/1999/xlink" style="background: #000000;">
    <!-- Generator: Sketch 49.3 (51167) - http://www.bohemiancoding.com/sketch -->
    <title>logos-overlay</title>
    <desc>Created with Sketch.</desc>
    <defs>
        <linearGradient x1="76.7465186%" y1="50%" x2="17.7526423%" y2="50%" id="linearGradient-1">
            <stop stop-color="#000000" stop-opacity="0" offset="0%"></stop>
            <stop stop-color="#000000" offset="100%"></stop>
        </linearGradient>
        <linearGradient x1="33.6516997%" y1="64.5513058%" x2="4.27805852%" y2="64.5513058%" id="linearGradient-2">
            <stop stop-color="#000000" stop-opacity="0" offset="0%"></stop>
            <stop stop-color="#000000" offset="100%"></stop>
        </linearGradient>
    </defs>
    <g id="logos-overlay" stroke="none" stroke-width="1" fill="none" fill-rule="evenodd">
        <g id="Looper_Group" opacity="0.594202899" transform="translate(188.000000, -164.000000)" stroke="#FE9B27" stroke-width="2">
            <g id="original_duplicate_1_original_Oval_81695993_38465159-Group" opacity="0.402456975">
                <path d="M807.568016,963.933817 C990.45035,963.933817 1122.28131,876.585027 1122.28131,626.234602 C1122.28131,375.884177 990.45035,57.334728 807.568016,57.334728 C624.685682,57.334728 481.099672,375.884177 481.099672,626.234602 C481.099672,876.585027 624.685682,963.933817 807.568016,963.933817 Z" id="duplicate_50_original_duplicate_1_original_Oval_81695993_38465159" transform="translate(801.690492, 510.634272) rotate(262.800000) translate(-801.690492, -510.634272) "></path>
                <path d="M794.683196,957.960592 C975.130346,957.960592 1105.2059,871.762977 1105.2059,624.711934 C1105.2059,377.660891 975.130346,63.3096234 794.683196,63.3096234 C614.236046,63.3096234 472.561967,377.660891 472.561967,624.711934 C472.561967,871.762977 614.236046,957.960592 794.683196,957.960592 Z" id="duplicate_49_original_duplicate_1_original_Oval_81695993_38465159" transform="translate(788.883934, 510.635108) rotate(255.600000) translate(-788.883934, -510.635108) "></path>
                <path d="M781.798376,951.987413 C959.810341,951.987413 1088.13049,866.940968 1088.13049,623.189295 C1088.13049,379.437621 959.810341,69.2845188 781.798376,69.2845188 C603.78641,69.2845188 464.024262,379.437621 464.024262,623.189295 C464.024262,866.940968 603.78641,951.987413 781.798376,951.987413 Z" id="duplicate_48_original_duplicate_1_original_Oval_81695993_38465159" transform="translate(776.077377, 510.635966) rotate(248.400000) translate(-776.077377, -510.635966) "></path>
                <path d="M768.913556,946.014282 C944.490337,946.014282 1071.05508,862.119003 1071.05508,621.666686 C1071.05508,381.214369 944.490337,75.2594142 768.913556,75.2594142 C593.336775,75.2594142 455.486557,381.214369 455.486557,621.666686 C455.486557,862.119003 593.336775,946.014282 768.913556,946.014282 Z" id="duplicate_47_original_duplicate_1_original_Oval_81695993_38465159" transform="translate(763.270820, 510.636848) rotate(241.200000) translate(-763.270820, -510.636848) "></path>
                <path d="M756.028736,940.041202 C929.170333,940.041202 1053.97967,857.297084 1053.97967,620.144109 C1053.97967,382.991134 929.170333,81.2343096 756.028736,81.2343096 C582.887139,81.2343096 446.948852,382.991134 446.948852,620.144109 C446.948852,857.297084 582.887139,940.041202 756.028736,940.041202 Z" id="duplicate_46_original_duplicate_1_original_Oval_81695993_38465159" transform="translate(750.464262, 510.637756) rotate(234.000000) translate(-750.464262, -510.637756) "></path>
                <path d="M743.143916,934.068175 C913.850329,934.068175 1036.90426,852.475212 1036.90426,618.621565 C1036.90426,384.767918 913.850329,87.209205 743.143916,87.209205 C572.437503,87.209205 438.411148,384.767918 438.411148,618.621565 C438.411148,852.475212 572.437503,934.068175 743.143916,934.068175 Z" id="duplicate_45_original_duplicate_1_original_Oval_81695993_38465159" transform="translate(737.657705, 510.638690) rotate(226.800000) translate(-737.657705, -510.638690) "></path>
                <path d="M730.259096,928.095202 C898.530325,928.095202 1019.82885,847.65339 1019.82885,617.099055 C1019.82885,386.544721 898.530325,93.1841004 730.259096,93.1841004 C561.987867,93.1841004 429.873443,386.544721 429.873443,617.099055 C429.873443,847.65339 561.987867,928.095202 730.259096,928.095202 Z" id="duplicate_44_original_duplicate_1_original_Oval_81695993_38465159" transform="translate(724.851148, 510.639651) rotate(219.600000) translate(-724.851148, -510.639651) "></path>
                <path d="M717.374276,922.122287 C883.21032,922.122287 1002.75344,842.831619 1002.75344,615.576581 C1002.75344,388.321544 883.21032,99.1589958 717.374276,99.1589958 C551.538231,99.1589958 421.335738,388.321544 421.335738,615.576581 C421.335738,842.831619 551.538231,922.122287 717.374276,922.122287 Z" id="duplicate_43_original_duplicate_1_original_Oval_81695993_38465159" transform="translate(712.044590, 510.640641) rotate(212.400000) translate(-712.044590, -510.640641) "></path>
                <path d="M704.489456,916.149431 C867.890316,916.149431 985.678033,838.009903 985.678033,614.054145 C985.678033,390.098388 867.890316,105.133891 704.489456,105.133891 C541.088596,105.133891 412.798033,390.098388 412.798033,614.054145 C412.798033,838.009903 541.088596,916.149431 704.489456,916.149431 Z" id="duplicate_42_original_duplicate_1_original_Oval_81695993_38465159" transform="translate(699.238033, 510.641661) rotate(205.200000) translate(-699.238033, -510.641661) "></path>
                <path d="M691.604636,910.176638 C852.570312,910.176638 968.602623,833.188243 968.602623,612.531748 C968.602623,391.875254 852.570312,111.108787 691.604636,111.108787 C530.63896,111.108787 404.260328,391.875254 404.260328,612.531748 C404.260328,833.188243 530.63896,910.176638 691.604636,910.176638 Z" id="duplicate_41_original_duplicate_1_original_Oval_81695993_38465159" transform="translate(686.431475, 510.642713) rotate(198.000000) translate(-686.431475, -510.642713) "></path>
                <path d="M678.719816,904.203911 C837.250308,904.203911 951.527213,828.366642 951.527213,611.009393 C951.527213,393.652143 837.250308,117.083682 678.719816,117.083682 C520.189324,117.083682 395.722623,393.652143 395.722623,611.009393 C395.722623,828.366642 520.189324,904.203911 678.719816,904.203911 Z" id="duplicate_40_original_duplicate_1_original_Oval_81695993_38465159" transform="translate(673.624918, 510.643797) rotate(190.800000) translate(-673.624918, -510.643797) "></path>
                <path d="M665.834996,898.231253 C821.930303,898.231253 934.451803,823.545104 934.451803,609.48708 C934.451803,395.429057 821.930303,123.058577 665.834996,123.058577 C509.739688,123.058577 387.184918,395.429057 387.184918,609.48708 C387.184918,823.545104 509.739688,898.231253 665.834996,898.231253 Z" id="duplicate_39_original_duplicate_1_original_Oval_81695993_38465159" transform="translate(660.818361, 510.644915) rotate(183.600000) translate(-660.818361, -510.644915) "></path>
                <path d="M652.950176,892.258666 C806.610299,892.258666 917.376393,818.72363 917.376393,607.964813 C917.376393,397.205995 806.610299,129.033473 652.950176,129.033473 C499.290052,129.033473 378.647213,397.205995 378.647213,607.964813 C378.647213,818.72363 499.290052,892.258666 652.950176,892.258666 Z" id="duplicate_38_original_duplicate_1_original_Oval_81695993_38465159" transform="translate(648.011803, 510.646070) rotate(176.400000) translate(-648.011803, -510.646070) "></path>
                <path d="M640.065356,886.286155 C791.290295,886.286155 900.300984,813.902225 900.300984,606.442593 C900.300984,398.982961 791.290295,135.008368 640.065356,135.008368 C488.840417,135.008368 370.109508,398.982961 370.109508,606.442593 C370.109508,813.902225 488.840417,886.286155 640.065356,886.286155 Z" id="duplicate_37_original_duplicate_1_original_Oval_81695993_38465159" transform="translate(635.205246, 510.647262) rotate(169.200000) translate(-635.205246, -510.647262) "></path>
                <path d="M627.180536,880.313724 C775.970291,880.313724 883.225574,809.080892 883.225574,604.920423 C883.225574,400.759954 775.970291,140.983264 627.180536,140.983264 C478.390781,140.983264 361.571803,400.759954 361.571803,604.920423 C361.571803,809.080892 478.390781,880.313724 627.180536,880.313724 Z" id="duplicate_36_original_duplicate_1_original_Oval_81695993_38465159" transform="translate(622.398689, 510.648494) rotate(162.000000) translate(-622.398689, -510.648494) "></path>
                <path d="M614.295716,874.341376 C760.650287,874.341376 866.150164,804.259634 866.150164,603.398305 C866.150164,402.536976 760.650287,146.958159 614.295716,146.958159 C467.941145,146.958159 353.034098,402.536976 353.034098,603.398305 C353.034098,804.259634 467.941145,874.341376 614.295716,874.341376 Z" id="duplicate_35_original_duplicate_1_original_Oval_81695993_38465159" transform="translate(609.592131, 510.649767) rotate(154.800000) translate(-609.592131, -510.649767) "></path>
                <path d="M601.410896,868.369115 C745.330282,868.369115 849.074754,799.438455 849.074754,601.876242 C849.074754,404.314029 745.330282,152.933054 601.410896,152.933054 C457.491509,152.933054 344.496393,404.314029 344.496393,601.876242 C344.496393,799.438455 457.491509,868.369115 601.410896,868.369115 Z" id="duplicate_34_original_duplicate_1_original_Oval_81695993_38465159" transform="translate(596.785574, 510.651085) rotate(147.600000) translate(-596.785574, -510.651085) "></path>
                <path d="M588.526076,862.396947 C730.010278,862.396947 831.999344,794.61736 831.999344,600.354237 C831.999344,406.091115 730.010278,158.90795 588.526076,158.90795 C447.041873,158.90795 335.958689,406.091115 335.958689,600.354237 C335.958689,794.61736 447.041873,862.396947 588.526076,862.396947 Z" id="duplicate_33_original_duplicate_1_original_Oval_81695993_38465159" transform="translate(583.979016, 510.652449) rotate(140.400000) translate(-583.979016, -510.652449) "></path>
                <path d="M575.641256,856.424876 C714.690274,856.424876 814.923934,789.796352 814.923934,598.832293 C814.923934,407.868235 714.690274,164.882845 575.641256,164.882845 C436.592237,164.882845 327.420984,407.868235 327.420984,598.832293 C327.420984,789.796352 436.592237,856.424876 575.641256,856.424876 Z" id="duplicate_32_original_duplicate_1_original_Oval_81695993_38465159" transform="translate(571.172459, 510.653861) rotate(133.200000) translate(-571.172459, -510.653861) "></path>
                <path d="M562.756436,850.452908 C699.37027,850.452908 797.848525,784.975437 797.848525,597.310414 C797.848525,409.64539 699.37027,170.857741 562.756436,170.857741 C426.142602,170.857741 318.883279,409.64539 318.883279,597.310414 C318.883279,784.975437 426.142602,850.452908 562.756436,850.452908 Z" id="duplicate_31_original_duplicate_1_original_Oval_81695993_38465159" transform="translate(558.365902, 510.655324) rotate(126.000000) translate(-558.365902, -510.655324) "></path>
                <path d="M549.871616,844.481048 C684.050265,844.481048 780.773115,780.15462 780.773115,595.788602 C780.773115,411.422584 684.050265,176.832636 549.871616,176.832636 C415.692966,176.832636 310.345574,411.422584 310.345574,595.788602 C310.345574,780.15462 415.692966,844.481048 549.871616,844.481048 Z" id="duplicate_30_original_duplicate_1_original_Oval_81695993_38465159" transform="translate(545.559344, 510.656842) rotate(118.800000) translate(-545.559344, -510.656842) "></path>
                <path d="M536.986796,838.509302 C668.730261,838.509302 763.697705,775.333907 763.697705,594.266862 C763.697705,413.199818 668.730261,182.807531 536.986796,182.807531 C405.24333,182.807531 301.807869,413.199818 301.807869,594.266862 C301.807869,775.333907 405.24333,838.509302 536.986796,838.509302 Z" id="duplicate_29_original_duplicate_1_original_Oval_81695993_38465159" transform="translate(532.752787, 510.658417) rotate(111.600000) translate(-532.752787, -510.658417) "></path>
                <path d="M524.101976,832.537677 C653.410257,832.537677 746.622295,770.513302 746.622295,592.745198 C746.622295,414.977095 653.410257,188.782427 524.101976,188.782427 C394.793694,188.782427 293.270164,414.977095 293.270164,592.745198 C293.270164,770.513302 394.793694,832.537677 524.101976,832.537677 Z" id="duplicate_28_original_duplicate_1_original_Oval_81695993_38465159" transform="translate(519.946230, 510.660052) rotate(104.400000) translate(-519.946230, -510.660052) "></path>
                <path d="M511.217156,826.56618 C638.090253,826.56618 729.546885,765.692813 729.546885,591.223615 C729.546885,416.754416 638.090253,194.757322 511.217156,194.757322 C384.344058,194.757322 284.732459,416.754416 284.732459,591.223615 C284.732459,765.692813 384.344058,826.56618 511.217156,826.56618 Z" id="duplicate_27_original_duplicate_1_original_Oval_81695993_38465159" transform="translate(507.139672, 510.661751) rotate(97.200000) translate(-507.139672, -510.661751) "></path>
                <path d="M498.332336,820.594819 C622.770249,820.594819 712.471475,760.872447 712.471475,589.702116 C712.471475,418.531785 622.770249,200.732218 498.332336,200.732218 C373.894423,200.732218 276.194754,418.531785 276.194754,589.702116 C276.194754,760.872447 373.894423,820.594819 498.332336,820.594819 Z" id="duplicate_26_original_duplicate_1_original_Oval_81695993_38465159" transform="translate(494.333115, 510.663518) rotate(90.000000) translate(-494.333115, -510.663518) "></path>
                <path d="M485.447516,814.623601 C607.450244,814.623601 695.396066,756.052211 695.396066,588.180708 C695.396066,420.309205 607.450244,206.707113 485.447516,206.707113 C363.444787,206.707113 267.657049,420.309205 267.657049,588.180708 C267.657049,756.052211 363.444787,814.623601 485.447516,814.623601 Z" id="duplicate_25_original_duplicate_1_original_Oval_81695993_38465159" transform="translate(481.526557, 510.665357) rotate(82.800000) translate(-481.526557, -510.665357) "></path>
                <path d="M472.562696,808.652537 C592.13024,808.652537 678.320656,751.232113 678.320656,586.659396 C678.320656,422.086679 592.13024,212.682008 472.562696,212.682008 C352.995151,212.682008 259.119344,422.086679 259.119344,586.659396 C259.119344,751.232113 352.995151,808.652537 472.562696,808.652537 Z" id="duplicate_24_original_duplicate_1_original_Oval_81695993_38465159" transform="translate(468.720000, 510.667273) rotate(75.600000) translate(-468.720000, -510.667273) "></path>
                <path d="M459.677876,802.681635 C576.810236,802.681635 661.245246,746.412162 661.245246,585.138186 C661.245246,423.864209 576.810236,218.656904 459.677876,218.656904 C342.545515,218.656904 250.581639,423.864209 250.581639,585.138186 C250.581639,746.412162 342.545515,802.681635 459.677876,802.681635 Z" id="duplicate_23_original_duplicate_1_original_Oval_81695993_38465159" transform="translate(455.913443, 510.669270) rotate(68.400000) translate(-455.913443, -510.669270) "></path>
                <path d="M446.793056,796.710907 C561.490232,796.710907 644.169836,741.592368 644.169836,583.617084 C644.169836,425.641801 561.490232,224.631799 446.793056,224.631799 C332.095879,224.631799 242.043934,425.641801 242.043934,583.617084 C242.043934,741.592368 332.095879,796.710907 446.793056,796.710907 Z" id="duplicate_22_original_duplicate_1_original_Oval_81695993_38465159" transform="translate(443.106885, 510.671353) rotate(61.200000) translate(-443.106885, -510.671353) "></path>
                <path d="M433.908236,790.740363 C546.170227,790.740363 627.094426,736.77274 627.094426,582.096099 C627.094426,427.419457 546.170227,230.606695 433.908236,230.606695 C321.646244,230.606695 233.50623,427.419457 233.50623,582.096099 C233.50623,736.77274 321.646244,790.740363 433.908236,790.740363 Z" id="duplicate_21_original_duplicate_1_original_Oval_81695993_38465159" transform="translate(430.300328, 510.673529) rotate(54.000000) translate(-430.300328, -510.673529) "></path>
                <path d="M421.023416,784.770017 C530.850223,784.770017 610.019016,731.953291 610.019016,580.575237 C610.019016,429.197183 530.850223,236.58159 421.023416,236.58159 C311.196608,236.58159 224.968525,429.197183 224.968525,580.575237 C224.968525,731.953291 311.196608,784.770017 421.023416,784.770017 Z" id="duplicate_20_original_duplicate_1_original_Oval_81695993_38465159" transform="translate(417.493770, 510.675803) rotate(46.800000) translate(-417.493770, -510.675803) "></path>
                <path d="M408.138595,778.799882 C515.530219,778.799882 592.943607,727.134033 592.943607,579.054508 C592.943607,430.974983 515.530219,242.556485 408.138595,242.556485 C300.746972,242.556485 216.43082,430.974983 216.43082,579.054508 C216.43082,727.134033 300.746972,778.799882 408.138595,778.799882 Z" id="duplicate_19_original_duplicate_1_original_Oval_81695993_38465159" transform="translate(404.687213, 510.678183) rotate(39.600000) translate(-404.687213, -510.678183) "></path>
                <path d="M395.253775,772.829972 C500.210215,772.829972 575.868197,722.314979 575.868197,577.533921 C575.868197,432.752862 500.210215,248.531381 395.253775,248.531381 C290.297336,248.531381 207.893115,432.752862 207.893115,577.533921 C207.893115,722.314979 290.297336,772.829972 395.253775,772.829972 Z" id="duplicate_18_original_duplicate_1_original_Oval_81695993_38465159" transform="translate(391.880656, 510.680677) rotate(32.400000) translate(-391.880656, -510.680677) "></path>
                <path d="M382.368955,766.860306 C484.890211,766.860306 558.792787,717.496144 558.792787,576.013486 C558.792787,434.530827 484.890211,254.506276 382.368955,254.506276 C279.8477,254.506276 199.35541,434.530827 199.35541,576.013486 C199.35541,717.496144 279.8477,766.860306 382.368955,766.860306 Z" id="duplicate_17_original_duplicate_1_original_Oval_81695993_38465159" transform="translate(379.074098, 510.683291) rotate(25.200000) translate(-379.074098, -510.683291) "></path>
                <path d="M369.484135,760.8909 C469.570206,760.8909 541.717377,712.677545 541.717377,574.493214 C541.717377,436.308883 469.570206,260.481172 369.484135,260.481172 C269.398065,260.481172 190.817705,436.308883 190.817705,574.493214 C190.817705,712.677545 269.398065,760.8909 369.484135,760.8909 Z" id="duplicate_16_original_duplicate_1_original_Oval_81695993_38465159" transform="translate(366.267541, 510.686036) rotate(18.000000) translate(-366.267541, -510.686036) "></path>
                <path d="M356.599315,754.921776 C454.250202,754.921776 524.641967,707.8592 524.641967,572.973119 C524.641967,438.087038 454.250202,266.456067 356.599315,266.456067 C258.948429,266.456067 182.28,438.087038 182.28,572.973119 C182.28,707.8592 258.948429,754.921776 356.599315,754.921776 Z" id="duplicate_15_original_duplicate_1_original_Oval_81695993_38465159" transform="translate(353.460984, 510.688921) rotate(10.800000) translate(-353.460984, -510.688921) "></path>
                <path d="M343.714495,748.952954 C438.930198,748.952954 507.566557,703.041128 507.566557,571.453214 C507.566557,439.8653 438.930198,272.430962 343.714495,272.430962 C248.498793,272.430962 173.742295,439.8653 173.742295,571.453214 C173.742295,703.041128 248.498793,748.952954 343.714495,748.952954 Z" id="duplicate_14_original_duplicate_1_original_Oval_81695993_38465159" transform="translate(340.654426, 510.691958) rotate(3.600000) translate(-340.654426, -510.691958) "></path>
                <path d="M330.829675,742.984459 C423.610194,742.984459 490.491148,698.223353 490.491148,569.933514 C490.491148,441.643676 423.610194,278.405858 330.829675,278.405858 C238.049157,278.405858 165.20459,441.643676 165.20459,569.933514 C165.20459,698.223353 238.049157,742.984459 330.829675,742.984459 Z" id="duplicate_13_original_duplicate_1_original_Oval_81695993_38465159" transform="translate(327.847869, 510.695158) rotate(-3.600000) translate(-327.847869, -510.695158) "></path>
                <path d="M317.944855,737.016319 C408.290189,737.016319 473.415738,693.405897 473.415738,568.414037 C473.415738,443.422177 408.290189,284.380753 317.944855,284.380753 C227.599521,284.380753 156.666885,443.422177 156.666885,568.414037 C156.666885,693.405897 227.599521,737.016319 317.944855,737.016319 Z" id="duplicate_12_original_duplicate_1_original_Oval_81695993_38465159" transform="translate(315.041311, 510.698536) rotate(-10.800000) translate(-315.041311, -510.698536) "></path>
                <path d="M305.060035,731.048564 C392.970185,731.048564 456.340328,688.58879 456.340328,566.894802 C456.340328,445.200813 392.970185,290.355649 305.060035,290.355649 C217.149885,290.355649 148.12918,445.200813 148.12918,566.894802 C148.12918,688.58879 217.149885,731.048564 305.060035,731.048564 Z" id="duplicate_11_original_duplicate_1_original_Oval_81695993_38465159" transform="translate(302.234754, 510.702106) rotate(-18.000000) translate(-302.234754, -510.702106) "></path>
                <path d="M292.175215,725.081228 C377.650181,725.081228 439.264918,683.772061 439.264918,565.375829 C439.264918,446.979597 377.650181,296.330544 292.175215,296.330544 C206.70025,296.330544 139.591475,446.979597 139.591475,565.375829 C139.591475,683.772061 206.70025,725.081228 292.175215,725.081228 Z" id="duplicate_10_original_duplicate_1_original_Oval_81695993_38465159" transform="translate(289.428197, 510.705886) rotate(-25.200000) translate(-289.428197, -510.705886) "></path>
                <path d="M279.290395,719.114349 C362.330177,719.114349 422.189508,678.955745 422.189508,563.857143 C422.189508,448.758541 362.330177,302.305439 279.290395,302.305439 C196.250614,302.305439 131.05377,448.758541 131.05377,563.857143 C131.05377,678.955745 196.250614,719.114349 279.290395,719.114349 Z" id="duplicate_9_original_duplicate_1_original_Oval_81695993_38465159" transform="translate(276.621639, 510.709894) rotate(-32.400000) translate(-276.621639, -510.709894) "></path>
                <path d="M266.405575,713.147969 C347.010173,713.147969 405.114098,674.13988 405.114098,562.33877 C405.114098,450.53766 347.010173,308.280335 266.405575,308.280335 C185.800978,308.280335 122.516066,450.53766 122.516066,562.33877 C122.516066,674.13988 185.800978,713.147969 266.405575,713.147969 Z" id="duplicate_8_original_duplicate_1_original_Oval_81695993_38465159" transform="translate(263.815082, 510.714152) rotate(-39.600000) translate(-263.815082, -510.714152) "></path>
                <path d="M253.520755,707.182136 C331.690168,707.182136 388.038689,669.32451 388.038689,560.820741 C388.038689,452.316972 331.690168,314.25523 253.520755,314.25523 C175.351342,314.25523 113.978361,452.316972 113.978361,560.820741 C113.978361,669.32451 175.351342,707.182136 253.520755,707.182136 Z" id="duplicate_7_original_duplicate_1_original_Oval_81695993_38465159" transform="translate(251.008525, 510.718683) rotate(-46.800000) translate(-251.008525, -510.718683) "></path>
                <path d="M240.635935,701.216906 C316.370164,701.216906 370.963279,664.509684 370.963279,559.30309 C370.963279,454.096495 316.370164,320.230126 240.635935,320.230126 C164.901706,320.230126 105.440656,454.096495 105.440656,559.30309 C105.440656,664.509684 164.901706,701.216906 240.635935,701.216906 Z" id="duplicate_6_original_duplicate_1_original_Oval_81695993_38465159" transform="translate(238.201967, 510.723516) rotate(-54.000000) translate(-238.201967, -510.723516) "></path>
                <path d="M227.751115,695.25234 C301.05016,695.25234 353.887869,659.695458 353.887869,557.785855 C353.887869,455.876252 301.05016,326.205021 227.751115,326.205021 C154.452071,326.205021 96.9029508,455.876252 96.9029508,557.785855 C96.9029508,659.695458 154.452071,695.25234 227.751115,695.25234 Z" id="duplicate_5_original_duplicate_1_original_Oval_81695993_38465159" transform="translate(225.395410, 510.728680) rotate(-61.200000) translate(-225.395410, -510.728680) "></path>
                <path d="M214.866295,689.288509 C285.730156,689.288509 336.812459,654.881897 336.812459,556.269082 C336.812459,457.656267 285.730156,332.179916 214.866295,332.179916 C144.002435,332.179916 88.3652459,457.656267 88.3652459,556.269082 C88.3652459,654.881897 144.002435,689.288509 214.866295,689.288509 Z" id="duplicate_4_original_duplicate_1_original_Oval_81695993_38465159" transform="translate(212.588852, 510.734213) rotate(-68.400000) translate(-212.588852, -510.734213) "></path>
                <path d="M201.981475,683.325495 C270.410151,683.325495 319.737049,650.069074 319.737049,554.752822 C319.737049,459.436569 270.410151,338.154812 201.981475,338.154812 C133.552799,338.154812 79.827541,459.436569 79.827541,554.752822 C79.827541,650.069074 133.552799,683.325495 201.981475,683.325495 Z" id="duplicate_3_original_duplicate_1_original_Oval_81695993_38465159" transform="translate(199.782295, 510.740153) rotate(-75.600000) translate(-199.782295, -510.740153) "></path>
                <path d="M189.096655,677.363392 C255.090147,677.363392 302.661639,645.257073 302.661639,553.237132 C302.661639,461.217191 255.090147,344.129707 189.096655,344.129707 C123.103163,344.129707 71.2898361,461.217191 71.2898361,553.237132 C71.2898361,645.257073 123.103163,677.363392 189.096655,677.363392 Z" id="duplicate_2_original_duplicate_1_original_Oval_81695993_38465159" transform="translate(186.975738, 510.746549) rotate(-82.800000) translate(-186.975738, -510.746549) "></path>
                <path d="M176.211835,671.468619 C239.770143,671.468619 285.58623,640.547036 285.58623,551.922665 C285.58623,463.298293 239.770143,350.531381 176.211835,350.531381 C112.653527,350.531381 62.7521311,463.298293 62.7521311,551.922665 C62.7521311,640.547036 112.653527,671.468619 176.211835,671.468619 Z" id="duplicate_1_original_duplicate_1_original_Oval_81695993_38465159" transform="translate(174.169180, 511.000000) rotate(-90.000000) translate(-174.169180, -511.000000) "></path>
            </g>
        </g>
        <rect id="Shade" fill="url(#linearGradient-1)" x="0" y="0" width="1200" height="800"></rect>
        <rect id="Shade" fill="url(#linearGradient-2)" transform="translate(601.000000, 410.000000) rotate(-90.000000) translate(-601.000000, -410.000000) " x="192" y="-196" width="818" height="1212"></rect>
    </g>
</svg>