<svg height="201" viewBox="0 0 241 201" width="241" xmlns="http://www.w3.org/2000/svg"><g fill="#e60012" fill-rule="evenodd" transform="translate(-1)"><g fill-rule="nonzero" transform="matrix(1 0 0 -1 50 142)"><path d="m30.3991718 141.529607c-14.1412008-2.528365-25.51884054-12.994617-29.10559002-26.753624-1.29358178-4.96853-1.38178054-7.879089-1.23478261-46.4219457.08819876-35.3971015.11759835-36.2202899.70559006-38.9544514 3.26335404-14.7291925 13.72960667-25.2248447 28.60579707-28.69399584 1.9403727-.44099379 4.4099379-.52919254 20.3151139-.6173913 16.4637681-.11759835 18.1689441-.08819876 18.6099379.35279503s.4703934 6.11511387.4703934 70.44140791c0 47.6861283-.0881988 70.1474123-.2939959 70.5590063-.2939958.529192-.7937888.558592-18.0219462.529192-13.9942029-.029399-18.1983436-.117598-20.0505176-.440993zm26.6066253-70.5590066v-59.5635611l-11.9656315.146998c-11.0248447.1175983-12.2008281.1763975-14.4057971.7349896-9.4666666 2.4401656-16.4931677 9.731263-18.4629399 19.2273292-.6467909 2.9693582-.6467909 76.1155279-.0293996 79.0260869 1.7639751 8.261284 7.4968944 15.111387 15.2289855 18.198344 3.8807453 1.558178 5.6741201 1.734575 18.2571428 1.763975l11.3776398.029399z"/><path d="m32.9275362 112.571014c-1.8521739-.352795-4.6745341-1.763975-6.173913-3.086956-3.0869565-2.675362-4.615735-6.467909-4.3805383-10.936646.1175983-2.3225673.2645963-2.9399586 1.205383-4.8215321 1.3817805-2.8517598 3.4691511-4.9391304 6.320911-6.3503105 1.9697722-.9701864 2.4695652-1.0877847 5.0273292-1.1759835 2.3225673-.0881987 3.1457557 0 4.7039337.5291926 6.3797102 2.1461697 10.2310559 8.3494824 9.1432712 14.6997925-1.2641822 7.555694-8.4376811 12.612423-15.8463768 11.142443z"/><path d="m83.0832298 141.794203c-.1175983-.088199-.2057971-31.95735-.2057971-70.8236026 0-64.12049688.0293996-70.61780537.4703934-70.79420288.7937888-.29399586 23.6078679-.17639752 26.4302279.11759834 11.936232 1.35238095 22.461283 8.61407867 28.194203 19.40372674.734989 1.3817805 1.705176 3.7043478 2.204969 5.1449275 1.852174 5.5271222 1.793374 4.0571429 1.793374 46.3043478 0 33.7213251-.058799 38.7486541-.470393 40.8948241-2.910559 15.317184-14.582195 26.871221-29.928778 29.517184-2.057971.352795-5.233127.440994-15.4641826.440994-7.0559006 0-12.9358178-.088199-13.0240166-.205797zm31.3987582-64.0322982c4.586335-1.2053831 8.349482-4.7039338 9.87826-9.1726708.970187-2.7635611.940787-6.820704-.029399-9.3490684-1.793375-4.6451345-5.321325-7.9084886-9.848861-9.1138716-7.349897-1.9109731-15.1701868 2.5283644-17.3163565 9.8194617-.6467909 2.2343685-.6173913 5.9975155.1175983 8.2906832 2.204969 7.2028986 9.8488612 11.4364389 17.1987582 9.5254659z"/></g><text font-family="Avenir-Black, Avenir" font-size="48" font-weight="700"><tspan x=".136" y="198">CONNECT</tspan></text></g></svg>