<svg height="43" viewBox="0 0 200 43" width="200" xmlns="http://www.w3.org/2000/svg"><g fill="none" fill-rule="evenodd" transform="translate(0 1.574803)"><path d="m76.9055118 13.9212598c1.2677229 0 2.4068191.2755878 3.4173228.8267717 1.0105038.5511839 1.8005221 1.3549816 2.3700788 2.4114173.5695566 1.0564357.8543307 2.3287327.8543307 3.8169292v6.7795275c0 .4042015-.1332008.7395-.3996063 1.0059055-.2664055.2664056-.601704.3996063-1.0059055.3996063s-.7395-.1332007-1.0059055-.3996063c-.2664056-.2664055-.3996063-.601704-.3996063-1.0059055v-6.7795275c0-1.4881965-.3996023-2.6135133-1.1988189-3.3759843s-1.8602296-1.1437008-3.1830709-1.1437008c-.7716574 0-1.4744063.1561664-2.1082677.468504-.6338614.3123375-1.1299195.7349054-1.488189 1.2677165-.3582695.532811-.5374016 1.1299179-.5374016 1.7913386v7.7716535c0 .4042015-.1286076.7395-.3858267 1.0059055-.2572192.2664056-.5971108.3996063-1.0196851.3996063-.4042015 0-.7395-.1332007-1.0059055-.3996063-.2664055-.2664055-.3996063-.601704-.3996063-1.0059055v-12.2913386c0-.4225743.1332008-.7624659.3996063-1.019685s.601704-.3858268 1.0059055-.3858268c.4225743 0 .7624659.1286077 1.0196851.3858268.2572191.2572191.3858267.5971107.3858267 1.019685v.3031496c.5879295-.5879294 1.2860852-1.0426493 2.0944882-1.3641732s1.6719114-.4822835 2.5905512-.4822835zm24.8307082 7.4409449c0 .3490831-.119421.6384503-.358267.8681103-.238847.2296599-.541993.3444881-.909449.3444881h-10.472441c.2021007 1.2860957.7854282 2.3241431 1.75 3.1141733.9645717.7900302 2.1450061 1.1850393 3.5413386 1.1850393.5511838 0 1.1253251-.1010488 1.7224409-.3031496.5971159-.2021007 1.0885808-.4501297 1.4744095-.7440944.2572191-.2021008.5603657-.3031497.9094488-.3031497s.6246712.0918626.8267712.2755906c.330711.2755919.496063.5879248.496063.9370079 0 .3307103-.14698.6062981-.440944.8267716-.6246755.4960655-1.4009144.9002609-2.3287406 1.2125985-.9278262.3123375-1.8143002.4685039-2.6594488.4685039-1.5065692 0-2.8569494-.3261122-4.0511811-.9783465-1.1942317-.6522342-2.1266371-1.5570808-2.7972441-2.7145669s-1.0059055-2.4711213-1.0059055-3.9409449.3169259-2.7880519.9507874-3.9547244c.6338614-1.1666725 1.5157423-2.0761122 2.6456693-2.7283464 1.1299269-.6522343 2.4114101-.9783465 3.8444881-.9783465 1.4147053 0 2.6364778.3123328 3.6653544.9370079 1.0288765.624675 1.8188949 1.4973697 2.3700789 2.6181102s.826771 2.4068169.826771 3.8582677zm-6.8622043-5.0433071c-1.341214 0-2.4297858.3674504-3.265748 1.1023622-.8359622.7349119-1.3641721 1.7178417-1.5846457 2.9488189h9.1771654c-.1653552-1.2309772-.6246681-2.213907-1.3779528-2.9488189-.7532846-.7349118-1.7362144-1.1023622-2.9488189-1.1023622zm10.7204723-.8543307c0-.4225743.133201-.7624659.399606-1.019685.266406-.2572191.601705-.3858268 1.005906-.3858268.422574 0 .762466.1286077 1.019685.3858268s.385827.5971107.385827 1.019685v12.2637796c0 .4042015-.128608.7394999-.385827 1.0059055-.257219.2664055-.597111.3996063-1.019685.3996063-.404201 0-.7395-.1332008-1.005906-.3996063-.266405-.2664056-.399606-.601704-.399606-1.0059055zm1.405512-7.49606296c.496065 0 .923227.17913206 1.281496.53740157.35827.35826951.537402.78543059.537402 1.28149606 0 .49606543-.179132.92322653-.537402 1.28149603-.358269.3582695-.785431.5374016-1.281496.5374016s-.923227-.1791321-1.281496-.5374016c-.35827-.3582695-.537402-.7854306-.537402-1.28149603 0-.49606547.179132-.92322655.537402-1.28149606.358269-.35826951.785431-.53740157 1.281496-.53740157zm13.476378 5.98031496c1.451451 0 2.751307.3261122 3.899606.9783465 1.1483.6522342 2.048553 1.5570808 2.700788 2.7145669.652234 1.1574861.978346 2.4803075.978346 3.9685039v5.9527559c0 1.4514509-.321519 2.7742723-.964567 3.968504s-1.547894 2.1358233-2.714567 2.8248031c-1.166672.6889798-2.484901 1.0334646-3.954724 1.0334646-1.322841 0-2.5538-.2618084-3.692914-.7854331-1.139113-.5236247-2.094484-1.2723048-2.866141-2.246063-.202101-.2572191-.30315-.5144344-.30315-.7716535 0-.3858287.192912-.7165341.57874-.992126.257219-.1653552.514435-.2480315.771654-.2480315.45932 0 .835956.1929114 1.129921.5787402.496066.6430478 1.120731 1.1345127 1.874016 1.4744094.753284.3398967 1.607607.5098425 2.562992.5098425.900267 0 1.717844-.2158771 2.452756-.6476378s1.322832-1.0656126 1.763779-1.9015748.661418-1.8326714.661418-2.9901575v-1.3503937c-.569557 1.0105038-1.32283 1.8005221-2.259843 2.3700788-.937012.5695566-1.993432.8543307-3.169291.8543307-1.359587 0-2.576766-.3261122-3.651575-.9783465-1.074808-.6522342-1.910758-1.5570808-2.507874-2.7145669s-.895669-2.4711213-.895669-3.9409449c0-1.4881964.321519-2.8110178.964567-3.9685039s1.543301-2.0623327 2.700787-2.7145669c1.157486-.6522343 2.471121-.9783465 3.940945-.9783465zm0 12.8149606c.937013 0 1.777555-.2204702 2.521653-.6614173.744099-.4409471 1.322833-1.0518334 1.736221-1.8326772s.620079-1.6673178.620079-2.6594488c0-.9921309-.206691-1.8831981-.620079-2.6732283s-.992122-1.4055096-1.736221-1.8464567c-.744098-.4409471-1.58464-.6614173-2.521653-.6614173s-1.777555.2204702-2.521654.6614173c-.744098.4409471-1.327425 1.0564265-1.75 1.8464567-.422574.7900302-.633858 1.6810974-.633858 2.6732283 0 .992131.211284 1.878605.633858 2.6594488.422575.7808438 1.005902 1.3917301 1.75 1.8326772.744099.4409471 1.584641.6614173 2.521654.6614173zm19.263779-12.8425197c1.267723 0 2.40682.2755878 3.417323.8267717 1.010504.5511839 1.800522 1.3549816 2.370079 2.4114173s.854331 2.3287327.854331 3.8169292v6.7795275c0 .4042015-.133201.7395-.399607 1.0059055-.266405.2664056-.601704.3996063-1.005905.3996063-.404202 0-.7395-.1332007-1.005906-.3996063-.266405-.2664055-.399606-.601704-.399606-1.0059055v-6.7795275c0-1.4881965-.399602-2.6135133-1.198819-3.3759843-.799216-.762471-1.860229-1.1437008-3.183071-1.1437008-.771657 0-1.474406.1561664-2.108267.468504-.633862.3123375-1.12992.7349054-1.488189 1.2677165-.35827.532811-.537402 1.1299179-.537402 1.7913386v7.7716535c0 .4042015-.128608.7395-.385827 1.0059055-.257219.2664056-.59711.3996063-1.019685.3996063-.404201 0-.7395-.1332007-1.005905-.3996063-.266406-.2664055-.399607-.601704-.399607-1.0059055v-18.74015747c0-.42257429.133201-.7624659.399607-1.01968504.266405-.25721913.601704-.38582677 1.005905-.38582677.422575 0 .762466.12860764 1.019685.38582677.257219.25721914.385827.59711075.385827 1.01968504v6.75196847c.58793-.5879294 1.286085-1.0426493 2.094488-1.3641732s1.671912-.4822835 2.590551-.4822835zm12.732284-6.31102358c.404201 0 .7395.12860764 1.005905.38582677.266406.25721914.399607.59711075.399607 1.01968504v7.44094487c.643048-.7900302 1.42388-1.4055096 2.342519-1.8464567.91864-.4409471 1.910756-.6614173 2.976378-.6614173 1.322842 0 2.521649.3307054 3.596457.992126 1.074809.6614206 1.919945 1.5754535 2.535433 2.742126.615489 1.1666725.923229 2.4665282.923229 3.8996063 0 1.433078-.330706 2.7329338-.992126 3.8996063-.661421 1.1666725-1.575454 2.0852984-2.742126 2.7559055-1.166673.670607-2.457342 1.0059055-3.872048 1.0059055-1.414705 0-2.696188-.3352985-3.844488-1.0059055-1.1483-.6706071-2.057739-1.589233-2.728346-2.7559055s-1.005906-2.4665283-1.005906-3.8996063v-12.56692917c0-.42257429.128608-.7624659.385827-1.01968504.257219-.25721913.597111-.38582677 1.019685-.38582677zm6.173228 19.15354328c.91864 0 1.749997-.2250633 2.494095-.6751968s1.332019-1.070206 1.763779-1.8602362c.431761-.7900302.647638-1.6719112.647638-2.6456693 0-.9737582-.215877-1.851046-.647638-2.6318898-.43176-.7808438-1.019681-1.3963232-1.763779-1.8464567s-1.575455-.6751968-2.494095-.6751968c-.918639 0-1.749996.2250633-2.494094.6751968s-1.327426 1.0656129-1.75 1.8464567-.633858 1.6581316-.633858 2.6318898c0 .9737581.211284 1.8556391.633858 2.6456693s1.005902 1.4101027 1.75 1.8602362 1.575455.6751968 2.494094.6751968zm18.629922-12.8149606c1.45145 0 2.751306.3261122 3.899606.9783465 1.1483.6522342 2.048553 1.5570808 2.700787 2.7145669s.978347 2.4803075.978347 3.9685039c0 1.4698236-.321519 2.7834588-.964567 3.9409449s-1.538708 2.0623327-2.687008 2.7145669c-1.1483.6522343-2.457342.9783465-3.927165.9783465-1.469824 0-2.783459-.3261122-3.940945-.9783465-1.157486-.6522342-2.05774-1.5570808-2.700788-2.7145669s-.964567-2.4711213-.964567-3.9409449c0-1.4881964.321519-2.8110178.964567-3.9685039s1.543302-2.0623327 2.700788-2.7145669c1.157486-.6522343 2.471121-.9783465 3.940945-.9783465zm0 2.480315c-.937013 0-1.777556.2204702-2.521654.6614173s-1.327426 1.0564265-1.75 1.8464567-.633858 1.6810974-.633858 2.6732283c0 .992131.211284 1.878605.633858 2.6594488s1.005902 1.3917301 1.75 1.8326772 1.584641.6614173 2.521654.6614173c.937012 0 1.777555-.2204702 2.521653-.6614173s1.322833-1.0518334 1.736221-1.8326772c.413387-.7808438.620078-1.6673178.620078-2.6594488 0-.9921309-.206691-1.8831981-.620078-2.6732283-.413388-.7900302-.992123-1.4055096-1.736221-1.8464567s-1.584641-.6614173-2.521653-.6614173zm19.153543-2.5354331c.973758 0 1.736218.1469801 2.287401.4409449.551184.2939647.826772.6614151.826772 1.1023622 0 .1286095-.009186.2204721-.027559.2755905-.165355.5879295-.532806.8818898-1.102362.8818898-.091864 0-.229658-.0183725-.413386-.0551181-.734912-.1286096-1.332019-.1929134-1.791339-.1929134-1.322841 0-2.388447.3031466-3.19685.9094488-.808403.6063023-1.212598 1.4238794-1.212598 2.4527559v8.0472441c0 .4409471-.114829.7808387-.344489 1.0196851-.22966.2388463-.574144.3582677-1.033464.3582677-.440947 0-.780839-.1148283-1.019685-.3444882-.238847-.22966-.358268-.5741447-.358268-1.0334646v-12.3188976c0-.4409471.119421-.7808387.358268-1.0196851.238846-.2388463.578738-.3582677 1.019685-.3582677.91864 0 1.377953.459313 1.377953 1.3779528v.523622c.551183-.6430478 1.230967-1.1482921 2.03937-1.515748s1.671911-.5511811 2.590551-.5511811z" fill="#bbb" fill-rule="nonzero"/><path d="m46.5993353 9.53883695c0-3.33091811 2.5879339-6.2007874 6.2265809-6.2007874s6.1653127 2.97461154 6.1653127 6.2007874v21.69374995c0 3.3034186-2.8295888 6.2097934-6.1959468 6.2097934s-6.1959468-2.8028379-6.1959468-6.2097934 0-18.3628318 0-21.69374995z" fill="#bbb"/><path d="m53.1286915 13.0997414 3.6228965 13.9018876-5.0528326 5.0528326-1.0174509-16.5073331z" fill="#999" fill-opacity=".503196" transform="matrix(.70710678 -.70710678 .70710678 .70710678 -.231239 44.595943)"/><g fill="#bbb"><path d="m35.9952119 5.66400314c.0013001-3.32961798 2.5913651-6.19937802 6.2314334-6.20079937 3.6400684-.00142134 6.1665601 2.97104217 6.1653008 6.19595879-.0012592 3.22491662-.0103933 26.61723224-.0116826 29.91936144-.0012894 3.3021292-2.833118 6.2084749-6.200791 6.2097898-3.3676729.001315-6.1972731-2.7993235-6.1959433-6.2049492s.0103826-26.58974348.0116827-29.91936146z" transform="matrix(.70710678 -.70710678 .70710678 .70710678 -2.228112 35.872381)"/><path d="m14.1464837 4.77732704c-.0013001-3.32961798 2.5865245-6.1973562 6.2265929-6.19593485 3.6400683.00142135 6.1688821 2.97585881 6.1701413 6.20077543.0012593 3.22491662-.719806 27.34743158-.7185166 30.64956078s-2.8282703 6.2062642-6.1959433 6.2049493c-3.367673-.001315-6.1994611-2.8041642-6.2007909-6.2097899s.7198167-27.31994278.7185166-30.64956076z" transform="matrix(.70710678 .70710678 -.70710678 .70710678 20.072879 -8.242148)"/></g></g></svg>